%TF.GenerationSoftware,KiCad,Pcbnew,(5.1.12)-1*%
%TF.CreationDate,2022-03-31T16:19:31+09:00*%
%TF.ProjectId,NHK2022_Power_Supply,4e484b32-3032-4325-9f50-6f7765725f53,rev?*%
%TF.SameCoordinates,PX42c1d80PY8583b00*%
%TF.FileFunction,Copper,L1,Top*%
%TF.FilePolarity,Positive*%
%FSLAX46Y46*%
G04 Gerber Fmt 4.6, Leading zero omitted, Abs format (unit mm)*
G04 Created by KiCad (PCBNEW (5.1.12)-1) date 2022-03-31 16:19:31*
%MOMM*%
%LPD*%
G01*
G04 APERTURE LIST*
%TA.AperFunction,Profile*%
%ADD10C,0.050000*%
%TD*%
%TA.AperFunction,ComponentPad*%
%ADD11R,2.600000X2.600000*%
%TD*%
%TA.AperFunction,ComponentPad*%
%ADD12O,2.600000X2.600000*%
%TD*%
%TA.AperFunction,ComponentPad*%
%ADD13R,1.500000X1.500000*%
%TD*%
%TA.AperFunction,ComponentPad*%
%ADD14O,1.500000X1.500000*%
%TD*%
%TA.AperFunction,ComponentPad*%
%ADD15R,1.800000X1.800000*%
%TD*%
%TA.AperFunction,ComponentPad*%
%ADD16C,1.800000*%
%TD*%
%TA.AperFunction,ComponentPad*%
%ADD17R,1.600000X1.600000*%
%TD*%
%TA.AperFunction,ComponentPad*%
%ADD18O,1.600000X1.600000*%
%TD*%
%TA.AperFunction,ComponentPad*%
%ADD19C,3.400000*%
%TD*%
%TA.AperFunction,ComponentPad*%
%ADD20C,3.716000*%
%TD*%
%TA.AperFunction,ComponentPad*%
%ADD21R,3.716000X3.716000*%
%TD*%
%TA.AperFunction,ComponentPad*%
%ADD22O,2.400000X1.200000*%
%TD*%
%TA.AperFunction,ComponentPad*%
%ADD23O,1.700000X2.000000*%
%TD*%
%TA.AperFunction,ComponentPad*%
%ADD24O,2.000000X1.700000*%
%TD*%
%TA.AperFunction,ComponentPad*%
%ADD25C,1.600000*%
%TD*%
%TA.AperFunction,SMDPad,CuDef*%
%ADD26R,4.600000X1.100000*%
%TD*%
%TA.AperFunction,SMDPad,CuDef*%
%ADD27R,9.400000X10.800000*%
%TD*%
%TA.AperFunction,Conductor*%
%ADD28C,1.000000*%
%TD*%
%TA.AperFunction,Conductor*%
%ADD29C,0.254000*%
%TD*%
%TA.AperFunction,Conductor*%
%ADD30C,0.100000*%
%TD*%
%ADD31C,0.350000*%
%ADD32O,1.700000X1.000000*%
%ADD33O,1.700000X0.600000*%
G04 APERTURE END LIST*
D10*
X70000000Y-70000000D02*
X70000000Y-134000000D01*
X170000000Y-70000000D02*
X170000000Y-136000000D01*
X74000000Y-66000000D02*
X166000000Y-66000000D01*
X74000000Y-140000000D02*
X166000000Y-140000000D01*
X70000000Y-134000000D02*
X70000000Y-136000000D01*
X166000000Y-66000000D02*
G75*
G02*
X170000000Y-70000000I0J-4000000D01*
G01*
X70000000Y-70000000D02*
G75*
G02*
X74000000Y-66000000I4000000J0D01*
G01*
X170000000Y-136000000D02*
G75*
G02*
X166000000Y-140000000I-4000000J0D01*
G01*
X74000000Y-140000000D02*
G75*
G02*
X70000000Y-136000000I0J4000000D01*
G01*
D11*
%TO.P,D1,1*%
%TO.N,VCC*%
X151000000Y-111500000D03*
D12*
%TO.P,D1,2*%
%TO.N,GND*%
X151000000Y-98800000D03*
%TD*%
D13*
%TO.P,D2,1*%
%TO.N,Net-(D2-Pad1)*%
X116500000Y-119500000D03*
D14*
%TO.P,D2,2*%
%TO.N,GND*%
X124120000Y-119500000D03*
%TD*%
D15*
%TO.P,D3,1*%
%TO.N,Net-(D3-Pad1)*%
X141000000Y-116500000D03*
D16*
%TO.P,D3,2*%
%TO.N,Net-(D3-Pad2)*%
X141000000Y-119040000D03*
%TD*%
D17*
%TO.P,D4,1*%
%TO.N,Net-(D3-Pad2)*%
X140500000Y-124500000D03*
D18*
%TO.P,D4,2*%
%TO.N,GND*%
X148120000Y-124500000D03*
%TD*%
D19*
%TO.P,F1,1*%
%TO.N,+BATT*%
X106000000Y-84300000D03*
X106000000Y-91920000D03*
%TO.P,F1,2*%
%TO.N,VCC*%
X106000000Y-114240000D03*
X106000000Y-121860000D03*
%TD*%
D20*
%TO.P,Power_Supply,2*%
%TO.N,GND*%
X85000000Y-91600000D03*
D21*
%TO.P,Power_Supply,1*%
%TO.N,+BATT*%
X85000000Y-84400000D03*
D22*
%TO.P,Power_Supply,S2*%
%TO.N,N/C*%
X79000000Y-94750000D03*
%TO.P,Power_Supply,S1*%
X79000000Y-81250000D03*
%TD*%
D23*
%TO.P,LED,2*%
%TO.N,GND*%
X85500000Y-75000000D03*
%TO.P,LED,1*%
%TO.N,Net-(J2-Pad1)*%
%TA.AperFunction,ComponentPad*%
G36*
G01*
X88850000Y-74250000D02*
X88850000Y-75750000D01*
G75*
G02*
X88600000Y-76000000I-250000J0D01*
G01*
X87400000Y-76000000D01*
G75*
G02*
X87150000Y-75750000I0J250000D01*
G01*
X87150000Y-74250000D01*
G75*
G02*
X87400000Y-74000000I250000J0D01*
G01*
X88600000Y-74000000D01*
G75*
G02*
X88850000Y-74250000I0J-250000D01*
G01*
G37*
%TD.AperFunction*%
%TD*%
%TO.P,MiCon1,1*%
%TO.N,Net-(C2-Pad1)*%
%TA.AperFunction,ComponentPad*%
G36*
G01*
X77750000Y-102150000D02*
X79250000Y-102150000D01*
G75*
G02*
X79500000Y-102400000I0J-250000D01*
G01*
X79500000Y-103600000D01*
G75*
G02*
X79250000Y-103850000I-250000J0D01*
G01*
X77750000Y-103850000D01*
G75*
G02*
X77500000Y-103600000I0J250000D01*
G01*
X77500000Y-102400000D01*
G75*
G02*
X77750000Y-102150000I250000J0D01*
G01*
G37*
%TD.AperFunction*%
D24*
%TO.P,MiCon1,2*%
%TO.N,GND*%
X78500000Y-105500000D03*
%TD*%
%TO.P,MiCon2,2*%
%TO.N,GND*%
X78500000Y-116500000D03*
%TO.P,MiCon2,1*%
%TO.N,Net-(C2-Pad1)*%
%TA.AperFunction,ComponentPad*%
G36*
G01*
X77750000Y-113150000D02*
X79250000Y-113150000D01*
G75*
G02*
X79500000Y-113400000I0J-250000D01*
G01*
X79500000Y-114600000D01*
G75*
G02*
X79250000Y-114850000I-250000J0D01*
G01*
X77750000Y-114850000D01*
G75*
G02*
X77500000Y-114600000I0J250000D01*
G01*
X77500000Y-113400000D01*
G75*
G02*
X77750000Y-113150000I250000J0D01*
G01*
G37*
%TD.AperFunction*%
%TD*%
%TO.P,MiCon3,1*%
%TO.N,Net-(C2-Pad1)*%
%TA.AperFunction,ComponentPad*%
G36*
G01*
X77750000Y-124150000D02*
X79250000Y-124150000D01*
G75*
G02*
X79500000Y-124400000I0J-250000D01*
G01*
X79500000Y-125600000D01*
G75*
G02*
X79250000Y-125850000I-250000J0D01*
G01*
X77750000Y-125850000D01*
G75*
G02*
X77500000Y-125600000I0J250000D01*
G01*
X77500000Y-124400000D01*
G75*
G02*
X77750000Y-124150000I250000J0D01*
G01*
G37*
%TD.AperFunction*%
%TO.P,MiCon3,2*%
%TO.N,GND*%
X78500000Y-127500000D03*
%TD*%
%TO.P,Conn,1*%
%TO.N,Net-(D2-Pad1)*%
%TA.AperFunction,ComponentPad*%
G36*
G01*
X87150000Y-132750000D02*
X87150000Y-131250000D01*
G75*
G02*
X87400000Y-131000000I250000J0D01*
G01*
X88600000Y-131000000D01*
G75*
G02*
X88850000Y-131250000I0J-250000D01*
G01*
X88850000Y-132750000D01*
G75*
G02*
X88600000Y-133000000I-250000J0D01*
G01*
X87400000Y-133000000D01*
G75*
G02*
X87150000Y-132750000I0J250000D01*
G01*
G37*
%TD.AperFunction*%
D23*
%TO.P,Conn,2*%
%TO.N,GND*%
X90500000Y-132000000D03*
%TD*%
%TO.P,Switch,1*%
%TO.N,VCC*%
%TA.AperFunction,ComponentPad*%
G36*
G01*
X98150000Y-132750000D02*
X98150000Y-131250000D01*
G75*
G02*
X98400000Y-131000000I250000J0D01*
G01*
X99600000Y-131000000D01*
G75*
G02*
X99850000Y-131250000I0J-250000D01*
G01*
X99850000Y-132750000D01*
G75*
G02*
X99600000Y-133000000I-250000J0D01*
G01*
X98400000Y-133000000D01*
G75*
G02*
X98150000Y-132750000I0J250000D01*
G01*
G37*
%TD.AperFunction*%
%TO.P,Switch,2*%
%TO.N,Net-(D3-Pad2)*%
X101500000Y-132000000D03*
%TD*%
%TO.P,Coil,2*%
%TO.N,GND*%
X112500000Y-132000000D03*
%TO.P,Coil,1*%
%TO.N,Net-(D3-Pad2)*%
%TA.AperFunction,ComponentPad*%
G36*
G01*
X109150000Y-132750000D02*
X109150000Y-131250000D01*
G75*
G02*
X109400000Y-131000000I250000J0D01*
G01*
X110600000Y-131000000D01*
G75*
G02*
X110850000Y-131250000I0J-250000D01*
G01*
X110850000Y-132750000D01*
G75*
G02*
X110600000Y-133000000I-250000J0D01*
G01*
X109400000Y-133000000D01*
G75*
G02*
X109150000Y-132750000I0J250000D01*
G01*
G37*
%TD.AperFunction*%
%TD*%
%TO.P,12v_1,1*%
%TO.N,VCC*%
%TA.AperFunction,ComponentPad*%
G36*
G01*
X99850000Y-74250000D02*
X99850000Y-75750000D01*
G75*
G02*
X99600000Y-76000000I-250000J0D01*
G01*
X98400000Y-76000000D01*
G75*
G02*
X98150000Y-75750000I0J250000D01*
G01*
X98150000Y-74250000D01*
G75*
G02*
X98400000Y-74000000I250000J0D01*
G01*
X99600000Y-74000000D01*
G75*
G02*
X99850000Y-74250000I0J-250000D01*
G01*
G37*
%TD.AperFunction*%
%TO.P,12v_1,2*%
%TO.N,GND*%
X96500000Y-75000000D03*
%TD*%
%TO.P,12v_2,2*%
%TO.N,GND*%
X107500000Y-75000000D03*
%TO.P,12v_2,1*%
%TO.N,VCC*%
%TA.AperFunction,ComponentPad*%
G36*
G01*
X110850000Y-74250000D02*
X110850000Y-75750000D01*
G75*
G02*
X110600000Y-76000000I-250000J0D01*
G01*
X109400000Y-76000000D01*
G75*
G02*
X109150000Y-75750000I0J250000D01*
G01*
X109150000Y-74250000D01*
G75*
G02*
X109400000Y-74000000I250000J0D01*
G01*
X110600000Y-74000000D01*
G75*
G02*
X110850000Y-74250000I0J-250000D01*
G01*
G37*
%TD.AperFunction*%
%TD*%
%TO.P,12v_3,1*%
%TO.N,VCC*%
%TA.AperFunction,ComponentPad*%
G36*
G01*
X121850000Y-74250000D02*
X121850000Y-75750000D01*
G75*
G02*
X121600000Y-76000000I-250000J0D01*
G01*
X120400000Y-76000000D01*
G75*
G02*
X120150000Y-75750000I0J250000D01*
G01*
X120150000Y-74250000D01*
G75*
G02*
X120400000Y-74000000I250000J0D01*
G01*
X121600000Y-74000000D01*
G75*
G02*
X121850000Y-74250000I0J-250000D01*
G01*
G37*
%TD.AperFunction*%
%TO.P,12v_3,2*%
%TO.N,GND*%
X118500000Y-75000000D03*
%TD*%
%TO.P,12v_4,2*%
%TO.N,GND*%
X129500000Y-75000000D03*
%TO.P,12v_4,1*%
%TO.N,VCC*%
%TA.AperFunction,ComponentPad*%
G36*
G01*
X132850000Y-74250000D02*
X132850000Y-75750000D01*
G75*
G02*
X132600000Y-76000000I-250000J0D01*
G01*
X131400000Y-76000000D01*
G75*
G02*
X131150000Y-75750000I0J250000D01*
G01*
X131150000Y-74250000D01*
G75*
G02*
X131400000Y-74000000I250000J0D01*
G01*
X132600000Y-74000000D01*
G75*
G02*
X132850000Y-74250000I0J-250000D01*
G01*
G37*
%TD.AperFunction*%
%TD*%
%TO.P,12v_5,1*%
%TO.N,VCC*%
%TA.AperFunction,ComponentPad*%
G36*
G01*
X143850000Y-74250000D02*
X143850000Y-75750000D01*
G75*
G02*
X143600000Y-76000000I-250000J0D01*
G01*
X142400000Y-76000000D01*
G75*
G02*
X142150000Y-75750000I0J250000D01*
G01*
X142150000Y-74250000D01*
G75*
G02*
X142400000Y-74000000I250000J0D01*
G01*
X143600000Y-74000000D01*
G75*
G02*
X143850000Y-74250000I0J-250000D01*
G01*
G37*
%TD.AperFunction*%
%TO.P,12v_5,2*%
%TO.N,GND*%
X140500000Y-75000000D03*
%TD*%
%TO.P,12v_6,2*%
%TO.N,GND*%
X151500000Y-75000000D03*
%TO.P,12v_6,1*%
%TO.N,VCC*%
%TA.AperFunction,ComponentPad*%
G36*
G01*
X154850000Y-74250000D02*
X154850000Y-75750000D01*
G75*
G02*
X154600000Y-76000000I-250000J0D01*
G01*
X153400000Y-76000000D01*
G75*
G02*
X153150000Y-75750000I0J250000D01*
G01*
X153150000Y-74250000D01*
G75*
G02*
X153400000Y-74000000I250000J0D01*
G01*
X154600000Y-74000000D01*
G75*
G02*
X154850000Y-74250000I0J-250000D01*
G01*
G37*
%TD.AperFunction*%
%TD*%
%TO.P,12v_7,2*%
%TO.N,GND*%
X156500000Y-132000000D03*
%TO.P,12v_7,1*%
%TO.N,VCC*%
%TA.AperFunction,ComponentPad*%
G36*
G01*
X153150000Y-132750000D02*
X153150000Y-131250000D01*
G75*
G02*
X153400000Y-131000000I250000J0D01*
G01*
X154600000Y-131000000D01*
G75*
G02*
X154850000Y-131250000I0J-250000D01*
G01*
X154850000Y-132750000D01*
G75*
G02*
X154600000Y-133000000I-250000J0D01*
G01*
X153400000Y-133000000D01*
G75*
G02*
X153150000Y-132750000I0J250000D01*
G01*
G37*
%TD.AperFunction*%
%TD*%
%TO.P,12v_8,1*%
%TO.N,VCC*%
%TA.AperFunction,ComponentPad*%
G36*
G01*
X142150000Y-132750000D02*
X142150000Y-131250000D01*
G75*
G02*
X142400000Y-131000000I250000J0D01*
G01*
X143600000Y-131000000D01*
G75*
G02*
X143850000Y-131250000I0J-250000D01*
G01*
X143850000Y-132750000D01*
G75*
G02*
X143600000Y-133000000I-250000J0D01*
G01*
X142400000Y-133000000D01*
G75*
G02*
X142150000Y-132750000I0J250000D01*
G01*
G37*
%TD.AperFunction*%
%TO.P,12v_8,2*%
%TO.N,GND*%
X145500000Y-132000000D03*
%TD*%
%TO.P,12v_9,2*%
%TO.N,GND*%
X134500000Y-132000000D03*
%TO.P,12v_9,1*%
%TO.N,VCC*%
%TA.AperFunction,ComponentPad*%
G36*
G01*
X131150000Y-132750000D02*
X131150000Y-131250000D01*
G75*
G02*
X131400000Y-131000000I250000J0D01*
G01*
X132600000Y-131000000D01*
G75*
G02*
X132850000Y-131250000I0J-250000D01*
G01*
X132850000Y-132750000D01*
G75*
G02*
X132600000Y-133000000I-250000J0D01*
G01*
X131400000Y-133000000D01*
G75*
G02*
X131150000Y-132750000I0J250000D01*
G01*
G37*
%TD.AperFunction*%
%TD*%
%TO.P,12v_10,1*%
%TO.N,VCC*%
%TA.AperFunction,ComponentPad*%
G36*
G01*
X120150000Y-132750000D02*
X120150000Y-131250000D01*
G75*
G02*
X120400000Y-131000000I250000J0D01*
G01*
X121600000Y-131000000D01*
G75*
G02*
X121850000Y-131250000I0J-250000D01*
G01*
X121850000Y-132750000D01*
G75*
G02*
X121600000Y-133000000I-250000J0D01*
G01*
X120400000Y-133000000D01*
G75*
G02*
X120150000Y-132750000I0J250000D01*
G01*
G37*
%TD.AperFunction*%
%TO.P,12v_10,2*%
%TO.N,GND*%
X123500000Y-132000000D03*
%TD*%
D18*
%TO.P,R1,2*%
%TO.N,Net-(R1-Pad2)*%
X86000000Y-113620000D03*
D25*
%TO.P,R1,1*%
%TO.N,Net-(C2-Pad1)*%
X86000000Y-106000000D03*
%TD*%
%TO.P,R2,1*%
%TO.N,Net-(R1-Pad2)*%
X86000000Y-117000000D03*
D18*
%TO.P,R2,2*%
%TO.N,GND*%
X86000000Y-124620000D03*
%TD*%
D25*
%TO.P,R3,1*%
%TO.N,Net-(J2-Pad1)*%
X143000000Y-109000000D03*
D18*
%TO.P,R3,2*%
%TO.N,VCC*%
X143000000Y-101380000D03*
%TD*%
%TO.P,R4,2*%
%TO.N,Net-(D2-Pad1)*%
X124120000Y-124500000D03*
D25*
%TO.P,R4,1*%
%TO.N,Net-(D3-Pad2)*%
X116500000Y-124500000D03*
%TD*%
%TO.P,R5,1*%
%TO.N,Net-(D3-Pad1)*%
X128500000Y-124500000D03*
D18*
%TO.P,R5,2*%
%TO.N,GND*%
X136120000Y-124500000D03*
%TD*%
D26*
%TO.P,U1,1*%
%TO.N,VCC*%
X117350000Y-100600000D03*
%TO.P,U1,2*%
X117350000Y-102300000D03*
%TO.P,U1,3*%
%TO.N,GND*%
X117350000Y-104000000D03*
%TO.P,U1,4*%
%TO.N,Net-(C2-Pad1)*%
X117350000Y-105700000D03*
%TO.P,U1,5*%
%TO.N,Net-(R1-Pad2)*%
X117350000Y-107400000D03*
D27*
%TO.P,U1,3*%
%TO.N,GND*%
X126500000Y-104000000D03*
%TD*%
D17*
%TO.P,C1,1*%
%TO.N,VCC*%
X152000000Y-88000000D03*
D25*
%TO.P,C1,2*%
%TO.N,GND*%
X152000000Y-85500000D03*
%TD*%
%TO.P,C2,2*%
%TO.N,GND*%
X95500000Y-107000000D03*
D17*
%TO.P,C2,1*%
%TO.N,Net-(C2-Pad1)*%
X93000000Y-107000000D03*
%TD*%
D28*
%TO.N,GND*%
X117350000Y-104000000D02*
X126500000Y-104000000D01*
X126500000Y-117120000D02*
X124120000Y-119500000D01*
X126500000Y-104000000D02*
X126500000Y-117120000D01*
%TO.N,Net-(D3-Pad1)*%
X136500000Y-116500000D02*
X128500000Y-124500000D01*
X141000000Y-116500000D02*
X136500000Y-116500000D01*
%TO.N,Net-(J2-Pad1)*%
X144500001Y-107499999D02*
X143000000Y-109000000D01*
X145500000Y-84000000D02*
X145500000Y-106500000D01*
X133000000Y-71500000D02*
X145500000Y-84000000D01*
X91500000Y-71500000D02*
X133000000Y-71500000D01*
X145500000Y-106500000D02*
X144500001Y-107499999D01*
X88000000Y-75000000D02*
X91500000Y-71500000D01*
%TO.N,Net-(C2-Pad1)*%
X76799990Y-123299990D02*
X78500000Y-125000000D01*
X78500000Y-114000000D02*
X76799990Y-115700010D01*
X92000000Y-106000000D02*
X93000000Y-107000000D01*
X86000000Y-106000000D02*
X92000000Y-106000000D01*
X94500001Y-105499999D02*
X93000000Y-107000000D01*
X97420002Y-105700000D02*
X97220001Y-105499999D01*
X97220001Y-105499999D02*
X94500001Y-105499999D01*
X113700000Y-105700000D02*
X117350000Y-105700000D01*
X97420002Y-105700000D02*
X113700000Y-105700000D01*
X81500000Y-106000000D02*
X78500000Y-103000000D01*
X86000000Y-106000000D02*
X81500000Y-106000000D01*
X76799990Y-112299990D02*
X78500000Y-114000000D01*
X76799990Y-104700010D02*
X76799990Y-112299990D01*
X78500000Y-103000000D02*
X76799990Y-104700010D01*
X76799990Y-115700010D02*
X76799990Y-123299990D01*
%TO.N,Net-(D2-Pad1)*%
X119120000Y-119500000D02*
X124120000Y-124500000D01*
X116500000Y-119500000D02*
X119120000Y-119500000D01*
X116500000Y-119500000D02*
X114750000Y-119500000D01*
X100540001Y-119459999D02*
X88000000Y-132000000D01*
X114709999Y-119459999D02*
X100540001Y-119459999D01*
X114750000Y-119500000D02*
X114709999Y-119459999D01*
%TO.N,Net-(D3-Pad2)*%
X140500000Y-119540000D02*
X141000000Y-119040000D01*
X140500000Y-124500000D02*
X140500000Y-119540000D01*
X110000000Y-131000000D02*
X110000000Y-132000000D01*
X116500000Y-124500000D02*
X110000000Y-131000000D01*
X110000000Y-132000000D02*
X101500000Y-132000000D01*
X138999999Y-126000001D02*
X140500000Y-124500000D01*
X118000001Y-126000001D02*
X138999999Y-126000001D01*
X116500000Y-124500000D02*
X118000001Y-126000001D01*
%TO.N,Net-(R1-Pad2)*%
X95380000Y-113620000D02*
X86000000Y-113620000D01*
X101600000Y-107400000D02*
X95380000Y-113620000D01*
X117350000Y-107400000D02*
X101600000Y-107400000D01*
X86000000Y-113620000D02*
X86000000Y-117000000D01*
%TD*%
D29*
%TO.N,VCC*%
X166648126Y-66726714D02*
X167271572Y-66914943D01*
X167846579Y-67220681D01*
X168351247Y-67632279D01*
X168766362Y-68134067D01*
X169076105Y-68706924D01*
X169268682Y-69329039D01*
X169340000Y-70007584D01*
X169340001Y-135967711D01*
X169273286Y-136648126D01*
X169085057Y-137271570D01*
X168779323Y-137846573D01*
X168367721Y-138351248D01*
X167865933Y-138766362D01*
X167293077Y-139076104D01*
X166670961Y-139268682D01*
X165992417Y-139340000D01*
X74032279Y-139340000D01*
X73351874Y-139273286D01*
X72728430Y-139085057D01*
X72153427Y-138779323D01*
X71648752Y-138367721D01*
X71233638Y-137865933D01*
X70923896Y-137293077D01*
X70731318Y-136670961D01*
X70660000Y-135992417D01*
X70660000Y-135779872D01*
X71765000Y-135779872D01*
X71765000Y-136220128D01*
X71850890Y-136651925D01*
X72019369Y-137058669D01*
X72263962Y-137424729D01*
X72575271Y-137736038D01*
X72941331Y-137980631D01*
X73348075Y-138149110D01*
X73779872Y-138235000D01*
X74220128Y-138235000D01*
X74651925Y-138149110D01*
X75058669Y-137980631D01*
X75424729Y-137736038D01*
X75736038Y-137424729D01*
X75980631Y-137058669D01*
X76149110Y-136651925D01*
X76235000Y-136220128D01*
X76235000Y-135779872D01*
X163765000Y-135779872D01*
X163765000Y-136220128D01*
X163850890Y-136651925D01*
X164019369Y-137058669D01*
X164263962Y-137424729D01*
X164575271Y-137736038D01*
X164941331Y-137980631D01*
X165348075Y-138149110D01*
X165779872Y-138235000D01*
X166220128Y-138235000D01*
X166651925Y-138149110D01*
X167058669Y-137980631D01*
X167424729Y-137736038D01*
X167736038Y-137424729D01*
X167980631Y-137058669D01*
X168149110Y-136651925D01*
X168235000Y-136220128D01*
X168235000Y-135779872D01*
X168149110Y-135348075D01*
X167980631Y-134941331D01*
X167736038Y-134575271D01*
X167424729Y-134263962D01*
X167058669Y-134019369D01*
X166651925Y-133850890D01*
X166220128Y-133765000D01*
X165779872Y-133765000D01*
X165348075Y-133850890D01*
X164941331Y-134019369D01*
X164575271Y-134263962D01*
X164263962Y-134575271D01*
X164019369Y-134941331D01*
X163850890Y-135348075D01*
X163765000Y-135779872D01*
X76235000Y-135779872D01*
X76149110Y-135348075D01*
X75980631Y-134941331D01*
X75736038Y-134575271D01*
X75424729Y-134263962D01*
X75058669Y-134019369D01*
X74651925Y-133850890D01*
X74220128Y-133765000D01*
X73779872Y-133765000D01*
X73348075Y-133850890D01*
X72941331Y-134019369D01*
X72575271Y-134263962D01*
X72263962Y-134575271D01*
X72019369Y-134941331D01*
X71850890Y-135348075D01*
X71765000Y-135779872D01*
X70660000Y-135779872D01*
X70660000Y-131250000D01*
X86511928Y-131250000D01*
X86511928Y-132750000D01*
X86528992Y-132923254D01*
X86579528Y-133089850D01*
X86661595Y-133243386D01*
X86772038Y-133377962D01*
X86906614Y-133488405D01*
X87060150Y-133570472D01*
X87226746Y-133621008D01*
X87400000Y-133638072D01*
X88600000Y-133638072D01*
X88773254Y-133621008D01*
X88939850Y-133570472D01*
X89093386Y-133488405D01*
X89227962Y-133377962D01*
X89338405Y-133243386D01*
X89392777Y-133141663D01*
X89444866Y-133205134D01*
X89670987Y-133390706D01*
X89928967Y-133528599D01*
X90208890Y-133613513D01*
X90500000Y-133642185D01*
X90791111Y-133613513D01*
X91071034Y-133528599D01*
X91329014Y-133390706D01*
X91555134Y-133205134D01*
X91723483Y-133000000D01*
X97511928Y-133000000D01*
X97524188Y-133124482D01*
X97560498Y-133244180D01*
X97619463Y-133354494D01*
X97698815Y-133451185D01*
X97795506Y-133530537D01*
X97905820Y-133589502D01*
X98025518Y-133625812D01*
X98150000Y-133638072D01*
X98714250Y-133635000D01*
X98873000Y-133476250D01*
X98873000Y-132127000D01*
X97673750Y-132127000D01*
X97515000Y-132285750D01*
X97511928Y-133000000D01*
X91723483Y-133000000D01*
X91740706Y-132979014D01*
X91878599Y-132721033D01*
X91963513Y-132441110D01*
X91985000Y-132222949D01*
X91985000Y-131777050D01*
X91963513Y-131558889D01*
X91878599Y-131278966D01*
X91740706Y-131020986D01*
X91723484Y-131000000D01*
X97511928Y-131000000D01*
X97515000Y-131714250D01*
X97673750Y-131873000D01*
X98873000Y-131873000D01*
X98873000Y-130523750D01*
X98714250Y-130365000D01*
X98150000Y-130361928D01*
X98025518Y-130374188D01*
X97905820Y-130410498D01*
X97795506Y-130469463D01*
X97698815Y-130548815D01*
X97619463Y-130645506D01*
X97560498Y-130755820D01*
X97524188Y-130875518D01*
X97511928Y-131000000D01*
X91723484Y-131000000D01*
X91555134Y-130794866D01*
X91329013Y-130609294D01*
X91111891Y-130493240D01*
X98111108Y-123494023D01*
X104545582Y-123494023D01*
X104725648Y-123830060D01*
X105134474Y-124040820D01*
X105576562Y-124167772D01*
X106034922Y-124206037D01*
X106491940Y-124154146D01*
X106930053Y-124014092D01*
X107274352Y-123830060D01*
X107454418Y-123494023D01*
X106000000Y-122039605D01*
X104545582Y-123494023D01*
X98111108Y-123494023D01*
X101010133Y-120594999D01*
X104025119Y-120594999D01*
X103819180Y-120994474D01*
X103692228Y-121436562D01*
X103653963Y-121894922D01*
X103705854Y-122351940D01*
X103845908Y-122790053D01*
X104029940Y-123134352D01*
X104365977Y-123314418D01*
X105820395Y-121860000D01*
X105806253Y-121845858D01*
X105985858Y-121666253D01*
X106000000Y-121680395D01*
X106014143Y-121666253D01*
X106193748Y-121845858D01*
X106179605Y-121860000D01*
X107634023Y-123314418D01*
X107970060Y-123134352D01*
X108180820Y-122725526D01*
X108307772Y-122283438D01*
X108346037Y-121825078D01*
X108294146Y-121368060D01*
X108154092Y-120929947D01*
X107975058Y-120594999D01*
X114449775Y-120594999D01*
X114527501Y-120618577D01*
X114694248Y-120635000D01*
X114694249Y-120635000D01*
X114750000Y-120640491D01*
X114805751Y-120635000D01*
X115244499Y-120635000D01*
X115298815Y-120701185D01*
X115395506Y-120780537D01*
X115505820Y-120839502D01*
X115625518Y-120875812D01*
X115750000Y-120888072D01*
X117250000Y-120888072D01*
X117374482Y-120875812D01*
X117494180Y-120839502D01*
X117604494Y-120780537D01*
X117701185Y-120701185D01*
X117755501Y-120635000D01*
X118649869Y-120635000D01*
X122692150Y-124677282D01*
X122729491Y-124865001D01*
X118470133Y-124865001D01*
X117927850Y-124322718D01*
X117879853Y-124081426D01*
X117771680Y-123820273D01*
X117614637Y-123585241D01*
X117414759Y-123385363D01*
X117179727Y-123228320D01*
X116918574Y-123120147D01*
X116641335Y-123065000D01*
X116358665Y-123065000D01*
X116081426Y-123120147D01*
X115820273Y-123228320D01*
X115585241Y-123385363D01*
X115385363Y-123585241D01*
X115228320Y-123820273D01*
X115120147Y-124081426D01*
X115072150Y-124322718D01*
X109236865Y-130158004D01*
X109193551Y-130193551D01*
X109051716Y-130366377D01*
X109001087Y-130461098D01*
X108906614Y-130511595D01*
X108772038Y-130622038D01*
X108661595Y-130756614D01*
X108603661Y-130865000D01*
X102612692Y-130865000D01*
X102555134Y-130794866D01*
X102329013Y-130609294D01*
X102071033Y-130471401D01*
X101791110Y-130386487D01*
X101500000Y-130357815D01*
X101208889Y-130386487D01*
X100928966Y-130471401D01*
X100670986Y-130609294D01*
X100450055Y-130790608D01*
X100439502Y-130755820D01*
X100380537Y-130645506D01*
X100301185Y-130548815D01*
X100204494Y-130469463D01*
X100094180Y-130410498D01*
X99974482Y-130374188D01*
X99850000Y-130361928D01*
X99285750Y-130365000D01*
X99127000Y-130523750D01*
X99127000Y-131873000D01*
X99147000Y-131873000D01*
X99147000Y-132127000D01*
X99127000Y-132127000D01*
X99127000Y-133476250D01*
X99285750Y-133635000D01*
X99850000Y-133638072D01*
X99974482Y-133625812D01*
X100094180Y-133589502D01*
X100204494Y-133530537D01*
X100301185Y-133451185D01*
X100380537Y-133354494D01*
X100439502Y-133244180D01*
X100450055Y-133209392D01*
X100670987Y-133390706D01*
X100928967Y-133528599D01*
X101208890Y-133613513D01*
X101500000Y-133642185D01*
X101791111Y-133613513D01*
X102071034Y-133528599D01*
X102329014Y-133390706D01*
X102555134Y-133205134D01*
X102612692Y-133135000D01*
X108603661Y-133135000D01*
X108661595Y-133243386D01*
X108772038Y-133377962D01*
X108906614Y-133488405D01*
X109060150Y-133570472D01*
X109226746Y-133621008D01*
X109400000Y-133638072D01*
X110600000Y-133638072D01*
X110773254Y-133621008D01*
X110939850Y-133570472D01*
X111093386Y-133488405D01*
X111227962Y-133377962D01*
X111338405Y-133243386D01*
X111392777Y-133141663D01*
X111444866Y-133205134D01*
X111670987Y-133390706D01*
X111928967Y-133528599D01*
X112208890Y-133613513D01*
X112500000Y-133642185D01*
X112791111Y-133613513D01*
X113071034Y-133528599D01*
X113329014Y-133390706D01*
X113555134Y-133205134D01*
X113723483Y-133000000D01*
X119511928Y-133000000D01*
X119524188Y-133124482D01*
X119560498Y-133244180D01*
X119619463Y-133354494D01*
X119698815Y-133451185D01*
X119795506Y-133530537D01*
X119905820Y-133589502D01*
X120025518Y-133625812D01*
X120150000Y-133638072D01*
X120714250Y-133635000D01*
X120873000Y-133476250D01*
X120873000Y-132127000D01*
X119673750Y-132127000D01*
X119515000Y-132285750D01*
X119511928Y-133000000D01*
X113723483Y-133000000D01*
X113740706Y-132979014D01*
X113878599Y-132721033D01*
X113963513Y-132441110D01*
X113985000Y-132222949D01*
X113985000Y-131777050D01*
X113963513Y-131558889D01*
X113878599Y-131278966D01*
X113740706Y-131020986D01*
X113723484Y-131000000D01*
X119511928Y-131000000D01*
X119515000Y-131714250D01*
X119673750Y-131873000D01*
X120873000Y-131873000D01*
X120873000Y-130523750D01*
X121127000Y-130523750D01*
X121127000Y-131873000D01*
X121147000Y-131873000D01*
X121147000Y-132127000D01*
X121127000Y-132127000D01*
X121127000Y-133476250D01*
X121285750Y-133635000D01*
X121850000Y-133638072D01*
X121974482Y-133625812D01*
X122094180Y-133589502D01*
X122204494Y-133530537D01*
X122301185Y-133451185D01*
X122380537Y-133354494D01*
X122439502Y-133244180D01*
X122450055Y-133209392D01*
X122670987Y-133390706D01*
X122928967Y-133528599D01*
X123208890Y-133613513D01*
X123500000Y-133642185D01*
X123791111Y-133613513D01*
X124071034Y-133528599D01*
X124329014Y-133390706D01*
X124555134Y-133205134D01*
X124723483Y-133000000D01*
X130511928Y-133000000D01*
X130524188Y-133124482D01*
X130560498Y-133244180D01*
X130619463Y-133354494D01*
X130698815Y-133451185D01*
X130795506Y-133530537D01*
X130905820Y-133589502D01*
X131025518Y-133625812D01*
X131150000Y-133638072D01*
X131714250Y-133635000D01*
X131873000Y-133476250D01*
X131873000Y-132127000D01*
X130673750Y-132127000D01*
X130515000Y-132285750D01*
X130511928Y-133000000D01*
X124723483Y-133000000D01*
X124740706Y-132979014D01*
X124878599Y-132721033D01*
X124963513Y-132441110D01*
X124985000Y-132222949D01*
X124985000Y-131777050D01*
X124963513Y-131558889D01*
X124878599Y-131278966D01*
X124740706Y-131020986D01*
X124723484Y-131000000D01*
X130511928Y-131000000D01*
X130515000Y-131714250D01*
X130673750Y-131873000D01*
X131873000Y-131873000D01*
X131873000Y-130523750D01*
X132127000Y-130523750D01*
X132127000Y-131873000D01*
X132147000Y-131873000D01*
X132147000Y-132127000D01*
X132127000Y-132127000D01*
X132127000Y-133476250D01*
X132285750Y-133635000D01*
X132850000Y-133638072D01*
X132974482Y-133625812D01*
X133094180Y-133589502D01*
X133204494Y-133530537D01*
X133301185Y-133451185D01*
X133380537Y-133354494D01*
X133439502Y-133244180D01*
X133450055Y-133209392D01*
X133670987Y-133390706D01*
X133928967Y-133528599D01*
X134208890Y-133613513D01*
X134500000Y-133642185D01*
X134791111Y-133613513D01*
X135071034Y-133528599D01*
X135329014Y-133390706D01*
X135555134Y-133205134D01*
X135723483Y-133000000D01*
X141511928Y-133000000D01*
X141524188Y-133124482D01*
X141560498Y-133244180D01*
X141619463Y-133354494D01*
X141698815Y-133451185D01*
X141795506Y-133530537D01*
X141905820Y-133589502D01*
X142025518Y-133625812D01*
X142150000Y-133638072D01*
X142714250Y-133635000D01*
X142873000Y-133476250D01*
X142873000Y-132127000D01*
X141673750Y-132127000D01*
X141515000Y-132285750D01*
X141511928Y-133000000D01*
X135723483Y-133000000D01*
X135740706Y-132979014D01*
X135878599Y-132721033D01*
X135963513Y-132441110D01*
X135985000Y-132222949D01*
X135985000Y-131777050D01*
X135963513Y-131558889D01*
X135878599Y-131278966D01*
X135740706Y-131020986D01*
X135723484Y-131000000D01*
X141511928Y-131000000D01*
X141515000Y-131714250D01*
X141673750Y-131873000D01*
X142873000Y-131873000D01*
X142873000Y-130523750D01*
X143127000Y-130523750D01*
X143127000Y-131873000D01*
X143147000Y-131873000D01*
X143147000Y-132127000D01*
X143127000Y-132127000D01*
X143127000Y-133476250D01*
X143285750Y-133635000D01*
X143850000Y-133638072D01*
X143974482Y-133625812D01*
X144094180Y-133589502D01*
X144204494Y-133530537D01*
X144301185Y-133451185D01*
X144380537Y-133354494D01*
X144439502Y-133244180D01*
X144450055Y-133209392D01*
X144670987Y-133390706D01*
X144928967Y-133528599D01*
X145208890Y-133613513D01*
X145500000Y-133642185D01*
X145791111Y-133613513D01*
X146071034Y-133528599D01*
X146329014Y-133390706D01*
X146555134Y-133205134D01*
X146723483Y-133000000D01*
X152511928Y-133000000D01*
X152524188Y-133124482D01*
X152560498Y-133244180D01*
X152619463Y-133354494D01*
X152698815Y-133451185D01*
X152795506Y-133530537D01*
X152905820Y-133589502D01*
X153025518Y-133625812D01*
X153150000Y-133638072D01*
X153714250Y-133635000D01*
X153873000Y-133476250D01*
X153873000Y-132127000D01*
X152673750Y-132127000D01*
X152515000Y-132285750D01*
X152511928Y-133000000D01*
X146723483Y-133000000D01*
X146740706Y-132979014D01*
X146878599Y-132721033D01*
X146963513Y-132441110D01*
X146985000Y-132222949D01*
X146985000Y-131777050D01*
X146963513Y-131558889D01*
X146878599Y-131278966D01*
X146740706Y-131020986D01*
X146723484Y-131000000D01*
X152511928Y-131000000D01*
X152515000Y-131714250D01*
X152673750Y-131873000D01*
X153873000Y-131873000D01*
X153873000Y-130523750D01*
X154127000Y-130523750D01*
X154127000Y-131873000D01*
X154147000Y-131873000D01*
X154147000Y-132127000D01*
X154127000Y-132127000D01*
X154127000Y-133476250D01*
X154285750Y-133635000D01*
X154850000Y-133638072D01*
X154974482Y-133625812D01*
X155094180Y-133589502D01*
X155204494Y-133530537D01*
X155301185Y-133451185D01*
X155380537Y-133354494D01*
X155439502Y-133244180D01*
X155450055Y-133209392D01*
X155670987Y-133390706D01*
X155928967Y-133528599D01*
X156208890Y-133613513D01*
X156500000Y-133642185D01*
X156791111Y-133613513D01*
X157071034Y-133528599D01*
X157329014Y-133390706D01*
X157555134Y-133205134D01*
X157740706Y-132979014D01*
X157878599Y-132721033D01*
X157963513Y-132441110D01*
X157985000Y-132222949D01*
X157985000Y-131777050D01*
X157963513Y-131558889D01*
X157878599Y-131278966D01*
X157740706Y-131020986D01*
X157555134Y-130794866D01*
X157329013Y-130609294D01*
X157071033Y-130471401D01*
X156791110Y-130386487D01*
X156500000Y-130357815D01*
X156208889Y-130386487D01*
X155928966Y-130471401D01*
X155670986Y-130609294D01*
X155450055Y-130790608D01*
X155439502Y-130755820D01*
X155380537Y-130645506D01*
X155301185Y-130548815D01*
X155204494Y-130469463D01*
X155094180Y-130410498D01*
X154974482Y-130374188D01*
X154850000Y-130361928D01*
X154285750Y-130365000D01*
X154127000Y-130523750D01*
X153873000Y-130523750D01*
X153714250Y-130365000D01*
X153150000Y-130361928D01*
X153025518Y-130374188D01*
X152905820Y-130410498D01*
X152795506Y-130469463D01*
X152698815Y-130548815D01*
X152619463Y-130645506D01*
X152560498Y-130755820D01*
X152524188Y-130875518D01*
X152511928Y-131000000D01*
X146723484Y-131000000D01*
X146555134Y-130794866D01*
X146329013Y-130609294D01*
X146071033Y-130471401D01*
X145791110Y-130386487D01*
X145500000Y-130357815D01*
X145208889Y-130386487D01*
X144928966Y-130471401D01*
X144670986Y-130609294D01*
X144450055Y-130790608D01*
X144439502Y-130755820D01*
X144380537Y-130645506D01*
X144301185Y-130548815D01*
X144204494Y-130469463D01*
X144094180Y-130410498D01*
X143974482Y-130374188D01*
X143850000Y-130361928D01*
X143285750Y-130365000D01*
X143127000Y-130523750D01*
X142873000Y-130523750D01*
X142714250Y-130365000D01*
X142150000Y-130361928D01*
X142025518Y-130374188D01*
X141905820Y-130410498D01*
X141795506Y-130469463D01*
X141698815Y-130548815D01*
X141619463Y-130645506D01*
X141560498Y-130755820D01*
X141524188Y-130875518D01*
X141511928Y-131000000D01*
X135723484Y-131000000D01*
X135555134Y-130794866D01*
X135329013Y-130609294D01*
X135071033Y-130471401D01*
X134791110Y-130386487D01*
X134500000Y-130357815D01*
X134208889Y-130386487D01*
X133928966Y-130471401D01*
X133670986Y-130609294D01*
X133450055Y-130790608D01*
X133439502Y-130755820D01*
X133380537Y-130645506D01*
X133301185Y-130548815D01*
X133204494Y-130469463D01*
X133094180Y-130410498D01*
X132974482Y-130374188D01*
X132850000Y-130361928D01*
X132285750Y-130365000D01*
X132127000Y-130523750D01*
X131873000Y-130523750D01*
X131714250Y-130365000D01*
X131150000Y-130361928D01*
X131025518Y-130374188D01*
X130905820Y-130410498D01*
X130795506Y-130469463D01*
X130698815Y-130548815D01*
X130619463Y-130645506D01*
X130560498Y-130755820D01*
X130524188Y-130875518D01*
X130511928Y-131000000D01*
X124723484Y-131000000D01*
X124555134Y-130794866D01*
X124329013Y-130609294D01*
X124071033Y-130471401D01*
X123791110Y-130386487D01*
X123500000Y-130357815D01*
X123208889Y-130386487D01*
X122928966Y-130471401D01*
X122670986Y-130609294D01*
X122450055Y-130790608D01*
X122439502Y-130755820D01*
X122380537Y-130645506D01*
X122301185Y-130548815D01*
X122204494Y-130469463D01*
X122094180Y-130410498D01*
X121974482Y-130374188D01*
X121850000Y-130361928D01*
X121285750Y-130365000D01*
X121127000Y-130523750D01*
X120873000Y-130523750D01*
X120714250Y-130365000D01*
X120150000Y-130361928D01*
X120025518Y-130374188D01*
X119905820Y-130410498D01*
X119795506Y-130469463D01*
X119698815Y-130548815D01*
X119619463Y-130645506D01*
X119560498Y-130755820D01*
X119524188Y-130875518D01*
X119511928Y-131000000D01*
X113723484Y-131000000D01*
X113555134Y-130794866D01*
X113329013Y-130609294D01*
X113071033Y-130471401D01*
X112791110Y-130386487D01*
X112500000Y-130357815D01*
X112219710Y-130385421D01*
X116500000Y-126105132D01*
X117158009Y-126763141D01*
X117193552Y-126806450D01*
X117342838Y-126928966D01*
X117366378Y-126948285D01*
X117563554Y-127053677D01*
X117777502Y-127118578D01*
X118000001Y-127140492D01*
X118055753Y-127135001D01*
X138944248Y-127135001D01*
X138999999Y-127140492D01*
X139055750Y-127135001D01*
X139055751Y-127135001D01*
X139222498Y-127118578D01*
X139436446Y-127053677D01*
X139633622Y-126948285D01*
X139806448Y-126806450D01*
X139841995Y-126763136D01*
X140667060Y-125938072D01*
X141300000Y-125938072D01*
X141424482Y-125925812D01*
X141544180Y-125889502D01*
X141654494Y-125830537D01*
X141751185Y-125751185D01*
X141830537Y-125654494D01*
X141889502Y-125544180D01*
X141925812Y-125424482D01*
X141938072Y-125300000D01*
X141938072Y-124358665D01*
X146685000Y-124358665D01*
X146685000Y-124641335D01*
X146740147Y-124918574D01*
X146848320Y-125179727D01*
X147005363Y-125414759D01*
X147205241Y-125614637D01*
X147440273Y-125771680D01*
X147701426Y-125879853D01*
X147978665Y-125935000D01*
X148261335Y-125935000D01*
X148538574Y-125879853D01*
X148799727Y-125771680D01*
X149034759Y-125614637D01*
X149234637Y-125414759D01*
X149391680Y-125179727D01*
X149499853Y-124918574D01*
X149555000Y-124641335D01*
X149555000Y-124358665D01*
X149499853Y-124081426D01*
X149391680Y-123820273D01*
X149234637Y-123585241D01*
X149034759Y-123385363D01*
X148799727Y-123228320D01*
X148538574Y-123120147D01*
X148261335Y-123065000D01*
X147978665Y-123065000D01*
X147701426Y-123120147D01*
X147440273Y-123228320D01*
X147205241Y-123385363D01*
X147005363Y-123585241D01*
X146848320Y-123820273D01*
X146740147Y-124081426D01*
X146685000Y-124358665D01*
X141938072Y-124358665D01*
X141938072Y-123700000D01*
X141925812Y-123575518D01*
X141889502Y-123455820D01*
X141830537Y-123345506D01*
X141751185Y-123248815D01*
X141654494Y-123169463D01*
X141635000Y-123159043D01*
X141635000Y-120438446D01*
X141727095Y-120400299D01*
X141978505Y-120232312D01*
X142192312Y-120018505D01*
X142360299Y-119767095D01*
X142476011Y-119487743D01*
X142535000Y-119191184D01*
X142535000Y-118888816D01*
X142476011Y-118592257D01*
X142360299Y-118312905D01*
X142192312Y-118061495D01*
X142125873Y-117995056D01*
X142144180Y-117989502D01*
X142254494Y-117930537D01*
X142351185Y-117851185D01*
X142430537Y-117754494D01*
X142489502Y-117644180D01*
X142525812Y-117524482D01*
X142538072Y-117400000D01*
X142538072Y-115600000D01*
X142525812Y-115475518D01*
X142489502Y-115355820D01*
X142430537Y-115245506D01*
X142351185Y-115148815D01*
X142254494Y-115069463D01*
X142144180Y-115010498D01*
X142024482Y-114974188D01*
X141900000Y-114961928D01*
X140100000Y-114961928D01*
X139975518Y-114974188D01*
X139855820Y-115010498D01*
X139745506Y-115069463D01*
X139648815Y-115148815D01*
X139569463Y-115245506D01*
X139510498Y-115355820D01*
X139507713Y-115365000D01*
X136555741Y-115365000D01*
X136499999Y-115359510D01*
X136444257Y-115365000D01*
X136444248Y-115365000D01*
X136277501Y-115381423D01*
X136063553Y-115446324D01*
X135866377Y-115551716D01*
X135693551Y-115693551D01*
X135658009Y-115736859D01*
X128322719Y-123072150D01*
X128081426Y-123120147D01*
X127820273Y-123228320D01*
X127585241Y-123385363D01*
X127385363Y-123585241D01*
X127228320Y-123820273D01*
X127120147Y-124081426D01*
X127065000Y-124358665D01*
X127065000Y-124641335D01*
X127109491Y-124865001D01*
X125510509Y-124865001D01*
X125555000Y-124641335D01*
X125555000Y-124358665D01*
X125499853Y-124081426D01*
X125391680Y-123820273D01*
X125234637Y-123585241D01*
X125034759Y-123385363D01*
X124799727Y-123228320D01*
X124538574Y-123120147D01*
X124297282Y-123072150D01*
X119961996Y-118736865D01*
X119926449Y-118693551D01*
X119753623Y-118551716D01*
X119556447Y-118446324D01*
X119342499Y-118381423D01*
X119175752Y-118365000D01*
X119175751Y-118365000D01*
X119120000Y-118359509D01*
X119064249Y-118365000D01*
X117755501Y-118365000D01*
X117701185Y-118298815D01*
X117604494Y-118219463D01*
X117494180Y-118160498D01*
X117374482Y-118124188D01*
X117250000Y-118111928D01*
X115750000Y-118111928D01*
X115625518Y-118124188D01*
X115505820Y-118160498D01*
X115395506Y-118219463D01*
X115298815Y-118298815D01*
X115244499Y-118365000D01*
X115010224Y-118365000D01*
X114932498Y-118341422D01*
X114765751Y-118324999D01*
X114765750Y-118324999D01*
X114709999Y-118319508D01*
X114654248Y-118324999D01*
X100595742Y-118324999D01*
X100540000Y-118319509D01*
X100484258Y-118324999D01*
X100484249Y-118324999D01*
X100317502Y-118341422D01*
X100103554Y-118406323D01*
X99906378Y-118511715D01*
X99733552Y-118653550D01*
X99698010Y-118696858D01*
X88032941Y-130361928D01*
X87400000Y-130361928D01*
X87226746Y-130378992D01*
X87060150Y-130429528D01*
X86906614Y-130511595D01*
X86772038Y-130622038D01*
X86661595Y-130756614D01*
X86579528Y-130910150D01*
X86528992Y-131076746D01*
X86511928Y-131250000D01*
X70660000Y-131250000D01*
X70660000Y-104700010D01*
X75659499Y-104700010D01*
X75664990Y-104755762D01*
X75664991Y-112244229D01*
X75659499Y-112299990D01*
X75681413Y-112522488D01*
X75746314Y-112736436D01*
X75746315Y-112736437D01*
X75851707Y-112933613D01*
X75993542Y-113106439D01*
X76036850Y-113141981D01*
X76861928Y-113967060D01*
X76861928Y-114032940D01*
X76036855Y-114858014D01*
X75993541Y-114893561D01*
X75851706Y-115066387D01*
X75755966Y-115245506D01*
X75746314Y-115263564D01*
X75681413Y-115477512D01*
X75659499Y-115700010D01*
X75664990Y-115755762D01*
X75664991Y-123244229D01*
X75659499Y-123299990D01*
X75681413Y-123522488D01*
X75746314Y-123736436D01*
X75746539Y-123736857D01*
X75851707Y-123933613D01*
X75993542Y-124106439D01*
X76036850Y-124141981D01*
X76861928Y-124967060D01*
X76861928Y-125600000D01*
X76878992Y-125773254D01*
X76929528Y-125939850D01*
X77011595Y-126093386D01*
X77122038Y-126227962D01*
X77256614Y-126338405D01*
X77358337Y-126392777D01*
X77294866Y-126444866D01*
X77109294Y-126670986D01*
X76971401Y-126928966D01*
X76886487Y-127208889D01*
X76857815Y-127500000D01*
X76886487Y-127791111D01*
X76971401Y-128071034D01*
X77109294Y-128329014D01*
X77294866Y-128555134D01*
X77520986Y-128740706D01*
X77778966Y-128878599D01*
X78058889Y-128963513D01*
X78277050Y-128985000D01*
X78722950Y-128985000D01*
X78941111Y-128963513D01*
X79221034Y-128878599D01*
X79479014Y-128740706D01*
X79705134Y-128555134D01*
X79890706Y-128329014D01*
X80028599Y-128071034D01*
X80113513Y-127791111D01*
X80142185Y-127500000D01*
X80113513Y-127208889D01*
X80028599Y-126928966D01*
X79890706Y-126670986D01*
X79705134Y-126444866D01*
X79641663Y-126392777D01*
X79743386Y-126338405D01*
X79877962Y-126227962D01*
X79988405Y-126093386D01*
X80070472Y-125939850D01*
X80121008Y-125773254D01*
X80138072Y-125600000D01*
X80138072Y-124478665D01*
X84565000Y-124478665D01*
X84565000Y-124761335D01*
X84620147Y-125038574D01*
X84728320Y-125299727D01*
X84885363Y-125534759D01*
X85085241Y-125734637D01*
X85320273Y-125891680D01*
X85581426Y-125999853D01*
X85858665Y-126055000D01*
X86141335Y-126055000D01*
X86418574Y-125999853D01*
X86679727Y-125891680D01*
X86914759Y-125734637D01*
X87114637Y-125534759D01*
X87271680Y-125299727D01*
X87379853Y-125038574D01*
X87435000Y-124761335D01*
X87435000Y-124478665D01*
X87379853Y-124201426D01*
X87271680Y-123940273D01*
X87114637Y-123705241D01*
X86914759Y-123505363D01*
X86679727Y-123348320D01*
X86418574Y-123240147D01*
X86141335Y-123185000D01*
X85858665Y-123185000D01*
X85581426Y-123240147D01*
X85320273Y-123348320D01*
X85085241Y-123505363D01*
X84885363Y-123705241D01*
X84728320Y-123940273D01*
X84620147Y-124201426D01*
X84565000Y-124478665D01*
X80138072Y-124478665D01*
X80138072Y-124400000D01*
X80121008Y-124226746D01*
X80070472Y-124060150D01*
X79988405Y-123906614D01*
X79877962Y-123772038D01*
X79743386Y-123661595D01*
X79589850Y-123579528D01*
X79423254Y-123528992D01*
X79250000Y-123511928D01*
X78617060Y-123511928D01*
X77934990Y-122829859D01*
X77934990Y-117925929D01*
X78058889Y-117963513D01*
X78277050Y-117985000D01*
X78722950Y-117985000D01*
X78941111Y-117963513D01*
X79221034Y-117878599D01*
X79479014Y-117740706D01*
X79705134Y-117555134D01*
X79890706Y-117329014D01*
X80028599Y-117071034D01*
X80113513Y-116791111D01*
X80142185Y-116500000D01*
X80113513Y-116208889D01*
X80028599Y-115928966D01*
X79890706Y-115670986D01*
X79705134Y-115444866D01*
X79641663Y-115392777D01*
X79743386Y-115338405D01*
X79877962Y-115227962D01*
X79988405Y-115093386D01*
X80070472Y-114939850D01*
X80121008Y-114773254D01*
X80138072Y-114600000D01*
X80138072Y-113400000D01*
X80121008Y-113226746D01*
X80070472Y-113060150D01*
X79988405Y-112906614D01*
X79877962Y-112772038D01*
X79743386Y-112661595D01*
X79589850Y-112579528D01*
X79423254Y-112528992D01*
X79250000Y-112511928D01*
X78617060Y-112511928D01*
X77934990Y-111829859D01*
X77934990Y-106925929D01*
X78058889Y-106963513D01*
X78277050Y-106985000D01*
X78722950Y-106985000D01*
X78941111Y-106963513D01*
X79221034Y-106878599D01*
X79479014Y-106740706D01*
X79705134Y-106555134D01*
X79890706Y-106329014D01*
X80006760Y-106111892D01*
X80658013Y-106763146D01*
X80693551Y-106806449D01*
X80736854Y-106841987D01*
X80736856Y-106841989D01*
X80866377Y-106948284D01*
X81063553Y-107053676D01*
X81277501Y-107118577D01*
X81500000Y-107140491D01*
X81555752Y-107135000D01*
X85115716Y-107135000D01*
X85320273Y-107271680D01*
X85581426Y-107379853D01*
X85858665Y-107435000D01*
X86141335Y-107435000D01*
X86418574Y-107379853D01*
X86679727Y-107271680D01*
X86884284Y-107135000D01*
X91529868Y-107135000D01*
X91561928Y-107167060D01*
X91561928Y-107800000D01*
X91574188Y-107924482D01*
X91610498Y-108044180D01*
X91669463Y-108154494D01*
X91748815Y-108251185D01*
X91845506Y-108330537D01*
X91955820Y-108389502D01*
X92075518Y-108425812D01*
X92200000Y-108438072D01*
X93800000Y-108438072D01*
X93924482Y-108425812D01*
X94044180Y-108389502D01*
X94154494Y-108330537D01*
X94251185Y-108251185D01*
X94330537Y-108154494D01*
X94389502Y-108044180D01*
X94418661Y-107948057D01*
X94585241Y-108114637D01*
X94820273Y-108271680D01*
X95081426Y-108379853D01*
X95358665Y-108435000D01*
X95641335Y-108435000D01*
X95918574Y-108379853D01*
X96179727Y-108271680D01*
X96414759Y-108114637D01*
X96614637Y-107914759D01*
X96771680Y-107679727D01*
X96879853Y-107418574D01*
X96935000Y-107141335D01*
X96935000Y-106858665D01*
X96905855Y-106712145D01*
X96983555Y-106753676D01*
X97197503Y-106818577D01*
X97420001Y-106840491D01*
X97475753Y-106835000D01*
X100559868Y-106835000D01*
X94909869Y-112485000D01*
X86884284Y-112485000D01*
X86679727Y-112348320D01*
X86418574Y-112240147D01*
X86141335Y-112185000D01*
X85858665Y-112185000D01*
X85581426Y-112240147D01*
X85320273Y-112348320D01*
X85085241Y-112505363D01*
X84885363Y-112705241D01*
X84728320Y-112940273D01*
X84620147Y-113201426D01*
X84565000Y-113478665D01*
X84565000Y-113761335D01*
X84620147Y-114038574D01*
X84728320Y-114299727D01*
X84865000Y-114504284D01*
X84865001Y-116115715D01*
X84728320Y-116320273D01*
X84620147Y-116581426D01*
X84565000Y-116858665D01*
X84565000Y-117141335D01*
X84620147Y-117418574D01*
X84728320Y-117679727D01*
X84885363Y-117914759D01*
X85085241Y-118114637D01*
X85320273Y-118271680D01*
X85581426Y-118379853D01*
X85858665Y-118435000D01*
X86141335Y-118435000D01*
X86418574Y-118379853D01*
X86679727Y-118271680D01*
X86914759Y-118114637D01*
X87114637Y-117914759D01*
X87271680Y-117679727D01*
X87379853Y-117418574D01*
X87435000Y-117141335D01*
X87435000Y-116858665D01*
X87379853Y-116581426D01*
X87271680Y-116320273D01*
X87135000Y-116115716D01*
X87135000Y-115874023D01*
X104545582Y-115874023D01*
X104725648Y-116210060D01*
X105134474Y-116420820D01*
X105576562Y-116547772D01*
X106034922Y-116586037D01*
X106491940Y-116534146D01*
X106930053Y-116394092D01*
X107274352Y-116210060D01*
X107454418Y-115874023D01*
X106000000Y-114419605D01*
X104545582Y-115874023D01*
X87135000Y-115874023D01*
X87135000Y-114755000D01*
X95324249Y-114755000D01*
X95380000Y-114760491D01*
X95435751Y-114755000D01*
X95435752Y-114755000D01*
X95602499Y-114738577D01*
X95816447Y-114673676D01*
X96013623Y-114568284D01*
X96186449Y-114426449D01*
X96221996Y-114383135D01*
X96330209Y-114274922D01*
X103653963Y-114274922D01*
X103705854Y-114731940D01*
X103845908Y-115170053D01*
X104029940Y-115514352D01*
X104365977Y-115694418D01*
X105820395Y-114240000D01*
X106179605Y-114240000D01*
X107634023Y-115694418D01*
X107970060Y-115514352D01*
X108180820Y-115105526D01*
X108307772Y-114663438D01*
X108346037Y-114205078D01*
X108294146Y-113748060D01*
X108154092Y-113309947D01*
X107970060Y-112965648D01*
X107634023Y-112785582D01*
X106179605Y-114240000D01*
X105820395Y-114240000D01*
X104365977Y-112785582D01*
X104029940Y-112965648D01*
X103819180Y-113374474D01*
X103692228Y-113816562D01*
X103653963Y-114274922D01*
X96330209Y-114274922D01*
X97999154Y-112605977D01*
X104545582Y-112605977D01*
X106000000Y-114060395D01*
X107454418Y-112605977D01*
X107274352Y-112269940D01*
X106865526Y-112059180D01*
X106423438Y-111932228D01*
X105965078Y-111893963D01*
X105508060Y-111945854D01*
X105069947Y-112085908D01*
X104725648Y-112269940D01*
X104545582Y-112605977D01*
X97999154Y-112605977D01*
X102070132Y-108535000D01*
X114797397Y-108535000D01*
X114805820Y-108539502D01*
X114925518Y-108575812D01*
X115050000Y-108588072D01*
X119650000Y-108588072D01*
X119774482Y-108575812D01*
X119894180Y-108539502D01*
X120004494Y-108480537D01*
X120101185Y-108401185D01*
X120180537Y-108304494D01*
X120239502Y-108194180D01*
X120275812Y-108074482D01*
X120288072Y-107950000D01*
X120288072Y-106850000D01*
X120275812Y-106725518D01*
X120239502Y-106605820D01*
X120209665Y-106550000D01*
X120239502Y-106494180D01*
X120275812Y-106374482D01*
X120288072Y-106250000D01*
X120288072Y-105150000D01*
X120286595Y-105135000D01*
X121161928Y-105135000D01*
X121161928Y-109400000D01*
X121174188Y-109524482D01*
X121210498Y-109644180D01*
X121269463Y-109754494D01*
X121348815Y-109851185D01*
X121445506Y-109930537D01*
X121555820Y-109989502D01*
X121675518Y-110025812D01*
X121800000Y-110038072D01*
X125365000Y-110038072D01*
X125365001Y-116649867D01*
X123879081Y-118135788D01*
X123716011Y-118168225D01*
X123463957Y-118272629D01*
X123237114Y-118424201D01*
X123044201Y-118617114D01*
X122892629Y-118843957D01*
X122788225Y-119096011D01*
X122735000Y-119363589D01*
X122735000Y-119636411D01*
X122788225Y-119903989D01*
X122892629Y-120156043D01*
X123044201Y-120382886D01*
X123237114Y-120575799D01*
X123463957Y-120727371D01*
X123716011Y-120831775D01*
X123983589Y-120885000D01*
X124256411Y-120885000D01*
X124523989Y-120831775D01*
X124776043Y-120727371D01*
X125002886Y-120575799D01*
X125195799Y-120382886D01*
X125347371Y-120156043D01*
X125451775Y-119903989D01*
X125484212Y-119740919D01*
X127263141Y-117961991D01*
X127306449Y-117926449D01*
X127448284Y-117753623D01*
X127553676Y-117556447D01*
X127618577Y-117342499D01*
X127635000Y-117175752D01*
X127635000Y-117175743D01*
X127640490Y-117120001D01*
X127635000Y-117064259D01*
X127635000Y-112800000D01*
X149061928Y-112800000D01*
X149074188Y-112924482D01*
X149110498Y-113044180D01*
X149169463Y-113154494D01*
X149248815Y-113251185D01*
X149345506Y-113330537D01*
X149455820Y-113389502D01*
X149575518Y-113425812D01*
X149700000Y-113438072D01*
X150714250Y-113435000D01*
X150873000Y-113276250D01*
X150873000Y-111627000D01*
X151127000Y-111627000D01*
X151127000Y-113276250D01*
X151285750Y-113435000D01*
X152300000Y-113438072D01*
X152424482Y-113425812D01*
X152544180Y-113389502D01*
X152654494Y-113330537D01*
X152751185Y-113251185D01*
X152830537Y-113154494D01*
X152889502Y-113044180D01*
X152925812Y-112924482D01*
X152938072Y-112800000D01*
X152935000Y-111785750D01*
X152776250Y-111627000D01*
X151127000Y-111627000D01*
X150873000Y-111627000D01*
X149223750Y-111627000D01*
X149065000Y-111785750D01*
X149061928Y-112800000D01*
X127635000Y-112800000D01*
X127635000Y-110038072D01*
X131200000Y-110038072D01*
X131324482Y-110025812D01*
X131444180Y-109989502D01*
X131554494Y-109930537D01*
X131651185Y-109851185D01*
X131730537Y-109754494D01*
X131789502Y-109644180D01*
X131825812Y-109524482D01*
X131838072Y-109400000D01*
X131838072Y-101729040D01*
X141608091Y-101729040D01*
X141702930Y-101993881D01*
X141847615Y-102235131D01*
X142036586Y-102443519D01*
X142262580Y-102611037D01*
X142516913Y-102731246D01*
X142650961Y-102771904D01*
X142873000Y-102649915D01*
X142873000Y-101507000D01*
X141729376Y-101507000D01*
X141608091Y-101729040D01*
X131838072Y-101729040D01*
X131838072Y-101030960D01*
X141608091Y-101030960D01*
X141729376Y-101253000D01*
X142873000Y-101253000D01*
X142873000Y-100110085D01*
X142650961Y-99988096D01*
X142516913Y-100028754D01*
X142262580Y-100148963D01*
X142036586Y-100316481D01*
X141847615Y-100524869D01*
X141702930Y-100766119D01*
X141608091Y-101030960D01*
X131838072Y-101030960D01*
X131838072Y-98600000D01*
X131825812Y-98475518D01*
X131789502Y-98355820D01*
X131730537Y-98245506D01*
X131651185Y-98148815D01*
X131554494Y-98069463D01*
X131444180Y-98010498D01*
X131324482Y-97974188D01*
X131200000Y-97961928D01*
X121800000Y-97961928D01*
X121675518Y-97974188D01*
X121555820Y-98010498D01*
X121445506Y-98069463D01*
X121348815Y-98148815D01*
X121269463Y-98245506D01*
X121210498Y-98355820D01*
X121174188Y-98475518D01*
X121161928Y-98600000D01*
X121161928Y-102865000D01*
X120286595Y-102865000D01*
X120288072Y-102850000D01*
X120285000Y-102585750D01*
X120126250Y-102427000D01*
X117477000Y-102427000D01*
X117477000Y-102447000D01*
X117223000Y-102447000D01*
X117223000Y-102427000D01*
X114573750Y-102427000D01*
X114415000Y-102585750D01*
X114411928Y-102850000D01*
X114424188Y-102974482D01*
X114460498Y-103094180D01*
X114490335Y-103150000D01*
X114460498Y-103205820D01*
X114424188Y-103325518D01*
X114411928Y-103450000D01*
X114411928Y-104550000D01*
X114413405Y-104565000D01*
X97869812Y-104565000D01*
X97853624Y-104551715D01*
X97656448Y-104446323D01*
X97442500Y-104381422D01*
X97275753Y-104364999D01*
X97275752Y-104364999D01*
X97220001Y-104359508D01*
X97164250Y-104364999D01*
X94555753Y-104364999D01*
X94500001Y-104359508D01*
X94444249Y-104364999D01*
X94277502Y-104381422D01*
X94063554Y-104446323D01*
X93866378Y-104551715D01*
X93693552Y-104693550D01*
X93658009Y-104736859D01*
X93000000Y-105394869D01*
X92841995Y-105236864D01*
X92806449Y-105193551D01*
X92633623Y-105051716D01*
X92436447Y-104946324D01*
X92222499Y-104881423D01*
X92055752Y-104865000D01*
X92055751Y-104865000D01*
X92000000Y-104859509D01*
X91944249Y-104865000D01*
X86884284Y-104865000D01*
X86679727Y-104728320D01*
X86418574Y-104620147D01*
X86141335Y-104565000D01*
X85858665Y-104565000D01*
X85581426Y-104620147D01*
X85320273Y-104728320D01*
X85115716Y-104865000D01*
X81970133Y-104865000D01*
X80138072Y-103032940D01*
X80138072Y-102400000D01*
X80121008Y-102226746D01*
X80070472Y-102060150D01*
X79988405Y-101906614D01*
X79877962Y-101772038D01*
X79743386Y-101661595D01*
X79589850Y-101579528D01*
X79423254Y-101528992D01*
X79250000Y-101511928D01*
X77750000Y-101511928D01*
X77576746Y-101528992D01*
X77410150Y-101579528D01*
X77256614Y-101661595D01*
X77122038Y-101772038D01*
X77011595Y-101906614D01*
X76929528Y-102060150D01*
X76878992Y-102226746D01*
X76861928Y-102400000D01*
X76861928Y-103032940D01*
X76036855Y-103858014D01*
X75993541Y-103893561D01*
X75851706Y-104066387D01*
X75748596Y-104259294D01*
X75746314Y-104263564D01*
X75681413Y-104477512D01*
X75659499Y-104700010D01*
X70660000Y-104700010D01*
X70660000Y-101150000D01*
X114411928Y-101150000D01*
X114424188Y-101274482D01*
X114460498Y-101394180D01*
X114490335Y-101450000D01*
X114460498Y-101505820D01*
X114424188Y-101625518D01*
X114411928Y-101750000D01*
X114415000Y-102014250D01*
X114573750Y-102173000D01*
X117223000Y-102173000D01*
X117223000Y-100727000D01*
X117477000Y-100727000D01*
X117477000Y-102173000D01*
X120126250Y-102173000D01*
X120285000Y-102014250D01*
X120288072Y-101750000D01*
X120275812Y-101625518D01*
X120239502Y-101505820D01*
X120209665Y-101450000D01*
X120239502Y-101394180D01*
X120275812Y-101274482D01*
X120288072Y-101150000D01*
X120285000Y-100885750D01*
X120126250Y-100727000D01*
X117477000Y-100727000D01*
X117223000Y-100727000D01*
X114573750Y-100727000D01*
X114415000Y-100885750D01*
X114411928Y-101150000D01*
X70660000Y-101150000D01*
X70660000Y-100050000D01*
X114411928Y-100050000D01*
X114415000Y-100314250D01*
X114573750Y-100473000D01*
X117223000Y-100473000D01*
X117223000Y-99573750D01*
X117477000Y-99573750D01*
X117477000Y-100473000D01*
X120126250Y-100473000D01*
X120285000Y-100314250D01*
X120288072Y-100050000D01*
X120275812Y-99925518D01*
X120239502Y-99805820D01*
X120180537Y-99695506D01*
X120101185Y-99598815D01*
X120004494Y-99519463D01*
X119894180Y-99460498D01*
X119774482Y-99424188D01*
X119650000Y-99411928D01*
X117635750Y-99415000D01*
X117477000Y-99573750D01*
X117223000Y-99573750D01*
X117064250Y-99415000D01*
X115050000Y-99411928D01*
X114925518Y-99424188D01*
X114805820Y-99460498D01*
X114695506Y-99519463D01*
X114598815Y-99598815D01*
X114519463Y-99695506D01*
X114460498Y-99805820D01*
X114424188Y-99925518D01*
X114411928Y-100050000D01*
X70660000Y-100050000D01*
X70660000Y-97127000D01*
X111000000Y-97127000D01*
X111024776Y-97124560D01*
X111048601Y-97117333D01*
X111070557Y-97105597D01*
X111089803Y-97089803D01*
X111105597Y-97070557D01*
X111117333Y-97048601D01*
X111124560Y-97024776D01*
X111127000Y-97000000D01*
X111127000Y-79000000D01*
X111124560Y-78975224D01*
X111117333Y-78951399D01*
X111105597Y-78929443D01*
X111089803Y-78910197D01*
X111070557Y-78894403D01*
X111048601Y-78882667D01*
X111024776Y-78875440D01*
X111000000Y-78873000D01*
X70660000Y-78873000D01*
X70660000Y-74777050D01*
X84015000Y-74777050D01*
X84015000Y-75222949D01*
X84036487Y-75441110D01*
X84121401Y-75721033D01*
X84259294Y-75979013D01*
X84444866Y-76205134D01*
X84670986Y-76390706D01*
X84928966Y-76528599D01*
X85208889Y-76613513D01*
X85500000Y-76642185D01*
X85791110Y-76613513D01*
X86071033Y-76528599D01*
X86329013Y-76390706D01*
X86555134Y-76205134D01*
X86607223Y-76141663D01*
X86661595Y-76243386D01*
X86772038Y-76377962D01*
X86906614Y-76488405D01*
X87060150Y-76570472D01*
X87226746Y-76621008D01*
X87400000Y-76638072D01*
X88600000Y-76638072D01*
X88773254Y-76621008D01*
X88939850Y-76570472D01*
X89093386Y-76488405D01*
X89227962Y-76377962D01*
X89338405Y-76243386D01*
X89420472Y-76089850D01*
X89471008Y-75923254D01*
X89488072Y-75750000D01*
X89488072Y-75117059D01*
X89828081Y-74777050D01*
X95015000Y-74777050D01*
X95015000Y-75222949D01*
X95036487Y-75441110D01*
X95121401Y-75721033D01*
X95259294Y-75979013D01*
X95444866Y-76205134D01*
X95670986Y-76390706D01*
X95928966Y-76528599D01*
X96208889Y-76613513D01*
X96500000Y-76642185D01*
X96791110Y-76613513D01*
X97071033Y-76528599D01*
X97329013Y-76390706D01*
X97549945Y-76209392D01*
X97560498Y-76244180D01*
X97619463Y-76354494D01*
X97698815Y-76451185D01*
X97795506Y-76530537D01*
X97905820Y-76589502D01*
X98025518Y-76625812D01*
X98150000Y-76638072D01*
X98714250Y-76635000D01*
X98873000Y-76476250D01*
X98873000Y-75127000D01*
X99127000Y-75127000D01*
X99127000Y-76476250D01*
X99285750Y-76635000D01*
X99850000Y-76638072D01*
X99974482Y-76625812D01*
X100094180Y-76589502D01*
X100204494Y-76530537D01*
X100301185Y-76451185D01*
X100380537Y-76354494D01*
X100439502Y-76244180D01*
X100475812Y-76124482D01*
X100488072Y-76000000D01*
X100485000Y-75285750D01*
X100326250Y-75127000D01*
X99127000Y-75127000D01*
X98873000Y-75127000D01*
X98853000Y-75127000D01*
X98853000Y-74873000D01*
X98873000Y-74873000D01*
X98873000Y-73523750D01*
X99127000Y-73523750D01*
X99127000Y-74873000D01*
X100326250Y-74873000D01*
X100422200Y-74777050D01*
X106015000Y-74777050D01*
X106015000Y-75222949D01*
X106036487Y-75441110D01*
X106121401Y-75721033D01*
X106259294Y-75979013D01*
X106444866Y-76205134D01*
X106670986Y-76390706D01*
X106928966Y-76528599D01*
X107208889Y-76613513D01*
X107500000Y-76642185D01*
X107791110Y-76613513D01*
X108071033Y-76528599D01*
X108329013Y-76390706D01*
X108549945Y-76209392D01*
X108560498Y-76244180D01*
X108619463Y-76354494D01*
X108698815Y-76451185D01*
X108795506Y-76530537D01*
X108905820Y-76589502D01*
X109025518Y-76625812D01*
X109150000Y-76638072D01*
X109714250Y-76635000D01*
X109873000Y-76476250D01*
X109873000Y-75127000D01*
X110127000Y-75127000D01*
X110127000Y-76476250D01*
X110285750Y-76635000D01*
X110850000Y-76638072D01*
X110974482Y-76625812D01*
X111094180Y-76589502D01*
X111204494Y-76530537D01*
X111301185Y-76451185D01*
X111380537Y-76354494D01*
X111439502Y-76244180D01*
X111475812Y-76124482D01*
X111488072Y-76000000D01*
X111485000Y-75285750D01*
X111326250Y-75127000D01*
X110127000Y-75127000D01*
X109873000Y-75127000D01*
X109853000Y-75127000D01*
X109853000Y-74873000D01*
X109873000Y-74873000D01*
X109873000Y-73523750D01*
X110127000Y-73523750D01*
X110127000Y-74873000D01*
X111326250Y-74873000D01*
X111422200Y-74777050D01*
X117015000Y-74777050D01*
X117015000Y-75222949D01*
X117036487Y-75441110D01*
X117121401Y-75721033D01*
X117259294Y-75979013D01*
X117444866Y-76205134D01*
X117670986Y-76390706D01*
X117928966Y-76528599D01*
X118208889Y-76613513D01*
X118500000Y-76642185D01*
X118791110Y-76613513D01*
X119071033Y-76528599D01*
X119329013Y-76390706D01*
X119549945Y-76209392D01*
X119560498Y-76244180D01*
X119619463Y-76354494D01*
X119698815Y-76451185D01*
X119795506Y-76530537D01*
X119905820Y-76589502D01*
X120025518Y-76625812D01*
X120150000Y-76638072D01*
X120714250Y-76635000D01*
X120873000Y-76476250D01*
X120873000Y-75127000D01*
X121127000Y-75127000D01*
X121127000Y-76476250D01*
X121285750Y-76635000D01*
X121850000Y-76638072D01*
X121974482Y-76625812D01*
X122094180Y-76589502D01*
X122204494Y-76530537D01*
X122301185Y-76451185D01*
X122380537Y-76354494D01*
X122439502Y-76244180D01*
X122475812Y-76124482D01*
X122488072Y-76000000D01*
X122485000Y-75285750D01*
X122326250Y-75127000D01*
X121127000Y-75127000D01*
X120873000Y-75127000D01*
X120853000Y-75127000D01*
X120853000Y-74873000D01*
X120873000Y-74873000D01*
X120873000Y-73523750D01*
X121127000Y-73523750D01*
X121127000Y-74873000D01*
X122326250Y-74873000D01*
X122422200Y-74777050D01*
X128015000Y-74777050D01*
X128015000Y-75222949D01*
X128036487Y-75441110D01*
X128121401Y-75721033D01*
X128259294Y-75979013D01*
X128444866Y-76205134D01*
X128670986Y-76390706D01*
X128928966Y-76528599D01*
X129208889Y-76613513D01*
X129500000Y-76642185D01*
X129791110Y-76613513D01*
X130071033Y-76528599D01*
X130329013Y-76390706D01*
X130549945Y-76209392D01*
X130560498Y-76244180D01*
X130619463Y-76354494D01*
X130698815Y-76451185D01*
X130795506Y-76530537D01*
X130905820Y-76589502D01*
X131025518Y-76625812D01*
X131150000Y-76638072D01*
X131714250Y-76635000D01*
X131873000Y-76476250D01*
X131873000Y-75127000D01*
X132127000Y-75127000D01*
X132127000Y-76476250D01*
X132285750Y-76635000D01*
X132850000Y-76638072D01*
X132974482Y-76625812D01*
X133094180Y-76589502D01*
X133204494Y-76530537D01*
X133301185Y-76451185D01*
X133380537Y-76354494D01*
X133439502Y-76244180D01*
X133475812Y-76124482D01*
X133488072Y-76000000D01*
X133485000Y-75285750D01*
X133326250Y-75127000D01*
X132127000Y-75127000D01*
X131873000Y-75127000D01*
X131853000Y-75127000D01*
X131853000Y-74873000D01*
X131873000Y-74873000D01*
X131873000Y-73523750D01*
X132127000Y-73523750D01*
X132127000Y-74873000D01*
X133326250Y-74873000D01*
X133485000Y-74714250D01*
X133488072Y-74000000D01*
X133475812Y-73875518D01*
X133439502Y-73755820D01*
X133380537Y-73645506D01*
X133301185Y-73548815D01*
X133204494Y-73469463D01*
X133094180Y-73410498D01*
X132974482Y-73374188D01*
X132850000Y-73361928D01*
X132285750Y-73365000D01*
X132127000Y-73523750D01*
X131873000Y-73523750D01*
X131714250Y-73365000D01*
X131150000Y-73361928D01*
X131025518Y-73374188D01*
X130905820Y-73410498D01*
X130795506Y-73469463D01*
X130698815Y-73548815D01*
X130619463Y-73645506D01*
X130560498Y-73755820D01*
X130549945Y-73790608D01*
X130329014Y-73609294D01*
X130071034Y-73471401D01*
X129791111Y-73386487D01*
X129500000Y-73357815D01*
X129208890Y-73386487D01*
X128928967Y-73471401D01*
X128670987Y-73609294D01*
X128444866Y-73794866D01*
X128259294Y-74020986D01*
X128121401Y-74278966D01*
X128036487Y-74558889D01*
X128015000Y-74777050D01*
X122422200Y-74777050D01*
X122485000Y-74714250D01*
X122488072Y-74000000D01*
X122475812Y-73875518D01*
X122439502Y-73755820D01*
X122380537Y-73645506D01*
X122301185Y-73548815D01*
X122204494Y-73469463D01*
X122094180Y-73410498D01*
X121974482Y-73374188D01*
X121850000Y-73361928D01*
X121285750Y-73365000D01*
X121127000Y-73523750D01*
X120873000Y-73523750D01*
X120714250Y-73365000D01*
X120150000Y-73361928D01*
X120025518Y-73374188D01*
X119905820Y-73410498D01*
X119795506Y-73469463D01*
X119698815Y-73548815D01*
X119619463Y-73645506D01*
X119560498Y-73755820D01*
X119549945Y-73790608D01*
X119329014Y-73609294D01*
X119071034Y-73471401D01*
X118791111Y-73386487D01*
X118500000Y-73357815D01*
X118208890Y-73386487D01*
X117928967Y-73471401D01*
X117670987Y-73609294D01*
X117444866Y-73794866D01*
X117259294Y-74020986D01*
X117121401Y-74278966D01*
X117036487Y-74558889D01*
X117015000Y-74777050D01*
X111422200Y-74777050D01*
X111485000Y-74714250D01*
X111488072Y-74000000D01*
X111475812Y-73875518D01*
X111439502Y-73755820D01*
X111380537Y-73645506D01*
X111301185Y-73548815D01*
X111204494Y-73469463D01*
X111094180Y-73410498D01*
X110974482Y-73374188D01*
X110850000Y-73361928D01*
X110285750Y-73365000D01*
X110127000Y-73523750D01*
X109873000Y-73523750D01*
X109714250Y-73365000D01*
X109150000Y-73361928D01*
X109025518Y-73374188D01*
X108905820Y-73410498D01*
X108795506Y-73469463D01*
X108698815Y-73548815D01*
X108619463Y-73645506D01*
X108560498Y-73755820D01*
X108549945Y-73790608D01*
X108329014Y-73609294D01*
X108071034Y-73471401D01*
X107791111Y-73386487D01*
X107500000Y-73357815D01*
X107208890Y-73386487D01*
X106928967Y-73471401D01*
X106670987Y-73609294D01*
X106444866Y-73794866D01*
X106259294Y-74020986D01*
X106121401Y-74278966D01*
X106036487Y-74558889D01*
X106015000Y-74777050D01*
X100422200Y-74777050D01*
X100485000Y-74714250D01*
X100488072Y-74000000D01*
X100475812Y-73875518D01*
X100439502Y-73755820D01*
X100380537Y-73645506D01*
X100301185Y-73548815D01*
X100204494Y-73469463D01*
X100094180Y-73410498D01*
X99974482Y-73374188D01*
X99850000Y-73361928D01*
X99285750Y-73365000D01*
X99127000Y-73523750D01*
X98873000Y-73523750D01*
X98714250Y-73365000D01*
X98150000Y-73361928D01*
X98025518Y-73374188D01*
X97905820Y-73410498D01*
X97795506Y-73469463D01*
X97698815Y-73548815D01*
X97619463Y-73645506D01*
X97560498Y-73755820D01*
X97549945Y-73790608D01*
X97329014Y-73609294D01*
X97071034Y-73471401D01*
X96791111Y-73386487D01*
X96500000Y-73357815D01*
X96208890Y-73386487D01*
X95928967Y-73471401D01*
X95670987Y-73609294D01*
X95444866Y-73794866D01*
X95259294Y-74020986D01*
X95121401Y-74278966D01*
X95036487Y-74558889D01*
X95015000Y-74777050D01*
X89828081Y-74777050D01*
X91970132Y-72635000D01*
X132529869Y-72635000D01*
X144365000Y-84470133D01*
X144365001Y-100955818D01*
X144297070Y-100766119D01*
X144152385Y-100524869D01*
X143963414Y-100316481D01*
X143737420Y-100148963D01*
X143483087Y-100028754D01*
X143349039Y-99988096D01*
X143127000Y-100110085D01*
X143127000Y-101253000D01*
X143147000Y-101253000D01*
X143147000Y-101507000D01*
X143127000Y-101507000D01*
X143127000Y-102649915D01*
X143349039Y-102771904D01*
X143483087Y-102731246D01*
X143737420Y-102611037D01*
X143963414Y-102443519D01*
X144152385Y-102235131D01*
X144297070Y-101993881D01*
X144365001Y-101804182D01*
X144365001Y-106029867D01*
X143736862Y-106658007D01*
X143736857Y-106658011D01*
X142822718Y-107572150D01*
X142581426Y-107620147D01*
X142320273Y-107728320D01*
X142085241Y-107885363D01*
X141885363Y-108085241D01*
X141728320Y-108320273D01*
X141620147Y-108581426D01*
X141565000Y-108858665D01*
X141565000Y-109141335D01*
X141620147Y-109418574D01*
X141728320Y-109679727D01*
X141885363Y-109914759D01*
X142085241Y-110114637D01*
X142320273Y-110271680D01*
X142581426Y-110379853D01*
X142858665Y-110435000D01*
X143141335Y-110435000D01*
X143418574Y-110379853D01*
X143679727Y-110271680D01*
X143787003Y-110200000D01*
X149061928Y-110200000D01*
X149065000Y-111214250D01*
X149223750Y-111373000D01*
X150873000Y-111373000D01*
X150873000Y-109723750D01*
X151127000Y-109723750D01*
X151127000Y-111373000D01*
X152776250Y-111373000D01*
X152935000Y-111214250D01*
X152938072Y-110200000D01*
X152925812Y-110075518D01*
X152889502Y-109955820D01*
X152830537Y-109845506D01*
X152751185Y-109748815D01*
X152654494Y-109669463D01*
X152544180Y-109610498D01*
X152424482Y-109574188D01*
X152300000Y-109561928D01*
X151285750Y-109565000D01*
X151127000Y-109723750D01*
X150873000Y-109723750D01*
X150714250Y-109565000D01*
X149700000Y-109561928D01*
X149575518Y-109574188D01*
X149455820Y-109610498D01*
X149345506Y-109669463D01*
X149248815Y-109748815D01*
X149169463Y-109845506D01*
X149110498Y-109955820D01*
X149074188Y-110075518D01*
X149061928Y-110200000D01*
X143787003Y-110200000D01*
X143914759Y-110114637D01*
X144114637Y-109914759D01*
X144271680Y-109679727D01*
X144379853Y-109418574D01*
X144427850Y-109177282D01*
X145341989Y-108263143D01*
X145341993Y-108263138D01*
X146263140Y-107341992D01*
X146306449Y-107306449D01*
X146448284Y-107133623D01*
X146553676Y-106936447D01*
X146606248Y-106763143D01*
X146618577Y-106722500D01*
X146640491Y-106500001D01*
X146635000Y-106444249D01*
X146635000Y-98609419D01*
X149065000Y-98609419D01*
X149065000Y-98990581D01*
X149139361Y-99364419D01*
X149285225Y-99716566D01*
X149496987Y-100033491D01*
X149766509Y-100303013D01*
X150083434Y-100514775D01*
X150435581Y-100660639D01*
X150809419Y-100735000D01*
X151190581Y-100735000D01*
X151564419Y-100660639D01*
X151916566Y-100514775D01*
X152233491Y-100303013D01*
X152503013Y-100033491D01*
X152714775Y-99716566D01*
X152860639Y-99364419D01*
X152935000Y-98990581D01*
X152935000Y-98609419D01*
X152860639Y-98235581D01*
X152714775Y-97883434D01*
X152503013Y-97566509D01*
X152233491Y-97296987D01*
X151916566Y-97085225D01*
X151564419Y-96939361D01*
X151190581Y-96865000D01*
X150809419Y-96865000D01*
X150435581Y-96939361D01*
X150083434Y-97085225D01*
X149766509Y-97296987D01*
X149496987Y-97566509D01*
X149285225Y-97883434D01*
X149139361Y-98235581D01*
X149065000Y-98609419D01*
X146635000Y-98609419D01*
X146635000Y-88800000D01*
X150561928Y-88800000D01*
X150574188Y-88924482D01*
X150610498Y-89044180D01*
X150669463Y-89154494D01*
X150748815Y-89251185D01*
X150845506Y-89330537D01*
X150955820Y-89389502D01*
X151075518Y-89425812D01*
X151200000Y-89438072D01*
X151714250Y-89435000D01*
X151873000Y-89276250D01*
X151873000Y-88127000D01*
X152127000Y-88127000D01*
X152127000Y-89276250D01*
X152285750Y-89435000D01*
X152800000Y-89438072D01*
X152924482Y-89425812D01*
X153044180Y-89389502D01*
X153154494Y-89330537D01*
X153251185Y-89251185D01*
X153330537Y-89154494D01*
X153389502Y-89044180D01*
X153425812Y-88924482D01*
X153438072Y-88800000D01*
X153435000Y-88285750D01*
X153276250Y-88127000D01*
X152127000Y-88127000D01*
X151873000Y-88127000D01*
X150723750Y-88127000D01*
X150565000Y-88285750D01*
X150561928Y-88800000D01*
X146635000Y-88800000D01*
X146635000Y-87200000D01*
X150561928Y-87200000D01*
X150565000Y-87714250D01*
X150723750Y-87873000D01*
X151873000Y-87873000D01*
X151873000Y-87853000D01*
X152127000Y-87853000D01*
X152127000Y-87873000D01*
X153276250Y-87873000D01*
X153435000Y-87714250D01*
X153438072Y-87200000D01*
X153425812Y-87075518D01*
X153389502Y-86955820D01*
X153330537Y-86845506D01*
X153251185Y-86748815D01*
X153154494Y-86669463D01*
X153044180Y-86610498D01*
X152948057Y-86581339D01*
X153114637Y-86414759D01*
X153271680Y-86179727D01*
X153379853Y-85918574D01*
X153435000Y-85641335D01*
X153435000Y-85358665D01*
X153379853Y-85081426D01*
X153271680Y-84820273D01*
X153114637Y-84585241D01*
X152914759Y-84385363D01*
X152679727Y-84228320D01*
X152418574Y-84120147D01*
X152141335Y-84065000D01*
X151858665Y-84065000D01*
X151581426Y-84120147D01*
X151320273Y-84228320D01*
X151085241Y-84385363D01*
X150885363Y-84585241D01*
X150728320Y-84820273D01*
X150620147Y-85081426D01*
X150565000Y-85358665D01*
X150565000Y-85641335D01*
X150620147Y-85918574D01*
X150728320Y-86179727D01*
X150885363Y-86414759D01*
X151051943Y-86581339D01*
X150955820Y-86610498D01*
X150845506Y-86669463D01*
X150748815Y-86748815D01*
X150669463Y-86845506D01*
X150610498Y-86955820D01*
X150574188Y-87075518D01*
X150561928Y-87200000D01*
X146635000Y-87200000D01*
X146635000Y-84055752D01*
X146640491Y-84000000D01*
X146618577Y-83777501D01*
X146553676Y-83563553D01*
X146448284Y-83366377D01*
X146341989Y-83236856D01*
X146341987Y-83236854D01*
X146306449Y-83193551D01*
X146263146Y-83158013D01*
X137882182Y-74777050D01*
X139015000Y-74777050D01*
X139015000Y-75222949D01*
X139036487Y-75441110D01*
X139121401Y-75721033D01*
X139259294Y-75979013D01*
X139444866Y-76205134D01*
X139670986Y-76390706D01*
X139928966Y-76528599D01*
X140208889Y-76613513D01*
X140500000Y-76642185D01*
X140791110Y-76613513D01*
X141071033Y-76528599D01*
X141329013Y-76390706D01*
X141549945Y-76209392D01*
X141560498Y-76244180D01*
X141619463Y-76354494D01*
X141698815Y-76451185D01*
X141795506Y-76530537D01*
X141905820Y-76589502D01*
X142025518Y-76625812D01*
X142150000Y-76638072D01*
X142714250Y-76635000D01*
X142873000Y-76476250D01*
X142873000Y-75127000D01*
X143127000Y-75127000D01*
X143127000Y-76476250D01*
X143285750Y-76635000D01*
X143850000Y-76638072D01*
X143974482Y-76625812D01*
X144094180Y-76589502D01*
X144204494Y-76530537D01*
X144301185Y-76451185D01*
X144380537Y-76354494D01*
X144439502Y-76244180D01*
X144475812Y-76124482D01*
X144488072Y-76000000D01*
X144485000Y-75285750D01*
X144326250Y-75127000D01*
X143127000Y-75127000D01*
X142873000Y-75127000D01*
X142853000Y-75127000D01*
X142853000Y-74873000D01*
X142873000Y-74873000D01*
X142873000Y-73523750D01*
X143127000Y-73523750D01*
X143127000Y-74873000D01*
X144326250Y-74873000D01*
X144422200Y-74777050D01*
X150015000Y-74777050D01*
X150015000Y-75222949D01*
X150036487Y-75441110D01*
X150121401Y-75721033D01*
X150259294Y-75979013D01*
X150444866Y-76205134D01*
X150670986Y-76390706D01*
X150928966Y-76528599D01*
X151208889Y-76613513D01*
X151500000Y-76642185D01*
X151791110Y-76613513D01*
X152071033Y-76528599D01*
X152329013Y-76390706D01*
X152549945Y-76209392D01*
X152560498Y-76244180D01*
X152619463Y-76354494D01*
X152698815Y-76451185D01*
X152795506Y-76530537D01*
X152905820Y-76589502D01*
X153025518Y-76625812D01*
X153150000Y-76638072D01*
X153714250Y-76635000D01*
X153873000Y-76476250D01*
X153873000Y-75127000D01*
X154127000Y-75127000D01*
X154127000Y-76476250D01*
X154285750Y-76635000D01*
X154850000Y-76638072D01*
X154974482Y-76625812D01*
X155094180Y-76589502D01*
X155204494Y-76530537D01*
X155301185Y-76451185D01*
X155380537Y-76354494D01*
X155439502Y-76244180D01*
X155475812Y-76124482D01*
X155488072Y-76000000D01*
X155485000Y-75285750D01*
X155326250Y-75127000D01*
X154127000Y-75127000D01*
X153873000Y-75127000D01*
X153853000Y-75127000D01*
X153853000Y-74873000D01*
X153873000Y-74873000D01*
X153873000Y-73523750D01*
X154127000Y-73523750D01*
X154127000Y-74873000D01*
X155326250Y-74873000D01*
X155485000Y-74714250D01*
X155488072Y-74000000D01*
X155475812Y-73875518D01*
X155439502Y-73755820D01*
X155380537Y-73645506D01*
X155301185Y-73548815D01*
X155204494Y-73469463D01*
X155094180Y-73410498D01*
X154974482Y-73374188D01*
X154850000Y-73361928D01*
X154285750Y-73365000D01*
X154127000Y-73523750D01*
X153873000Y-73523750D01*
X153714250Y-73365000D01*
X153150000Y-73361928D01*
X153025518Y-73374188D01*
X152905820Y-73410498D01*
X152795506Y-73469463D01*
X152698815Y-73548815D01*
X152619463Y-73645506D01*
X152560498Y-73755820D01*
X152549945Y-73790608D01*
X152329014Y-73609294D01*
X152071034Y-73471401D01*
X151791111Y-73386487D01*
X151500000Y-73357815D01*
X151208890Y-73386487D01*
X150928967Y-73471401D01*
X150670987Y-73609294D01*
X150444866Y-73794866D01*
X150259294Y-74020986D01*
X150121401Y-74278966D01*
X150036487Y-74558889D01*
X150015000Y-74777050D01*
X144422200Y-74777050D01*
X144485000Y-74714250D01*
X144488072Y-74000000D01*
X144475812Y-73875518D01*
X144439502Y-73755820D01*
X144380537Y-73645506D01*
X144301185Y-73548815D01*
X144204494Y-73469463D01*
X144094180Y-73410498D01*
X143974482Y-73374188D01*
X143850000Y-73361928D01*
X143285750Y-73365000D01*
X143127000Y-73523750D01*
X142873000Y-73523750D01*
X142714250Y-73365000D01*
X142150000Y-73361928D01*
X142025518Y-73374188D01*
X141905820Y-73410498D01*
X141795506Y-73469463D01*
X141698815Y-73548815D01*
X141619463Y-73645506D01*
X141560498Y-73755820D01*
X141549945Y-73790608D01*
X141329014Y-73609294D01*
X141071034Y-73471401D01*
X140791111Y-73386487D01*
X140500000Y-73357815D01*
X140208890Y-73386487D01*
X139928967Y-73471401D01*
X139670987Y-73609294D01*
X139444866Y-73794866D01*
X139259294Y-74020986D01*
X139121401Y-74278966D01*
X139036487Y-74558889D01*
X139015000Y-74777050D01*
X137882182Y-74777050D01*
X133841996Y-70736865D01*
X133806449Y-70693551D01*
X133633623Y-70551716D01*
X133436447Y-70446324D01*
X133222499Y-70381423D01*
X133055752Y-70365000D01*
X133055751Y-70365000D01*
X133000000Y-70359509D01*
X132944249Y-70365000D01*
X91555741Y-70365000D01*
X91499999Y-70359510D01*
X91444257Y-70365000D01*
X91444248Y-70365000D01*
X91277501Y-70381423D01*
X91063553Y-70446324D01*
X90866377Y-70551716D01*
X90693551Y-70693551D01*
X90658009Y-70736859D01*
X88032941Y-73361928D01*
X87400000Y-73361928D01*
X87226746Y-73378992D01*
X87060150Y-73429528D01*
X86906614Y-73511595D01*
X86772038Y-73622038D01*
X86661595Y-73756614D01*
X86607223Y-73858337D01*
X86555134Y-73794866D01*
X86329014Y-73609294D01*
X86071034Y-73471401D01*
X85791111Y-73386487D01*
X85500000Y-73357815D01*
X85208890Y-73386487D01*
X84928967Y-73471401D01*
X84670987Y-73609294D01*
X84444866Y-73794866D01*
X84259294Y-74020986D01*
X84121401Y-74278966D01*
X84036487Y-74558889D01*
X84015000Y-74777050D01*
X70660000Y-74777050D01*
X70660000Y-70032278D01*
X70684748Y-69779872D01*
X71765000Y-69779872D01*
X71765000Y-70220128D01*
X71850890Y-70651925D01*
X72019369Y-71058669D01*
X72263962Y-71424729D01*
X72575271Y-71736038D01*
X72941331Y-71980631D01*
X73348075Y-72149110D01*
X73779872Y-72235000D01*
X74220128Y-72235000D01*
X74651925Y-72149110D01*
X75058669Y-71980631D01*
X75424729Y-71736038D01*
X75736038Y-71424729D01*
X75980631Y-71058669D01*
X76149110Y-70651925D01*
X76235000Y-70220128D01*
X76235000Y-69779872D01*
X163765000Y-69779872D01*
X163765000Y-70220128D01*
X163850890Y-70651925D01*
X164019369Y-71058669D01*
X164263962Y-71424729D01*
X164575271Y-71736038D01*
X164941331Y-71980631D01*
X165348075Y-72149110D01*
X165779872Y-72235000D01*
X166220128Y-72235000D01*
X166651925Y-72149110D01*
X167058669Y-71980631D01*
X167424729Y-71736038D01*
X167736038Y-71424729D01*
X167980631Y-71058669D01*
X168149110Y-70651925D01*
X168235000Y-70220128D01*
X168235000Y-69779872D01*
X168149110Y-69348075D01*
X167980631Y-68941331D01*
X167736038Y-68575271D01*
X167424729Y-68263962D01*
X167058669Y-68019369D01*
X166651925Y-67850890D01*
X166220128Y-67765000D01*
X165779872Y-67765000D01*
X165348075Y-67850890D01*
X164941331Y-68019369D01*
X164575271Y-68263962D01*
X164263962Y-68575271D01*
X164019369Y-68941331D01*
X163850890Y-69348075D01*
X163765000Y-69779872D01*
X76235000Y-69779872D01*
X76149110Y-69348075D01*
X75980631Y-68941331D01*
X75736038Y-68575271D01*
X75424729Y-68263962D01*
X75058669Y-68019369D01*
X74651925Y-67850890D01*
X74220128Y-67765000D01*
X73779872Y-67765000D01*
X73348075Y-67850890D01*
X72941331Y-68019369D01*
X72575271Y-68263962D01*
X72263962Y-68575271D01*
X72019369Y-68941331D01*
X71850890Y-69348075D01*
X71765000Y-69779872D01*
X70684748Y-69779872D01*
X70726714Y-69351874D01*
X70914943Y-68728428D01*
X71220681Y-68153421D01*
X71632279Y-67648753D01*
X72134067Y-67233638D01*
X72706924Y-66923895D01*
X73329039Y-66731318D01*
X74007584Y-66660000D01*
X165967722Y-66660000D01*
X166648126Y-66726714D01*
%TA.AperFunction,Conductor*%
D30*
G36*
X166648126Y-66726714D02*
G01*
X167271572Y-66914943D01*
X167846579Y-67220681D01*
X168351247Y-67632279D01*
X168766362Y-68134067D01*
X169076105Y-68706924D01*
X169268682Y-69329039D01*
X169340000Y-70007584D01*
X169340001Y-135967711D01*
X169273286Y-136648126D01*
X169085057Y-137271570D01*
X168779323Y-137846573D01*
X168367721Y-138351248D01*
X167865933Y-138766362D01*
X167293077Y-139076104D01*
X166670961Y-139268682D01*
X165992417Y-139340000D01*
X74032279Y-139340000D01*
X73351874Y-139273286D01*
X72728430Y-139085057D01*
X72153427Y-138779323D01*
X71648752Y-138367721D01*
X71233638Y-137865933D01*
X70923896Y-137293077D01*
X70731318Y-136670961D01*
X70660000Y-135992417D01*
X70660000Y-135779872D01*
X71765000Y-135779872D01*
X71765000Y-136220128D01*
X71850890Y-136651925D01*
X72019369Y-137058669D01*
X72263962Y-137424729D01*
X72575271Y-137736038D01*
X72941331Y-137980631D01*
X73348075Y-138149110D01*
X73779872Y-138235000D01*
X74220128Y-138235000D01*
X74651925Y-138149110D01*
X75058669Y-137980631D01*
X75424729Y-137736038D01*
X75736038Y-137424729D01*
X75980631Y-137058669D01*
X76149110Y-136651925D01*
X76235000Y-136220128D01*
X76235000Y-135779872D01*
X163765000Y-135779872D01*
X163765000Y-136220128D01*
X163850890Y-136651925D01*
X164019369Y-137058669D01*
X164263962Y-137424729D01*
X164575271Y-137736038D01*
X164941331Y-137980631D01*
X165348075Y-138149110D01*
X165779872Y-138235000D01*
X166220128Y-138235000D01*
X166651925Y-138149110D01*
X167058669Y-137980631D01*
X167424729Y-137736038D01*
X167736038Y-137424729D01*
X167980631Y-137058669D01*
X168149110Y-136651925D01*
X168235000Y-136220128D01*
X168235000Y-135779872D01*
X168149110Y-135348075D01*
X167980631Y-134941331D01*
X167736038Y-134575271D01*
X167424729Y-134263962D01*
X167058669Y-134019369D01*
X166651925Y-133850890D01*
X166220128Y-133765000D01*
X165779872Y-133765000D01*
X165348075Y-133850890D01*
X164941331Y-134019369D01*
X164575271Y-134263962D01*
X164263962Y-134575271D01*
X164019369Y-134941331D01*
X163850890Y-135348075D01*
X163765000Y-135779872D01*
X76235000Y-135779872D01*
X76149110Y-135348075D01*
X75980631Y-134941331D01*
X75736038Y-134575271D01*
X75424729Y-134263962D01*
X75058669Y-134019369D01*
X74651925Y-133850890D01*
X74220128Y-133765000D01*
X73779872Y-133765000D01*
X73348075Y-133850890D01*
X72941331Y-134019369D01*
X72575271Y-134263962D01*
X72263962Y-134575271D01*
X72019369Y-134941331D01*
X71850890Y-135348075D01*
X71765000Y-135779872D01*
X70660000Y-135779872D01*
X70660000Y-131250000D01*
X86511928Y-131250000D01*
X86511928Y-132750000D01*
X86528992Y-132923254D01*
X86579528Y-133089850D01*
X86661595Y-133243386D01*
X86772038Y-133377962D01*
X86906614Y-133488405D01*
X87060150Y-133570472D01*
X87226746Y-133621008D01*
X87400000Y-133638072D01*
X88600000Y-133638072D01*
X88773254Y-133621008D01*
X88939850Y-133570472D01*
X89093386Y-133488405D01*
X89227962Y-133377962D01*
X89338405Y-133243386D01*
X89392777Y-133141663D01*
X89444866Y-133205134D01*
X89670987Y-133390706D01*
X89928967Y-133528599D01*
X90208890Y-133613513D01*
X90500000Y-133642185D01*
X90791111Y-133613513D01*
X91071034Y-133528599D01*
X91329014Y-133390706D01*
X91555134Y-133205134D01*
X91723483Y-133000000D01*
X97511928Y-133000000D01*
X97524188Y-133124482D01*
X97560498Y-133244180D01*
X97619463Y-133354494D01*
X97698815Y-133451185D01*
X97795506Y-133530537D01*
X97905820Y-133589502D01*
X98025518Y-133625812D01*
X98150000Y-133638072D01*
X98714250Y-133635000D01*
X98873000Y-133476250D01*
X98873000Y-132127000D01*
X97673750Y-132127000D01*
X97515000Y-132285750D01*
X97511928Y-133000000D01*
X91723483Y-133000000D01*
X91740706Y-132979014D01*
X91878599Y-132721033D01*
X91963513Y-132441110D01*
X91985000Y-132222949D01*
X91985000Y-131777050D01*
X91963513Y-131558889D01*
X91878599Y-131278966D01*
X91740706Y-131020986D01*
X91723484Y-131000000D01*
X97511928Y-131000000D01*
X97515000Y-131714250D01*
X97673750Y-131873000D01*
X98873000Y-131873000D01*
X98873000Y-130523750D01*
X98714250Y-130365000D01*
X98150000Y-130361928D01*
X98025518Y-130374188D01*
X97905820Y-130410498D01*
X97795506Y-130469463D01*
X97698815Y-130548815D01*
X97619463Y-130645506D01*
X97560498Y-130755820D01*
X97524188Y-130875518D01*
X97511928Y-131000000D01*
X91723484Y-131000000D01*
X91555134Y-130794866D01*
X91329013Y-130609294D01*
X91111891Y-130493240D01*
X98111108Y-123494023D01*
X104545582Y-123494023D01*
X104725648Y-123830060D01*
X105134474Y-124040820D01*
X105576562Y-124167772D01*
X106034922Y-124206037D01*
X106491940Y-124154146D01*
X106930053Y-124014092D01*
X107274352Y-123830060D01*
X107454418Y-123494023D01*
X106000000Y-122039605D01*
X104545582Y-123494023D01*
X98111108Y-123494023D01*
X101010133Y-120594999D01*
X104025119Y-120594999D01*
X103819180Y-120994474D01*
X103692228Y-121436562D01*
X103653963Y-121894922D01*
X103705854Y-122351940D01*
X103845908Y-122790053D01*
X104029940Y-123134352D01*
X104365977Y-123314418D01*
X105820395Y-121860000D01*
X105806253Y-121845858D01*
X105985858Y-121666253D01*
X106000000Y-121680395D01*
X106014143Y-121666253D01*
X106193748Y-121845858D01*
X106179605Y-121860000D01*
X107634023Y-123314418D01*
X107970060Y-123134352D01*
X108180820Y-122725526D01*
X108307772Y-122283438D01*
X108346037Y-121825078D01*
X108294146Y-121368060D01*
X108154092Y-120929947D01*
X107975058Y-120594999D01*
X114449775Y-120594999D01*
X114527501Y-120618577D01*
X114694248Y-120635000D01*
X114694249Y-120635000D01*
X114750000Y-120640491D01*
X114805751Y-120635000D01*
X115244499Y-120635000D01*
X115298815Y-120701185D01*
X115395506Y-120780537D01*
X115505820Y-120839502D01*
X115625518Y-120875812D01*
X115750000Y-120888072D01*
X117250000Y-120888072D01*
X117374482Y-120875812D01*
X117494180Y-120839502D01*
X117604494Y-120780537D01*
X117701185Y-120701185D01*
X117755501Y-120635000D01*
X118649869Y-120635000D01*
X122692150Y-124677282D01*
X122729491Y-124865001D01*
X118470133Y-124865001D01*
X117927850Y-124322718D01*
X117879853Y-124081426D01*
X117771680Y-123820273D01*
X117614637Y-123585241D01*
X117414759Y-123385363D01*
X117179727Y-123228320D01*
X116918574Y-123120147D01*
X116641335Y-123065000D01*
X116358665Y-123065000D01*
X116081426Y-123120147D01*
X115820273Y-123228320D01*
X115585241Y-123385363D01*
X115385363Y-123585241D01*
X115228320Y-123820273D01*
X115120147Y-124081426D01*
X115072150Y-124322718D01*
X109236865Y-130158004D01*
X109193551Y-130193551D01*
X109051716Y-130366377D01*
X109001087Y-130461098D01*
X108906614Y-130511595D01*
X108772038Y-130622038D01*
X108661595Y-130756614D01*
X108603661Y-130865000D01*
X102612692Y-130865000D01*
X102555134Y-130794866D01*
X102329013Y-130609294D01*
X102071033Y-130471401D01*
X101791110Y-130386487D01*
X101500000Y-130357815D01*
X101208889Y-130386487D01*
X100928966Y-130471401D01*
X100670986Y-130609294D01*
X100450055Y-130790608D01*
X100439502Y-130755820D01*
X100380537Y-130645506D01*
X100301185Y-130548815D01*
X100204494Y-130469463D01*
X100094180Y-130410498D01*
X99974482Y-130374188D01*
X99850000Y-130361928D01*
X99285750Y-130365000D01*
X99127000Y-130523750D01*
X99127000Y-131873000D01*
X99147000Y-131873000D01*
X99147000Y-132127000D01*
X99127000Y-132127000D01*
X99127000Y-133476250D01*
X99285750Y-133635000D01*
X99850000Y-133638072D01*
X99974482Y-133625812D01*
X100094180Y-133589502D01*
X100204494Y-133530537D01*
X100301185Y-133451185D01*
X100380537Y-133354494D01*
X100439502Y-133244180D01*
X100450055Y-133209392D01*
X100670987Y-133390706D01*
X100928967Y-133528599D01*
X101208890Y-133613513D01*
X101500000Y-133642185D01*
X101791111Y-133613513D01*
X102071034Y-133528599D01*
X102329014Y-133390706D01*
X102555134Y-133205134D01*
X102612692Y-133135000D01*
X108603661Y-133135000D01*
X108661595Y-133243386D01*
X108772038Y-133377962D01*
X108906614Y-133488405D01*
X109060150Y-133570472D01*
X109226746Y-133621008D01*
X109400000Y-133638072D01*
X110600000Y-133638072D01*
X110773254Y-133621008D01*
X110939850Y-133570472D01*
X111093386Y-133488405D01*
X111227962Y-133377962D01*
X111338405Y-133243386D01*
X111392777Y-133141663D01*
X111444866Y-133205134D01*
X111670987Y-133390706D01*
X111928967Y-133528599D01*
X112208890Y-133613513D01*
X112500000Y-133642185D01*
X112791111Y-133613513D01*
X113071034Y-133528599D01*
X113329014Y-133390706D01*
X113555134Y-133205134D01*
X113723483Y-133000000D01*
X119511928Y-133000000D01*
X119524188Y-133124482D01*
X119560498Y-133244180D01*
X119619463Y-133354494D01*
X119698815Y-133451185D01*
X119795506Y-133530537D01*
X119905820Y-133589502D01*
X120025518Y-133625812D01*
X120150000Y-133638072D01*
X120714250Y-133635000D01*
X120873000Y-133476250D01*
X120873000Y-132127000D01*
X119673750Y-132127000D01*
X119515000Y-132285750D01*
X119511928Y-133000000D01*
X113723483Y-133000000D01*
X113740706Y-132979014D01*
X113878599Y-132721033D01*
X113963513Y-132441110D01*
X113985000Y-132222949D01*
X113985000Y-131777050D01*
X113963513Y-131558889D01*
X113878599Y-131278966D01*
X113740706Y-131020986D01*
X113723484Y-131000000D01*
X119511928Y-131000000D01*
X119515000Y-131714250D01*
X119673750Y-131873000D01*
X120873000Y-131873000D01*
X120873000Y-130523750D01*
X121127000Y-130523750D01*
X121127000Y-131873000D01*
X121147000Y-131873000D01*
X121147000Y-132127000D01*
X121127000Y-132127000D01*
X121127000Y-133476250D01*
X121285750Y-133635000D01*
X121850000Y-133638072D01*
X121974482Y-133625812D01*
X122094180Y-133589502D01*
X122204494Y-133530537D01*
X122301185Y-133451185D01*
X122380537Y-133354494D01*
X122439502Y-133244180D01*
X122450055Y-133209392D01*
X122670987Y-133390706D01*
X122928967Y-133528599D01*
X123208890Y-133613513D01*
X123500000Y-133642185D01*
X123791111Y-133613513D01*
X124071034Y-133528599D01*
X124329014Y-133390706D01*
X124555134Y-133205134D01*
X124723483Y-133000000D01*
X130511928Y-133000000D01*
X130524188Y-133124482D01*
X130560498Y-133244180D01*
X130619463Y-133354494D01*
X130698815Y-133451185D01*
X130795506Y-133530537D01*
X130905820Y-133589502D01*
X131025518Y-133625812D01*
X131150000Y-133638072D01*
X131714250Y-133635000D01*
X131873000Y-133476250D01*
X131873000Y-132127000D01*
X130673750Y-132127000D01*
X130515000Y-132285750D01*
X130511928Y-133000000D01*
X124723483Y-133000000D01*
X124740706Y-132979014D01*
X124878599Y-132721033D01*
X124963513Y-132441110D01*
X124985000Y-132222949D01*
X124985000Y-131777050D01*
X124963513Y-131558889D01*
X124878599Y-131278966D01*
X124740706Y-131020986D01*
X124723484Y-131000000D01*
X130511928Y-131000000D01*
X130515000Y-131714250D01*
X130673750Y-131873000D01*
X131873000Y-131873000D01*
X131873000Y-130523750D01*
X132127000Y-130523750D01*
X132127000Y-131873000D01*
X132147000Y-131873000D01*
X132147000Y-132127000D01*
X132127000Y-132127000D01*
X132127000Y-133476250D01*
X132285750Y-133635000D01*
X132850000Y-133638072D01*
X132974482Y-133625812D01*
X133094180Y-133589502D01*
X133204494Y-133530537D01*
X133301185Y-133451185D01*
X133380537Y-133354494D01*
X133439502Y-133244180D01*
X133450055Y-133209392D01*
X133670987Y-133390706D01*
X133928967Y-133528599D01*
X134208890Y-133613513D01*
X134500000Y-133642185D01*
X134791111Y-133613513D01*
X135071034Y-133528599D01*
X135329014Y-133390706D01*
X135555134Y-133205134D01*
X135723483Y-133000000D01*
X141511928Y-133000000D01*
X141524188Y-133124482D01*
X141560498Y-133244180D01*
X141619463Y-133354494D01*
X141698815Y-133451185D01*
X141795506Y-133530537D01*
X141905820Y-133589502D01*
X142025518Y-133625812D01*
X142150000Y-133638072D01*
X142714250Y-133635000D01*
X142873000Y-133476250D01*
X142873000Y-132127000D01*
X141673750Y-132127000D01*
X141515000Y-132285750D01*
X141511928Y-133000000D01*
X135723483Y-133000000D01*
X135740706Y-132979014D01*
X135878599Y-132721033D01*
X135963513Y-132441110D01*
X135985000Y-132222949D01*
X135985000Y-131777050D01*
X135963513Y-131558889D01*
X135878599Y-131278966D01*
X135740706Y-131020986D01*
X135723484Y-131000000D01*
X141511928Y-131000000D01*
X141515000Y-131714250D01*
X141673750Y-131873000D01*
X142873000Y-131873000D01*
X142873000Y-130523750D01*
X143127000Y-130523750D01*
X143127000Y-131873000D01*
X143147000Y-131873000D01*
X143147000Y-132127000D01*
X143127000Y-132127000D01*
X143127000Y-133476250D01*
X143285750Y-133635000D01*
X143850000Y-133638072D01*
X143974482Y-133625812D01*
X144094180Y-133589502D01*
X144204494Y-133530537D01*
X144301185Y-133451185D01*
X144380537Y-133354494D01*
X144439502Y-133244180D01*
X144450055Y-133209392D01*
X144670987Y-133390706D01*
X144928967Y-133528599D01*
X145208890Y-133613513D01*
X145500000Y-133642185D01*
X145791111Y-133613513D01*
X146071034Y-133528599D01*
X146329014Y-133390706D01*
X146555134Y-133205134D01*
X146723483Y-133000000D01*
X152511928Y-133000000D01*
X152524188Y-133124482D01*
X152560498Y-133244180D01*
X152619463Y-133354494D01*
X152698815Y-133451185D01*
X152795506Y-133530537D01*
X152905820Y-133589502D01*
X153025518Y-133625812D01*
X153150000Y-133638072D01*
X153714250Y-133635000D01*
X153873000Y-133476250D01*
X153873000Y-132127000D01*
X152673750Y-132127000D01*
X152515000Y-132285750D01*
X152511928Y-133000000D01*
X146723483Y-133000000D01*
X146740706Y-132979014D01*
X146878599Y-132721033D01*
X146963513Y-132441110D01*
X146985000Y-132222949D01*
X146985000Y-131777050D01*
X146963513Y-131558889D01*
X146878599Y-131278966D01*
X146740706Y-131020986D01*
X146723484Y-131000000D01*
X152511928Y-131000000D01*
X152515000Y-131714250D01*
X152673750Y-131873000D01*
X153873000Y-131873000D01*
X153873000Y-130523750D01*
X154127000Y-130523750D01*
X154127000Y-131873000D01*
X154147000Y-131873000D01*
X154147000Y-132127000D01*
X154127000Y-132127000D01*
X154127000Y-133476250D01*
X154285750Y-133635000D01*
X154850000Y-133638072D01*
X154974482Y-133625812D01*
X155094180Y-133589502D01*
X155204494Y-133530537D01*
X155301185Y-133451185D01*
X155380537Y-133354494D01*
X155439502Y-133244180D01*
X155450055Y-133209392D01*
X155670987Y-133390706D01*
X155928967Y-133528599D01*
X156208890Y-133613513D01*
X156500000Y-133642185D01*
X156791111Y-133613513D01*
X157071034Y-133528599D01*
X157329014Y-133390706D01*
X157555134Y-133205134D01*
X157740706Y-132979014D01*
X157878599Y-132721033D01*
X157963513Y-132441110D01*
X157985000Y-132222949D01*
X157985000Y-131777050D01*
X157963513Y-131558889D01*
X157878599Y-131278966D01*
X157740706Y-131020986D01*
X157555134Y-130794866D01*
X157329013Y-130609294D01*
X157071033Y-130471401D01*
X156791110Y-130386487D01*
X156500000Y-130357815D01*
X156208889Y-130386487D01*
X155928966Y-130471401D01*
X155670986Y-130609294D01*
X155450055Y-130790608D01*
X155439502Y-130755820D01*
X155380537Y-130645506D01*
X155301185Y-130548815D01*
X155204494Y-130469463D01*
X155094180Y-130410498D01*
X154974482Y-130374188D01*
X154850000Y-130361928D01*
X154285750Y-130365000D01*
X154127000Y-130523750D01*
X153873000Y-130523750D01*
X153714250Y-130365000D01*
X153150000Y-130361928D01*
X153025518Y-130374188D01*
X152905820Y-130410498D01*
X152795506Y-130469463D01*
X152698815Y-130548815D01*
X152619463Y-130645506D01*
X152560498Y-130755820D01*
X152524188Y-130875518D01*
X152511928Y-131000000D01*
X146723484Y-131000000D01*
X146555134Y-130794866D01*
X146329013Y-130609294D01*
X146071033Y-130471401D01*
X145791110Y-130386487D01*
X145500000Y-130357815D01*
X145208889Y-130386487D01*
X144928966Y-130471401D01*
X144670986Y-130609294D01*
X144450055Y-130790608D01*
X144439502Y-130755820D01*
X144380537Y-130645506D01*
X144301185Y-130548815D01*
X144204494Y-130469463D01*
X144094180Y-130410498D01*
X143974482Y-130374188D01*
X143850000Y-130361928D01*
X143285750Y-130365000D01*
X143127000Y-130523750D01*
X142873000Y-130523750D01*
X142714250Y-130365000D01*
X142150000Y-130361928D01*
X142025518Y-130374188D01*
X141905820Y-130410498D01*
X141795506Y-130469463D01*
X141698815Y-130548815D01*
X141619463Y-130645506D01*
X141560498Y-130755820D01*
X141524188Y-130875518D01*
X141511928Y-131000000D01*
X135723484Y-131000000D01*
X135555134Y-130794866D01*
X135329013Y-130609294D01*
X135071033Y-130471401D01*
X134791110Y-130386487D01*
X134500000Y-130357815D01*
X134208889Y-130386487D01*
X133928966Y-130471401D01*
X133670986Y-130609294D01*
X133450055Y-130790608D01*
X133439502Y-130755820D01*
X133380537Y-130645506D01*
X133301185Y-130548815D01*
X133204494Y-130469463D01*
X133094180Y-130410498D01*
X132974482Y-130374188D01*
X132850000Y-130361928D01*
X132285750Y-130365000D01*
X132127000Y-130523750D01*
X131873000Y-130523750D01*
X131714250Y-130365000D01*
X131150000Y-130361928D01*
X131025518Y-130374188D01*
X130905820Y-130410498D01*
X130795506Y-130469463D01*
X130698815Y-130548815D01*
X130619463Y-130645506D01*
X130560498Y-130755820D01*
X130524188Y-130875518D01*
X130511928Y-131000000D01*
X124723484Y-131000000D01*
X124555134Y-130794866D01*
X124329013Y-130609294D01*
X124071033Y-130471401D01*
X123791110Y-130386487D01*
X123500000Y-130357815D01*
X123208889Y-130386487D01*
X122928966Y-130471401D01*
X122670986Y-130609294D01*
X122450055Y-130790608D01*
X122439502Y-130755820D01*
X122380537Y-130645506D01*
X122301185Y-130548815D01*
X122204494Y-130469463D01*
X122094180Y-130410498D01*
X121974482Y-130374188D01*
X121850000Y-130361928D01*
X121285750Y-130365000D01*
X121127000Y-130523750D01*
X120873000Y-130523750D01*
X120714250Y-130365000D01*
X120150000Y-130361928D01*
X120025518Y-130374188D01*
X119905820Y-130410498D01*
X119795506Y-130469463D01*
X119698815Y-130548815D01*
X119619463Y-130645506D01*
X119560498Y-130755820D01*
X119524188Y-130875518D01*
X119511928Y-131000000D01*
X113723484Y-131000000D01*
X113555134Y-130794866D01*
X113329013Y-130609294D01*
X113071033Y-130471401D01*
X112791110Y-130386487D01*
X112500000Y-130357815D01*
X112219710Y-130385421D01*
X116500000Y-126105132D01*
X117158009Y-126763141D01*
X117193552Y-126806450D01*
X117342838Y-126928966D01*
X117366378Y-126948285D01*
X117563554Y-127053677D01*
X117777502Y-127118578D01*
X118000001Y-127140492D01*
X118055753Y-127135001D01*
X138944248Y-127135001D01*
X138999999Y-127140492D01*
X139055750Y-127135001D01*
X139055751Y-127135001D01*
X139222498Y-127118578D01*
X139436446Y-127053677D01*
X139633622Y-126948285D01*
X139806448Y-126806450D01*
X139841995Y-126763136D01*
X140667060Y-125938072D01*
X141300000Y-125938072D01*
X141424482Y-125925812D01*
X141544180Y-125889502D01*
X141654494Y-125830537D01*
X141751185Y-125751185D01*
X141830537Y-125654494D01*
X141889502Y-125544180D01*
X141925812Y-125424482D01*
X141938072Y-125300000D01*
X141938072Y-124358665D01*
X146685000Y-124358665D01*
X146685000Y-124641335D01*
X146740147Y-124918574D01*
X146848320Y-125179727D01*
X147005363Y-125414759D01*
X147205241Y-125614637D01*
X147440273Y-125771680D01*
X147701426Y-125879853D01*
X147978665Y-125935000D01*
X148261335Y-125935000D01*
X148538574Y-125879853D01*
X148799727Y-125771680D01*
X149034759Y-125614637D01*
X149234637Y-125414759D01*
X149391680Y-125179727D01*
X149499853Y-124918574D01*
X149555000Y-124641335D01*
X149555000Y-124358665D01*
X149499853Y-124081426D01*
X149391680Y-123820273D01*
X149234637Y-123585241D01*
X149034759Y-123385363D01*
X148799727Y-123228320D01*
X148538574Y-123120147D01*
X148261335Y-123065000D01*
X147978665Y-123065000D01*
X147701426Y-123120147D01*
X147440273Y-123228320D01*
X147205241Y-123385363D01*
X147005363Y-123585241D01*
X146848320Y-123820273D01*
X146740147Y-124081426D01*
X146685000Y-124358665D01*
X141938072Y-124358665D01*
X141938072Y-123700000D01*
X141925812Y-123575518D01*
X141889502Y-123455820D01*
X141830537Y-123345506D01*
X141751185Y-123248815D01*
X141654494Y-123169463D01*
X141635000Y-123159043D01*
X141635000Y-120438446D01*
X141727095Y-120400299D01*
X141978505Y-120232312D01*
X142192312Y-120018505D01*
X142360299Y-119767095D01*
X142476011Y-119487743D01*
X142535000Y-119191184D01*
X142535000Y-118888816D01*
X142476011Y-118592257D01*
X142360299Y-118312905D01*
X142192312Y-118061495D01*
X142125873Y-117995056D01*
X142144180Y-117989502D01*
X142254494Y-117930537D01*
X142351185Y-117851185D01*
X142430537Y-117754494D01*
X142489502Y-117644180D01*
X142525812Y-117524482D01*
X142538072Y-117400000D01*
X142538072Y-115600000D01*
X142525812Y-115475518D01*
X142489502Y-115355820D01*
X142430537Y-115245506D01*
X142351185Y-115148815D01*
X142254494Y-115069463D01*
X142144180Y-115010498D01*
X142024482Y-114974188D01*
X141900000Y-114961928D01*
X140100000Y-114961928D01*
X139975518Y-114974188D01*
X139855820Y-115010498D01*
X139745506Y-115069463D01*
X139648815Y-115148815D01*
X139569463Y-115245506D01*
X139510498Y-115355820D01*
X139507713Y-115365000D01*
X136555741Y-115365000D01*
X136499999Y-115359510D01*
X136444257Y-115365000D01*
X136444248Y-115365000D01*
X136277501Y-115381423D01*
X136063553Y-115446324D01*
X135866377Y-115551716D01*
X135693551Y-115693551D01*
X135658009Y-115736859D01*
X128322719Y-123072150D01*
X128081426Y-123120147D01*
X127820273Y-123228320D01*
X127585241Y-123385363D01*
X127385363Y-123585241D01*
X127228320Y-123820273D01*
X127120147Y-124081426D01*
X127065000Y-124358665D01*
X127065000Y-124641335D01*
X127109491Y-124865001D01*
X125510509Y-124865001D01*
X125555000Y-124641335D01*
X125555000Y-124358665D01*
X125499853Y-124081426D01*
X125391680Y-123820273D01*
X125234637Y-123585241D01*
X125034759Y-123385363D01*
X124799727Y-123228320D01*
X124538574Y-123120147D01*
X124297282Y-123072150D01*
X119961996Y-118736865D01*
X119926449Y-118693551D01*
X119753623Y-118551716D01*
X119556447Y-118446324D01*
X119342499Y-118381423D01*
X119175752Y-118365000D01*
X119175751Y-118365000D01*
X119120000Y-118359509D01*
X119064249Y-118365000D01*
X117755501Y-118365000D01*
X117701185Y-118298815D01*
X117604494Y-118219463D01*
X117494180Y-118160498D01*
X117374482Y-118124188D01*
X117250000Y-118111928D01*
X115750000Y-118111928D01*
X115625518Y-118124188D01*
X115505820Y-118160498D01*
X115395506Y-118219463D01*
X115298815Y-118298815D01*
X115244499Y-118365000D01*
X115010224Y-118365000D01*
X114932498Y-118341422D01*
X114765751Y-118324999D01*
X114765750Y-118324999D01*
X114709999Y-118319508D01*
X114654248Y-118324999D01*
X100595742Y-118324999D01*
X100540000Y-118319509D01*
X100484258Y-118324999D01*
X100484249Y-118324999D01*
X100317502Y-118341422D01*
X100103554Y-118406323D01*
X99906378Y-118511715D01*
X99733552Y-118653550D01*
X99698010Y-118696858D01*
X88032941Y-130361928D01*
X87400000Y-130361928D01*
X87226746Y-130378992D01*
X87060150Y-130429528D01*
X86906614Y-130511595D01*
X86772038Y-130622038D01*
X86661595Y-130756614D01*
X86579528Y-130910150D01*
X86528992Y-131076746D01*
X86511928Y-131250000D01*
X70660000Y-131250000D01*
X70660000Y-104700010D01*
X75659499Y-104700010D01*
X75664990Y-104755762D01*
X75664991Y-112244229D01*
X75659499Y-112299990D01*
X75681413Y-112522488D01*
X75746314Y-112736436D01*
X75746315Y-112736437D01*
X75851707Y-112933613D01*
X75993542Y-113106439D01*
X76036850Y-113141981D01*
X76861928Y-113967060D01*
X76861928Y-114032940D01*
X76036855Y-114858014D01*
X75993541Y-114893561D01*
X75851706Y-115066387D01*
X75755966Y-115245506D01*
X75746314Y-115263564D01*
X75681413Y-115477512D01*
X75659499Y-115700010D01*
X75664990Y-115755762D01*
X75664991Y-123244229D01*
X75659499Y-123299990D01*
X75681413Y-123522488D01*
X75746314Y-123736436D01*
X75746539Y-123736857D01*
X75851707Y-123933613D01*
X75993542Y-124106439D01*
X76036850Y-124141981D01*
X76861928Y-124967060D01*
X76861928Y-125600000D01*
X76878992Y-125773254D01*
X76929528Y-125939850D01*
X77011595Y-126093386D01*
X77122038Y-126227962D01*
X77256614Y-126338405D01*
X77358337Y-126392777D01*
X77294866Y-126444866D01*
X77109294Y-126670986D01*
X76971401Y-126928966D01*
X76886487Y-127208889D01*
X76857815Y-127500000D01*
X76886487Y-127791111D01*
X76971401Y-128071034D01*
X77109294Y-128329014D01*
X77294866Y-128555134D01*
X77520986Y-128740706D01*
X77778966Y-128878599D01*
X78058889Y-128963513D01*
X78277050Y-128985000D01*
X78722950Y-128985000D01*
X78941111Y-128963513D01*
X79221034Y-128878599D01*
X79479014Y-128740706D01*
X79705134Y-128555134D01*
X79890706Y-128329014D01*
X80028599Y-128071034D01*
X80113513Y-127791111D01*
X80142185Y-127500000D01*
X80113513Y-127208889D01*
X80028599Y-126928966D01*
X79890706Y-126670986D01*
X79705134Y-126444866D01*
X79641663Y-126392777D01*
X79743386Y-126338405D01*
X79877962Y-126227962D01*
X79988405Y-126093386D01*
X80070472Y-125939850D01*
X80121008Y-125773254D01*
X80138072Y-125600000D01*
X80138072Y-124478665D01*
X84565000Y-124478665D01*
X84565000Y-124761335D01*
X84620147Y-125038574D01*
X84728320Y-125299727D01*
X84885363Y-125534759D01*
X85085241Y-125734637D01*
X85320273Y-125891680D01*
X85581426Y-125999853D01*
X85858665Y-126055000D01*
X86141335Y-126055000D01*
X86418574Y-125999853D01*
X86679727Y-125891680D01*
X86914759Y-125734637D01*
X87114637Y-125534759D01*
X87271680Y-125299727D01*
X87379853Y-125038574D01*
X87435000Y-124761335D01*
X87435000Y-124478665D01*
X87379853Y-124201426D01*
X87271680Y-123940273D01*
X87114637Y-123705241D01*
X86914759Y-123505363D01*
X86679727Y-123348320D01*
X86418574Y-123240147D01*
X86141335Y-123185000D01*
X85858665Y-123185000D01*
X85581426Y-123240147D01*
X85320273Y-123348320D01*
X85085241Y-123505363D01*
X84885363Y-123705241D01*
X84728320Y-123940273D01*
X84620147Y-124201426D01*
X84565000Y-124478665D01*
X80138072Y-124478665D01*
X80138072Y-124400000D01*
X80121008Y-124226746D01*
X80070472Y-124060150D01*
X79988405Y-123906614D01*
X79877962Y-123772038D01*
X79743386Y-123661595D01*
X79589850Y-123579528D01*
X79423254Y-123528992D01*
X79250000Y-123511928D01*
X78617060Y-123511928D01*
X77934990Y-122829859D01*
X77934990Y-117925929D01*
X78058889Y-117963513D01*
X78277050Y-117985000D01*
X78722950Y-117985000D01*
X78941111Y-117963513D01*
X79221034Y-117878599D01*
X79479014Y-117740706D01*
X79705134Y-117555134D01*
X79890706Y-117329014D01*
X80028599Y-117071034D01*
X80113513Y-116791111D01*
X80142185Y-116500000D01*
X80113513Y-116208889D01*
X80028599Y-115928966D01*
X79890706Y-115670986D01*
X79705134Y-115444866D01*
X79641663Y-115392777D01*
X79743386Y-115338405D01*
X79877962Y-115227962D01*
X79988405Y-115093386D01*
X80070472Y-114939850D01*
X80121008Y-114773254D01*
X80138072Y-114600000D01*
X80138072Y-113400000D01*
X80121008Y-113226746D01*
X80070472Y-113060150D01*
X79988405Y-112906614D01*
X79877962Y-112772038D01*
X79743386Y-112661595D01*
X79589850Y-112579528D01*
X79423254Y-112528992D01*
X79250000Y-112511928D01*
X78617060Y-112511928D01*
X77934990Y-111829859D01*
X77934990Y-106925929D01*
X78058889Y-106963513D01*
X78277050Y-106985000D01*
X78722950Y-106985000D01*
X78941111Y-106963513D01*
X79221034Y-106878599D01*
X79479014Y-106740706D01*
X79705134Y-106555134D01*
X79890706Y-106329014D01*
X80006760Y-106111892D01*
X80658013Y-106763146D01*
X80693551Y-106806449D01*
X80736854Y-106841987D01*
X80736856Y-106841989D01*
X80866377Y-106948284D01*
X81063553Y-107053676D01*
X81277501Y-107118577D01*
X81500000Y-107140491D01*
X81555752Y-107135000D01*
X85115716Y-107135000D01*
X85320273Y-107271680D01*
X85581426Y-107379853D01*
X85858665Y-107435000D01*
X86141335Y-107435000D01*
X86418574Y-107379853D01*
X86679727Y-107271680D01*
X86884284Y-107135000D01*
X91529868Y-107135000D01*
X91561928Y-107167060D01*
X91561928Y-107800000D01*
X91574188Y-107924482D01*
X91610498Y-108044180D01*
X91669463Y-108154494D01*
X91748815Y-108251185D01*
X91845506Y-108330537D01*
X91955820Y-108389502D01*
X92075518Y-108425812D01*
X92200000Y-108438072D01*
X93800000Y-108438072D01*
X93924482Y-108425812D01*
X94044180Y-108389502D01*
X94154494Y-108330537D01*
X94251185Y-108251185D01*
X94330537Y-108154494D01*
X94389502Y-108044180D01*
X94418661Y-107948057D01*
X94585241Y-108114637D01*
X94820273Y-108271680D01*
X95081426Y-108379853D01*
X95358665Y-108435000D01*
X95641335Y-108435000D01*
X95918574Y-108379853D01*
X96179727Y-108271680D01*
X96414759Y-108114637D01*
X96614637Y-107914759D01*
X96771680Y-107679727D01*
X96879853Y-107418574D01*
X96935000Y-107141335D01*
X96935000Y-106858665D01*
X96905855Y-106712145D01*
X96983555Y-106753676D01*
X97197503Y-106818577D01*
X97420001Y-106840491D01*
X97475753Y-106835000D01*
X100559868Y-106835000D01*
X94909869Y-112485000D01*
X86884284Y-112485000D01*
X86679727Y-112348320D01*
X86418574Y-112240147D01*
X86141335Y-112185000D01*
X85858665Y-112185000D01*
X85581426Y-112240147D01*
X85320273Y-112348320D01*
X85085241Y-112505363D01*
X84885363Y-112705241D01*
X84728320Y-112940273D01*
X84620147Y-113201426D01*
X84565000Y-113478665D01*
X84565000Y-113761335D01*
X84620147Y-114038574D01*
X84728320Y-114299727D01*
X84865000Y-114504284D01*
X84865001Y-116115715D01*
X84728320Y-116320273D01*
X84620147Y-116581426D01*
X84565000Y-116858665D01*
X84565000Y-117141335D01*
X84620147Y-117418574D01*
X84728320Y-117679727D01*
X84885363Y-117914759D01*
X85085241Y-118114637D01*
X85320273Y-118271680D01*
X85581426Y-118379853D01*
X85858665Y-118435000D01*
X86141335Y-118435000D01*
X86418574Y-118379853D01*
X86679727Y-118271680D01*
X86914759Y-118114637D01*
X87114637Y-117914759D01*
X87271680Y-117679727D01*
X87379853Y-117418574D01*
X87435000Y-117141335D01*
X87435000Y-116858665D01*
X87379853Y-116581426D01*
X87271680Y-116320273D01*
X87135000Y-116115716D01*
X87135000Y-115874023D01*
X104545582Y-115874023D01*
X104725648Y-116210060D01*
X105134474Y-116420820D01*
X105576562Y-116547772D01*
X106034922Y-116586037D01*
X106491940Y-116534146D01*
X106930053Y-116394092D01*
X107274352Y-116210060D01*
X107454418Y-115874023D01*
X106000000Y-114419605D01*
X104545582Y-115874023D01*
X87135000Y-115874023D01*
X87135000Y-114755000D01*
X95324249Y-114755000D01*
X95380000Y-114760491D01*
X95435751Y-114755000D01*
X95435752Y-114755000D01*
X95602499Y-114738577D01*
X95816447Y-114673676D01*
X96013623Y-114568284D01*
X96186449Y-114426449D01*
X96221996Y-114383135D01*
X96330209Y-114274922D01*
X103653963Y-114274922D01*
X103705854Y-114731940D01*
X103845908Y-115170053D01*
X104029940Y-115514352D01*
X104365977Y-115694418D01*
X105820395Y-114240000D01*
X106179605Y-114240000D01*
X107634023Y-115694418D01*
X107970060Y-115514352D01*
X108180820Y-115105526D01*
X108307772Y-114663438D01*
X108346037Y-114205078D01*
X108294146Y-113748060D01*
X108154092Y-113309947D01*
X107970060Y-112965648D01*
X107634023Y-112785582D01*
X106179605Y-114240000D01*
X105820395Y-114240000D01*
X104365977Y-112785582D01*
X104029940Y-112965648D01*
X103819180Y-113374474D01*
X103692228Y-113816562D01*
X103653963Y-114274922D01*
X96330209Y-114274922D01*
X97999154Y-112605977D01*
X104545582Y-112605977D01*
X106000000Y-114060395D01*
X107454418Y-112605977D01*
X107274352Y-112269940D01*
X106865526Y-112059180D01*
X106423438Y-111932228D01*
X105965078Y-111893963D01*
X105508060Y-111945854D01*
X105069947Y-112085908D01*
X104725648Y-112269940D01*
X104545582Y-112605977D01*
X97999154Y-112605977D01*
X102070132Y-108535000D01*
X114797397Y-108535000D01*
X114805820Y-108539502D01*
X114925518Y-108575812D01*
X115050000Y-108588072D01*
X119650000Y-108588072D01*
X119774482Y-108575812D01*
X119894180Y-108539502D01*
X120004494Y-108480537D01*
X120101185Y-108401185D01*
X120180537Y-108304494D01*
X120239502Y-108194180D01*
X120275812Y-108074482D01*
X120288072Y-107950000D01*
X120288072Y-106850000D01*
X120275812Y-106725518D01*
X120239502Y-106605820D01*
X120209665Y-106550000D01*
X120239502Y-106494180D01*
X120275812Y-106374482D01*
X120288072Y-106250000D01*
X120288072Y-105150000D01*
X120286595Y-105135000D01*
X121161928Y-105135000D01*
X121161928Y-109400000D01*
X121174188Y-109524482D01*
X121210498Y-109644180D01*
X121269463Y-109754494D01*
X121348815Y-109851185D01*
X121445506Y-109930537D01*
X121555820Y-109989502D01*
X121675518Y-110025812D01*
X121800000Y-110038072D01*
X125365000Y-110038072D01*
X125365001Y-116649867D01*
X123879081Y-118135788D01*
X123716011Y-118168225D01*
X123463957Y-118272629D01*
X123237114Y-118424201D01*
X123044201Y-118617114D01*
X122892629Y-118843957D01*
X122788225Y-119096011D01*
X122735000Y-119363589D01*
X122735000Y-119636411D01*
X122788225Y-119903989D01*
X122892629Y-120156043D01*
X123044201Y-120382886D01*
X123237114Y-120575799D01*
X123463957Y-120727371D01*
X123716011Y-120831775D01*
X123983589Y-120885000D01*
X124256411Y-120885000D01*
X124523989Y-120831775D01*
X124776043Y-120727371D01*
X125002886Y-120575799D01*
X125195799Y-120382886D01*
X125347371Y-120156043D01*
X125451775Y-119903989D01*
X125484212Y-119740919D01*
X127263141Y-117961991D01*
X127306449Y-117926449D01*
X127448284Y-117753623D01*
X127553676Y-117556447D01*
X127618577Y-117342499D01*
X127635000Y-117175752D01*
X127635000Y-117175743D01*
X127640490Y-117120001D01*
X127635000Y-117064259D01*
X127635000Y-112800000D01*
X149061928Y-112800000D01*
X149074188Y-112924482D01*
X149110498Y-113044180D01*
X149169463Y-113154494D01*
X149248815Y-113251185D01*
X149345506Y-113330537D01*
X149455820Y-113389502D01*
X149575518Y-113425812D01*
X149700000Y-113438072D01*
X150714250Y-113435000D01*
X150873000Y-113276250D01*
X150873000Y-111627000D01*
X151127000Y-111627000D01*
X151127000Y-113276250D01*
X151285750Y-113435000D01*
X152300000Y-113438072D01*
X152424482Y-113425812D01*
X152544180Y-113389502D01*
X152654494Y-113330537D01*
X152751185Y-113251185D01*
X152830537Y-113154494D01*
X152889502Y-113044180D01*
X152925812Y-112924482D01*
X152938072Y-112800000D01*
X152935000Y-111785750D01*
X152776250Y-111627000D01*
X151127000Y-111627000D01*
X150873000Y-111627000D01*
X149223750Y-111627000D01*
X149065000Y-111785750D01*
X149061928Y-112800000D01*
X127635000Y-112800000D01*
X127635000Y-110038072D01*
X131200000Y-110038072D01*
X131324482Y-110025812D01*
X131444180Y-109989502D01*
X131554494Y-109930537D01*
X131651185Y-109851185D01*
X131730537Y-109754494D01*
X131789502Y-109644180D01*
X131825812Y-109524482D01*
X131838072Y-109400000D01*
X131838072Y-101729040D01*
X141608091Y-101729040D01*
X141702930Y-101993881D01*
X141847615Y-102235131D01*
X142036586Y-102443519D01*
X142262580Y-102611037D01*
X142516913Y-102731246D01*
X142650961Y-102771904D01*
X142873000Y-102649915D01*
X142873000Y-101507000D01*
X141729376Y-101507000D01*
X141608091Y-101729040D01*
X131838072Y-101729040D01*
X131838072Y-101030960D01*
X141608091Y-101030960D01*
X141729376Y-101253000D01*
X142873000Y-101253000D01*
X142873000Y-100110085D01*
X142650961Y-99988096D01*
X142516913Y-100028754D01*
X142262580Y-100148963D01*
X142036586Y-100316481D01*
X141847615Y-100524869D01*
X141702930Y-100766119D01*
X141608091Y-101030960D01*
X131838072Y-101030960D01*
X131838072Y-98600000D01*
X131825812Y-98475518D01*
X131789502Y-98355820D01*
X131730537Y-98245506D01*
X131651185Y-98148815D01*
X131554494Y-98069463D01*
X131444180Y-98010498D01*
X131324482Y-97974188D01*
X131200000Y-97961928D01*
X121800000Y-97961928D01*
X121675518Y-97974188D01*
X121555820Y-98010498D01*
X121445506Y-98069463D01*
X121348815Y-98148815D01*
X121269463Y-98245506D01*
X121210498Y-98355820D01*
X121174188Y-98475518D01*
X121161928Y-98600000D01*
X121161928Y-102865000D01*
X120286595Y-102865000D01*
X120288072Y-102850000D01*
X120285000Y-102585750D01*
X120126250Y-102427000D01*
X117477000Y-102427000D01*
X117477000Y-102447000D01*
X117223000Y-102447000D01*
X117223000Y-102427000D01*
X114573750Y-102427000D01*
X114415000Y-102585750D01*
X114411928Y-102850000D01*
X114424188Y-102974482D01*
X114460498Y-103094180D01*
X114490335Y-103150000D01*
X114460498Y-103205820D01*
X114424188Y-103325518D01*
X114411928Y-103450000D01*
X114411928Y-104550000D01*
X114413405Y-104565000D01*
X97869812Y-104565000D01*
X97853624Y-104551715D01*
X97656448Y-104446323D01*
X97442500Y-104381422D01*
X97275753Y-104364999D01*
X97275752Y-104364999D01*
X97220001Y-104359508D01*
X97164250Y-104364999D01*
X94555753Y-104364999D01*
X94500001Y-104359508D01*
X94444249Y-104364999D01*
X94277502Y-104381422D01*
X94063554Y-104446323D01*
X93866378Y-104551715D01*
X93693552Y-104693550D01*
X93658009Y-104736859D01*
X93000000Y-105394869D01*
X92841995Y-105236864D01*
X92806449Y-105193551D01*
X92633623Y-105051716D01*
X92436447Y-104946324D01*
X92222499Y-104881423D01*
X92055752Y-104865000D01*
X92055751Y-104865000D01*
X92000000Y-104859509D01*
X91944249Y-104865000D01*
X86884284Y-104865000D01*
X86679727Y-104728320D01*
X86418574Y-104620147D01*
X86141335Y-104565000D01*
X85858665Y-104565000D01*
X85581426Y-104620147D01*
X85320273Y-104728320D01*
X85115716Y-104865000D01*
X81970133Y-104865000D01*
X80138072Y-103032940D01*
X80138072Y-102400000D01*
X80121008Y-102226746D01*
X80070472Y-102060150D01*
X79988405Y-101906614D01*
X79877962Y-101772038D01*
X79743386Y-101661595D01*
X79589850Y-101579528D01*
X79423254Y-101528992D01*
X79250000Y-101511928D01*
X77750000Y-101511928D01*
X77576746Y-101528992D01*
X77410150Y-101579528D01*
X77256614Y-101661595D01*
X77122038Y-101772038D01*
X77011595Y-101906614D01*
X76929528Y-102060150D01*
X76878992Y-102226746D01*
X76861928Y-102400000D01*
X76861928Y-103032940D01*
X76036855Y-103858014D01*
X75993541Y-103893561D01*
X75851706Y-104066387D01*
X75748596Y-104259294D01*
X75746314Y-104263564D01*
X75681413Y-104477512D01*
X75659499Y-104700010D01*
X70660000Y-104700010D01*
X70660000Y-101150000D01*
X114411928Y-101150000D01*
X114424188Y-101274482D01*
X114460498Y-101394180D01*
X114490335Y-101450000D01*
X114460498Y-101505820D01*
X114424188Y-101625518D01*
X114411928Y-101750000D01*
X114415000Y-102014250D01*
X114573750Y-102173000D01*
X117223000Y-102173000D01*
X117223000Y-100727000D01*
X117477000Y-100727000D01*
X117477000Y-102173000D01*
X120126250Y-102173000D01*
X120285000Y-102014250D01*
X120288072Y-101750000D01*
X120275812Y-101625518D01*
X120239502Y-101505820D01*
X120209665Y-101450000D01*
X120239502Y-101394180D01*
X120275812Y-101274482D01*
X120288072Y-101150000D01*
X120285000Y-100885750D01*
X120126250Y-100727000D01*
X117477000Y-100727000D01*
X117223000Y-100727000D01*
X114573750Y-100727000D01*
X114415000Y-100885750D01*
X114411928Y-101150000D01*
X70660000Y-101150000D01*
X70660000Y-100050000D01*
X114411928Y-100050000D01*
X114415000Y-100314250D01*
X114573750Y-100473000D01*
X117223000Y-100473000D01*
X117223000Y-99573750D01*
X117477000Y-99573750D01*
X117477000Y-100473000D01*
X120126250Y-100473000D01*
X120285000Y-100314250D01*
X120288072Y-100050000D01*
X120275812Y-99925518D01*
X120239502Y-99805820D01*
X120180537Y-99695506D01*
X120101185Y-99598815D01*
X120004494Y-99519463D01*
X119894180Y-99460498D01*
X119774482Y-99424188D01*
X119650000Y-99411928D01*
X117635750Y-99415000D01*
X117477000Y-99573750D01*
X117223000Y-99573750D01*
X117064250Y-99415000D01*
X115050000Y-99411928D01*
X114925518Y-99424188D01*
X114805820Y-99460498D01*
X114695506Y-99519463D01*
X114598815Y-99598815D01*
X114519463Y-99695506D01*
X114460498Y-99805820D01*
X114424188Y-99925518D01*
X114411928Y-100050000D01*
X70660000Y-100050000D01*
X70660000Y-97127000D01*
X111000000Y-97127000D01*
X111024776Y-97124560D01*
X111048601Y-97117333D01*
X111070557Y-97105597D01*
X111089803Y-97089803D01*
X111105597Y-97070557D01*
X111117333Y-97048601D01*
X111124560Y-97024776D01*
X111127000Y-97000000D01*
X111127000Y-79000000D01*
X111124560Y-78975224D01*
X111117333Y-78951399D01*
X111105597Y-78929443D01*
X111089803Y-78910197D01*
X111070557Y-78894403D01*
X111048601Y-78882667D01*
X111024776Y-78875440D01*
X111000000Y-78873000D01*
X70660000Y-78873000D01*
X70660000Y-74777050D01*
X84015000Y-74777050D01*
X84015000Y-75222949D01*
X84036487Y-75441110D01*
X84121401Y-75721033D01*
X84259294Y-75979013D01*
X84444866Y-76205134D01*
X84670986Y-76390706D01*
X84928966Y-76528599D01*
X85208889Y-76613513D01*
X85500000Y-76642185D01*
X85791110Y-76613513D01*
X86071033Y-76528599D01*
X86329013Y-76390706D01*
X86555134Y-76205134D01*
X86607223Y-76141663D01*
X86661595Y-76243386D01*
X86772038Y-76377962D01*
X86906614Y-76488405D01*
X87060150Y-76570472D01*
X87226746Y-76621008D01*
X87400000Y-76638072D01*
X88600000Y-76638072D01*
X88773254Y-76621008D01*
X88939850Y-76570472D01*
X89093386Y-76488405D01*
X89227962Y-76377962D01*
X89338405Y-76243386D01*
X89420472Y-76089850D01*
X89471008Y-75923254D01*
X89488072Y-75750000D01*
X89488072Y-75117059D01*
X89828081Y-74777050D01*
X95015000Y-74777050D01*
X95015000Y-75222949D01*
X95036487Y-75441110D01*
X95121401Y-75721033D01*
X95259294Y-75979013D01*
X95444866Y-76205134D01*
X95670986Y-76390706D01*
X95928966Y-76528599D01*
X96208889Y-76613513D01*
X96500000Y-76642185D01*
X96791110Y-76613513D01*
X97071033Y-76528599D01*
X97329013Y-76390706D01*
X97549945Y-76209392D01*
X97560498Y-76244180D01*
X97619463Y-76354494D01*
X97698815Y-76451185D01*
X97795506Y-76530537D01*
X97905820Y-76589502D01*
X98025518Y-76625812D01*
X98150000Y-76638072D01*
X98714250Y-76635000D01*
X98873000Y-76476250D01*
X98873000Y-75127000D01*
X99127000Y-75127000D01*
X99127000Y-76476250D01*
X99285750Y-76635000D01*
X99850000Y-76638072D01*
X99974482Y-76625812D01*
X100094180Y-76589502D01*
X100204494Y-76530537D01*
X100301185Y-76451185D01*
X100380537Y-76354494D01*
X100439502Y-76244180D01*
X100475812Y-76124482D01*
X100488072Y-76000000D01*
X100485000Y-75285750D01*
X100326250Y-75127000D01*
X99127000Y-75127000D01*
X98873000Y-75127000D01*
X98853000Y-75127000D01*
X98853000Y-74873000D01*
X98873000Y-74873000D01*
X98873000Y-73523750D01*
X99127000Y-73523750D01*
X99127000Y-74873000D01*
X100326250Y-74873000D01*
X100422200Y-74777050D01*
X106015000Y-74777050D01*
X106015000Y-75222949D01*
X106036487Y-75441110D01*
X106121401Y-75721033D01*
X106259294Y-75979013D01*
X106444866Y-76205134D01*
X106670986Y-76390706D01*
X106928966Y-76528599D01*
X107208889Y-76613513D01*
X107500000Y-76642185D01*
X107791110Y-76613513D01*
X108071033Y-76528599D01*
X108329013Y-76390706D01*
X108549945Y-76209392D01*
X108560498Y-76244180D01*
X108619463Y-76354494D01*
X108698815Y-76451185D01*
X108795506Y-76530537D01*
X108905820Y-76589502D01*
X109025518Y-76625812D01*
X109150000Y-76638072D01*
X109714250Y-76635000D01*
X109873000Y-76476250D01*
X109873000Y-75127000D01*
X110127000Y-75127000D01*
X110127000Y-76476250D01*
X110285750Y-76635000D01*
X110850000Y-76638072D01*
X110974482Y-76625812D01*
X111094180Y-76589502D01*
X111204494Y-76530537D01*
X111301185Y-76451185D01*
X111380537Y-76354494D01*
X111439502Y-76244180D01*
X111475812Y-76124482D01*
X111488072Y-76000000D01*
X111485000Y-75285750D01*
X111326250Y-75127000D01*
X110127000Y-75127000D01*
X109873000Y-75127000D01*
X109853000Y-75127000D01*
X109853000Y-74873000D01*
X109873000Y-74873000D01*
X109873000Y-73523750D01*
X110127000Y-73523750D01*
X110127000Y-74873000D01*
X111326250Y-74873000D01*
X111422200Y-74777050D01*
X117015000Y-74777050D01*
X117015000Y-75222949D01*
X117036487Y-75441110D01*
X117121401Y-75721033D01*
X117259294Y-75979013D01*
X117444866Y-76205134D01*
X117670986Y-76390706D01*
X117928966Y-76528599D01*
X118208889Y-76613513D01*
X118500000Y-76642185D01*
X118791110Y-76613513D01*
X119071033Y-76528599D01*
X119329013Y-76390706D01*
X119549945Y-76209392D01*
X119560498Y-76244180D01*
X119619463Y-76354494D01*
X119698815Y-76451185D01*
X119795506Y-76530537D01*
X119905820Y-76589502D01*
X120025518Y-76625812D01*
X120150000Y-76638072D01*
X120714250Y-76635000D01*
X120873000Y-76476250D01*
X120873000Y-75127000D01*
X121127000Y-75127000D01*
X121127000Y-76476250D01*
X121285750Y-76635000D01*
X121850000Y-76638072D01*
X121974482Y-76625812D01*
X122094180Y-76589502D01*
X122204494Y-76530537D01*
X122301185Y-76451185D01*
X122380537Y-76354494D01*
X122439502Y-76244180D01*
X122475812Y-76124482D01*
X122488072Y-76000000D01*
X122485000Y-75285750D01*
X122326250Y-75127000D01*
X121127000Y-75127000D01*
X120873000Y-75127000D01*
X120853000Y-75127000D01*
X120853000Y-74873000D01*
X120873000Y-74873000D01*
X120873000Y-73523750D01*
X121127000Y-73523750D01*
X121127000Y-74873000D01*
X122326250Y-74873000D01*
X122422200Y-74777050D01*
X128015000Y-74777050D01*
X128015000Y-75222949D01*
X128036487Y-75441110D01*
X128121401Y-75721033D01*
X128259294Y-75979013D01*
X128444866Y-76205134D01*
X128670986Y-76390706D01*
X128928966Y-76528599D01*
X129208889Y-76613513D01*
X129500000Y-76642185D01*
X129791110Y-76613513D01*
X130071033Y-76528599D01*
X130329013Y-76390706D01*
X130549945Y-76209392D01*
X130560498Y-76244180D01*
X130619463Y-76354494D01*
X130698815Y-76451185D01*
X130795506Y-76530537D01*
X130905820Y-76589502D01*
X131025518Y-76625812D01*
X131150000Y-76638072D01*
X131714250Y-76635000D01*
X131873000Y-76476250D01*
X131873000Y-75127000D01*
X132127000Y-75127000D01*
X132127000Y-76476250D01*
X132285750Y-76635000D01*
X132850000Y-76638072D01*
X132974482Y-76625812D01*
X133094180Y-76589502D01*
X133204494Y-76530537D01*
X133301185Y-76451185D01*
X133380537Y-76354494D01*
X133439502Y-76244180D01*
X133475812Y-76124482D01*
X133488072Y-76000000D01*
X133485000Y-75285750D01*
X133326250Y-75127000D01*
X132127000Y-75127000D01*
X131873000Y-75127000D01*
X131853000Y-75127000D01*
X131853000Y-74873000D01*
X131873000Y-74873000D01*
X131873000Y-73523750D01*
X132127000Y-73523750D01*
X132127000Y-74873000D01*
X133326250Y-74873000D01*
X133485000Y-74714250D01*
X133488072Y-74000000D01*
X133475812Y-73875518D01*
X133439502Y-73755820D01*
X133380537Y-73645506D01*
X133301185Y-73548815D01*
X133204494Y-73469463D01*
X133094180Y-73410498D01*
X132974482Y-73374188D01*
X132850000Y-73361928D01*
X132285750Y-73365000D01*
X132127000Y-73523750D01*
X131873000Y-73523750D01*
X131714250Y-73365000D01*
X131150000Y-73361928D01*
X131025518Y-73374188D01*
X130905820Y-73410498D01*
X130795506Y-73469463D01*
X130698815Y-73548815D01*
X130619463Y-73645506D01*
X130560498Y-73755820D01*
X130549945Y-73790608D01*
X130329014Y-73609294D01*
X130071034Y-73471401D01*
X129791111Y-73386487D01*
X129500000Y-73357815D01*
X129208890Y-73386487D01*
X128928967Y-73471401D01*
X128670987Y-73609294D01*
X128444866Y-73794866D01*
X128259294Y-74020986D01*
X128121401Y-74278966D01*
X128036487Y-74558889D01*
X128015000Y-74777050D01*
X122422200Y-74777050D01*
X122485000Y-74714250D01*
X122488072Y-74000000D01*
X122475812Y-73875518D01*
X122439502Y-73755820D01*
X122380537Y-73645506D01*
X122301185Y-73548815D01*
X122204494Y-73469463D01*
X122094180Y-73410498D01*
X121974482Y-73374188D01*
X121850000Y-73361928D01*
X121285750Y-73365000D01*
X121127000Y-73523750D01*
X120873000Y-73523750D01*
X120714250Y-73365000D01*
X120150000Y-73361928D01*
X120025518Y-73374188D01*
X119905820Y-73410498D01*
X119795506Y-73469463D01*
X119698815Y-73548815D01*
X119619463Y-73645506D01*
X119560498Y-73755820D01*
X119549945Y-73790608D01*
X119329014Y-73609294D01*
X119071034Y-73471401D01*
X118791111Y-73386487D01*
X118500000Y-73357815D01*
X118208890Y-73386487D01*
X117928967Y-73471401D01*
X117670987Y-73609294D01*
X117444866Y-73794866D01*
X117259294Y-74020986D01*
X117121401Y-74278966D01*
X117036487Y-74558889D01*
X117015000Y-74777050D01*
X111422200Y-74777050D01*
X111485000Y-74714250D01*
X111488072Y-74000000D01*
X111475812Y-73875518D01*
X111439502Y-73755820D01*
X111380537Y-73645506D01*
X111301185Y-73548815D01*
X111204494Y-73469463D01*
X111094180Y-73410498D01*
X110974482Y-73374188D01*
X110850000Y-73361928D01*
X110285750Y-73365000D01*
X110127000Y-73523750D01*
X109873000Y-73523750D01*
X109714250Y-73365000D01*
X109150000Y-73361928D01*
X109025518Y-73374188D01*
X108905820Y-73410498D01*
X108795506Y-73469463D01*
X108698815Y-73548815D01*
X108619463Y-73645506D01*
X108560498Y-73755820D01*
X108549945Y-73790608D01*
X108329014Y-73609294D01*
X108071034Y-73471401D01*
X107791111Y-73386487D01*
X107500000Y-73357815D01*
X107208890Y-73386487D01*
X106928967Y-73471401D01*
X106670987Y-73609294D01*
X106444866Y-73794866D01*
X106259294Y-74020986D01*
X106121401Y-74278966D01*
X106036487Y-74558889D01*
X106015000Y-74777050D01*
X100422200Y-74777050D01*
X100485000Y-74714250D01*
X100488072Y-74000000D01*
X100475812Y-73875518D01*
X100439502Y-73755820D01*
X100380537Y-73645506D01*
X100301185Y-73548815D01*
X100204494Y-73469463D01*
X100094180Y-73410498D01*
X99974482Y-73374188D01*
X99850000Y-73361928D01*
X99285750Y-73365000D01*
X99127000Y-73523750D01*
X98873000Y-73523750D01*
X98714250Y-73365000D01*
X98150000Y-73361928D01*
X98025518Y-73374188D01*
X97905820Y-73410498D01*
X97795506Y-73469463D01*
X97698815Y-73548815D01*
X97619463Y-73645506D01*
X97560498Y-73755820D01*
X97549945Y-73790608D01*
X97329014Y-73609294D01*
X97071034Y-73471401D01*
X96791111Y-73386487D01*
X96500000Y-73357815D01*
X96208890Y-73386487D01*
X95928967Y-73471401D01*
X95670987Y-73609294D01*
X95444866Y-73794866D01*
X95259294Y-74020986D01*
X95121401Y-74278966D01*
X95036487Y-74558889D01*
X95015000Y-74777050D01*
X89828081Y-74777050D01*
X91970132Y-72635000D01*
X132529869Y-72635000D01*
X144365000Y-84470133D01*
X144365001Y-100955818D01*
X144297070Y-100766119D01*
X144152385Y-100524869D01*
X143963414Y-100316481D01*
X143737420Y-100148963D01*
X143483087Y-100028754D01*
X143349039Y-99988096D01*
X143127000Y-100110085D01*
X143127000Y-101253000D01*
X143147000Y-101253000D01*
X143147000Y-101507000D01*
X143127000Y-101507000D01*
X143127000Y-102649915D01*
X143349039Y-102771904D01*
X143483087Y-102731246D01*
X143737420Y-102611037D01*
X143963414Y-102443519D01*
X144152385Y-102235131D01*
X144297070Y-101993881D01*
X144365001Y-101804182D01*
X144365001Y-106029867D01*
X143736862Y-106658007D01*
X143736857Y-106658011D01*
X142822718Y-107572150D01*
X142581426Y-107620147D01*
X142320273Y-107728320D01*
X142085241Y-107885363D01*
X141885363Y-108085241D01*
X141728320Y-108320273D01*
X141620147Y-108581426D01*
X141565000Y-108858665D01*
X141565000Y-109141335D01*
X141620147Y-109418574D01*
X141728320Y-109679727D01*
X141885363Y-109914759D01*
X142085241Y-110114637D01*
X142320273Y-110271680D01*
X142581426Y-110379853D01*
X142858665Y-110435000D01*
X143141335Y-110435000D01*
X143418574Y-110379853D01*
X143679727Y-110271680D01*
X143787003Y-110200000D01*
X149061928Y-110200000D01*
X149065000Y-111214250D01*
X149223750Y-111373000D01*
X150873000Y-111373000D01*
X150873000Y-109723750D01*
X151127000Y-109723750D01*
X151127000Y-111373000D01*
X152776250Y-111373000D01*
X152935000Y-111214250D01*
X152938072Y-110200000D01*
X152925812Y-110075518D01*
X152889502Y-109955820D01*
X152830537Y-109845506D01*
X152751185Y-109748815D01*
X152654494Y-109669463D01*
X152544180Y-109610498D01*
X152424482Y-109574188D01*
X152300000Y-109561928D01*
X151285750Y-109565000D01*
X151127000Y-109723750D01*
X150873000Y-109723750D01*
X150714250Y-109565000D01*
X149700000Y-109561928D01*
X149575518Y-109574188D01*
X149455820Y-109610498D01*
X149345506Y-109669463D01*
X149248815Y-109748815D01*
X149169463Y-109845506D01*
X149110498Y-109955820D01*
X149074188Y-110075518D01*
X149061928Y-110200000D01*
X143787003Y-110200000D01*
X143914759Y-110114637D01*
X144114637Y-109914759D01*
X144271680Y-109679727D01*
X144379853Y-109418574D01*
X144427850Y-109177282D01*
X145341989Y-108263143D01*
X145341993Y-108263138D01*
X146263140Y-107341992D01*
X146306449Y-107306449D01*
X146448284Y-107133623D01*
X146553676Y-106936447D01*
X146606248Y-106763143D01*
X146618577Y-106722500D01*
X146640491Y-106500001D01*
X146635000Y-106444249D01*
X146635000Y-98609419D01*
X149065000Y-98609419D01*
X149065000Y-98990581D01*
X149139361Y-99364419D01*
X149285225Y-99716566D01*
X149496987Y-100033491D01*
X149766509Y-100303013D01*
X150083434Y-100514775D01*
X150435581Y-100660639D01*
X150809419Y-100735000D01*
X151190581Y-100735000D01*
X151564419Y-100660639D01*
X151916566Y-100514775D01*
X152233491Y-100303013D01*
X152503013Y-100033491D01*
X152714775Y-99716566D01*
X152860639Y-99364419D01*
X152935000Y-98990581D01*
X152935000Y-98609419D01*
X152860639Y-98235581D01*
X152714775Y-97883434D01*
X152503013Y-97566509D01*
X152233491Y-97296987D01*
X151916566Y-97085225D01*
X151564419Y-96939361D01*
X151190581Y-96865000D01*
X150809419Y-96865000D01*
X150435581Y-96939361D01*
X150083434Y-97085225D01*
X149766509Y-97296987D01*
X149496987Y-97566509D01*
X149285225Y-97883434D01*
X149139361Y-98235581D01*
X149065000Y-98609419D01*
X146635000Y-98609419D01*
X146635000Y-88800000D01*
X150561928Y-88800000D01*
X150574188Y-88924482D01*
X150610498Y-89044180D01*
X150669463Y-89154494D01*
X150748815Y-89251185D01*
X150845506Y-89330537D01*
X150955820Y-89389502D01*
X151075518Y-89425812D01*
X151200000Y-89438072D01*
X151714250Y-89435000D01*
X151873000Y-89276250D01*
X151873000Y-88127000D01*
X152127000Y-88127000D01*
X152127000Y-89276250D01*
X152285750Y-89435000D01*
X152800000Y-89438072D01*
X152924482Y-89425812D01*
X153044180Y-89389502D01*
X153154494Y-89330537D01*
X153251185Y-89251185D01*
X153330537Y-89154494D01*
X153389502Y-89044180D01*
X153425812Y-88924482D01*
X153438072Y-88800000D01*
X153435000Y-88285750D01*
X153276250Y-88127000D01*
X152127000Y-88127000D01*
X151873000Y-88127000D01*
X150723750Y-88127000D01*
X150565000Y-88285750D01*
X150561928Y-88800000D01*
X146635000Y-88800000D01*
X146635000Y-87200000D01*
X150561928Y-87200000D01*
X150565000Y-87714250D01*
X150723750Y-87873000D01*
X151873000Y-87873000D01*
X151873000Y-87853000D01*
X152127000Y-87853000D01*
X152127000Y-87873000D01*
X153276250Y-87873000D01*
X153435000Y-87714250D01*
X153438072Y-87200000D01*
X153425812Y-87075518D01*
X153389502Y-86955820D01*
X153330537Y-86845506D01*
X153251185Y-86748815D01*
X153154494Y-86669463D01*
X153044180Y-86610498D01*
X152948057Y-86581339D01*
X153114637Y-86414759D01*
X153271680Y-86179727D01*
X153379853Y-85918574D01*
X153435000Y-85641335D01*
X153435000Y-85358665D01*
X153379853Y-85081426D01*
X153271680Y-84820273D01*
X153114637Y-84585241D01*
X152914759Y-84385363D01*
X152679727Y-84228320D01*
X152418574Y-84120147D01*
X152141335Y-84065000D01*
X151858665Y-84065000D01*
X151581426Y-84120147D01*
X151320273Y-84228320D01*
X151085241Y-84385363D01*
X150885363Y-84585241D01*
X150728320Y-84820273D01*
X150620147Y-85081426D01*
X150565000Y-85358665D01*
X150565000Y-85641335D01*
X150620147Y-85918574D01*
X150728320Y-86179727D01*
X150885363Y-86414759D01*
X151051943Y-86581339D01*
X150955820Y-86610498D01*
X150845506Y-86669463D01*
X150748815Y-86748815D01*
X150669463Y-86845506D01*
X150610498Y-86955820D01*
X150574188Y-87075518D01*
X150561928Y-87200000D01*
X146635000Y-87200000D01*
X146635000Y-84055752D01*
X146640491Y-84000000D01*
X146618577Y-83777501D01*
X146553676Y-83563553D01*
X146448284Y-83366377D01*
X146341989Y-83236856D01*
X146341987Y-83236854D01*
X146306449Y-83193551D01*
X146263146Y-83158013D01*
X137882182Y-74777050D01*
X139015000Y-74777050D01*
X139015000Y-75222949D01*
X139036487Y-75441110D01*
X139121401Y-75721033D01*
X139259294Y-75979013D01*
X139444866Y-76205134D01*
X139670986Y-76390706D01*
X139928966Y-76528599D01*
X140208889Y-76613513D01*
X140500000Y-76642185D01*
X140791110Y-76613513D01*
X141071033Y-76528599D01*
X141329013Y-76390706D01*
X141549945Y-76209392D01*
X141560498Y-76244180D01*
X141619463Y-76354494D01*
X141698815Y-76451185D01*
X141795506Y-76530537D01*
X141905820Y-76589502D01*
X142025518Y-76625812D01*
X142150000Y-76638072D01*
X142714250Y-76635000D01*
X142873000Y-76476250D01*
X142873000Y-75127000D01*
X143127000Y-75127000D01*
X143127000Y-76476250D01*
X143285750Y-76635000D01*
X143850000Y-76638072D01*
X143974482Y-76625812D01*
X144094180Y-76589502D01*
X144204494Y-76530537D01*
X144301185Y-76451185D01*
X144380537Y-76354494D01*
X144439502Y-76244180D01*
X144475812Y-76124482D01*
X144488072Y-76000000D01*
X144485000Y-75285750D01*
X144326250Y-75127000D01*
X143127000Y-75127000D01*
X142873000Y-75127000D01*
X142853000Y-75127000D01*
X142853000Y-74873000D01*
X142873000Y-74873000D01*
X142873000Y-73523750D01*
X143127000Y-73523750D01*
X143127000Y-74873000D01*
X144326250Y-74873000D01*
X144422200Y-74777050D01*
X150015000Y-74777050D01*
X150015000Y-75222949D01*
X150036487Y-75441110D01*
X150121401Y-75721033D01*
X150259294Y-75979013D01*
X150444866Y-76205134D01*
X150670986Y-76390706D01*
X150928966Y-76528599D01*
X151208889Y-76613513D01*
X151500000Y-76642185D01*
X151791110Y-76613513D01*
X152071033Y-76528599D01*
X152329013Y-76390706D01*
X152549945Y-76209392D01*
X152560498Y-76244180D01*
X152619463Y-76354494D01*
X152698815Y-76451185D01*
X152795506Y-76530537D01*
X152905820Y-76589502D01*
X153025518Y-76625812D01*
X153150000Y-76638072D01*
X153714250Y-76635000D01*
X153873000Y-76476250D01*
X153873000Y-75127000D01*
X154127000Y-75127000D01*
X154127000Y-76476250D01*
X154285750Y-76635000D01*
X154850000Y-76638072D01*
X154974482Y-76625812D01*
X155094180Y-76589502D01*
X155204494Y-76530537D01*
X155301185Y-76451185D01*
X155380537Y-76354494D01*
X155439502Y-76244180D01*
X155475812Y-76124482D01*
X155488072Y-76000000D01*
X155485000Y-75285750D01*
X155326250Y-75127000D01*
X154127000Y-75127000D01*
X153873000Y-75127000D01*
X153853000Y-75127000D01*
X153853000Y-74873000D01*
X153873000Y-74873000D01*
X153873000Y-73523750D01*
X154127000Y-73523750D01*
X154127000Y-74873000D01*
X155326250Y-74873000D01*
X155485000Y-74714250D01*
X155488072Y-74000000D01*
X155475812Y-73875518D01*
X155439502Y-73755820D01*
X155380537Y-73645506D01*
X155301185Y-73548815D01*
X155204494Y-73469463D01*
X155094180Y-73410498D01*
X154974482Y-73374188D01*
X154850000Y-73361928D01*
X154285750Y-73365000D01*
X154127000Y-73523750D01*
X153873000Y-73523750D01*
X153714250Y-73365000D01*
X153150000Y-73361928D01*
X153025518Y-73374188D01*
X152905820Y-73410498D01*
X152795506Y-73469463D01*
X152698815Y-73548815D01*
X152619463Y-73645506D01*
X152560498Y-73755820D01*
X152549945Y-73790608D01*
X152329014Y-73609294D01*
X152071034Y-73471401D01*
X151791111Y-73386487D01*
X151500000Y-73357815D01*
X151208890Y-73386487D01*
X150928967Y-73471401D01*
X150670987Y-73609294D01*
X150444866Y-73794866D01*
X150259294Y-74020986D01*
X150121401Y-74278966D01*
X150036487Y-74558889D01*
X150015000Y-74777050D01*
X144422200Y-74777050D01*
X144485000Y-74714250D01*
X144488072Y-74000000D01*
X144475812Y-73875518D01*
X144439502Y-73755820D01*
X144380537Y-73645506D01*
X144301185Y-73548815D01*
X144204494Y-73469463D01*
X144094180Y-73410498D01*
X143974482Y-73374188D01*
X143850000Y-73361928D01*
X143285750Y-73365000D01*
X143127000Y-73523750D01*
X142873000Y-73523750D01*
X142714250Y-73365000D01*
X142150000Y-73361928D01*
X142025518Y-73374188D01*
X141905820Y-73410498D01*
X141795506Y-73469463D01*
X141698815Y-73548815D01*
X141619463Y-73645506D01*
X141560498Y-73755820D01*
X141549945Y-73790608D01*
X141329014Y-73609294D01*
X141071034Y-73471401D01*
X140791111Y-73386487D01*
X140500000Y-73357815D01*
X140208890Y-73386487D01*
X139928967Y-73471401D01*
X139670987Y-73609294D01*
X139444866Y-73794866D01*
X139259294Y-74020986D01*
X139121401Y-74278966D01*
X139036487Y-74558889D01*
X139015000Y-74777050D01*
X137882182Y-74777050D01*
X133841996Y-70736865D01*
X133806449Y-70693551D01*
X133633623Y-70551716D01*
X133436447Y-70446324D01*
X133222499Y-70381423D01*
X133055752Y-70365000D01*
X133055751Y-70365000D01*
X133000000Y-70359509D01*
X132944249Y-70365000D01*
X91555741Y-70365000D01*
X91499999Y-70359510D01*
X91444257Y-70365000D01*
X91444248Y-70365000D01*
X91277501Y-70381423D01*
X91063553Y-70446324D01*
X90866377Y-70551716D01*
X90693551Y-70693551D01*
X90658009Y-70736859D01*
X88032941Y-73361928D01*
X87400000Y-73361928D01*
X87226746Y-73378992D01*
X87060150Y-73429528D01*
X86906614Y-73511595D01*
X86772038Y-73622038D01*
X86661595Y-73756614D01*
X86607223Y-73858337D01*
X86555134Y-73794866D01*
X86329014Y-73609294D01*
X86071034Y-73471401D01*
X85791111Y-73386487D01*
X85500000Y-73357815D01*
X85208890Y-73386487D01*
X84928967Y-73471401D01*
X84670987Y-73609294D01*
X84444866Y-73794866D01*
X84259294Y-74020986D01*
X84121401Y-74278966D01*
X84036487Y-74558889D01*
X84015000Y-74777050D01*
X70660000Y-74777050D01*
X70660000Y-70032278D01*
X70684748Y-69779872D01*
X71765000Y-69779872D01*
X71765000Y-70220128D01*
X71850890Y-70651925D01*
X72019369Y-71058669D01*
X72263962Y-71424729D01*
X72575271Y-71736038D01*
X72941331Y-71980631D01*
X73348075Y-72149110D01*
X73779872Y-72235000D01*
X74220128Y-72235000D01*
X74651925Y-72149110D01*
X75058669Y-71980631D01*
X75424729Y-71736038D01*
X75736038Y-71424729D01*
X75980631Y-71058669D01*
X76149110Y-70651925D01*
X76235000Y-70220128D01*
X76235000Y-69779872D01*
X163765000Y-69779872D01*
X163765000Y-70220128D01*
X163850890Y-70651925D01*
X164019369Y-71058669D01*
X164263962Y-71424729D01*
X164575271Y-71736038D01*
X164941331Y-71980631D01*
X165348075Y-72149110D01*
X165779872Y-72235000D01*
X166220128Y-72235000D01*
X166651925Y-72149110D01*
X167058669Y-71980631D01*
X167424729Y-71736038D01*
X167736038Y-71424729D01*
X167980631Y-71058669D01*
X168149110Y-70651925D01*
X168235000Y-70220128D01*
X168235000Y-69779872D01*
X168149110Y-69348075D01*
X167980631Y-68941331D01*
X167736038Y-68575271D01*
X167424729Y-68263962D01*
X167058669Y-68019369D01*
X166651925Y-67850890D01*
X166220128Y-67765000D01*
X165779872Y-67765000D01*
X165348075Y-67850890D01*
X164941331Y-68019369D01*
X164575271Y-68263962D01*
X164263962Y-68575271D01*
X164019369Y-68941331D01*
X163850890Y-69348075D01*
X163765000Y-69779872D01*
X76235000Y-69779872D01*
X76149110Y-69348075D01*
X75980631Y-68941331D01*
X75736038Y-68575271D01*
X75424729Y-68263962D01*
X75058669Y-68019369D01*
X74651925Y-67850890D01*
X74220128Y-67765000D01*
X73779872Y-67765000D01*
X73348075Y-67850890D01*
X72941331Y-68019369D01*
X72575271Y-68263962D01*
X72263962Y-68575271D01*
X72019369Y-68941331D01*
X71850890Y-69348075D01*
X71765000Y-69779872D01*
X70684748Y-69779872D01*
X70726714Y-69351874D01*
X70914943Y-68728428D01*
X71220681Y-68153421D01*
X71632279Y-67648753D01*
X72134067Y-67233638D01*
X72706924Y-66923895D01*
X73329039Y-66731318D01*
X74007584Y-66660000D01*
X165967722Y-66660000D01*
X166648126Y-66726714D01*
G37*
%TD.AperFunction*%
%TD*%
D29*
%TO.N,+BATT*%
X77710551Y-80218167D02*
X77522498Y-80372498D01*
X77368167Y-80560551D01*
X77253489Y-80775099D01*
X77182870Y-81007898D01*
X77159025Y-81250000D01*
X77182870Y-81492102D01*
X77253489Y-81724901D01*
X77368167Y-81939449D01*
X77522498Y-82127502D01*
X77710551Y-82281833D01*
X77925099Y-82396511D01*
X78157898Y-82467130D01*
X78339335Y-82485000D01*
X79660665Y-82485000D01*
X79842102Y-82467130D01*
X80074901Y-82396511D01*
X80289449Y-82281833D01*
X80477502Y-82127502D01*
X80631833Y-81939449D01*
X80746511Y-81724901D01*
X80817130Y-81492102D01*
X80840975Y-81250000D01*
X80817130Y-81007898D01*
X80746511Y-80775099D01*
X80631833Y-80560551D01*
X80477502Y-80372498D01*
X80289449Y-80218167D01*
X80118887Y-80127000D01*
X109873000Y-80127000D01*
X109873000Y-95873000D01*
X80118887Y-95873000D01*
X80289449Y-95781833D01*
X80477502Y-95627502D01*
X80631833Y-95439449D01*
X80746511Y-95224901D01*
X80817130Y-94992102D01*
X80840975Y-94750000D01*
X80817130Y-94507898D01*
X80746511Y-94275099D01*
X80631833Y-94060551D01*
X80477502Y-93872498D01*
X80289449Y-93718167D01*
X80074901Y-93603489D01*
X79842102Y-93532870D01*
X79660665Y-93515000D01*
X78339335Y-93515000D01*
X78157898Y-93532870D01*
X77925099Y-93603489D01*
X77710551Y-93718167D01*
X77522498Y-93872498D01*
X77368167Y-94060551D01*
X77253489Y-94275099D01*
X77182870Y-94507898D01*
X77159025Y-94750000D01*
X77182870Y-94992102D01*
X77253489Y-95224901D01*
X77368167Y-95439449D01*
X77522498Y-95627502D01*
X77710551Y-95781833D01*
X77881113Y-95873000D01*
X70660000Y-95873000D01*
X70660000Y-91354461D01*
X82507000Y-91354461D01*
X82507000Y-91845539D01*
X82602804Y-92327181D01*
X82790732Y-92780879D01*
X83063560Y-93189195D01*
X83410805Y-93536440D01*
X83819121Y-93809268D01*
X84272819Y-93997196D01*
X84754461Y-94093000D01*
X85245539Y-94093000D01*
X85727181Y-93997196D01*
X86180879Y-93809268D01*
X86562880Y-93554023D01*
X104545582Y-93554023D01*
X104725648Y-93890060D01*
X105134474Y-94100820D01*
X105576562Y-94227772D01*
X106034922Y-94266037D01*
X106491940Y-94214146D01*
X106930053Y-94074092D01*
X107274352Y-93890060D01*
X107454418Y-93554023D01*
X106000000Y-92099605D01*
X104545582Y-93554023D01*
X86562880Y-93554023D01*
X86589195Y-93536440D01*
X86936440Y-93189195D01*
X87209268Y-92780879D01*
X87397196Y-92327181D01*
X87471242Y-91954922D01*
X103653963Y-91954922D01*
X103705854Y-92411940D01*
X103845908Y-92850053D01*
X104029940Y-93194352D01*
X104365977Y-93374418D01*
X105820395Y-91920000D01*
X106179605Y-91920000D01*
X107634023Y-93374418D01*
X107970060Y-93194352D01*
X108180820Y-92785526D01*
X108307772Y-92343438D01*
X108346037Y-91885078D01*
X108294146Y-91428060D01*
X108154092Y-90989947D01*
X107970060Y-90645648D01*
X107634023Y-90465582D01*
X106179605Y-91920000D01*
X105820395Y-91920000D01*
X104365977Y-90465582D01*
X104029940Y-90645648D01*
X103819180Y-91054474D01*
X103692228Y-91496562D01*
X103653963Y-91954922D01*
X87471242Y-91954922D01*
X87493000Y-91845539D01*
X87493000Y-91354461D01*
X87397196Y-90872819D01*
X87209268Y-90419121D01*
X87120305Y-90285977D01*
X104545582Y-90285977D01*
X106000000Y-91740395D01*
X107454418Y-90285977D01*
X107274352Y-89949940D01*
X106865526Y-89739180D01*
X106423438Y-89612228D01*
X105965078Y-89573963D01*
X105508060Y-89625854D01*
X105069947Y-89765908D01*
X104725648Y-89949940D01*
X104545582Y-90285977D01*
X87120305Y-90285977D01*
X86936440Y-90010805D01*
X86589195Y-89663560D01*
X86180879Y-89390732D01*
X85727181Y-89202804D01*
X85245539Y-89107000D01*
X84754461Y-89107000D01*
X84272819Y-89202804D01*
X83819121Y-89390732D01*
X83410805Y-89663560D01*
X83063560Y-90010805D01*
X82790732Y-90419121D01*
X82602804Y-90872819D01*
X82507000Y-91354461D01*
X70660000Y-91354461D01*
X70660000Y-86258000D01*
X82503928Y-86258000D01*
X82516188Y-86382482D01*
X82552498Y-86502180D01*
X82611463Y-86612494D01*
X82690815Y-86709185D01*
X82787506Y-86788537D01*
X82897820Y-86847502D01*
X83017518Y-86883812D01*
X83142000Y-86896072D01*
X84714250Y-86893000D01*
X84873000Y-86734250D01*
X84873000Y-84527000D01*
X85127000Y-84527000D01*
X85127000Y-86734250D01*
X85285750Y-86893000D01*
X86858000Y-86896072D01*
X86982482Y-86883812D01*
X87102180Y-86847502D01*
X87212494Y-86788537D01*
X87309185Y-86709185D01*
X87388537Y-86612494D01*
X87447502Y-86502180D01*
X87483812Y-86382482D01*
X87496072Y-86258000D01*
X87495439Y-85934023D01*
X104545582Y-85934023D01*
X104725648Y-86270060D01*
X105134474Y-86480820D01*
X105576562Y-86607772D01*
X106034922Y-86646037D01*
X106491940Y-86594146D01*
X106930053Y-86454092D01*
X107274352Y-86270060D01*
X107454418Y-85934023D01*
X106000000Y-84479605D01*
X104545582Y-85934023D01*
X87495439Y-85934023D01*
X87493000Y-84685750D01*
X87334250Y-84527000D01*
X85127000Y-84527000D01*
X84873000Y-84527000D01*
X82665750Y-84527000D01*
X82507000Y-84685750D01*
X82503928Y-86258000D01*
X70660000Y-86258000D01*
X70660000Y-84334922D01*
X103653963Y-84334922D01*
X103705854Y-84791940D01*
X103845908Y-85230053D01*
X104029940Y-85574352D01*
X104365977Y-85754418D01*
X105820395Y-84300000D01*
X106179605Y-84300000D01*
X107634023Y-85754418D01*
X107970060Y-85574352D01*
X108180820Y-85165526D01*
X108307772Y-84723438D01*
X108346037Y-84265078D01*
X108294146Y-83808060D01*
X108154092Y-83369947D01*
X107970060Y-83025648D01*
X107634023Y-82845582D01*
X106179605Y-84300000D01*
X105820395Y-84300000D01*
X104365977Y-82845582D01*
X104029940Y-83025648D01*
X103819180Y-83434474D01*
X103692228Y-83876562D01*
X103653963Y-84334922D01*
X70660000Y-84334922D01*
X70660000Y-82542000D01*
X82503928Y-82542000D01*
X82507000Y-84114250D01*
X82665750Y-84273000D01*
X84873000Y-84273000D01*
X84873000Y-82065750D01*
X85127000Y-82065750D01*
X85127000Y-84273000D01*
X87334250Y-84273000D01*
X87493000Y-84114250D01*
X87495829Y-82665977D01*
X104545582Y-82665977D01*
X106000000Y-84120395D01*
X107454418Y-82665977D01*
X107274352Y-82329940D01*
X106865526Y-82119180D01*
X106423438Y-81992228D01*
X105965078Y-81953963D01*
X105508060Y-82005854D01*
X105069947Y-82145908D01*
X104725648Y-82329940D01*
X104545582Y-82665977D01*
X87495829Y-82665977D01*
X87496072Y-82542000D01*
X87483812Y-82417518D01*
X87447502Y-82297820D01*
X87388537Y-82187506D01*
X87309185Y-82090815D01*
X87212494Y-82011463D01*
X87102180Y-81952498D01*
X86982482Y-81916188D01*
X86858000Y-81903928D01*
X85285750Y-81907000D01*
X85127000Y-82065750D01*
X84873000Y-82065750D01*
X84714250Y-81907000D01*
X83142000Y-81903928D01*
X83017518Y-81916188D01*
X82897820Y-81952498D01*
X82787506Y-82011463D01*
X82690815Y-82090815D01*
X82611463Y-82187506D01*
X82552498Y-82297820D01*
X82516188Y-82417518D01*
X82503928Y-82542000D01*
X70660000Y-82542000D01*
X70660000Y-80127000D01*
X77881113Y-80127000D01*
X77710551Y-80218167D01*
%TA.AperFunction,Conductor*%
D30*
G36*
X77710551Y-80218167D02*
G01*
X77522498Y-80372498D01*
X77368167Y-80560551D01*
X77253489Y-80775099D01*
X77182870Y-81007898D01*
X77159025Y-81250000D01*
X77182870Y-81492102D01*
X77253489Y-81724901D01*
X77368167Y-81939449D01*
X77522498Y-82127502D01*
X77710551Y-82281833D01*
X77925099Y-82396511D01*
X78157898Y-82467130D01*
X78339335Y-82485000D01*
X79660665Y-82485000D01*
X79842102Y-82467130D01*
X80074901Y-82396511D01*
X80289449Y-82281833D01*
X80477502Y-82127502D01*
X80631833Y-81939449D01*
X80746511Y-81724901D01*
X80817130Y-81492102D01*
X80840975Y-81250000D01*
X80817130Y-81007898D01*
X80746511Y-80775099D01*
X80631833Y-80560551D01*
X80477502Y-80372498D01*
X80289449Y-80218167D01*
X80118887Y-80127000D01*
X109873000Y-80127000D01*
X109873000Y-95873000D01*
X80118887Y-95873000D01*
X80289449Y-95781833D01*
X80477502Y-95627502D01*
X80631833Y-95439449D01*
X80746511Y-95224901D01*
X80817130Y-94992102D01*
X80840975Y-94750000D01*
X80817130Y-94507898D01*
X80746511Y-94275099D01*
X80631833Y-94060551D01*
X80477502Y-93872498D01*
X80289449Y-93718167D01*
X80074901Y-93603489D01*
X79842102Y-93532870D01*
X79660665Y-93515000D01*
X78339335Y-93515000D01*
X78157898Y-93532870D01*
X77925099Y-93603489D01*
X77710551Y-93718167D01*
X77522498Y-93872498D01*
X77368167Y-94060551D01*
X77253489Y-94275099D01*
X77182870Y-94507898D01*
X77159025Y-94750000D01*
X77182870Y-94992102D01*
X77253489Y-95224901D01*
X77368167Y-95439449D01*
X77522498Y-95627502D01*
X77710551Y-95781833D01*
X77881113Y-95873000D01*
X70660000Y-95873000D01*
X70660000Y-91354461D01*
X82507000Y-91354461D01*
X82507000Y-91845539D01*
X82602804Y-92327181D01*
X82790732Y-92780879D01*
X83063560Y-93189195D01*
X83410805Y-93536440D01*
X83819121Y-93809268D01*
X84272819Y-93997196D01*
X84754461Y-94093000D01*
X85245539Y-94093000D01*
X85727181Y-93997196D01*
X86180879Y-93809268D01*
X86562880Y-93554023D01*
X104545582Y-93554023D01*
X104725648Y-93890060D01*
X105134474Y-94100820D01*
X105576562Y-94227772D01*
X106034922Y-94266037D01*
X106491940Y-94214146D01*
X106930053Y-94074092D01*
X107274352Y-93890060D01*
X107454418Y-93554023D01*
X106000000Y-92099605D01*
X104545582Y-93554023D01*
X86562880Y-93554023D01*
X86589195Y-93536440D01*
X86936440Y-93189195D01*
X87209268Y-92780879D01*
X87397196Y-92327181D01*
X87471242Y-91954922D01*
X103653963Y-91954922D01*
X103705854Y-92411940D01*
X103845908Y-92850053D01*
X104029940Y-93194352D01*
X104365977Y-93374418D01*
X105820395Y-91920000D01*
X106179605Y-91920000D01*
X107634023Y-93374418D01*
X107970060Y-93194352D01*
X108180820Y-92785526D01*
X108307772Y-92343438D01*
X108346037Y-91885078D01*
X108294146Y-91428060D01*
X108154092Y-90989947D01*
X107970060Y-90645648D01*
X107634023Y-90465582D01*
X106179605Y-91920000D01*
X105820395Y-91920000D01*
X104365977Y-90465582D01*
X104029940Y-90645648D01*
X103819180Y-91054474D01*
X103692228Y-91496562D01*
X103653963Y-91954922D01*
X87471242Y-91954922D01*
X87493000Y-91845539D01*
X87493000Y-91354461D01*
X87397196Y-90872819D01*
X87209268Y-90419121D01*
X87120305Y-90285977D01*
X104545582Y-90285977D01*
X106000000Y-91740395D01*
X107454418Y-90285977D01*
X107274352Y-89949940D01*
X106865526Y-89739180D01*
X106423438Y-89612228D01*
X105965078Y-89573963D01*
X105508060Y-89625854D01*
X105069947Y-89765908D01*
X104725648Y-89949940D01*
X104545582Y-90285977D01*
X87120305Y-90285977D01*
X86936440Y-90010805D01*
X86589195Y-89663560D01*
X86180879Y-89390732D01*
X85727181Y-89202804D01*
X85245539Y-89107000D01*
X84754461Y-89107000D01*
X84272819Y-89202804D01*
X83819121Y-89390732D01*
X83410805Y-89663560D01*
X83063560Y-90010805D01*
X82790732Y-90419121D01*
X82602804Y-90872819D01*
X82507000Y-91354461D01*
X70660000Y-91354461D01*
X70660000Y-86258000D01*
X82503928Y-86258000D01*
X82516188Y-86382482D01*
X82552498Y-86502180D01*
X82611463Y-86612494D01*
X82690815Y-86709185D01*
X82787506Y-86788537D01*
X82897820Y-86847502D01*
X83017518Y-86883812D01*
X83142000Y-86896072D01*
X84714250Y-86893000D01*
X84873000Y-86734250D01*
X84873000Y-84527000D01*
X85127000Y-84527000D01*
X85127000Y-86734250D01*
X85285750Y-86893000D01*
X86858000Y-86896072D01*
X86982482Y-86883812D01*
X87102180Y-86847502D01*
X87212494Y-86788537D01*
X87309185Y-86709185D01*
X87388537Y-86612494D01*
X87447502Y-86502180D01*
X87483812Y-86382482D01*
X87496072Y-86258000D01*
X87495439Y-85934023D01*
X104545582Y-85934023D01*
X104725648Y-86270060D01*
X105134474Y-86480820D01*
X105576562Y-86607772D01*
X106034922Y-86646037D01*
X106491940Y-86594146D01*
X106930053Y-86454092D01*
X107274352Y-86270060D01*
X107454418Y-85934023D01*
X106000000Y-84479605D01*
X104545582Y-85934023D01*
X87495439Y-85934023D01*
X87493000Y-84685750D01*
X87334250Y-84527000D01*
X85127000Y-84527000D01*
X84873000Y-84527000D01*
X82665750Y-84527000D01*
X82507000Y-84685750D01*
X82503928Y-86258000D01*
X70660000Y-86258000D01*
X70660000Y-84334922D01*
X103653963Y-84334922D01*
X103705854Y-84791940D01*
X103845908Y-85230053D01*
X104029940Y-85574352D01*
X104365977Y-85754418D01*
X105820395Y-84300000D01*
X106179605Y-84300000D01*
X107634023Y-85754418D01*
X107970060Y-85574352D01*
X108180820Y-85165526D01*
X108307772Y-84723438D01*
X108346037Y-84265078D01*
X108294146Y-83808060D01*
X108154092Y-83369947D01*
X107970060Y-83025648D01*
X107634023Y-82845582D01*
X106179605Y-84300000D01*
X105820395Y-84300000D01*
X104365977Y-82845582D01*
X104029940Y-83025648D01*
X103819180Y-83434474D01*
X103692228Y-83876562D01*
X103653963Y-84334922D01*
X70660000Y-84334922D01*
X70660000Y-82542000D01*
X82503928Y-82542000D01*
X82507000Y-84114250D01*
X82665750Y-84273000D01*
X84873000Y-84273000D01*
X84873000Y-82065750D01*
X85127000Y-82065750D01*
X85127000Y-84273000D01*
X87334250Y-84273000D01*
X87493000Y-84114250D01*
X87495829Y-82665977D01*
X104545582Y-82665977D01*
X106000000Y-84120395D01*
X107454418Y-82665977D01*
X107274352Y-82329940D01*
X106865526Y-82119180D01*
X106423438Y-81992228D01*
X105965078Y-81953963D01*
X105508060Y-82005854D01*
X105069947Y-82145908D01*
X104725648Y-82329940D01*
X104545582Y-82665977D01*
X87495829Y-82665977D01*
X87496072Y-82542000D01*
X87483812Y-82417518D01*
X87447502Y-82297820D01*
X87388537Y-82187506D01*
X87309185Y-82090815D01*
X87212494Y-82011463D01*
X87102180Y-81952498D01*
X86982482Y-81916188D01*
X86858000Y-81903928D01*
X85285750Y-81907000D01*
X85127000Y-82065750D01*
X84873000Y-82065750D01*
X84714250Y-81907000D01*
X83142000Y-81903928D01*
X83017518Y-81916188D01*
X82897820Y-81952498D01*
X82787506Y-82011463D01*
X82690815Y-82090815D01*
X82611463Y-82187506D01*
X82552498Y-82297820D01*
X82516188Y-82417518D01*
X82503928Y-82542000D01*
X70660000Y-82542000D01*
X70660000Y-80127000D01*
X77881113Y-80127000D01*
X77710551Y-80218167D01*
G37*
%TD.AperFunction*%
%TD*%
D31*
X166000000Y-70000000D03*
X166000000Y-136000000D03*
X74000000Y-70000000D03*
X74000000Y-136000000D03*
X151000000Y-111500000D03*
X151000000Y-98800000D03*
X116500000Y-119500000D03*
X124120000Y-119500000D03*
X141000000Y-116500000D03*
X141000000Y-119040000D03*
X140500000Y-124500000D03*
X148120000Y-124500000D03*
D32*
X106000000Y-84300000D03*
X106000000Y-91920000D03*
X106000000Y-114240000D03*
X106000000Y-121860000D03*
D31*
X85000000Y-91600000D03*
X85000000Y-84400000D03*
D33*
X79000000Y-94750000D03*
X79000000Y-81250000D03*
D31*
X85500000Y-75000000D03*
X88000000Y-75000000D03*
X78500000Y-103000000D03*
X78500000Y-105500000D03*
X78500000Y-116500000D03*
X78500000Y-114000000D03*
X78500000Y-125000000D03*
X78500000Y-127500000D03*
X88000000Y-132000000D03*
X90500000Y-132000000D03*
X99000000Y-132000000D03*
X101500000Y-132000000D03*
X112500000Y-132000000D03*
X110000000Y-132000000D03*
X99000000Y-75000000D03*
X96500000Y-75000000D03*
X107500000Y-75000000D03*
X110000000Y-75000000D03*
X121000000Y-75000000D03*
X118500000Y-75000000D03*
X129500000Y-75000000D03*
X132000000Y-75000000D03*
X143000000Y-75000000D03*
X140500000Y-75000000D03*
X151500000Y-75000000D03*
X154000000Y-75000000D03*
X156500000Y-132000000D03*
X154000000Y-132000000D03*
X143000000Y-132000000D03*
X145500000Y-132000000D03*
X134500000Y-132000000D03*
X132000000Y-132000000D03*
X121000000Y-132000000D03*
X123500000Y-132000000D03*
X86000000Y-113620000D03*
X86000000Y-106000000D03*
X86000000Y-117000000D03*
X86000000Y-124620000D03*
X143000000Y-109000000D03*
X143000000Y-101380000D03*
X124120000Y-124500000D03*
X116500000Y-124500000D03*
X128500000Y-124500000D03*
X136120000Y-124500000D03*
X152000000Y-88000000D03*
X152000000Y-85500000D03*
X95500000Y-107000000D03*
X93000000Y-107000000D03*
M02*
