M48
; DRILL file {KiCad (5.1.12)-1} date 03/31/22 16:19:31
; FORMAT={-:-/ absolute / metric / decimal}
; #@! TF.CreationDate,2022-03-31T16:19:31+09:00
; #@! TF.GenerationSoftware,Kicad,Pcbnew,(5.1.12)-1
; #@! TF.FileFunction,Plated,1,2,PTH
FMAT,2
METRIC
T1C0.600
T2C0.750
T3C0.800
T4C0.900
T5C1.000
T6C1.300
T7C2.700
%
G90
G05
T2
X116.5Y-119.5
X124.12Y-119.5
T3
X86.0Y-106.0
X86.0Y-113.62
X86.0Y-117.0
X86.0Y-124.62
X93.0Y-107.0
X95.5Y-107.0
X116.5Y-124.5
X124.12Y-124.5
X128.5Y-124.5
X136.12Y-124.5
X140.5Y-124.5
X143.0Y-101.38
X143.0Y-109.0
X148.12Y-124.5
X152.0Y-85.5
X152.0Y-88.0
T4
X141.0Y-116.5
X141.0Y-119.04
T5
X78.5Y-103.0
X78.5Y-105.5
X78.5Y-114.0
X78.5Y-116.5
X78.5Y-125.0
X78.5Y-127.5
X85.5Y-75.0
X88.0Y-75.0
X88.0Y-132.0
X90.5Y-132.0
X96.5Y-75.0
X99.0Y-75.0
X99.0Y-132.0
X101.5Y-132.0
X107.5Y-75.0
X110.0Y-75.0
X110.0Y-132.0
X112.5Y-132.0
X118.5Y-75.0
X121.0Y-75.0
X121.0Y-132.0
X123.5Y-132.0
X129.5Y-75.0
X132.0Y-75.0
X132.0Y-132.0
X134.5Y-132.0
X140.5Y-75.0
X143.0Y-75.0
X143.0Y-132.0
X145.5Y-132.0
X151.5Y-75.0
X154.0Y-75.0
X154.0Y-132.0
X156.5Y-132.0
T6
X151.0Y-98.8
X151.0Y-111.5
T7
X85.0Y-84.4
X85.0Y-91.6
T1
G00X78.45Y-81.25
M15
G01X79.55Y-81.25
M16
G05
G00X78.45Y-94.75
M15
G01X79.55Y-94.75
M16
G05
T5
G00X106.35Y-84.3
M15
G01X105.65Y-84.3
M16
G05
G00X106.35Y-91.92
M15
G01X105.65Y-91.92
M16
G05
G00X106.35Y-114.24
M15
G01X105.65Y-114.24
M16
G05
G00X106.35Y-121.86
M15
G01X105.65Y-121.86
M16
G05
T0
M30
