%TF.GenerationSoftware,KiCad,Pcbnew,(5.1.12)-1*%
%TF.CreationDate,2022-03-31T16:19:30+09:00*%
%TF.ProjectId,NHK2022_Power_Supply,4e484b32-3032-4325-9f50-6f7765725f53,rev?*%
%TF.SameCoordinates,PX42c1d80PY8583b00*%
%TF.FileFunction,Copper,L2,Bot*%
%TF.FilePolarity,Positive*%
%FSLAX46Y46*%
G04 Gerber Fmt 4.6, Leading zero omitted, Abs format (unit mm)*
G04 Created by KiCad (PCBNEW (5.1.12)-1) date 2022-03-31 16:19:30*
%MOMM*%
%LPD*%
G01*
G04 APERTURE LIST*
%TA.AperFunction,Profile*%
%ADD10C,0.050000*%
%TD*%
%TA.AperFunction,ComponentPad*%
%ADD11R,2.600000X2.600000*%
%TD*%
%TA.AperFunction,ComponentPad*%
%ADD12O,2.600000X2.600000*%
%TD*%
%TA.AperFunction,ComponentPad*%
%ADD13R,1.500000X1.500000*%
%TD*%
%TA.AperFunction,ComponentPad*%
%ADD14O,1.500000X1.500000*%
%TD*%
%TA.AperFunction,ComponentPad*%
%ADD15R,1.800000X1.800000*%
%TD*%
%TA.AperFunction,ComponentPad*%
%ADD16C,1.800000*%
%TD*%
%TA.AperFunction,ComponentPad*%
%ADD17R,1.600000X1.600000*%
%TD*%
%TA.AperFunction,ComponentPad*%
%ADD18O,1.600000X1.600000*%
%TD*%
%TA.AperFunction,ComponentPad*%
%ADD19C,3.400000*%
%TD*%
%TA.AperFunction,ComponentPad*%
%ADD20C,3.716000*%
%TD*%
%TA.AperFunction,ComponentPad*%
%ADD21R,3.716000X3.716000*%
%TD*%
%TA.AperFunction,ComponentPad*%
%ADD22O,2.400000X1.200000*%
%TD*%
%TA.AperFunction,ComponentPad*%
%ADD23O,1.700000X2.000000*%
%TD*%
%TA.AperFunction,ComponentPad*%
%ADD24O,2.000000X1.700000*%
%TD*%
%TA.AperFunction,ComponentPad*%
%ADD25C,1.600000*%
%TD*%
%TA.AperFunction,Conductor*%
%ADD26C,0.254000*%
%TD*%
%TA.AperFunction,Conductor*%
%ADD27C,0.100000*%
%TD*%
%ADD28C,0.350000*%
%ADD29O,1.700000X1.000000*%
%ADD30O,1.700000X0.600000*%
G04 APERTURE END LIST*
D10*
X70000000Y-70000000D02*
X70000000Y-134000000D01*
X170000000Y-70000000D02*
X170000000Y-136000000D01*
X74000000Y-66000000D02*
X166000000Y-66000000D01*
X74000000Y-140000000D02*
X166000000Y-140000000D01*
X70000000Y-134000000D02*
X70000000Y-136000000D01*
X166000000Y-66000000D02*
G75*
G02*
X170000000Y-70000000I0J-4000000D01*
G01*
X70000000Y-70000000D02*
G75*
G02*
X74000000Y-66000000I4000000J0D01*
G01*
X170000000Y-136000000D02*
G75*
G02*
X166000000Y-140000000I-4000000J0D01*
G01*
X74000000Y-140000000D02*
G75*
G02*
X70000000Y-136000000I0J4000000D01*
G01*
D11*
%TO.P,D1,1*%
%TO.N,VCC*%
X151000000Y-111500000D03*
D12*
%TO.P,D1,2*%
%TO.N,GND*%
X151000000Y-98800000D03*
%TD*%
D13*
%TO.P,D2,1*%
%TO.N,Net-(D2-Pad1)*%
X116500000Y-119500000D03*
D14*
%TO.P,D2,2*%
%TO.N,GND*%
X124120000Y-119500000D03*
%TD*%
D15*
%TO.P,D3,1*%
%TO.N,Net-(D3-Pad1)*%
X141000000Y-116500000D03*
D16*
%TO.P,D3,2*%
%TO.N,Net-(D3-Pad2)*%
X141000000Y-119040000D03*
%TD*%
D17*
%TO.P,D4,1*%
%TO.N,Net-(D3-Pad2)*%
X140500000Y-124500000D03*
D18*
%TO.P,D4,2*%
%TO.N,GND*%
X148120000Y-124500000D03*
%TD*%
D19*
%TO.P,F1,1*%
%TO.N,+BATT*%
X106000000Y-84300000D03*
X106000000Y-91920000D03*
%TO.P,F1,2*%
%TO.N,VCC*%
X106000000Y-114240000D03*
X106000000Y-121860000D03*
%TD*%
D20*
%TO.P,Power_Supply,2*%
%TO.N,GND*%
X85000000Y-91600000D03*
D21*
%TO.P,Power_Supply,1*%
%TO.N,+BATT*%
X85000000Y-84400000D03*
D22*
%TO.P,Power_Supply,S2*%
%TO.N,N/C*%
X79000000Y-94750000D03*
%TO.P,Power_Supply,S1*%
X79000000Y-81250000D03*
%TD*%
D23*
%TO.P,LED,2*%
%TO.N,GND*%
X85500000Y-75000000D03*
%TO.P,LED,1*%
%TO.N,Net-(J2-Pad1)*%
%TA.AperFunction,ComponentPad*%
G36*
G01*
X88850000Y-74250000D02*
X88850000Y-75750000D01*
G75*
G02*
X88600000Y-76000000I-250000J0D01*
G01*
X87400000Y-76000000D01*
G75*
G02*
X87150000Y-75750000I0J250000D01*
G01*
X87150000Y-74250000D01*
G75*
G02*
X87400000Y-74000000I250000J0D01*
G01*
X88600000Y-74000000D01*
G75*
G02*
X88850000Y-74250000I0J-250000D01*
G01*
G37*
%TD.AperFunction*%
%TD*%
%TO.P,MiCon1,1*%
%TO.N,Net-(C2-Pad1)*%
%TA.AperFunction,ComponentPad*%
G36*
G01*
X77750000Y-102150000D02*
X79250000Y-102150000D01*
G75*
G02*
X79500000Y-102400000I0J-250000D01*
G01*
X79500000Y-103600000D01*
G75*
G02*
X79250000Y-103850000I-250000J0D01*
G01*
X77750000Y-103850000D01*
G75*
G02*
X77500000Y-103600000I0J250000D01*
G01*
X77500000Y-102400000D01*
G75*
G02*
X77750000Y-102150000I250000J0D01*
G01*
G37*
%TD.AperFunction*%
D24*
%TO.P,MiCon1,2*%
%TO.N,GND*%
X78500000Y-105500000D03*
%TD*%
%TO.P,MiCon2,2*%
%TO.N,GND*%
X78500000Y-116500000D03*
%TO.P,MiCon2,1*%
%TO.N,Net-(C2-Pad1)*%
%TA.AperFunction,ComponentPad*%
G36*
G01*
X77750000Y-113150000D02*
X79250000Y-113150000D01*
G75*
G02*
X79500000Y-113400000I0J-250000D01*
G01*
X79500000Y-114600000D01*
G75*
G02*
X79250000Y-114850000I-250000J0D01*
G01*
X77750000Y-114850000D01*
G75*
G02*
X77500000Y-114600000I0J250000D01*
G01*
X77500000Y-113400000D01*
G75*
G02*
X77750000Y-113150000I250000J0D01*
G01*
G37*
%TD.AperFunction*%
%TD*%
%TO.P,MiCon3,1*%
%TO.N,Net-(C2-Pad1)*%
%TA.AperFunction,ComponentPad*%
G36*
G01*
X77750000Y-124150000D02*
X79250000Y-124150000D01*
G75*
G02*
X79500000Y-124400000I0J-250000D01*
G01*
X79500000Y-125600000D01*
G75*
G02*
X79250000Y-125850000I-250000J0D01*
G01*
X77750000Y-125850000D01*
G75*
G02*
X77500000Y-125600000I0J250000D01*
G01*
X77500000Y-124400000D01*
G75*
G02*
X77750000Y-124150000I250000J0D01*
G01*
G37*
%TD.AperFunction*%
%TO.P,MiCon3,2*%
%TO.N,GND*%
X78500000Y-127500000D03*
%TD*%
%TO.P,Conn,1*%
%TO.N,Net-(D2-Pad1)*%
%TA.AperFunction,ComponentPad*%
G36*
G01*
X87150000Y-132750000D02*
X87150000Y-131250000D01*
G75*
G02*
X87400000Y-131000000I250000J0D01*
G01*
X88600000Y-131000000D01*
G75*
G02*
X88850000Y-131250000I0J-250000D01*
G01*
X88850000Y-132750000D01*
G75*
G02*
X88600000Y-133000000I-250000J0D01*
G01*
X87400000Y-133000000D01*
G75*
G02*
X87150000Y-132750000I0J250000D01*
G01*
G37*
%TD.AperFunction*%
D23*
%TO.P,Conn,2*%
%TO.N,GND*%
X90500000Y-132000000D03*
%TD*%
%TO.P,Switch,1*%
%TO.N,VCC*%
%TA.AperFunction,ComponentPad*%
G36*
G01*
X98150000Y-132750000D02*
X98150000Y-131250000D01*
G75*
G02*
X98400000Y-131000000I250000J0D01*
G01*
X99600000Y-131000000D01*
G75*
G02*
X99850000Y-131250000I0J-250000D01*
G01*
X99850000Y-132750000D01*
G75*
G02*
X99600000Y-133000000I-250000J0D01*
G01*
X98400000Y-133000000D01*
G75*
G02*
X98150000Y-132750000I0J250000D01*
G01*
G37*
%TD.AperFunction*%
%TO.P,Switch,2*%
%TO.N,Net-(D3-Pad2)*%
X101500000Y-132000000D03*
%TD*%
%TO.P,Coil,2*%
%TO.N,GND*%
X112500000Y-132000000D03*
%TO.P,Coil,1*%
%TO.N,Net-(D3-Pad2)*%
%TA.AperFunction,ComponentPad*%
G36*
G01*
X109150000Y-132750000D02*
X109150000Y-131250000D01*
G75*
G02*
X109400000Y-131000000I250000J0D01*
G01*
X110600000Y-131000000D01*
G75*
G02*
X110850000Y-131250000I0J-250000D01*
G01*
X110850000Y-132750000D01*
G75*
G02*
X110600000Y-133000000I-250000J0D01*
G01*
X109400000Y-133000000D01*
G75*
G02*
X109150000Y-132750000I0J250000D01*
G01*
G37*
%TD.AperFunction*%
%TD*%
%TO.P,12v_1,1*%
%TO.N,VCC*%
%TA.AperFunction,ComponentPad*%
G36*
G01*
X99850000Y-74250000D02*
X99850000Y-75750000D01*
G75*
G02*
X99600000Y-76000000I-250000J0D01*
G01*
X98400000Y-76000000D01*
G75*
G02*
X98150000Y-75750000I0J250000D01*
G01*
X98150000Y-74250000D01*
G75*
G02*
X98400000Y-74000000I250000J0D01*
G01*
X99600000Y-74000000D01*
G75*
G02*
X99850000Y-74250000I0J-250000D01*
G01*
G37*
%TD.AperFunction*%
%TO.P,12v_1,2*%
%TO.N,GND*%
X96500000Y-75000000D03*
%TD*%
%TO.P,12v_2,2*%
%TO.N,GND*%
X107500000Y-75000000D03*
%TO.P,12v_2,1*%
%TO.N,VCC*%
%TA.AperFunction,ComponentPad*%
G36*
G01*
X110850000Y-74250000D02*
X110850000Y-75750000D01*
G75*
G02*
X110600000Y-76000000I-250000J0D01*
G01*
X109400000Y-76000000D01*
G75*
G02*
X109150000Y-75750000I0J250000D01*
G01*
X109150000Y-74250000D01*
G75*
G02*
X109400000Y-74000000I250000J0D01*
G01*
X110600000Y-74000000D01*
G75*
G02*
X110850000Y-74250000I0J-250000D01*
G01*
G37*
%TD.AperFunction*%
%TD*%
%TO.P,12v_3,1*%
%TO.N,VCC*%
%TA.AperFunction,ComponentPad*%
G36*
G01*
X121850000Y-74250000D02*
X121850000Y-75750000D01*
G75*
G02*
X121600000Y-76000000I-250000J0D01*
G01*
X120400000Y-76000000D01*
G75*
G02*
X120150000Y-75750000I0J250000D01*
G01*
X120150000Y-74250000D01*
G75*
G02*
X120400000Y-74000000I250000J0D01*
G01*
X121600000Y-74000000D01*
G75*
G02*
X121850000Y-74250000I0J-250000D01*
G01*
G37*
%TD.AperFunction*%
%TO.P,12v_3,2*%
%TO.N,GND*%
X118500000Y-75000000D03*
%TD*%
%TO.P,12v_4,2*%
%TO.N,GND*%
X129500000Y-75000000D03*
%TO.P,12v_4,1*%
%TO.N,VCC*%
%TA.AperFunction,ComponentPad*%
G36*
G01*
X132850000Y-74250000D02*
X132850000Y-75750000D01*
G75*
G02*
X132600000Y-76000000I-250000J0D01*
G01*
X131400000Y-76000000D01*
G75*
G02*
X131150000Y-75750000I0J250000D01*
G01*
X131150000Y-74250000D01*
G75*
G02*
X131400000Y-74000000I250000J0D01*
G01*
X132600000Y-74000000D01*
G75*
G02*
X132850000Y-74250000I0J-250000D01*
G01*
G37*
%TD.AperFunction*%
%TD*%
%TO.P,12v_5,1*%
%TO.N,VCC*%
%TA.AperFunction,ComponentPad*%
G36*
G01*
X143850000Y-74250000D02*
X143850000Y-75750000D01*
G75*
G02*
X143600000Y-76000000I-250000J0D01*
G01*
X142400000Y-76000000D01*
G75*
G02*
X142150000Y-75750000I0J250000D01*
G01*
X142150000Y-74250000D01*
G75*
G02*
X142400000Y-74000000I250000J0D01*
G01*
X143600000Y-74000000D01*
G75*
G02*
X143850000Y-74250000I0J-250000D01*
G01*
G37*
%TD.AperFunction*%
%TO.P,12v_5,2*%
%TO.N,GND*%
X140500000Y-75000000D03*
%TD*%
%TO.P,12v_6,2*%
%TO.N,GND*%
X151500000Y-75000000D03*
%TO.P,12v_6,1*%
%TO.N,VCC*%
%TA.AperFunction,ComponentPad*%
G36*
G01*
X154850000Y-74250000D02*
X154850000Y-75750000D01*
G75*
G02*
X154600000Y-76000000I-250000J0D01*
G01*
X153400000Y-76000000D01*
G75*
G02*
X153150000Y-75750000I0J250000D01*
G01*
X153150000Y-74250000D01*
G75*
G02*
X153400000Y-74000000I250000J0D01*
G01*
X154600000Y-74000000D01*
G75*
G02*
X154850000Y-74250000I0J-250000D01*
G01*
G37*
%TD.AperFunction*%
%TD*%
%TO.P,12v_7,2*%
%TO.N,GND*%
X156500000Y-132000000D03*
%TO.P,12v_7,1*%
%TO.N,VCC*%
%TA.AperFunction,ComponentPad*%
G36*
G01*
X153150000Y-132750000D02*
X153150000Y-131250000D01*
G75*
G02*
X153400000Y-131000000I250000J0D01*
G01*
X154600000Y-131000000D01*
G75*
G02*
X154850000Y-131250000I0J-250000D01*
G01*
X154850000Y-132750000D01*
G75*
G02*
X154600000Y-133000000I-250000J0D01*
G01*
X153400000Y-133000000D01*
G75*
G02*
X153150000Y-132750000I0J250000D01*
G01*
G37*
%TD.AperFunction*%
%TD*%
%TO.P,12v_8,1*%
%TO.N,VCC*%
%TA.AperFunction,ComponentPad*%
G36*
G01*
X142150000Y-132750000D02*
X142150000Y-131250000D01*
G75*
G02*
X142400000Y-131000000I250000J0D01*
G01*
X143600000Y-131000000D01*
G75*
G02*
X143850000Y-131250000I0J-250000D01*
G01*
X143850000Y-132750000D01*
G75*
G02*
X143600000Y-133000000I-250000J0D01*
G01*
X142400000Y-133000000D01*
G75*
G02*
X142150000Y-132750000I0J250000D01*
G01*
G37*
%TD.AperFunction*%
%TO.P,12v_8,2*%
%TO.N,GND*%
X145500000Y-132000000D03*
%TD*%
%TO.P,12v_9,2*%
%TO.N,GND*%
X134500000Y-132000000D03*
%TO.P,12v_9,1*%
%TO.N,VCC*%
%TA.AperFunction,ComponentPad*%
G36*
G01*
X131150000Y-132750000D02*
X131150000Y-131250000D01*
G75*
G02*
X131400000Y-131000000I250000J0D01*
G01*
X132600000Y-131000000D01*
G75*
G02*
X132850000Y-131250000I0J-250000D01*
G01*
X132850000Y-132750000D01*
G75*
G02*
X132600000Y-133000000I-250000J0D01*
G01*
X131400000Y-133000000D01*
G75*
G02*
X131150000Y-132750000I0J250000D01*
G01*
G37*
%TD.AperFunction*%
%TD*%
%TO.P,12v_10,1*%
%TO.N,VCC*%
%TA.AperFunction,ComponentPad*%
G36*
G01*
X120150000Y-132750000D02*
X120150000Y-131250000D01*
G75*
G02*
X120400000Y-131000000I250000J0D01*
G01*
X121600000Y-131000000D01*
G75*
G02*
X121850000Y-131250000I0J-250000D01*
G01*
X121850000Y-132750000D01*
G75*
G02*
X121600000Y-133000000I-250000J0D01*
G01*
X120400000Y-133000000D01*
G75*
G02*
X120150000Y-132750000I0J250000D01*
G01*
G37*
%TD.AperFunction*%
%TO.P,12v_10,2*%
%TO.N,GND*%
X123500000Y-132000000D03*
%TD*%
D18*
%TO.P,R1,2*%
%TO.N,Net-(R1-Pad2)*%
X86000000Y-113620000D03*
D25*
%TO.P,R1,1*%
%TO.N,Net-(C2-Pad1)*%
X86000000Y-106000000D03*
%TD*%
%TO.P,R2,1*%
%TO.N,Net-(R1-Pad2)*%
X86000000Y-117000000D03*
D18*
%TO.P,R2,2*%
%TO.N,GND*%
X86000000Y-124620000D03*
%TD*%
D25*
%TO.P,R3,1*%
%TO.N,Net-(J2-Pad1)*%
X143000000Y-109000000D03*
D18*
%TO.P,R3,2*%
%TO.N,VCC*%
X143000000Y-101380000D03*
%TD*%
%TO.P,R4,2*%
%TO.N,Net-(D2-Pad1)*%
X124120000Y-124500000D03*
D25*
%TO.P,R4,1*%
%TO.N,Net-(D3-Pad2)*%
X116500000Y-124500000D03*
%TD*%
%TO.P,R5,1*%
%TO.N,Net-(D3-Pad1)*%
X128500000Y-124500000D03*
D18*
%TO.P,R5,2*%
%TO.N,GND*%
X136120000Y-124500000D03*
%TD*%
D17*
%TO.P,C1,1*%
%TO.N,VCC*%
X152000000Y-88000000D03*
D25*
%TO.P,C1,2*%
%TO.N,GND*%
X152000000Y-85500000D03*
%TD*%
%TO.P,C2,2*%
%TO.N,GND*%
X95500000Y-107000000D03*
D17*
%TO.P,C2,1*%
%TO.N,Net-(C2-Pad1)*%
X93000000Y-107000000D03*
%TD*%
D26*
%TO.N,GND*%
X166648126Y-66726714D02*
X167271572Y-66914943D01*
X167846579Y-67220681D01*
X168351247Y-67632279D01*
X168766362Y-68134067D01*
X169076105Y-68706924D01*
X169268682Y-69329039D01*
X169340000Y-70007584D01*
X169340001Y-135967711D01*
X169273286Y-136648126D01*
X169085057Y-137271570D01*
X168779323Y-137846573D01*
X168367721Y-138351248D01*
X167865933Y-138766362D01*
X167293077Y-139076104D01*
X166670961Y-139268682D01*
X165992417Y-139340000D01*
X74032279Y-139340000D01*
X73351874Y-139273286D01*
X72728430Y-139085057D01*
X72153427Y-138779323D01*
X71648752Y-138367721D01*
X71233638Y-137865933D01*
X70923896Y-137293077D01*
X70731318Y-136670961D01*
X70660000Y-135992417D01*
X70660000Y-135779872D01*
X71765000Y-135779872D01*
X71765000Y-136220128D01*
X71850890Y-136651925D01*
X72019369Y-137058669D01*
X72263962Y-137424729D01*
X72575271Y-137736038D01*
X72941331Y-137980631D01*
X73348075Y-138149110D01*
X73779872Y-138235000D01*
X74220128Y-138235000D01*
X74651925Y-138149110D01*
X75058669Y-137980631D01*
X75424729Y-137736038D01*
X75736038Y-137424729D01*
X75980631Y-137058669D01*
X76149110Y-136651925D01*
X76235000Y-136220128D01*
X76235000Y-135779872D01*
X163765000Y-135779872D01*
X163765000Y-136220128D01*
X163850890Y-136651925D01*
X164019369Y-137058669D01*
X164263962Y-137424729D01*
X164575271Y-137736038D01*
X164941331Y-137980631D01*
X165348075Y-138149110D01*
X165779872Y-138235000D01*
X166220128Y-138235000D01*
X166651925Y-138149110D01*
X167058669Y-137980631D01*
X167424729Y-137736038D01*
X167736038Y-137424729D01*
X167980631Y-137058669D01*
X168149110Y-136651925D01*
X168235000Y-136220128D01*
X168235000Y-135779872D01*
X168149110Y-135348075D01*
X167980631Y-134941331D01*
X167736038Y-134575271D01*
X167424729Y-134263962D01*
X167058669Y-134019369D01*
X166651925Y-133850890D01*
X166220128Y-133765000D01*
X165779872Y-133765000D01*
X165348075Y-133850890D01*
X164941331Y-134019369D01*
X164575271Y-134263962D01*
X164263962Y-134575271D01*
X164019369Y-134941331D01*
X163850890Y-135348075D01*
X163765000Y-135779872D01*
X76235000Y-135779872D01*
X76149110Y-135348075D01*
X75980631Y-134941331D01*
X75736038Y-134575271D01*
X75424729Y-134263962D01*
X75058669Y-134019369D01*
X74651925Y-133850890D01*
X74220128Y-133765000D01*
X73779872Y-133765000D01*
X73348075Y-133850890D01*
X72941331Y-134019369D01*
X72575271Y-134263962D01*
X72263962Y-134575271D01*
X72019369Y-134941331D01*
X71850890Y-135348075D01*
X71765000Y-135779872D01*
X70660000Y-135779872D01*
X70660000Y-131250000D01*
X86511928Y-131250000D01*
X86511928Y-132750000D01*
X86528992Y-132923254D01*
X86579528Y-133089850D01*
X86661595Y-133243386D01*
X86772038Y-133377962D01*
X86906614Y-133488405D01*
X87060150Y-133570472D01*
X87226746Y-133621008D01*
X87400000Y-133638072D01*
X88600000Y-133638072D01*
X88773254Y-133621008D01*
X88939850Y-133570472D01*
X89093386Y-133488405D01*
X89227962Y-133377962D01*
X89338405Y-133243386D01*
X89392914Y-133141407D01*
X89393198Y-133141795D01*
X89607954Y-133338664D01*
X89856991Y-133489854D01*
X90130739Y-133589554D01*
X90143110Y-133591476D01*
X90373000Y-133470155D01*
X90373000Y-132127000D01*
X90627000Y-132127000D01*
X90627000Y-133470155D01*
X90856890Y-133591476D01*
X90869261Y-133589554D01*
X91143009Y-133489854D01*
X91392046Y-133338664D01*
X91606802Y-133141795D01*
X91779025Y-132906812D01*
X91902096Y-132642745D01*
X91971285Y-132359742D01*
X91827232Y-132127000D01*
X90627000Y-132127000D01*
X90373000Y-132127000D01*
X90353000Y-132127000D01*
X90353000Y-131873000D01*
X90373000Y-131873000D01*
X90373000Y-130529845D01*
X90627000Y-130529845D01*
X90627000Y-131873000D01*
X91827232Y-131873000D01*
X91971285Y-131640258D01*
X91902096Y-131357255D01*
X91852109Y-131250000D01*
X97511928Y-131250000D01*
X97511928Y-132750000D01*
X97528992Y-132923254D01*
X97579528Y-133089850D01*
X97661595Y-133243386D01*
X97772038Y-133377962D01*
X97906614Y-133488405D01*
X98060150Y-133570472D01*
X98226746Y-133621008D01*
X98400000Y-133638072D01*
X99600000Y-133638072D01*
X99773254Y-133621008D01*
X99939850Y-133570472D01*
X100093386Y-133488405D01*
X100227962Y-133377962D01*
X100338405Y-133243386D01*
X100392777Y-133141663D01*
X100444866Y-133205134D01*
X100670987Y-133390706D01*
X100928967Y-133528599D01*
X101208890Y-133613513D01*
X101500000Y-133642185D01*
X101791111Y-133613513D01*
X102071034Y-133528599D01*
X102329014Y-133390706D01*
X102555134Y-133205134D01*
X102740706Y-132979014D01*
X102878599Y-132721033D01*
X102963513Y-132441110D01*
X102985000Y-132222949D01*
X102985000Y-131777050D01*
X102963513Y-131558889D01*
X102878599Y-131278966D01*
X102863117Y-131250000D01*
X108511928Y-131250000D01*
X108511928Y-132750000D01*
X108528992Y-132923254D01*
X108579528Y-133089850D01*
X108661595Y-133243386D01*
X108772038Y-133377962D01*
X108906614Y-133488405D01*
X109060150Y-133570472D01*
X109226746Y-133621008D01*
X109400000Y-133638072D01*
X110600000Y-133638072D01*
X110773254Y-133621008D01*
X110939850Y-133570472D01*
X111093386Y-133488405D01*
X111227962Y-133377962D01*
X111338405Y-133243386D01*
X111392914Y-133141407D01*
X111393198Y-133141795D01*
X111607954Y-133338664D01*
X111856991Y-133489854D01*
X112130739Y-133589554D01*
X112143110Y-133591476D01*
X112373000Y-133470155D01*
X112373000Y-132127000D01*
X112627000Y-132127000D01*
X112627000Y-133470155D01*
X112856890Y-133591476D01*
X112869261Y-133589554D01*
X113143009Y-133489854D01*
X113392046Y-133338664D01*
X113606802Y-133141795D01*
X113779025Y-132906812D01*
X113902096Y-132642745D01*
X113971285Y-132359742D01*
X113827232Y-132127000D01*
X112627000Y-132127000D01*
X112373000Y-132127000D01*
X112353000Y-132127000D01*
X112353000Y-131873000D01*
X112373000Y-131873000D01*
X112373000Y-130529845D01*
X112627000Y-130529845D01*
X112627000Y-131873000D01*
X113827232Y-131873000D01*
X113971285Y-131640258D01*
X113902096Y-131357255D01*
X113852109Y-131250000D01*
X119511928Y-131250000D01*
X119511928Y-132750000D01*
X119528992Y-132923254D01*
X119579528Y-133089850D01*
X119661595Y-133243386D01*
X119772038Y-133377962D01*
X119906614Y-133488405D01*
X120060150Y-133570472D01*
X120226746Y-133621008D01*
X120400000Y-133638072D01*
X121600000Y-133638072D01*
X121773254Y-133621008D01*
X121939850Y-133570472D01*
X122093386Y-133488405D01*
X122227962Y-133377962D01*
X122338405Y-133243386D01*
X122392914Y-133141407D01*
X122393198Y-133141795D01*
X122607954Y-133338664D01*
X122856991Y-133489854D01*
X123130739Y-133589554D01*
X123143110Y-133591476D01*
X123373000Y-133470155D01*
X123373000Y-132127000D01*
X123627000Y-132127000D01*
X123627000Y-133470155D01*
X123856890Y-133591476D01*
X123869261Y-133589554D01*
X124143009Y-133489854D01*
X124392046Y-133338664D01*
X124606802Y-133141795D01*
X124779025Y-132906812D01*
X124902096Y-132642745D01*
X124971285Y-132359742D01*
X124827232Y-132127000D01*
X123627000Y-132127000D01*
X123373000Y-132127000D01*
X123353000Y-132127000D01*
X123353000Y-131873000D01*
X123373000Y-131873000D01*
X123373000Y-130529845D01*
X123627000Y-130529845D01*
X123627000Y-131873000D01*
X124827232Y-131873000D01*
X124971285Y-131640258D01*
X124902096Y-131357255D01*
X124852109Y-131250000D01*
X130511928Y-131250000D01*
X130511928Y-132750000D01*
X130528992Y-132923254D01*
X130579528Y-133089850D01*
X130661595Y-133243386D01*
X130772038Y-133377962D01*
X130906614Y-133488405D01*
X131060150Y-133570472D01*
X131226746Y-133621008D01*
X131400000Y-133638072D01*
X132600000Y-133638072D01*
X132773254Y-133621008D01*
X132939850Y-133570472D01*
X133093386Y-133488405D01*
X133227962Y-133377962D01*
X133338405Y-133243386D01*
X133392914Y-133141407D01*
X133393198Y-133141795D01*
X133607954Y-133338664D01*
X133856991Y-133489854D01*
X134130739Y-133589554D01*
X134143110Y-133591476D01*
X134373000Y-133470155D01*
X134373000Y-132127000D01*
X134627000Y-132127000D01*
X134627000Y-133470155D01*
X134856890Y-133591476D01*
X134869261Y-133589554D01*
X135143009Y-133489854D01*
X135392046Y-133338664D01*
X135606802Y-133141795D01*
X135779025Y-132906812D01*
X135902096Y-132642745D01*
X135971285Y-132359742D01*
X135827232Y-132127000D01*
X134627000Y-132127000D01*
X134373000Y-132127000D01*
X134353000Y-132127000D01*
X134353000Y-131873000D01*
X134373000Y-131873000D01*
X134373000Y-130529845D01*
X134627000Y-130529845D01*
X134627000Y-131873000D01*
X135827232Y-131873000D01*
X135971285Y-131640258D01*
X135902096Y-131357255D01*
X135852109Y-131250000D01*
X141511928Y-131250000D01*
X141511928Y-132750000D01*
X141528992Y-132923254D01*
X141579528Y-133089850D01*
X141661595Y-133243386D01*
X141772038Y-133377962D01*
X141906614Y-133488405D01*
X142060150Y-133570472D01*
X142226746Y-133621008D01*
X142400000Y-133638072D01*
X143600000Y-133638072D01*
X143773254Y-133621008D01*
X143939850Y-133570472D01*
X144093386Y-133488405D01*
X144227962Y-133377962D01*
X144338405Y-133243386D01*
X144392914Y-133141407D01*
X144393198Y-133141795D01*
X144607954Y-133338664D01*
X144856991Y-133489854D01*
X145130739Y-133589554D01*
X145143110Y-133591476D01*
X145373000Y-133470155D01*
X145373000Y-132127000D01*
X145627000Y-132127000D01*
X145627000Y-133470155D01*
X145856890Y-133591476D01*
X145869261Y-133589554D01*
X146143009Y-133489854D01*
X146392046Y-133338664D01*
X146606802Y-133141795D01*
X146779025Y-132906812D01*
X146902096Y-132642745D01*
X146971285Y-132359742D01*
X146827232Y-132127000D01*
X145627000Y-132127000D01*
X145373000Y-132127000D01*
X145353000Y-132127000D01*
X145353000Y-131873000D01*
X145373000Y-131873000D01*
X145373000Y-130529845D01*
X145627000Y-130529845D01*
X145627000Y-131873000D01*
X146827232Y-131873000D01*
X146971285Y-131640258D01*
X146902096Y-131357255D01*
X146852109Y-131250000D01*
X152511928Y-131250000D01*
X152511928Y-132750000D01*
X152528992Y-132923254D01*
X152579528Y-133089850D01*
X152661595Y-133243386D01*
X152772038Y-133377962D01*
X152906614Y-133488405D01*
X153060150Y-133570472D01*
X153226746Y-133621008D01*
X153400000Y-133638072D01*
X154600000Y-133638072D01*
X154773254Y-133621008D01*
X154939850Y-133570472D01*
X155093386Y-133488405D01*
X155227962Y-133377962D01*
X155338405Y-133243386D01*
X155392914Y-133141407D01*
X155393198Y-133141795D01*
X155607954Y-133338664D01*
X155856991Y-133489854D01*
X156130739Y-133589554D01*
X156143110Y-133591476D01*
X156373000Y-133470155D01*
X156373000Y-132127000D01*
X156627000Y-132127000D01*
X156627000Y-133470155D01*
X156856890Y-133591476D01*
X156869261Y-133589554D01*
X157143009Y-133489854D01*
X157392046Y-133338664D01*
X157606802Y-133141795D01*
X157779025Y-132906812D01*
X157902096Y-132642745D01*
X157971285Y-132359742D01*
X157827232Y-132127000D01*
X156627000Y-132127000D01*
X156373000Y-132127000D01*
X156353000Y-132127000D01*
X156353000Y-131873000D01*
X156373000Y-131873000D01*
X156373000Y-130529845D01*
X156627000Y-130529845D01*
X156627000Y-131873000D01*
X157827232Y-131873000D01*
X157971285Y-131640258D01*
X157902096Y-131357255D01*
X157779025Y-131093188D01*
X157606802Y-130858205D01*
X157392046Y-130661336D01*
X157143009Y-130510146D01*
X156869261Y-130410446D01*
X156856890Y-130408524D01*
X156627000Y-130529845D01*
X156373000Y-130529845D01*
X156143110Y-130408524D01*
X156130739Y-130410446D01*
X155856991Y-130510146D01*
X155607954Y-130661336D01*
X155393198Y-130858205D01*
X155392914Y-130858593D01*
X155338405Y-130756614D01*
X155227962Y-130622038D01*
X155093386Y-130511595D01*
X154939850Y-130429528D01*
X154773254Y-130378992D01*
X154600000Y-130361928D01*
X153400000Y-130361928D01*
X153226746Y-130378992D01*
X153060150Y-130429528D01*
X152906614Y-130511595D01*
X152772038Y-130622038D01*
X152661595Y-130756614D01*
X152579528Y-130910150D01*
X152528992Y-131076746D01*
X152511928Y-131250000D01*
X146852109Y-131250000D01*
X146779025Y-131093188D01*
X146606802Y-130858205D01*
X146392046Y-130661336D01*
X146143009Y-130510146D01*
X145869261Y-130410446D01*
X145856890Y-130408524D01*
X145627000Y-130529845D01*
X145373000Y-130529845D01*
X145143110Y-130408524D01*
X145130739Y-130410446D01*
X144856991Y-130510146D01*
X144607954Y-130661336D01*
X144393198Y-130858205D01*
X144392914Y-130858593D01*
X144338405Y-130756614D01*
X144227962Y-130622038D01*
X144093386Y-130511595D01*
X143939850Y-130429528D01*
X143773254Y-130378992D01*
X143600000Y-130361928D01*
X142400000Y-130361928D01*
X142226746Y-130378992D01*
X142060150Y-130429528D01*
X141906614Y-130511595D01*
X141772038Y-130622038D01*
X141661595Y-130756614D01*
X141579528Y-130910150D01*
X141528992Y-131076746D01*
X141511928Y-131250000D01*
X135852109Y-131250000D01*
X135779025Y-131093188D01*
X135606802Y-130858205D01*
X135392046Y-130661336D01*
X135143009Y-130510146D01*
X134869261Y-130410446D01*
X134856890Y-130408524D01*
X134627000Y-130529845D01*
X134373000Y-130529845D01*
X134143110Y-130408524D01*
X134130739Y-130410446D01*
X133856991Y-130510146D01*
X133607954Y-130661336D01*
X133393198Y-130858205D01*
X133392914Y-130858593D01*
X133338405Y-130756614D01*
X133227962Y-130622038D01*
X133093386Y-130511595D01*
X132939850Y-130429528D01*
X132773254Y-130378992D01*
X132600000Y-130361928D01*
X131400000Y-130361928D01*
X131226746Y-130378992D01*
X131060150Y-130429528D01*
X130906614Y-130511595D01*
X130772038Y-130622038D01*
X130661595Y-130756614D01*
X130579528Y-130910150D01*
X130528992Y-131076746D01*
X130511928Y-131250000D01*
X124852109Y-131250000D01*
X124779025Y-131093188D01*
X124606802Y-130858205D01*
X124392046Y-130661336D01*
X124143009Y-130510146D01*
X123869261Y-130410446D01*
X123856890Y-130408524D01*
X123627000Y-130529845D01*
X123373000Y-130529845D01*
X123143110Y-130408524D01*
X123130739Y-130410446D01*
X122856991Y-130510146D01*
X122607954Y-130661336D01*
X122393198Y-130858205D01*
X122392914Y-130858593D01*
X122338405Y-130756614D01*
X122227962Y-130622038D01*
X122093386Y-130511595D01*
X121939850Y-130429528D01*
X121773254Y-130378992D01*
X121600000Y-130361928D01*
X120400000Y-130361928D01*
X120226746Y-130378992D01*
X120060150Y-130429528D01*
X119906614Y-130511595D01*
X119772038Y-130622038D01*
X119661595Y-130756614D01*
X119579528Y-130910150D01*
X119528992Y-131076746D01*
X119511928Y-131250000D01*
X113852109Y-131250000D01*
X113779025Y-131093188D01*
X113606802Y-130858205D01*
X113392046Y-130661336D01*
X113143009Y-130510146D01*
X112869261Y-130410446D01*
X112856890Y-130408524D01*
X112627000Y-130529845D01*
X112373000Y-130529845D01*
X112143110Y-130408524D01*
X112130739Y-130410446D01*
X111856991Y-130510146D01*
X111607954Y-130661336D01*
X111393198Y-130858205D01*
X111392914Y-130858593D01*
X111338405Y-130756614D01*
X111227962Y-130622038D01*
X111093386Y-130511595D01*
X110939850Y-130429528D01*
X110773254Y-130378992D01*
X110600000Y-130361928D01*
X109400000Y-130361928D01*
X109226746Y-130378992D01*
X109060150Y-130429528D01*
X108906614Y-130511595D01*
X108772038Y-130622038D01*
X108661595Y-130756614D01*
X108579528Y-130910150D01*
X108528992Y-131076746D01*
X108511928Y-131250000D01*
X102863117Y-131250000D01*
X102740706Y-131020986D01*
X102555134Y-130794866D01*
X102329013Y-130609294D01*
X102071033Y-130471401D01*
X101791110Y-130386487D01*
X101500000Y-130357815D01*
X101208889Y-130386487D01*
X100928966Y-130471401D01*
X100670986Y-130609294D01*
X100444866Y-130794866D01*
X100392777Y-130858337D01*
X100338405Y-130756614D01*
X100227962Y-130622038D01*
X100093386Y-130511595D01*
X99939850Y-130429528D01*
X99773254Y-130378992D01*
X99600000Y-130361928D01*
X98400000Y-130361928D01*
X98226746Y-130378992D01*
X98060150Y-130429528D01*
X97906614Y-130511595D01*
X97772038Y-130622038D01*
X97661595Y-130756614D01*
X97579528Y-130910150D01*
X97528992Y-131076746D01*
X97511928Y-131250000D01*
X91852109Y-131250000D01*
X91779025Y-131093188D01*
X91606802Y-130858205D01*
X91392046Y-130661336D01*
X91143009Y-130510146D01*
X90869261Y-130410446D01*
X90856890Y-130408524D01*
X90627000Y-130529845D01*
X90373000Y-130529845D01*
X90143110Y-130408524D01*
X90130739Y-130410446D01*
X89856991Y-130510146D01*
X89607954Y-130661336D01*
X89393198Y-130858205D01*
X89392914Y-130858593D01*
X89338405Y-130756614D01*
X89227962Y-130622038D01*
X89093386Y-130511595D01*
X88939850Y-130429528D01*
X88773254Y-130378992D01*
X88600000Y-130361928D01*
X87400000Y-130361928D01*
X87226746Y-130378992D01*
X87060150Y-130429528D01*
X86906614Y-130511595D01*
X86772038Y-130622038D01*
X86661595Y-130756614D01*
X86579528Y-130910150D01*
X86528992Y-131076746D01*
X86511928Y-131250000D01*
X70660000Y-131250000D01*
X70660000Y-127856890D01*
X76908524Y-127856890D01*
X76910446Y-127869261D01*
X77010146Y-128143009D01*
X77161336Y-128392046D01*
X77358205Y-128606802D01*
X77593188Y-128779025D01*
X77857255Y-128902096D01*
X78140258Y-128971285D01*
X78373000Y-128827232D01*
X78373000Y-127627000D01*
X78627000Y-127627000D01*
X78627000Y-128827232D01*
X78859742Y-128971285D01*
X79142745Y-128902096D01*
X79406812Y-128779025D01*
X79641795Y-128606802D01*
X79838664Y-128392046D01*
X79989854Y-128143009D01*
X80089554Y-127869261D01*
X80091476Y-127856890D01*
X79970155Y-127627000D01*
X78627000Y-127627000D01*
X78373000Y-127627000D01*
X77029845Y-127627000D01*
X76908524Y-127856890D01*
X70660000Y-127856890D01*
X70660000Y-124400000D01*
X76861928Y-124400000D01*
X76861928Y-125600000D01*
X76878992Y-125773254D01*
X76929528Y-125939850D01*
X77011595Y-126093386D01*
X77122038Y-126227962D01*
X77256614Y-126338405D01*
X77358593Y-126392914D01*
X77358205Y-126393198D01*
X77161336Y-126607954D01*
X77010146Y-126856991D01*
X76910446Y-127130739D01*
X76908524Y-127143110D01*
X77029845Y-127373000D01*
X78373000Y-127373000D01*
X78373000Y-127353000D01*
X78627000Y-127353000D01*
X78627000Y-127373000D01*
X79970155Y-127373000D01*
X80091476Y-127143110D01*
X80089554Y-127130739D01*
X79989854Y-126856991D01*
X79838664Y-126607954D01*
X79641795Y-126393198D01*
X79641407Y-126392914D01*
X79743386Y-126338405D01*
X79877962Y-126227962D01*
X79988405Y-126093386D01*
X80070472Y-125939850D01*
X80121008Y-125773254D01*
X80138072Y-125600000D01*
X80138072Y-124969040D01*
X84608091Y-124969040D01*
X84702930Y-125233881D01*
X84847615Y-125475131D01*
X85036586Y-125683519D01*
X85262580Y-125851037D01*
X85516913Y-125971246D01*
X85650961Y-126011904D01*
X85873000Y-125889915D01*
X85873000Y-124747000D01*
X86127000Y-124747000D01*
X86127000Y-125889915D01*
X86349039Y-126011904D01*
X86483087Y-125971246D01*
X86737420Y-125851037D01*
X86963414Y-125683519D01*
X87152385Y-125475131D01*
X87297070Y-125233881D01*
X87391909Y-124969040D01*
X87270624Y-124747000D01*
X86127000Y-124747000D01*
X85873000Y-124747000D01*
X84729376Y-124747000D01*
X84608091Y-124969040D01*
X80138072Y-124969040D01*
X80138072Y-124400000D01*
X80125363Y-124270960D01*
X84608091Y-124270960D01*
X84729376Y-124493000D01*
X85873000Y-124493000D01*
X85873000Y-123350085D01*
X86127000Y-123350085D01*
X86127000Y-124493000D01*
X87270624Y-124493000D01*
X87344001Y-124358665D01*
X115065000Y-124358665D01*
X115065000Y-124641335D01*
X115120147Y-124918574D01*
X115228320Y-125179727D01*
X115385363Y-125414759D01*
X115585241Y-125614637D01*
X115820273Y-125771680D01*
X116081426Y-125879853D01*
X116358665Y-125935000D01*
X116641335Y-125935000D01*
X116918574Y-125879853D01*
X117179727Y-125771680D01*
X117414759Y-125614637D01*
X117614637Y-125414759D01*
X117771680Y-125179727D01*
X117879853Y-124918574D01*
X117935000Y-124641335D01*
X117935000Y-124358665D01*
X122685000Y-124358665D01*
X122685000Y-124641335D01*
X122740147Y-124918574D01*
X122848320Y-125179727D01*
X123005363Y-125414759D01*
X123205241Y-125614637D01*
X123440273Y-125771680D01*
X123701426Y-125879853D01*
X123978665Y-125935000D01*
X124261335Y-125935000D01*
X124538574Y-125879853D01*
X124799727Y-125771680D01*
X125034759Y-125614637D01*
X125234637Y-125414759D01*
X125391680Y-125179727D01*
X125499853Y-124918574D01*
X125555000Y-124641335D01*
X125555000Y-124358665D01*
X127065000Y-124358665D01*
X127065000Y-124641335D01*
X127120147Y-124918574D01*
X127228320Y-125179727D01*
X127385363Y-125414759D01*
X127585241Y-125614637D01*
X127820273Y-125771680D01*
X128081426Y-125879853D01*
X128358665Y-125935000D01*
X128641335Y-125935000D01*
X128918574Y-125879853D01*
X129179727Y-125771680D01*
X129414759Y-125614637D01*
X129614637Y-125414759D01*
X129771680Y-125179727D01*
X129879853Y-124918574D01*
X129893684Y-124849039D01*
X134728096Y-124849039D01*
X134768754Y-124983087D01*
X134888963Y-125237420D01*
X135056481Y-125463414D01*
X135264869Y-125652385D01*
X135506119Y-125797070D01*
X135770960Y-125891909D01*
X135993000Y-125770624D01*
X135993000Y-124627000D01*
X136247000Y-124627000D01*
X136247000Y-125770624D01*
X136469040Y-125891909D01*
X136733881Y-125797070D01*
X136975131Y-125652385D01*
X137183519Y-125463414D01*
X137351037Y-125237420D01*
X137471246Y-124983087D01*
X137511904Y-124849039D01*
X137389915Y-124627000D01*
X136247000Y-124627000D01*
X135993000Y-124627000D01*
X134850085Y-124627000D01*
X134728096Y-124849039D01*
X129893684Y-124849039D01*
X129935000Y-124641335D01*
X129935000Y-124358665D01*
X129893685Y-124150961D01*
X134728096Y-124150961D01*
X134850085Y-124373000D01*
X135993000Y-124373000D01*
X135993000Y-123229376D01*
X136247000Y-123229376D01*
X136247000Y-124373000D01*
X137389915Y-124373000D01*
X137511904Y-124150961D01*
X137471246Y-124016913D01*
X137351037Y-123762580D01*
X137304650Y-123700000D01*
X139061928Y-123700000D01*
X139061928Y-125300000D01*
X139074188Y-125424482D01*
X139110498Y-125544180D01*
X139169463Y-125654494D01*
X139248815Y-125751185D01*
X139345506Y-125830537D01*
X139455820Y-125889502D01*
X139575518Y-125925812D01*
X139700000Y-125938072D01*
X141300000Y-125938072D01*
X141424482Y-125925812D01*
X141544180Y-125889502D01*
X141654494Y-125830537D01*
X141751185Y-125751185D01*
X141830537Y-125654494D01*
X141889502Y-125544180D01*
X141925812Y-125424482D01*
X141938072Y-125300000D01*
X141938072Y-124849039D01*
X146728096Y-124849039D01*
X146768754Y-124983087D01*
X146888963Y-125237420D01*
X147056481Y-125463414D01*
X147264869Y-125652385D01*
X147506119Y-125797070D01*
X147770960Y-125891909D01*
X147993000Y-125770624D01*
X147993000Y-124627000D01*
X148247000Y-124627000D01*
X148247000Y-125770624D01*
X148469040Y-125891909D01*
X148733881Y-125797070D01*
X148975131Y-125652385D01*
X149183519Y-125463414D01*
X149351037Y-125237420D01*
X149471246Y-124983087D01*
X149511904Y-124849039D01*
X149389915Y-124627000D01*
X148247000Y-124627000D01*
X147993000Y-124627000D01*
X146850085Y-124627000D01*
X146728096Y-124849039D01*
X141938072Y-124849039D01*
X141938072Y-124150961D01*
X146728096Y-124150961D01*
X146850085Y-124373000D01*
X147993000Y-124373000D01*
X147993000Y-123229376D01*
X148247000Y-123229376D01*
X148247000Y-124373000D01*
X149389915Y-124373000D01*
X149511904Y-124150961D01*
X149471246Y-124016913D01*
X149351037Y-123762580D01*
X149183519Y-123536586D01*
X148975131Y-123347615D01*
X148733881Y-123202930D01*
X148469040Y-123108091D01*
X148247000Y-123229376D01*
X147993000Y-123229376D01*
X147770960Y-123108091D01*
X147506119Y-123202930D01*
X147264869Y-123347615D01*
X147056481Y-123536586D01*
X146888963Y-123762580D01*
X146768754Y-124016913D01*
X146728096Y-124150961D01*
X141938072Y-124150961D01*
X141938072Y-123700000D01*
X141925812Y-123575518D01*
X141889502Y-123455820D01*
X141830537Y-123345506D01*
X141751185Y-123248815D01*
X141654494Y-123169463D01*
X141544180Y-123110498D01*
X141424482Y-123074188D01*
X141300000Y-123061928D01*
X139700000Y-123061928D01*
X139575518Y-123074188D01*
X139455820Y-123110498D01*
X139345506Y-123169463D01*
X139248815Y-123248815D01*
X139169463Y-123345506D01*
X139110498Y-123455820D01*
X139074188Y-123575518D01*
X139061928Y-123700000D01*
X137304650Y-123700000D01*
X137183519Y-123536586D01*
X136975131Y-123347615D01*
X136733881Y-123202930D01*
X136469040Y-123108091D01*
X136247000Y-123229376D01*
X135993000Y-123229376D01*
X135770960Y-123108091D01*
X135506119Y-123202930D01*
X135264869Y-123347615D01*
X135056481Y-123536586D01*
X134888963Y-123762580D01*
X134768754Y-124016913D01*
X134728096Y-124150961D01*
X129893685Y-124150961D01*
X129879853Y-124081426D01*
X129771680Y-123820273D01*
X129614637Y-123585241D01*
X129414759Y-123385363D01*
X129179727Y-123228320D01*
X128918574Y-123120147D01*
X128641335Y-123065000D01*
X128358665Y-123065000D01*
X128081426Y-123120147D01*
X127820273Y-123228320D01*
X127585241Y-123385363D01*
X127385363Y-123585241D01*
X127228320Y-123820273D01*
X127120147Y-124081426D01*
X127065000Y-124358665D01*
X125555000Y-124358665D01*
X125499853Y-124081426D01*
X125391680Y-123820273D01*
X125234637Y-123585241D01*
X125034759Y-123385363D01*
X124799727Y-123228320D01*
X124538574Y-123120147D01*
X124261335Y-123065000D01*
X123978665Y-123065000D01*
X123701426Y-123120147D01*
X123440273Y-123228320D01*
X123205241Y-123385363D01*
X123005363Y-123585241D01*
X122848320Y-123820273D01*
X122740147Y-124081426D01*
X122685000Y-124358665D01*
X117935000Y-124358665D01*
X117879853Y-124081426D01*
X117771680Y-123820273D01*
X117614637Y-123585241D01*
X117414759Y-123385363D01*
X117179727Y-123228320D01*
X116918574Y-123120147D01*
X116641335Y-123065000D01*
X116358665Y-123065000D01*
X116081426Y-123120147D01*
X115820273Y-123228320D01*
X115585241Y-123385363D01*
X115385363Y-123585241D01*
X115228320Y-123820273D01*
X115120147Y-124081426D01*
X115065000Y-124358665D01*
X87344001Y-124358665D01*
X87391909Y-124270960D01*
X87297070Y-124006119D01*
X87152385Y-123764869D01*
X86963414Y-123556481D01*
X86737420Y-123388963D01*
X86483087Y-123268754D01*
X86349039Y-123228096D01*
X86127000Y-123350085D01*
X85873000Y-123350085D01*
X85650961Y-123228096D01*
X85516913Y-123268754D01*
X85262580Y-123388963D01*
X85036586Y-123556481D01*
X84847615Y-123764869D01*
X84702930Y-124006119D01*
X84608091Y-124270960D01*
X80125363Y-124270960D01*
X80121008Y-124226746D01*
X80070472Y-124060150D01*
X79988405Y-123906614D01*
X79877962Y-123772038D01*
X79743386Y-123661595D01*
X79589850Y-123579528D01*
X79423254Y-123528992D01*
X79250000Y-123511928D01*
X77750000Y-123511928D01*
X77576746Y-123528992D01*
X77410150Y-123579528D01*
X77256614Y-123661595D01*
X77122038Y-123772038D01*
X77011595Y-123906614D01*
X76929528Y-124060150D01*
X76878992Y-124226746D01*
X76861928Y-124400000D01*
X70660000Y-124400000D01*
X70660000Y-121630023D01*
X103665000Y-121630023D01*
X103665000Y-122089977D01*
X103754733Y-122541094D01*
X103930750Y-122966037D01*
X104186287Y-123348476D01*
X104511524Y-123673713D01*
X104893963Y-123929250D01*
X105318906Y-124105267D01*
X105770023Y-124195000D01*
X106229977Y-124195000D01*
X106681094Y-124105267D01*
X107106037Y-123929250D01*
X107488476Y-123673713D01*
X107813713Y-123348476D01*
X108069250Y-122966037D01*
X108245267Y-122541094D01*
X108335000Y-122089977D01*
X108335000Y-121630023D01*
X108245267Y-121178906D01*
X108069250Y-120753963D01*
X107813713Y-120371524D01*
X107488476Y-120046287D01*
X107106037Y-119790750D01*
X106681094Y-119614733D01*
X106229977Y-119525000D01*
X105770023Y-119525000D01*
X105318906Y-119614733D01*
X104893963Y-119790750D01*
X104511524Y-120046287D01*
X104186287Y-120371524D01*
X103930750Y-120753963D01*
X103754733Y-121178906D01*
X103665000Y-121630023D01*
X70660000Y-121630023D01*
X70660000Y-118750000D01*
X115111928Y-118750000D01*
X115111928Y-120250000D01*
X115124188Y-120374482D01*
X115160498Y-120494180D01*
X115219463Y-120604494D01*
X115298815Y-120701185D01*
X115395506Y-120780537D01*
X115505820Y-120839502D01*
X115625518Y-120875812D01*
X115750000Y-120888072D01*
X117250000Y-120888072D01*
X117374482Y-120875812D01*
X117494180Y-120839502D01*
X117604494Y-120780537D01*
X117701185Y-120701185D01*
X117780537Y-120604494D01*
X117839502Y-120494180D01*
X117875812Y-120374482D01*
X117888072Y-120250000D01*
X117888072Y-119841185D01*
X122777682Y-119841185D01*
X122814347Y-119962070D01*
X122929580Y-120207912D01*
X123090560Y-120426549D01*
X123291101Y-120609579D01*
X123523496Y-120749969D01*
X123778814Y-120842323D01*
X123993000Y-120720420D01*
X123993000Y-119627000D01*
X124247000Y-119627000D01*
X124247000Y-120720420D01*
X124461186Y-120842323D01*
X124716504Y-120749969D01*
X124948899Y-120609579D01*
X125149440Y-120426549D01*
X125310420Y-120207912D01*
X125425653Y-119962070D01*
X125462318Y-119841185D01*
X125339656Y-119627000D01*
X124247000Y-119627000D01*
X123993000Y-119627000D01*
X122900344Y-119627000D01*
X122777682Y-119841185D01*
X117888072Y-119841185D01*
X117888072Y-119158815D01*
X122777682Y-119158815D01*
X122900344Y-119373000D01*
X123993000Y-119373000D01*
X123993000Y-118279580D01*
X124247000Y-118279580D01*
X124247000Y-119373000D01*
X125339656Y-119373000D01*
X125462318Y-119158815D01*
X125425653Y-119037930D01*
X125310420Y-118792088D01*
X125149440Y-118573451D01*
X124948899Y-118390421D01*
X124716504Y-118250031D01*
X124461186Y-118157677D01*
X124247000Y-118279580D01*
X123993000Y-118279580D01*
X123778814Y-118157677D01*
X123523496Y-118250031D01*
X123291101Y-118390421D01*
X123090560Y-118573451D01*
X122929580Y-118792088D01*
X122814347Y-119037930D01*
X122777682Y-119158815D01*
X117888072Y-119158815D01*
X117888072Y-118750000D01*
X117875812Y-118625518D01*
X117839502Y-118505820D01*
X117780537Y-118395506D01*
X117701185Y-118298815D01*
X117604494Y-118219463D01*
X117494180Y-118160498D01*
X117374482Y-118124188D01*
X117250000Y-118111928D01*
X115750000Y-118111928D01*
X115625518Y-118124188D01*
X115505820Y-118160498D01*
X115395506Y-118219463D01*
X115298815Y-118298815D01*
X115219463Y-118395506D01*
X115160498Y-118505820D01*
X115124188Y-118625518D01*
X115111928Y-118750000D01*
X70660000Y-118750000D01*
X70660000Y-116856890D01*
X76908524Y-116856890D01*
X76910446Y-116869261D01*
X77010146Y-117143009D01*
X77161336Y-117392046D01*
X77358205Y-117606802D01*
X77593188Y-117779025D01*
X77857255Y-117902096D01*
X78140258Y-117971285D01*
X78373000Y-117827232D01*
X78373000Y-116627000D01*
X78627000Y-116627000D01*
X78627000Y-117827232D01*
X78859742Y-117971285D01*
X79142745Y-117902096D01*
X79406812Y-117779025D01*
X79641795Y-117606802D01*
X79838664Y-117392046D01*
X79989854Y-117143009D01*
X80089554Y-116869261D01*
X80091200Y-116858665D01*
X84565000Y-116858665D01*
X84565000Y-117141335D01*
X84620147Y-117418574D01*
X84728320Y-117679727D01*
X84885363Y-117914759D01*
X85085241Y-118114637D01*
X85320273Y-118271680D01*
X85581426Y-118379853D01*
X85858665Y-118435000D01*
X86141335Y-118435000D01*
X86418574Y-118379853D01*
X86679727Y-118271680D01*
X86914759Y-118114637D01*
X87114637Y-117914759D01*
X87271680Y-117679727D01*
X87379853Y-117418574D01*
X87435000Y-117141335D01*
X87435000Y-116858665D01*
X87379853Y-116581426D01*
X87271680Y-116320273D01*
X87114637Y-116085241D01*
X86914759Y-115885363D01*
X86679727Y-115728320D01*
X86418574Y-115620147D01*
X86141335Y-115565000D01*
X85858665Y-115565000D01*
X85581426Y-115620147D01*
X85320273Y-115728320D01*
X85085241Y-115885363D01*
X84885363Y-116085241D01*
X84728320Y-116320273D01*
X84620147Y-116581426D01*
X84565000Y-116858665D01*
X80091200Y-116858665D01*
X80091476Y-116856890D01*
X79970155Y-116627000D01*
X78627000Y-116627000D01*
X78373000Y-116627000D01*
X77029845Y-116627000D01*
X76908524Y-116856890D01*
X70660000Y-116856890D01*
X70660000Y-113400000D01*
X76861928Y-113400000D01*
X76861928Y-114600000D01*
X76878992Y-114773254D01*
X76929528Y-114939850D01*
X77011595Y-115093386D01*
X77122038Y-115227962D01*
X77256614Y-115338405D01*
X77358593Y-115392914D01*
X77358205Y-115393198D01*
X77161336Y-115607954D01*
X77010146Y-115856991D01*
X76910446Y-116130739D01*
X76908524Y-116143110D01*
X77029845Y-116373000D01*
X78373000Y-116373000D01*
X78373000Y-116353000D01*
X78627000Y-116353000D01*
X78627000Y-116373000D01*
X79970155Y-116373000D01*
X80091476Y-116143110D01*
X80089554Y-116130739D01*
X79989854Y-115856991D01*
X79838664Y-115607954D01*
X79641795Y-115393198D01*
X79641407Y-115392914D01*
X79743386Y-115338405D01*
X79877962Y-115227962D01*
X79988405Y-115093386D01*
X80070472Y-114939850D01*
X80121008Y-114773254D01*
X80138072Y-114600000D01*
X80138072Y-113478665D01*
X84565000Y-113478665D01*
X84565000Y-113761335D01*
X84620147Y-114038574D01*
X84728320Y-114299727D01*
X84885363Y-114534759D01*
X85085241Y-114734637D01*
X85320273Y-114891680D01*
X85581426Y-114999853D01*
X85858665Y-115055000D01*
X86141335Y-115055000D01*
X86418574Y-114999853D01*
X86679727Y-114891680D01*
X86914759Y-114734637D01*
X87114637Y-114534759D01*
X87271680Y-114299727D01*
X87379853Y-114038574D01*
X87385532Y-114010023D01*
X103665000Y-114010023D01*
X103665000Y-114469977D01*
X103754733Y-114921094D01*
X103930750Y-115346037D01*
X104186287Y-115728476D01*
X104511524Y-116053713D01*
X104893963Y-116309250D01*
X105318906Y-116485267D01*
X105770023Y-116575000D01*
X106229977Y-116575000D01*
X106681094Y-116485267D01*
X107106037Y-116309250D01*
X107488476Y-116053713D01*
X107813713Y-115728476D01*
X107899557Y-115600000D01*
X139461928Y-115600000D01*
X139461928Y-117400000D01*
X139474188Y-117524482D01*
X139510498Y-117644180D01*
X139569463Y-117754494D01*
X139648815Y-117851185D01*
X139745506Y-117930537D01*
X139855820Y-117989502D01*
X139874127Y-117995056D01*
X139807688Y-118061495D01*
X139639701Y-118312905D01*
X139523989Y-118592257D01*
X139465000Y-118888816D01*
X139465000Y-119191184D01*
X139523989Y-119487743D01*
X139639701Y-119767095D01*
X139807688Y-120018505D01*
X140021495Y-120232312D01*
X140272905Y-120400299D01*
X140552257Y-120516011D01*
X140848816Y-120575000D01*
X141151184Y-120575000D01*
X141447743Y-120516011D01*
X141727095Y-120400299D01*
X141978505Y-120232312D01*
X142192312Y-120018505D01*
X142360299Y-119767095D01*
X142476011Y-119487743D01*
X142535000Y-119191184D01*
X142535000Y-118888816D01*
X142476011Y-118592257D01*
X142360299Y-118312905D01*
X142192312Y-118061495D01*
X142125873Y-117995056D01*
X142144180Y-117989502D01*
X142254494Y-117930537D01*
X142351185Y-117851185D01*
X142430537Y-117754494D01*
X142489502Y-117644180D01*
X142525812Y-117524482D01*
X142538072Y-117400000D01*
X142538072Y-115600000D01*
X142525812Y-115475518D01*
X142489502Y-115355820D01*
X142430537Y-115245506D01*
X142351185Y-115148815D01*
X142254494Y-115069463D01*
X142144180Y-115010498D01*
X142024482Y-114974188D01*
X141900000Y-114961928D01*
X140100000Y-114961928D01*
X139975518Y-114974188D01*
X139855820Y-115010498D01*
X139745506Y-115069463D01*
X139648815Y-115148815D01*
X139569463Y-115245506D01*
X139510498Y-115355820D01*
X139474188Y-115475518D01*
X139461928Y-115600000D01*
X107899557Y-115600000D01*
X108069250Y-115346037D01*
X108245267Y-114921094D01*
X108335000Y-114469977D01*
X108335000Y-114010023D01*
X108245267Y-113558906D01*
X108069250Y-113133963D01*
X107813713Y-112751524D01*
X107488476Y-112426287D01*
X107106037Y-112170750D01*
X106681094Y-111994733D01*
X106229977Y-111905000D01*
X105770023Y-111905000D01*
X105318906Y-111994733D01*
X104893963Y-112170750D01*
X104511524Y-112426287D01*
X104186287Y-112751524D01*
X103930750Y-113133963D01*
X103754733Y-113558906D01*
X103665000Y-114010023D01*
X87385532Y-114010023D01*
X87435000Y-113761335D01*
X87435000Y-113478665D01*
X87379853Y-113201426D01*
X87271680Y-112940273D01*
X87114637Y-112705241D01*
X86914759Y-112505363D01*
X86679727Y-112348320D01*
X86418574Y-112240147D01*
X86141335Y-112185000D01*
X85858665Y-112185000D01*
X85581426Y-112240147D01*
X85320273Y-112348320D01*
X85085241Y-112505363D01*
X84885363Y-112705241D01*
X84728320Y-112940273D01*
X84620147Y-113201426D01*
X84565000Y-113478665D01*
X80138072Y-113478665D01*
X80138072Y-113400000D01*
X80121008Y-113226746D01*
X80070472Y-113060150D01*
X79988405Y-112906614D01*
X79877962Y-112772038D01*
X79743386Y-112661595D01*
X79589850Y-112579528D01*
X79423254Y-112528992D01*
X79250000Y-112511928D01*
X77750000Y-112511928D01*
X77576746Y-112528992D01*
X77410150Y-112579528D01*
X77256614Y-112661595D01*
X77122038Y-112772038D01*
X77011595Y-112906614D01*
X76929528Y-113060150D01*
X76878992Y-113226746D01*
X76861928Y-113400000D01*
X70660000Y-113400000D01*
X70660000Y-108858665D01*
X141565000Y-108858665D01*
X141565000Y-109141335D01*
X141620147Y-109418574D01*
X141728320Y-109679727D01*
X141885363Y-109914759D01*
X142085241Y-110114637D01*
X142320273Y-110271680D01*
X142581426Y-110379853D01*
X142858665Y-110435000D01*
X143141335Y-110435000D01*
X143418574Y-110379853D01*
X143679727Y-110271680D01*
X143787003Y-110200000D01*
X149061928Y-110200000D01*
X149061928Y-112800000D01*
X149074188Y-112924482D01*
X149110498Y-113044180D01*
X149169463Y-113154494D01*
X149248815Y-113251185D01*
X149345506Y-113330537D01*
X149455820Y-113389502D01*
X149575518Y-113425812D01*
X149700000Y-113438072D01*
X152300000Y-113438072D01*
X152424482Y-113425812D01*
X152544180Y-113389502D01*
X152654494Y-113330537D01*
X152751185Y-113251185D01*
X152830537Y-113154494D01*
X152889502Y-113044180D01*
X152925812Y-112924482D01*
X152938072Y-112800000D01*
X152938072Y-110200000D01*
X152925812Y-110075518D01*
X152889502Y-109955820D01*
X152830537Y-109845506D01*
X152751185Y-109748815D01*
X152654494Y-109669463D01*
X152544180Y-109610498D01*
X152424482Y-109574188D01*
X152300000Y-109561928D01*
X149700000Y-109561928D01*
X149575518Y-109574188D01*
X149455820Y-109610498D01*
X149345506Y-109669463D01*
X149248815Y-109748815D01*
X149169463Y-109845506D01*
X149110498Y-109955820D01*
X149074188Y-110075518D01*
X149061928Y-110200000D01*
X143787003Y-110200000D01*
X143914759Y-110114637D01*
X144114637Y-109914759D01*
X144271680Y-109679727D01*
X144379853Y-109418574D01*
X144435000Y-109141335D01*
X144435000Y-108858665D01*
X144379853Y-108581426D01*
X144271680Y-108320273D01*
X144114637Y-108085241D01*
X143914759Y-107885363D01*
X143679727Y-107728320D01*
X143418574Y-107620147D01*
X143141335Y-107565000D01*
X142858665Y-107565000D01*
X142581426Y-107620147D01*
X142320273Y-107728320D01*
X142085241Y-107885363D01*
X141885363Y-108085241D01*
X141728320Y-108320273D01*
X141620147Y-108581426D01*
X141565000Y-108858665D01*
X70660000Y-108858665D01*
X70660000Y-105856890D01*
X76908524Y-105856890D01*
X76910446Y-105869261D01*
X77010146Y-106143009D01*
X77161336Y-106392046D01*
X77358205Y-106606802D01*
X77593188Y-106779025D01*
X77857255Y-106902096D01*
X78140258Y-106971285D01*
X78373000Y-106827232D01*
X78373000Y-105627000D01*
X78627000Y-105627000D01*
X78627000Y-106827232D01*
X78859742Y-106971285D01*
X79142745Y-106902096D01*
X79406812Y-106779025D01*
X79641795Y-106606802D01*
X79838664Y-106392046D01*
X79989854Y-106143009D01*
X80089554Y-105869261D01*
X80091200Y-105858665D01*
X84565000Y-105858665D01*
X84565000Y-106141335D01*
X84620147Y-106418574D01*
X84728320Y-106679727D01*
X84885363Y-106914759D01*
X85085241Y-107114637D01*
X85320273Y-107271680D01*
X85581426Y-107379853D01*
X85858665Y-107435000D01*
X86141335Y-107435000D01*
X86418574Y-107379853D01*
X86679727Y-107271680D01*
X86914759Y-107114637D01*
X87114637Y-106914759D01*
X87271680Y-106679727D01*
X87379853Y-106418574D01*
X87423330Y-106200000D01*
X91561928Y-106200000D01*
X91561928Y-107800000D01*
X91574188Y-107924482D01*
X91610498Y-108044180D01*
X91669463Y-108154494D01*
X91748815Y-108251185D01*
X91845506Y-108330537D01*
X91955820Y-108389502D01*
X92075518Y-108425812D01*
X92200000Y-108438072D01*
X93800000Y-108438072D01*
X93924482Y-108425812D01*
X94044180Y-108389502D01*
X94154494Y-108330537D01*
X94251185Y-108251185D01*
X94330537Y-108154494D01*
X94389502Y-108044180D01*
X94405117Y-107992702D01*
X94686903Y-107992702D01*
X94758486Y-108236671D01*
X95013996Y-108357571D01*
X95288184Y-108426300D01*
X95570512Y-108440217D01*
X95850130Y-108398787D01*
X96116292Y-108303603D01*
X96241514Y-108236671D01*
X96313097Y-107992702D01*
X95500000Y-107179605D01*
X94686903Y-107992702D01*
X94405117Y-107992702D01*
X94425812Y-107924482D01*
X94438072Y-107800000D01*
X94438072Y-107792785D01*
X94507298Y-107813097D01*
X95320395Y-107000000D01*
X95679605Y-107000000D01*
X96492702Y-107813097D01*
X96736671Y-107741514D01*
X96857571Y-107486004D01*
X96926300Y-107211816D01*
X96940217Y-106929488D01*
X96898787Y-106649870D01*
X96803603Y-106383708D01*
X96736671Y-106258486D01*
X96492702Y-106186903D01*
X95679605Y-107000000D01*
X95320395Y-107000000D01*
X94507298Y-106186903D01*
X94438072Y-106207215D01*
X94438072Y-106200000D01*
X94425812Y-106075518D01*
X94405118Y-106007298D01*
X94686903Y-106007298D01*
X95500000Y-106820395D01*
X96313097Y-106007298D01*
X96241514Y-105763329D01*
X95986004Y-105642429D01*
X95711816Y-105573700D01*
X95429488Y-105559783D01*
X95149870Y-105601213D01*
X94883708Y-105696397D01*
X94758486Y-105763329D01*
X94686903Y-106007298D01*
X94405118Y-106007298D01*
X94389502Y-105955820D01*
X94330537Y-105845506D01*
X94251185Y-105748815D01*
X94154494Y-105669463D01*
X94044180Y-105610498D01*
X93924482Y-105574188D01*
X93800000Y-105561928D01*
X92200000Y-105561928D01*
X92075518Y-105574188D01*
X91955820Y-105610498D01*
X91845506Y-105669463D01*
X91748815Y-105748815D01*
X91669463Y-105845506D01*
X91610498Y-105955820D01*
X91574188Y-106075518D01*
X91561928Y-106200000D01*
X87423330Y-106200000D01*
X87435000Y-106141335D01*
X87435000Y-105858665D01*
X87379853Y-105581426D01*
X87271680Y-105320273D01*
X87114637Y-105085241D01*
X86914759Y-104885363D01*
X86679727Y-104728320D01*
X86418574Y-104620147D01*
X86141335Y-104565000D01*
X85858665Y-104565000D01*
X85581426Y-104620147D01*
X85320273Y-104728320D01*
X85085241Y-104885363D01*
X84885363Y-105085241D01*
X84728320Y-105320273D01*
X84620147Y-105581426D01*
X84565000Y-105858665D01*
X80091200Y-105858665D01*
X80091476Y-105856890D01*
X79970155Y-105627000D01*
X78627000Y-105627000D01*
X78373000Y-105627000D01*
X77029845Y-105627000D01*
X76908524Y-105856890D01*
X70660000Y-105856890D01*
X70660000Y-102400000D01*
X76861928Y-102400000D01*
X76861928Y-103600000D01*
X76878992Y-103773254D01*
X76929528Y-103939850D01*
X77011595Y-104093386D01*
X77122038Y-104227962D01*
X77256614Y-104338405D01*
X77358593Y-104392914D01*
X77358205Y-104393198D01*
X77161336Y-104607954D01*
X77010146Y-104856991D01*
X76910446Y-105130739D01*
X76908524Y-105143110D01*
X77029845Y-105373000D01*
X78373000Y-105373000D01*
X78373000Y-105353000D01*
X78627000Y-105353000D01*
X78627000Y-105373000D01*
X79970155Y-105373000D01*
X80091476Y-105143110D01*
X80089554Y-105130739D01*
X79989854Y-104856991D01*
X79838664Y-104607954D01*
X79641795Y-104393198D01*
X79641407Y-104392914D01*
X79743386Y-104338405D01*
X79877962Y-104227962D01*
X79988405Y-104093386D01*
X80070472Y-103939850D01*
X80121008Y-103773254D01*
X80138072Y-103600000D01*
X80138072Y-102400000D01*
X80121008Y-102226746D01*
X80070472Y-102060150D01*
X79988405Y-101906614D01*
X79877962Y-101772038D01*
X79743386Y-101661595D01*
X79589850Y-101579528D01*
X79423254Y-101528992D01*
X79250000Y-101511928D01*
X77750000Y-101511928D01*
X77576746Y-101528992D01*
X77410150Y-101579528D01*
X77256614Y-101661595D01*
X77122038Y-101772038D01*
X77011595Y-101906614D01*
X76929528Y-102060150D01*
X76878992Y-102226746D01*
X76861928Y-102400000D01*
X70660000Y-102400000D01*
X70660000Y-101238665D01*
X141565000Y-101238665D01*
X141565000Y-101521335D01*
X141620147Y-101798574D01*
X141728320Y-102059727D01*
X141885363Y-102294759D01*
X142085241Y-102494637D01*
X142320273Y-102651680D01*
X142581426Y-102759853D01*
X142858665Y-102815000D01*
X143141335Y-102815000D01*
X143418574Y-102759853D01*
X143679727Y-102651680D01*
X143914759Y-102494637D01*
X144114637Y-102294759D01*
X144271680Y-102059727D01*
X144379853Y-101798574D01*
X144435000Y-101521335D01*
X144435000Y-101238665D01*
X144379853Y-100961426D01*
X144271680Y-100700273D01*
X144114637Y-100465241D01*
X143914759Y-100265363D01*
X143679727Y-100108320D01*
X143418574Y-100000147D01*
X143141335Y-99945000D01*
X142858665Y-99945000D01*
X142581426Y-100000147D01*
X142320273Y-100108320D01*
X142085241Y-100265363D01*
X141885363Y-100465241D01*
X141728320Y-100700273D01*
X141620147Y-100961426D01*
X141565000Y-101238665D01*
X70660000Y-101238665D01*
X70660000Y-99227485D01*
X149112807Y-99227485D01*
X149232467Y-99587444D01*
X149420052Y-99917142D01*
X149668354Y-100203909D01*
X149967830Y-100436725D01*
X150306972Y-100606642D01*
X150572516Y-100687189D01*
X150873000Y-100571704D01*
X150873000Y-98927000D01*
X151127000Y-98927000D01*
X151127000Y-100571704D01*
X151427484Y-100687189D01*
X151693028Y-100606642D01*
X152032170Y-100436725D01*
X152331646Y-100203909D01*
X152579948Y-99917142D01*
X152767533Y-99587444D01*
X152887193Y-99227485D01*
X152772082Y-98927000D01*
X151127000Y-98927000D01*
X150873000Y-98927000D01*
X149227918Y-98927000D01*
X149112807Y-99227485D01*
X70660000Y-99227485D01*
X70660000Y-98372515D01*
X149112807Y-98372515D01*
X149227918Y-98673000D01*
X150873000Y-98673000D01*
X150873000Y-97028296D01*
X151127000Y-97028296D01*
X151127000Y-98673000D01*
X152772082Y-98673000D01*
X152887193Y-98372515D01*
X152767533Y-98012556D01*
X152579948Y-97682858D01*
X152331646Y-97396091D01*
X152032170Y-97163275D01*
X151693028Y-96993358D01*
X151427484Y-96912811D01*
X151127000Y-97028296D01*
X150873000Y-97028296D01*
X150572516Y-96912811D01*
X150306972Y-96993358D01*
X149967830Y-97163275D01*
X149668354Y-97396091D01*
X149420052Y-97682858D01*
X149232467Y-98012556D01*
X149112807Y-98372515D01*
X70660000Y-98372515D01*
X70660000Y-94750000D01*
X77159025Y-94750000D01*
X77182870Y-94992102D01*
X77253489Y-95224901D01*
X77368167Y-95439449D01*
X77522498Y-95627502D01*
X77710551Y-95781833D01*
X77925099Y-95896511D01*
X78157898Y-95967130D01*
X78339335Y-95985000D01*
X79660665Y-95985000D01*
X79842102Y-95967130D01*
X80074901Y-95896511D01*
X80289449Y-95781833D01*
X80477502Y-95627502D01*
X80631833Y-95439449D01*
X80746511Y-95224901D01*
X80817130Y-94992102D01*
X80840975Y-94750000D01*
X80817130Y-94507898D01*
X80746511Y-94275099D01*
X80631833Y-94060551D01*
X80477502Y-93872498D01*
X80289449Y-93718167D01*
X80074901Y-93603489D01*
X79842102Y-93532870D01*
X79660665Y-93515000D01*
X78339335Y-93515000D01*
X78157898Y-93532870D01*
X77925099Y-93603489D01*
X77710551Y-93718167D01*
X77522498Y-93872498D01*
X77368167Y-94060551D01*
X77253489Y-94275099D01*
X77182870Y-94507898D01*
X77159025Y-94750000D01*
X70660000Y-94750000D01*
X70660000Y-93346464D01*
X83433141Y-93346464D01*
X83632200Y-93698682D01*
X84067914Y-93925201D01*
X84539448Y-94062364D01*
X85028681Y-94104900D01*
X85516812Y-94051173D01*
X85985081Y-93903250D01*
X86367800Y-93698682D01*
X86566859Y-93346464D01*
X85000000Y-91779605D01*
X83433141Y-93346464D01*
X70660000Y-93346464D01*
X70660000Y-91628681D01*
X82495100Y-91628681D01*
X82548827Y-92116812D01*
X82696750Y-92585081D01*
X82901318Y-92967800D01*
X83253536Y-93166859D01*
X84820395Y-91600000D01*
X85179605Y-91600000D01*
X86746464Y-93166859D01*
X87098682Y-92967800D01*
X87325201Y-92532086D01*
X87462364Y-92060552D01*
X87494579Y-91690023D01*
X103665000Y-91690023D01*
X103665000Y-92149977D01*
X103754733Y-92601094D01*
X103930750Y-93026037D01*
X104186287Y-93408476D01*
X104511524Y-93733713D01*
X104893963Y-93989250D01*
X105318906Y-94165267D01*
X105770023Y-94255000D01*
X106229977Y-94255000D01*
X106681094Y-94165267D01*
X107106037Y-93989250D01*
X107488476Y-93733713D01*
X107813713Y-93408476D01*
X108069250Y-93026037D01*
X108245267Y-92601094D01*
X108335000Y-92149977D01*
X108335000Y-91690023D01*
X108245267Y-91238906D01*
X108069250Y-90813963D01*
X107813713Y-90431524D01*
X107488476Y-90106287D01*
X107106037Y-89850750D01*
X106681094Y-89674733D01*
X106229977Y-89585000D01*
X105770023Y-89585000D01*
X105318906Y-89674733D01*
X104893963Y-89850750D01*
X104511524Y-90106287D01*
X104186287Y-90431524D01*
X103930750Y-90813963D01*
X103754733Y-91238906D01*
X103665000Y-91690023D01*
X87494579Y-91690023D01*
X87504900Y-91571319D01*
X87451173Y-91083188D01*
X87303250Y-90614919D01*
X87098682Y-90232200D01*
X86746464Y-90033141D01*
X85179605Y-91600000D01*
X84820395Y-91600000D01*
X83253536Y-90033141D01*
X82901318Y-90232200D01*
X82674799Y-90667914D01*
X82537636Y-91139448D01*
X82495100Y-91628681D01*
X70660000Y-91628681D01*
X70660000Y-89853536D01*
X83433141Y-89853536D01*
X85000000Y-91420395D01*
X86566859Y-89853536D01*
X86367800Y-89501318D01*
X85932086Y-89274799D01*
X85460552Y-89137636D01*
X84971319Y-89095100D01*
X84483188Y-89148827D01*
X84014919Y-89296750D01*
X83632200Y-89501318D01*
X83433141Y-89853536D01*
X70660000Y-89853536D01*
X70660000Y-87200000D01*
X150561928Y-87200000D01*
X150561928Y-88800000D01*
X150574188Y-88924482D01*
X150610498Y-89044180D01*
X150669463Y-89154494D01*
X150748815Y-89251185D01*
X150845506Y-89330537D01*
X150955820Y-89389502D01*
X151075518Y-89425812D01*
X151200000Y-89438072D01*
X152800000Y-89438072D01*
X152924482Y-89425812D01*
X153044180Y-89389502D01*
X153154494Y-89330537D01*
X153251185Y-89251185D01*
X153330537Y-89154494D01*
X153389502Y-89044180D01*
X153425812Y-88924482D01*
X153438072Y-88800000D01*
X153438072Y-87200000D01*
X153425812Y-87075518D01*
X153389502Y-86955820D01*
X153330537Y-86845506D01*
X153251185Y-86748815D01*
X153154494Y-86669463D01*
X153044180Y-86610498D01*
X152924482Y-86574188D01*
X152800000Y-86561928D01*
X152792785Y-86561928D01*
X152813097Y-86492702D01*
X152000000Y-85679605D01*
X151186903Y-86492702D01*
X151207215Y-86561928D01*
X151200000Y-86561928D01*
X151075518Y-86574188D01*
X150955820Y-86610498D01*
X150845506Y-86669463D01*
X150748815Y-86748815D01*
X150669463Y-86845506D01*
X150610498Y-86955820D01*
X150574188Y-87075518D01*
X150561928Y-87200000D01*
X70660000Y-87200000D01*
X70660000Y-82542000D01*
X82503928Y-82542000D01*
X82503928Y-86258000D01*
X82516188Y-86382482D01*
X82552498Y-86502180D01*
X82611463Y-86612494D01*
X82690815Y-86709185D01*
X82787506Y-86788537D01*
X82897820Y-86847502D01*
X83017518Y-86883812D01*
X83142000Y-86896072D01*
X86858000Y-86896072D01*
X86982482Y-86883812D01*
X87102180Y-86847502D01*
X87212494Y-86788537D01*
X87309185Y-86709185D01*
X87388537Y-86612494D01*
X87447502Y-86502180D01*
X87483812Y-86382482D01*
X87496072Y-86258000D01*
X87496072Y-84070023D01*
X103665000Y-84070023D01*
X103665000Y-84529977D01*
X103754733Y-84981094D01*
X103930750Y-85406037D01*
X104186287Y-85788476D01*
X104511524Y-86113713D01*
X104893963Y-86369250D01*
X105318906Y-86545267D01*
X105770023Y-86635000D01*
X106229977Y-86635000D01*
X106681094Y-86545267D01*
X107106037Y-86369250D01*
X107488476Y-86113713D01*
X107813713Y-85788476D01*
X107959351Y-85570512D01*
X150559783Y-85570512D01*
X150601213Y-85850130D01*
X150696397Y-86116292D01*
X150763329Y-86241514D01*
X151007298Y-86313097D01*
X151820395Y-85500000D01*
X152179605Y-85500000D01*
X152992702Y-86313097D01*
X153236671Y-86241514D01*
X153357571Y-85986004D01*
X153426300Y-85711816D01*
X153440217Y-85429488D01*
X153398787Y-85149870D01*
X153303603Y-84883708D01*
X153236671Y-84758486D01*
X152992702Y-84686903D01*
X152179605Y-85500000D01*
X151820395Y-85500000D01*
X151007298Y-84686903D01*
X150763329Y-84758486D01*
X150642429Y-85013996D01*
X150573700Y-85288184D01*
X150559783Y-85570512D01*
X107959351Y-85570512D01*
X108069250Y-85406037D01*
X108245267Y-84981094D01*
X108335000Y-84529977D01*
X108335000Y-84507298D01*
X151186903Y-84507298D01*
X152000000Y-85320395D01*
X152813097Y-84507298D01*
X152741514Y-84263329D01*
X152486004Y-84142429D01*
X152211816Y-84073700D01*
X151929488Y-84059783D01*
X151649870Y-84101213D01*
X151383708Y-84196397D01*
X151258486Y-84263329D01*
X151186903Y-84507298D01*
X108335000Y-84507298D01*
X108335000Y-84070023D01*
X108245267Y-83618906D01*
X108069250Y-83193963D01*
X107813713Y-82811524D01*
X107488476Y-82486287D01*
X107106037Y-82230750D01*
X106681094Y-82054733D01*
X106229977Y-81965000D01*
X105770023Y-81965000D01*
X105318906Y-82054733D01*
X104893963Y-82230750D01*
X104511524Y-82486287D01*
X104186287Y-82811524D01*
X103930750Y-83193963D01*
X103754733Y-83618906D01*
X103665000Y-84070023D01*
X87496072Y-84070023D01*
X87496072Y-82542000D01*
X87483812Y-82417518D01*
X87447502Y-82297820D01*
X87388537Y-82187506D01*
X87309185Y-82090815D01*
X87212494Y-82011463D01*
X87102180Y-81952498D01*
X86982482Y-81916188D01*
X86858000Y-81903928D01*
X83142000Y-81903928D01*
X83017518Y-81916188D01*
X82897820Y-81952498D01*
X82787506Y-82011463D01*
X82690815Y-82090815D01*
X82611463Y-82187506D01*
X82552498Y-82297820D01*
X82516188Y-82417518D01*
X82503928Y-82542000D01*
X70660000Y-82542000D01*
X70660000Y-81250000D01*
X77159025Y-81250000D01*
X77182870Y-81492102D01*
X77253489Y-81724901D01*
X77368167Y-81939449D01*
X77522498Y-82127502D01*
X77710551Y-82281833D01*
X77925099Y-82396511D01*
X78157898Y-82467130D01*
X78339335Y-82485000D01*
X79660665Y-82485000D01*
X79842102Y-82467130D01*
X80074901Y-82396511D01*
X80289449Y-82281833D01*
X80477502Y-82127502D01*
X80631833Y-81939449D01*
X80746511Y-81724901D01*
X80817130Y-81492102D01*
X80840975Y-81250000D01*
X80817130Y-81007898D01*
X80746511Y-80775099D01*
X80631833Y-80560551D01*
X80477502Y-80372498D01*
X80289449Y-80218167D01*
X80074901Y-80103489D01*
X79842102Y-80032870D01*
X79660665Y-80015000D01*
X78339335Y-80015000D01*
X78157898Y-80032870D01*
X77925099Y-80103489D01*
X77710551Y-80218167D01*
X77522498Y-80372498D01*
X77368167Y-80560551D01*
X77253489Y-80775099D01*
X77182870Y-81007898D01*
X77159025Y-81250000D01*
X70660000Y-81250000D01*
X70660000Y-75359742D01*
X84028715Y-75359742D01*
X84097904Y-75642745D01*
X84220975Y-75906812D01*
X84393198Y-76141795D01*
X84607954Y-76338664D01*
X84856991Y-76489854D01*
X85130739Y-76589554D01*
X85143110Y-76591476D01*
X85373000Y-76470155D01*
X85373000Y-75127000D01*
X84172768Y-75127000D01*
X84028715Y-75359742D01*
X70660000Y-75359742D01*
X70660000Y-74640258D01*
X84028715Y-74640258D01*
X84172768Y-74873000D01*
X85373000Y-74873000D01*
X85373000Y-73529845D01*
X85627000Y-73529845D01*
X85627000Y-74873000D01*
X85647000Y-74873000D01*
X85647000Y-75127000D01*
X85627000Y-75127000D01*
X85627000Y-76470155D01*
X85856890Y-76591476D01*
X85869261Y-76589554D01*
X86143009Y-76489854D01*
X86392046Y-76338664D01*
X86606802Y-76141795D01*
X86607086Y-76141407D01*
X86661595Y-76243386D01*
X86772038Y-76377962D01*
X86906614Y-76488405D01*
X87060150Y-76570472D01*
X87226746Y-76621008D01*
X87400000Y-76638072D01*
X88600000Y-76638072D01*
X88773254Y-76621008D01*
X88939850Y-76570472D01*
X89093386Y-76488405D01*
X89227962Y-76377962D01*
X89338405Y-76243386D01*
X89420472Y-76089850D01*
X89471008Y-75923254D01*
X89488072Y-75750000D01*
X89488072Y-75359742D01*
X95028715Y-75359742D01*
X95097904Y-75642745D01*
X95220975Y-75906812D01*
X95393198Y-76141795D01*
X95607954Y-76338664D01*
X95856991Y-76489854D01*
X96130739Y-76589554D01*
X96143110Y-76591476D01*
X96373000Y-76470155D01*
X96373000Y-75127000D01*
X95172768Y-75127000D01*
X95028715Y-75359742D01*
X89488072Y-75359742D01*
X89488072Y-74640258D01*
X95028715Y-74640258D01*
X95172768Y-74873000D01*
X96373000Y-74873000D01*
X96373000Y-73529845D01*
X96627000Y-73529845D01*
X96627000Y-74873000D01*
X96647000Y-74873000D01*
X96647000Y-75127000D01*
X96627000Y-75127000D01*
X96627000Y-76470155D01*
X96856890Y-76591476D01*
X96869261Y-76589554D01*
X97143009Y-76489854D01*
X97392046Y-76338664D01*
X97606802Y-76141795D01*
X97607086Y-76141407D01*
X97661595Y-76243386D01*
X97772038Y-76377962D01*
X97906614Y-76488405D01*
X98060150Y-76570472D01*
X98226746Y-76621008D01*
X98400000Y-76638072D01*
X99600000Y-76638072D01*
X99773254Y-76621008D01*
X99939850Y-76570472D01*
X100093386Y-76488405D01*
X100227962Y-76377962D01*
X100338405Y-76243386D01*
X100420472Y-76089850D01*
X100471008Y-75923254D01*
X100488072Y-75750000D01*
X100488072Y-75359742D01*
X106028715Y-75359742D01*
X106097904Y-75642745D01*
X106220975Y-75906812D01*
X106393198Y-76141795D01*
X106607954Y-76338664D01*
X106856991Y-76489854D01*
X107130739Y-76589554D01*
X107143110Y-76591476D01*
X107373000Y-76470155D01*
X107373000Y-75127000D01*
X106172768Y-75127000D01*
X106028715Y-75359742D01*
X100488072Y-75359742D01*
X100488072Y-74640258D01*
X106028715Y-74640258D01*
X106172768Y-74873000D01*
X107373000Y-74873000D01*
X107373000Y-73529845D01*
X107627000Y-73529845D01*
X107627000Y-74873000D01*
X107647000Y-74873000D01*
X107647000Y-75127000D01*
X107627000Y-75127000D01*
X107627000Y-76470155D01*
X107856890Y-76591476D01*
X107869261Y-76589554D01*
X108143009Y-76489854D01*
X108392046Y-76338664D01*
X108606802Y-76141795D01*
X108607086Y-76141407D01*
X108661595Y-76243386D01*
X108772038Y-76377962D01*
X108906614Y-76488405D01*
X109060150Y-76570472D01*
X109226746Y-76621008D01*
X109400000Y-76638072D01*
X110600000Y-76638072D01*
X110773254Y-76621008D01*
X110939850Y-76570472D01*
X111093386Y-76488405D01*
X111227962Y-76377962D01*
X111338405Y-76243386D01*
X111420472Y-76089850D01*
X111471008Y-75923254D01*
X111488072Y-75750000D01*
X111488072Y-75359742D01*
X117028715Y-75359742D01*
X117097904Y-75642745D01*
X117220975Y-75906812D01*
X117393198Y-76141795D01*
X117607954Y-76338664D01*
X117856991Y-76489854D01*
X118130739Y-76589554D01*
X118143110Y-76591476D01*
X118373000Y-76470155D01*
X118373000Y-75127000D01*
X117172768Y-75127000D01*
X117028715Y-75359742D01*
X111488072Y-75359742D01*
X111488072Y-74640258D01*
X117028715Y-74640258D01*
X117172768Y-74873000D01*
X118373000Y-74873000D01*
X118373000Y-73529845D01*
X118627000Y-73529845D01*
X118627000Y-74873000D01*
X118647000Y-74873000D01*
X118647000Y-75127000D01*
X118627000Y-75127000D01*
X118627000Y-76470155D01*
X118856890Y-76591476D01*
X118869261Y-76589554D01*
X119143009Y-76489854D01*
X119392046Y-76338664D01*
X119606802Y-76141795D01*
X119607086Y-76141407D01*
X119661595Y-76243386D01*
X119772038Y-76377962D01*
X119906614Y-76488405D01*
X120060150Y-76570472D01*
X120226746Y-76621008D01*
X120400000Y-76638072D01*
X121600000Y-76638072D01*
X121773254Y-76621008D01*
X121939850Y-76570472D01*
X122093386Y-76488405D01*
X122227962Y-76377962D01*
X122338405Y-76243386D01*
X122420472Y-76089850D01*
X122471008Y-75923254D01*
X122488072Y-75750000D01*
X122488072Y-75359742D01*
X128028715Y-75359742D01*
X128097904Y-75642745D01*
X128220975Y-75906812D01*
X128393198Y-76141795D01*
X128607954Y-76338664D01*
X128856991Y-76489854D01*
X129130739Y-76589554D01*
X129143110Y-76591476D01*
X129373000Y-76470155D01*
X129373000Y-75127000D01*
X128172768Y-75127000D01*
X128028715Y-75359742D01*
X122488072Y-75359742D01*
X122488072Y-74640258D01*
X128028715Y-74640258D01*
X128172768Y-74873000D01*
X129373000Y-74873000D01*
X129373000Y-73529845D01*
X129627000Y-73529845D01*
X129627000Y-74873000D01*
X129647000Y-74873000D01*
X129647000Y-75127000D01*
X129627000Y-75127000D01*
X129627000Y-76470155D01*
X129856890Y-76591476D01*
X129869261Y-76589554D01*
X130143009Y-76489854D01*
X130392046Y-76338664D01*
X130606802Y-76141795D01*
X130607086Y-76141407D01*
X130661595Y-76243386D01*
X130772038Y-76377962D01*
X130906614Y-76488405D01*
X131060150Y-76570472D01*
X131226746Y-76621008D01*
X131400000Y-76638072D01*
X132600000Y-76638072D01*
X132773254Y-76621008D01*
X132939850Y-76570472D01*
X133093386Y-76488405D01*
X133227962Y-76377962D01*
X133338405Y-76243386D01*
X133420472Y-76089850D01*
X133471008Y-75923254D01*
X133488072Y-75750000D01*
X133488072Y-75359742D01*
X139028715Y-75359742D01*
X139097904Y-75642745D01*
X139220975Y-75906812D01*
X139393198Y-76141795D01*
X139607954Y-76338664D01*
X139856991Y-76489854D01*
X140130739Y-76589554D01*
X140143110Y-76591476D01*
X140373000Y-76470155D01*
X140373000Y-75127000D01*
X139172768Y-75127000D01*
X139028715Y-75359742D01*
X133488072Y-75359742D01*
X133488072Y-74640258D01*
X139028715Y-74640258D01*
X139172768Y-74873000D01*
X140373000Y-74873000D01*
X140373000Y-73529845D01*
X140627000Y-73529845D01*
X140627000Y-74873000D01*
X140647000Y-74873000D01*
X140647000Y-75127000D01*
X140627000Y-75127000D01*
X140627000Y-76470155D01*
X140856890Y-76591476D01*
X140869261Y-76589554D01*
X141143009Y-76489854D01*
X141392046Y-76338664D01*
X141606802Y-76141795D01*
X141607086Y-76141407D01*
X141661595Y-76243386D01*
X141772038Y-76377962D01*
X141906614Y-76488405D01*
X142060150Y-76570472D01*
X142226746Y-76621008D01*
X142400000Y-76638072D01*
X143600000Y-76638072D01*
X143773254Y-76621008D01*
X143939850Y-76570472D01*
X144093386Y-76488405D01*
X144227962Y-76377962D01*
X144338405Y-76243386D01*
X144420472Y-76089850D01*
X144471008Y-75923254D01*
X144488072Y-75750000D01*
X144488072Y-75359742D01*
X150028715Y-75359742D01*
X150097904Y-75642745D01*
X150220975Y-75906812D01*
X150393198Y-76141795D01*
X150607954Y-76338664D01*
X150856991Y-76489854D01*
X151130739Y-76589554D01*
X151143110Y-76591476D01*
X151373000Y-76470155D01*
X151373000Y-75127000D01*
X150172768Y-75127000D01*
X150028715Y-75359742D01*
X144488072Y-75359742D01*
X144488072Y-74640258D01*
X150028715Y-74640258D01*
X150172768Y-74873000D01*
X151373000Y-74873000D01*
X151373000Y-73529845D01*
X151627000Y-73529845D01*
X151627000Y-74873000D01*
X151647000Y-74873000D01*
X151647000Y-75127000D01*
X151627000Y-75127000D01*
X151627000Y-76470155D01*
X151856890Y-76591476D01*
X151869261Y-76589554D01*
X152143009Y-76489854D01*
X152392046Y-76338664D01*
X152606802Y-76141795D01*
X152607086Y-76141407D01*
X152661595Y-76243386D01*
X152772038Y-76377962D01*
X152906614Y-76488405D01*
X153060150Y-76570472D01*
X153226746Y-76621008D01*
X153400000Y-76638072D01*
X154600000Y-76638072D01*
X154773254Y-76621008D01*
X154939850Y-76570472D01*
X155093386Y-76488405D01*
X155227962Y-76377962D01*
X155338405Y-76243386D01*
X155420472Y-76089850D01*
X155471008Y-75923254D01*
X155488072Y-75750000D01*
X155488072Y-74250000D01*
X155471008Y-74076746D01*
X155420472Y-73910150D01*
X155338405Y-73756614D01*
X155227962Y-73622038D01*
X155093386Y-73511595D01*
X154939850Y-73429528D01*
X154773254Y-73378992D01*
X154600000Y-73361928D01*
X153400000Y-73361928D01*
X153226746Y-73378992D01*
X153060150Y-73429528D01*
X152906614Y-73511595D01*
X152772038Y-73622038D01*
X152661595Y-73756614D01*
X152607086Y-73858593D01*
X152606802Y-73858205D01*
X152392046Y-73661336D01*
X152143009Y-73510146D01*
X151869261Y-73410446D01*
X151856890Y-73408524D01*
X151627000Y-73529845D01*
X151373000Y-73529845D01*
X151143110Y-73408524D01*
X151130739Y-73410446D01*
X150856991Y-73510146D01*
X150607954Y-73661336D01*
X150393198Y-73858205D01*
X150220975Y-74093188D01*
X150097904Y-74357255D01*
X150028715Y-74640258D01*
X144488072Y-74640258D01*
X144488072Y-74250000D01*
X144471008Y-74076746D01*
X144420472Y-73910150D01*
X144338405Y-73756614D01*
X144227962Y-73622038D01*
X144093386Y-73511595D01*
X143939850Y-73429528D01*
X143773254Y-73378992D01*
X143600000Y-73361928D01*
X142400000Y-73361928D01*
X142226746Y-73378992D01*
X142060150Y-73429528D01*
X141906614Y-73511595D01*
X141772038Y-73622038D01*
X141661595Y-73756614D01*
X141607086Y-73858593D01*
X141606802Y-73858205D01*
X141392046Y-73661336D01*
X141143009Y-73510146D01*
X140869261Y-73410446D01*
X140856890Y-73408524D01*
X140627000Y-73529845D01*
X140373000Y-73529845D01*
X140143110Y-73408524D01*
X140130739Y-73410446D01*
X139856991Y-73510146D01*
X139607954Y-73661336D01*
X139393198Y-73858205D01*
X139220975Y-74093188D01*
X139097904Y-74357255D01*
X139028715Y-74640258D01*
X133488072Y-74640258D01*
X133488072Y-74250000D01*
X133471008Y-74076746D01*
X133420472Y-73910150D01*
X133338405Y-73756614D01*
X133227962Y-73622038D01*
X133093386Y-73511595D01*
X132939850Y-73429528D01*
X132773254Y-73378992D01*
X132600000Y-73361928D01*
X131400000Y-73361928D01*
X131226746Y-73378992D01*
X131060150Y-73429528D01*
X130906614Y-73511595D01*
X130772038Y-73622038D01*
X130661595Y-73756614D01*
X130607086Y-73858593D01*
X130606802Y-73858205D01*
X130392046Y-73661336D01*
X130143009Y-73510146D01*
X129869261Y-73410446D01*
X129856890Y-73408524D01*
X129627000Y-73529845D01*
X129373000Y-73529845D01*
X129143110Y-73408524D01*
X129130739Y-73410446D01*
X128856991Y-73510146D01*
X128607954Y-73661336D01*
X128393198Y-73858205D01*
X128220975Y-74093188D01*
X128097904Y-74357255D01*
X128028715Y-74640258D01*
X122488072Y-74640258D01*
X122488072Y-74250000D01*
X122471008Y-74076746D01*
X122420472Y-73910150D01*
X122338405Y-73756614D01*
X122227962Y-73622038D01*
X122093386Y-73511595D01*
X121939850Y-73429528D01*
X121773254Y-73378992D01*
X121600000Y-73361928D01*
X120400000Y-73361928D01*
X120226746Y-73378992D01*
X120060150Y-73429528D01*
X119906614Y-73511595D01*
X119772038Y-73622038D01*
X119661595Y-73756614D01*
X119607086Y-73858593D01*
X119606802Y-73858205D01*
X119392046Y-73661336D01*
X119143009Y-73510146D01*
X118869261Y-73410446D01*
X118856890Y-73408524D01*
X118627000Y-73529845D01*
X118373000Y-73529845D01*
X118143110Y-73408524D01*
X118130739Y-73410446D01*
X117856991Y-73510146D01*
X117607954Y-73661336D01*
X117393198Y-73858205D01*
X117220975Y-74093188D01*
X117097904Y-74357255D01*
X117028715Y-74640258D01*
X111488072Y-74640258D01*
X111488072Y-74250000D01*
X111471008Y-74076746D01*
X111420472Y-73910150D01*
X111338405Y-73756614D01*
X111227962Y-73622038D01*
X111093386Y-73511595D01*
X110939850Y-73429528D01*
X110773254Y-73378992D01*
X110600000Y-73361928D01*
X109400000Y-73361928D01*
X109226746Y-73378992D01*
X109060150Y-73429528D01*
X108906614Y-73511595D01*
X108772038Y-73622038D01*
X108661595Y-73756614D01*
X108607086Y-73858593D01*
X108606802Y-73858205D01*
X108392046Y-73661336D01*
X108143009Y-73510146D01*
X107869261Y-73410446D01*
X107856890Y-73408524D01*
X107627000Y-73529845D01*
X107373000Y-73529845D01*
X107143110Y-73408524D01*
X107130739Y-73410446D01*
X106856991Y-73510146D01*
X106607954Y-73661336D01*
X106393198Y-73858205D01*
X106220975Y-74093188D01*
X106097904Y-74357255D01*
X106028715Y-74640258D01*
X100488072Y-74640258D01*
X100488072Y-74250000D01*
X100471008Y-74076746D01*
X100420472Y-73910150D01*
X100338405Y-73756614D01*
X100227962Y-73622038D01*
X100093386Y-73511595D01*
X99939850Y-73429528D01*
X99773254Y-73378992D01*
X99600000Y-73361928D01*
X98400000Y-73361928D01*
X98226746Y-73378992D01*
X98060150Y-73429528D01*
X97906614Y-73511595D01*
X97772038Y-73622038D01*
X97661595Y-73756614D01*
X97607086Y-73858593D01*
X97606802Y-73858205D01*
X97392046Y-73661336D01*
X97143009Y-73510146D01*
X96869261Y-73410446D01*
X96856890Y-73408524D01*
X96627000Y-73529845D01*
X96373000Y-73529845D01*
X96143110Y-73408524D01*
X96130739Y-73410446D01*
X95856991Y-73510146D01*
X95607954Y-73661336D01*
X95393198Y-73858205D01*
X95220975Y-74093188D01*
X95097904Y-74357255D01*
X95028715Y-74640258D01*
X89488072Y-74640258D01*
X89488072Y-74250000D01*
X89471008Y-74076746D01*
X89420472Y-73910150D01*
X89338405Y-73756614D01*
X89227962Y-73622038D01*
X89093386Y-73511595D01*
X88939850Y-73429528D01*
X88773254Y-73378992D01*
X88600000Y-73361928D01*
X87400000Y-73361928D01*
X87226746Y-73378992D01*
X87060150Y-73429528D01*
X86906614Y-73511595D01*
X86772038Y-73622038D01*
X86661595Y-73756614D01*
X86607086Y-73858593D01*
X86606802Y-73858205D01*
X86392046Y-73661336D01*
X86143009Y-73510146D01*
X85869261Y-73410446D01*
X85856890Y-73408524D01*
X85627000Y-73529845D01*
X85373000Y-73529845D01*
X85143110Y-73408524D01*
X85130739Y-73410446D01*
X84856991Y-73510146D01*
X84607954Y-73661336D01*
X84393198Y-73858205D01*
X84220975Y-74093188D01*
X84097904Y-74357255D01*
X84028715Y-74640258D01*
X70660000Y-74640258D01*
X70660000Y-70032278D01*
X70684748Y-69779872D01*
X71765000Y-69779872D01*
X71765000Y-70220128D01*
X71850890Y-70651925D01*
X72019369Y-71058669D01*
X72263962Y-71424729D01*
X72575271Y-71736038D01*
X72941331Y-71980631D01*
X73348075Y-72149110D01*
X73779872Y-72235000D01*
X74220128Y-72235000D01*
X74651925Y-72149110D01*
X75058669Y-71980631D01*
X75424729Y-71736038D01*
X75736038Y-71424729D01*
X75980631Y-71058669D01*
X76149110Y-70651925D01*
X76235000Y-70220128D01*
X76235000Y-69779872D01*
X163765000Y-69779872D01*
X163765000Y-70220128D01*
X163850890Y-70651925D01*
X164019369Y-71058669D01*
X164263962Y-71424729D01*
X164575271Y-71736038D01*
X164941331Y-71980631D01*
X165348075Y-72149110D01*
X165779872Y-72235000D01*
X166220128Y-72235000D01*
X166651925Y-72149110D01*
X167058669Y-71980631D01*
X167424729Y-71736038D01*
X167736038Y-71424729D01*
X167980631Y-71058669D01*
X168149110Y-70651925D01*
X168235000Y-70220128D01*
X168235000Y-69779872D01*
X168149110Y-69348075D01*
X167980631Y-68941331D01*
X167736038Y-68575271D01*
X167424729Y-68263962D01*
X167058669Y-68019369D01*
X166651925Y-67850890D01*
X166220128Y-67765000D01*
X165779872Y-67765000D01*
X165348075Y-67850890D01*
X164941331Y-68019369D01*
X164575271Y-68263962D01*
X164263962Y-68575271D01*
X164019369Y-68941331D01*
X163850890Y-69348075D01*
X163765000Y-69779872D01*
X76235000Y-69779872D01*
X76149110Y-69348075D01*
X75980631Y-68941331D01*
X75736038Y-68575271D01*
X75424729Y-68263962D01*
X75058669Y-68019369D01*
X74651925Y-67850890D01*
X74220128Y-67765000D01*
X73779872Y-67765000D01*
X73348075Y-67850890D01*
X72941331Y-68019369D01*
X72575271Y-68263962D01*
X72263962Y-68575271D01*
X72019369Y-68941331D01*
X71850890Y-69348075D01*
X71765000Y-69779872D01*
X70684748Y-69779872D01*
X70726714Y-69351874D01*
X70914943Y-68728428D01*
X71220681Y-68153421D01*
X71632279Y-67648753D01*
X72134067Y-67233638D01*
X72706924Y-66923895D01*
X73329039Y-66731318D01*
X74007584Y-66660000D01*
X165967722Y-66660000D01*
X166648126Y-66726714D01*
%TA.AperFunction,Conductor*%
D27*
G36*
X166648126Y-66726714D02*
G01*
X167271572Y-66914943D01*
X167846579Y-67220681D01*
X168351247Y-67632279D01*
X168766362Y-68134067D01*
X169076105Y-68706924D01*
X169268682Y-69329039D01*
X169340000Y-70007584D01*
X169340001Y-135967711D01*
X169273286Y-136648126D01*
X169085057Y-137271570D01*
X168779323Y-137846573D01*
X168367721Y-138351248D01*
X167865933Y-138766362D01*
X167293077Y-139076104D01*
X166670961Y-139268682D01*
X165992417Y-139340000D01*
X74032279Y-139340000D01*
X73351874Y-139273286D01*
X72728430Y-139085057D01*
X72153427Y-138779323D01*
X71648752Y-138367721D01*
X71233638Y-137865933D01*
X70923896Y-137293077D01*
X70731318Y-136670961D01*
X70660000Y-135992417D01*
X70660000Y-135779872D01*
X71765000Y-135779872D01*
X71765000Y-136220128D01*
X71850890Y-136651925D01*
X72019369Y-137058669D01*
X72263962Y-137424729D01*
X72575271Y-137736038D01*
X72941331Y-137980631D01*
X73348075Y-138149110D01*
X73779872Y-138235000D01*
X74220128Y-138235000D01*
X74651925Y-138149110D01*
X75058669Y-137980631D01*
X75424729Y-137736038D01*
X75736038Y-137424729D01*
X75980631Y-137058669D01*
X76149110Y-136651925D01*
X76235000Y-136220128D01*
X76235000Y-135779872D01*
X163765000Y-135779872D01*
X163765000Y-136220128D01*
X163850890Y-136651925D01*
X164019369Y-137058669D01*
X164263962Y-137424729D01*
X164575271Y-137736038D01*
X164941331Y-137980631D01*
X165348075Y-138149110D01*
X165779872Y-138235000D01*
X166220128Y-138235000D01*
X166651925Y-138149110D01*
X167058669Y-137980631D01*
X167424729Y-137736038D01*
X167736038Y-137424729D01*
X167980631Y-137058669D01*
X168149110Y-136651925D01*
X168235000Y-136220128D01*
X168235000Y-135779872D01*
X168149110Y-135348075D01*
X167980631Y-134941331D01*
X167736038Y-134575271D01*
X167424729Y-134263962D01*
X167058669Y-134019369D01*
X166651925Y-133850890D01*
X166220128Y-133765000D01*
X165779872Y-133765000D01*
X165348075Y-133850890D01*
X164941331Y-134019369D01*
X164575271Y-134263962D01*
X164263962Y-134575271D01*
X164019369Y-134941331D01*
X163850890Y-135348075D01*
X163765000Y-135779872D01*
X76235000Y-135779872D01*
X76149110Y-135348075D01*
X75980631Y-134941331D01*
X75736038Y-134575271D01*
X75424729Y-134263962D01*
X75058669Y-134019369D01*
X74651925Y-133850890D01*
X74220128Y-133765000D01*
X73779872Y-133765000D01*
X73348075Y-133850890D01*
X72941331Y-134019369D01*
X72575271Y-134263962D01*
X72263962Y-134575271D01*
X72019369Y-134941331D01*
X71850890Y-135348075D01*
X71765000Y-135779872D01*
X70660000Y-135779872D01*
X70660000Y-131250000D01*
X86511928Y-131250000D01*
X86511928Y-132750000D01*
X86528992Y-132923254D01*
X86579528Y-133089850D01*
X86661595Y-133243386D01*
X86772038Y-133377962D01*
X86906614Y-133488405D01*
X87060150Y-133570472D01*
X87226746Y-133621008D01*
X87400000Y-133638072D01*
X88600000Y-133638072D01*
X88773254Y-133621008D01*
X88939850Y-133570472D01*
X89093386Y-133488405D01*
X89227962Y-133377962D01*
X89338405Y-133243386D01*
X89392914Y-133141407D01*
X89393198Y-133141795D01*
X89607954Y-133338664D01*
X89856991Y-133489854D01*
X90130739Y-133589554D01*
X90143110Y-133591476D01*
X90373000Y-133470155D01*
X90373000Y-132127000D01*
X90627000Y-132127000D01*
X90627000Y-133470155D01*
X90856890Y-133591476D01*
X90869261Y-133589554D01*
X91143009Y-133489854D01*
X91392046Y-133338664D01*
X91606802Y-133141795D01*
X91779025Y-132906812D01*
X91902096Y-132642745D01*
X91971285Y-132359742D01*
X91827232Y-132127000D01*
X90627000Y-132127000D01*
X90373000Y-132127000D01*
X90353000Y-132127000D01*
X90353000Y-131873000D01*
X90373000Y-131873000D01*
X90373000Y-130529845D01*
X90627000Y-130529845D01*
X90627000Y-131873000D01*
X91827232Y-131873000D01*
X91971285Y-131640258D01*
X91902096Y-131357255D01*
X91852109Y-131250000D01*
X97511928Y-131250000D01*
X97511928Y-132750000D01*
X97528992Y-132923254D01*
X97579528Y-133089850D01*
X97661595Y-133243386D01*
X97772038Y-133377962D01*
X97906614Y-133488405D01*
X98060150Y-133570472D01*
X98226746Y-133621008D01*
X98400000Y-133638072D01*
X99600000Y-133638072D01*
X99773254Y-133621008D01*
X99939850Y-133570472D01*
X100093386Y-133488405D01*
X100227962Y-133377962D01*
X100338405Y-133243386D01*
X100392777Y-133141663D01*
X100444866Y-133205134D01*
X100670987Y-133390706D01*
X100928967Y-133528599D01*
X101208890Y-133613513D01*
X101500000Y-133642185D01*
X101791111Y-133613513D01*
X102071034Y-133528599D01*
X102329014Y-133390706D01*
X102555134Y-133205134D01*
X102740706Y-132979014D01*
X102878599Y-132721033D01*
X102963513Y-132441110D01*
X102985000Y-132222949D01*
X102985000Y-131777050D01*
X102963513Y-131558889D01*
X102878599Y-131278966D01*
X102863117Y-131250000D01*
X108511928Y-131250000D01*
X108511928Y-132750000D01*
X108528992Y-132923254D01*
X108579528Y-133089850D01*
X108661595Y-133243386D01*
X108772038Y-133377962D01*
X108906614Y-133488405D01*
X109060150Y-133570472D01*
X109226746Y-133621008D01*
X109400000Y-133638072D01*
X110600000Y-133638072D01*
X110773254Y-133621008D01*
X110939850Y-133570472D01*
X111093386Y-133488405D01*
X111227962Y-133377962D01*
X111338405Y-133243386D01*
X111392914Y-133141407D01*
X111393198Y-133141795D01*
X111607954Y-133338664D01*
X111856991Y-133489854D01*
X112130739Y-133589554D01*
X112143110Y-133591476D01*
X112373000Y-133470155D01*
X112373000Y-132127000D01*
X112627000Y-132127000D01*
X112627000Y-133470155D01*
X112856890Y-133591476D01*
X112869261Y-133589554D01*
X113143009Y-133489854D01*
X113392046Y-133338664D01*
X113606802Y-133141795D01*
X113779025Y-132906812D01*
X113902096Y-132642745D01*
X113971285Y-132359742D01*
X113827232Y-132127000D01*
X112627000Y-132127000D01*
X112373000Y-132127000D01*
X112353000Y-132127000D01*
X112353000Y-131873000D01*
X112373000Y-131873000D01*
X112373000Y-130529845D01*
X112627000Y-130529845D01*
X112627000Y-131873000D01*
X113827232Y-131873000D01*
X113971285Y-131640258D01*
X113902096Y-131357255D01*
X113852109Y-131250000D01*
X119511928Y-131250000D01*
X119511928Y-132750000D01*
X119528992Y-132923254D01*
X119579528Y-133089850D01*
X119661595Y-133243386D01*
X119772038Y-133377962D01*
X119906614Y-133488405D01*
X120060150Y-133570472D01*
X120226746Y-133621008D01*
X120400000Y-133638072D01*
X121600000Y-133638072D01*
X121773254Y-133621008D01*
X121939850Y-133570472D01*
X122093386Y-133488405D01*
X122227962Y-133377962D01*
X122338405Y-133243386D01*
X122392914Y-133141407D01*
X122393198Y-133141795D01*
X122607954Y-133338664D01*
X122856991Y-133489854D01*
X123130739Y-133589554D01*
X123143110Y-133591476D01*
X123373000Y-133470155D01*
X123373000Y-132127000D01*
X123627000Y-132127000D01*
X123627000Y-133470155D01*
X123856890Y-133591476D01*
X123869261Y-133589554D01*
X124143009Y-133489854D01*
X124392046Y-133338664D01*
X124606802Y-133141795D01*
X124779025Y-132906812D01*
X124902096Y-132642745D01*
X124971285Y-132359742D01*
X124827232Y-132127000D01*
X123627000Y-132127000D01*
X123373000Y-132127000D01*
X123353000Y-132127000D01*
X123353000Y-131873000D01*
X123373000Y-131873000D01*
X123373000Y-130529845D01*
X123627000Y-130529845D01*
X123627000Y-131873000D01*
X124827232Y-131873000D01*
X124971285Y-131640258D01*
X124902096Y-131357255D01*
X124852109Y-131250000D01*
X130511928Y-131250000D01*
X130511928Y-132750000D01*
X130528992Y-132923254D01*
X130579528Y-133089850D01*
X130661595Y-133243386D01*
X130772038Y-133377962D01*
X130906614Y-133488405D01*
X131060150Y-133570472D01*
X131226746Y-133621008D01*
X131400000Y-133638072D01*
X132600000Y-133638072D01*
X132773254Y-133621008D01*
X132939850Y-133570472D01*
X133093386Y-133488405D01*
X133227962Y-133377962D01*
X133338405Y-133243386D01*
X133392914Y-133141407D01*
X133393198Y-133141795D01*
X133607954Y-133338664D01*
X133856991Y-133489854D01*
X134130739Y-133589554D01*
X134143110Y-133591476D01*
X134373000Y-133470155D01*
X134373000Y-132127000D01*
X134627000Y-132127000D01*
X134627000Y-133470155D01*
X134856890Y-133591476D01*
X134869261Y-133589554D01*
X135143009Y-133489854D01*
X135392046Y-133338664D01*
X135606802Y-133141795D01*
X135779025Y-132906812D01*
X135902096Y-132642745D01*
X135971285Y-132359742D01*
X135827232Y-132127000D01*
X134627000Y-132127000D01*
X134373000Y-132127000D01*
X134353000Y-132127000D01*
X134353000Y-131873000D01*
X134373000Y-131873000D01*
X134373000Y-130529845D01*
X134627000Y-130529845D01*
X134627000Y-131873000D01*
X135827232Y-131873000D01*
X135971285Y-131640258D01*
X135902096Y-131357255D01*
X135852109Y-131250000D01*
X141511928Y-131250000D01*
X141511928Y-132750000D01*
X141528992Y-132923254D01*
X141579528Y-133089850D01*
X141661595Y-133243386D01*
X141772038Y-133377962D01*
X141906614Y-133488405D01*
X142060150Y-133570472D01*
X142226746Y-133621008D01*
X142400000Y-133638072D01*
X143600000Y-133638072D01*
X143773254Y-133621008D01*
X143939850Y-133570472D01*
X144093386Y-133488405D01*
X144227962Y-133377962D01*
X144338405Y-133243386D01*
X144392914Y-133141407D01*
X144393198Y-133141795D01*
X144607954Y-133338664D01*
X144856991Y-133489854D01*
X145130739Y-133589554D01*
X145143110Y-133591476D01*
X145373000Y-133470155D01*
X145373000Y-132127000D01*
X145627000Y-132127000D01*
X145627000Y-133470155D01*
X145856890Y-133591476D01*
X145869261Y-133589554D01*
X146143009Y-133489854D01*
X146392046Y-133338664D01*
X146606802Y-133141795D01*
X146779025Y-132906812D01*
X146902096Y-132642745D01*
X146971285Y-132359742D01*
X146827232Y-132127000D01*
X145627000Y-132127000D01*
X145373000Y-132127000D01*
X145353000Y-132127000D01*
X145353000Y-131873000D01*
X145373000Y-131873000D01*
X145373000Y-130529845D01*
X145627000Y-130529845D01*
X145627000Y-131873000D01*
X146827232Y-131873000D01*
X146971285Y-131640258D01*
X146902096Y-131357255D01*
X146852109Y-131250000D01*
X152511928Y-131250000D01*
X152511928Y-132750000D01*
X152528992Y-132923254D01*
X152579528Y-133089850D01*
X152661595Y-133243386D01*
X152772038Y-133377962D01*
X152906614Y-133488405D01*
X153060150Y-133570472D01*
X153226746Y-133621008D01*
X153400000Y-133638072D01*
X154600000Y-133638072D01*
X154773254Y-133621008D01*
X154939850Y-133570472D01*
X155093386Y-133488405D01*
X155227962Y-133377962D01*
X155338405Y-133243386D01*
X155392914Y-133141407D01*
X155393198Y-133141795D01*
X155607954Y-133338664D01*
X155856991Y-133489854D01*
X156130739Y-133589554D01*
X156143110Y-133591476D01*
X156373000Y-133470155D01*
X156373000Y-132127000D01*
X156627000Y-132127000D01*
X156627000Y-133470155D01*
X156856890Y-133591476D01*
X156869261Y-133589554D01*
X157143009Y-133489854D01*
X157392046Y-133338664D01*
X157606802Y-133141795D01*
X157779025Y-132906812D01*
X157902096Y-132642745D01*
X157971285Y-132359742D01*
X157827232Y-132127000D01*
X156627000Y-132127000D01*
X156373000Y-132127000D01*
X156353000Y-132127000D01*
X156353000Y-131873000D01*
X156373000Y-131873000D01*
X156373000Y-130529845D01*
X156627000Y-130529845D01*
X156627000Y-131873000D01*
X157827232Y-131873000D01*
X157971285Y-131640258D01*
X157902096Y-131357255D01*
X157779025Y-131093188D01*
X157606802Y-130858205D01*
X157392046Y-130661336D01*
X157143009Y-130510146D01*
X156869261Y-130410446D01*
X156856890Y-130408524D01*
X156627000Y-130529845D01*
X156373000Y-130529845D01*
X156143110Y-130408524D01*
X156130739Y-130410446D01*
X155856991Y-130510146D01*
X155607954Y-130661336D01*
X155393198Y-130858205D01*
X155392914Y-130858593D01*
X155338405Y-130756614D01*
X155227962Y-130622038D01*
X155093386Y-130511595D01*
X154939850Y-130429528D01*
X154773254Y-130378992D01*
X154600000Y-130361928D01*
X153400000Y-130361928D01*
X153226746Y-130378992D01*
X153060150Y-130429528D01*
X152906614Y-130511595D01*
X152772038Y-130622038D01*
X152661595Y-130756614D01*
X152579528Y-130910150D01*
X152528992Y-131076746D01*
X152511928Y-131250000D01*
X146852109Y-131250000D01*
X146779025Y-131093188D01*
X146606802Y-130858205D01*
X146392046Y-130661336D01*
X146143009Y-130510146D01*
X145869261Y-130410446D01*
X145856890Y-130408524D01*
X145627000Y-130529845D01*
X145373000Y-130529845D01*
X145143110Y-130408524D01*
X145130739Y-130410446D01*
X144856991Y-130510146D01*
X144607954Y-130661336D01*
X144393198Y-130858205D01*
X144392914Y-130858593D01*
X144338405Y-130756614D01*
X144227962Y-130622038D01*
X144093386Y-130511595D01*
X143939850Y-130429528D01*
X143773254Y-130378992D01*
X143600000Y-130361928D01*
X142400000Y-130361928D01*
X142226746Y-130378992D01*
X142060150Y-130429528D01*
X141906614Y-130511595D01*
X141772038Y-130622038D01*
X141661595Y-130756614D01*
X141579528Y-130910150D01*
X141528992Y-131076746D01*
X141511928Y-131250000D01*
X135852109Y-131250000D01*
X135779025Y-131093188D01*
X135606802Y-130858205D01*
X135392046Y-130661336D01*
X135143009Y-130510146D01*
X134869261Y-130410446D01*
X134856890Y-130408524D01*
X134627000Y-130529845D01*
X134373000Y-130529845D01*
X134143110Y-130408524D01*
X134130739Y-130410446D01*
X133856991Y-130510146D01*
X133607954Y-130661336D01*
X133393198Y-130858205D01*
X133392914Y-130858593D01*
X133338405Y-130756614D01*
X133227962Y-130622038D01*
X133093386Y-130511595D01*
X132939850Y-130429528D01*
X132773254Y-130378992D01*
X132600000Y-130361928D01*
X131400000Y-130361928D01*
X131226746Y-130378992D01*
X131060150Y-130429528D01*
X130906614Y-130511595D01*
X130772038Y-130622038D01*
X130661595Y-130756614D01*
X130579528Y-130910150D01*
X130528992Y-131076746D01*
X130511928Y-131250000D01*
X124852109Y-131250000D01*
X124779025Y-131093188D01*
X124606802Y-130858205D01*
X124392046Y-130661336D01*
X124143009Y-130510146D01*
X123869261Y-130410446D01*
X123856890Y-130408524D01*
X123627000Y-130529845D01*
X123373000Y-130529845D01*
X123143110Y-130408524D01*
X123130739Y-130410446D01*
X122856991Y-130510146D01*
X122607954Y-130661336D01*
X122393198Y-130858205D01*
X122392914Y-130858593D01*
X122338405Y-130756614D01*
X122227962Y-130622038D01*
X122093386Y-130511595D01*
X121939850Y-130429528D01*
X121773254Y-130378992D01*
X121600000Y-130361928D01*
X120400000Y-130361928D01*
X120226746Y-130378992D01*
X120060150Y-130429528D01*
X119906614Y-130511595D01*
X119772038Y-130622038D01*
X119661595Y-130756614D01*
X119579528Y-130910150D01*
X119528992Y-131076746D01*
X119511928Y-131250000D01*
X113852109Y-131250000D01*
X113779025Y-131093188D01*
X113606802Y-130858205D01*
X113392046Y-130661336D01*
X113143009Y-130510146D01*
X112869261Y-130410446D01*
X112856890Y-130408524D01*
X112627000Y-130529845D01*
X112373000Y-130529845D01*
X112143110Y-130408524D01*
X112130739Y-130410446D01*
X111856991Y-130510146D01*
X111607954Y-130661336D01*
X111393198Y-130858205D01*
X111392914Y-130858593D01*
X111338405Y-130756614D01*
X111227962Y-130622038D01*
X111093386Y-130511595D01*
X110939850Y-130429528D01*
X110773254Y-130378992D01*
X110600000Y-130361928D01*
X109400000Y-130361928D01*
X109226746Y-130378992D01*
X109060150Y-130429528D01*
X108906614Y-130511595D01*
X108772038Y-130622038D01*
X108661595Y-130756614D01*
X108579528Y-130910150D01*
X108528992Y-131076746D01*
X108511928Y-131250000D01*
X102863117Y-131250000D01*
X102740706Y-131020986D01*
X102555134Y-130794866D01*
X102329013Y-130609294D01*
X102071033Y-130471401D01*
X101791110Y-130386487D01*
X101500000Y-130357815D01*
X101208889Y-130386487D01*
X100928966Y-130471401D01*
X100670986Y-130609294D01*
X100444866Y-130794866D01*
X100392777Y-130858337D01*
X100338405Y-130756614D01*
X100227962Y-130622038D01*
X100093386Y-130511595D01*
X99939850Y-130429528D01*
X99773254Y-130378992D01*
X99600000Y-130361928D01*
X98400000Y-130361928D01*
X98226746Y-130378992D01*
X98060150Y-130429528D01*
X97906614Y-130511595D01*
X97772038Y-130622038D01*
X97661595Y-130756614D01*
X97579528Y-130910150D01*
X97528992Y-131076746D01*
X97511928Y-131250000D01*
X91852109Y-131250000D01*
X91779025Y-131093188D01*
X91606802Y-130858205D01*
X91392046Y-130661336D01*
X91143009Y-130510146D01*
X90869261Y-130410446D01*
X90856890Y-130408524D01*
X90627000Y-130529845D01*
X90373000Y-130529845D01*
X90143110Y-130408524D01*
X90130739Y-130410446D01*
X89856991Y-130510146D01*
X89607954Y-130661336D01*
X89393198Y-130858205D01*
X89392914Y-130858593D01*
X89338405Y-130756614D01*
X89227962Y-130622038D01*
X89093386Y-130511595D01*
X88939850Y-130429528D01*
X88773254Y-130378992D01*
X88600000Y-130361928D01*
X87400000Y-130361928D01*
X87226746Y-130378992D01*
X87060150Y-130429528D01*
X86906614Y-130511595D01*
X86772038Y-130622038D01*
X86661595Y-130756614D01*
X86579528Y-130910150D01*
X86528992Y-131076746D01*
X86511928Y-131250000D01*
X70660000Y-131250000D01*
X70660000Y-127856890D01*
X76908524Y-127856890D01*
X76910446Y-127869261D01*
X77010146Y-128143009D01*
X77161336Y-128392046D01*
X77358205Y-128606802D01*
X77593188Y-128779025D01*
X77857255Y-128902096D01*
X78140258Y-128971285D01*
X78373000Y-128827232D01*
X78373000Y-127627000D01*
X78627000Y-127627000D01*
X78627000Y-128827232D01*
X78859742Y-128971285D01*
X79142745Y-128902096D01*
X79406812Y-128779025D01*
X79641795Y-128606802D01*
X79838664Y-128392046D01*
X79989854Y-128143009D01*
X80089554Y-127869261D01*
X80091476Y-127856890D01*
X79970155Y-127627000D01*
X78627000Y-127627000D01*
X78373000Y-127627000D01*
X77029845Y-127627000D01*
X76908524Y-127856890D01*
X70660000Y-127856890D01*
X70660000Y-124400000D01*
X76861928Y-124400000D01*
X76861928Y-125600000D01*
X76878992Y-125773254D01*
X76929528Y-125939850D01*
X77011595Y-126093386D01*
X77122038Y-126227962D01*
X77256614Y-126338405D01*
X77358593Y-126392914D01*
X77358205Y-126393198D01*
X77161336Y-126607954D01*
X77010146Y-126856991D01*
X76910446Y-127130739D01*
X76908524Y-127143110D01*
X77029845Y-127373000D01*
X78373000Y-127373000D01*
X78373000Y-127353000D01*
X78627000Y-127353000D01*
X78627000Y-127373000D01*
X79970155Y-127373000D01*
X80091476Y-127143110D01*
X80089554Y-127130739D01*
X79989854Y-126856991D01*
X79838664Y-126607954D01*
X79641795Y-126393198D01*
X79641407Y-126392914D01*
X79743386Y-126338405D01*
X79877962Y-126227962D01*
X79988405Y-126093386D01*
X80070472Y-125939850D01*
X80121008Y-125773254D01*
X80138072Y-125600000D01*
X80138072Y-124969040D01*
X84608091Y-124969040D01*
X84702930Y-125233881D01*
X84847615Y-125475131D01*
X85036586Y-125683519D01*
X85262580Y-125851037D01*
X85516913Y-125971246D01*
X85650961Y-126011904D01*
X85873000Y-125889915D01*
X85873000Y-124747000D01*
X86127000Y-124747000D01*
X86127000Y-125889915D01*
X86349039Y-126011904D01*
X86483087Y-125971246D01*
X86737420Y-125851037D01*
X86963414Y-125683519D01*
X87152385Y-125475131D01*
X87297070Y-125233881D01*
X87391909Y-124969040D01*
X87270624Y-124747000D01*
X86127000Y-124747000D01*
X85873000Y-124747000D01*
X84729376Y-124747000D01*
X84608091Y-124969040D01*
X80138072Y-124969040D01*
X80138072Y-124400000D01*
X80125363Y-124270960D01*
X84608091Y-124270960D01*
X84729376Y-124493000D01*
X85873000Y-124493000D01*
X85873000Y-123350085D01*
X86127000Y-123350085D01*
X86127000Y-124493000D01*
X87270624Y-124493000D01*
X87344001Y-124358665D01*
X115065000Y-124358665D01*
X115065000Y-124641335D01*
X115120147Y-124918574D01*
X115228320Y-125179727D01*
X115385363Y-125414759D01*
X115585241Y-125614637D01*
X115820273Y-125771680D01*
X116081426Y-125879853D01*
X116358665Y-125935000D01*
X116641335Y-125935000D01*
X116918574Y-125879853D01*
X117179727Y-125771680D01*
X117414759Y-125614637D01*
X117614637Y-125414759D01*
X117771680Y-125179727D01*
X117879853Y-124918574D01*
X117935000Y-124641335D01*
X117935000Y-124358665D01*
X122685000Y-124358665D01*
X122685000Y-124641335D01*
X122740147Y-124918574D01*
X122848320Y-125179727D01*
X123005363Y-125414759D01*
X123205241Y-125614637D01*
X123440273Y-125771680D01*
X123701426Y-125879853D01*
X123978665Y-125935000D01*
X124261335Y-125935000D01*
X124538574Y-125879853D01*
X124799727Y-125771680D01*
X125034759Y-125614637D01*
X125234637Y-125414759D01*
X125391680Y-125179727D01*
X125499853Y-124918574D01*
X125555000Y-124641335D01*
X125555000Y-124358665D01*
X127065000Y-124358665D01*
X127065000Y-124641335D01*
X127120147Y-124918574D01*
X127228320Y-125179727D01*
X127385363Y-125414759D01*
X127585241Y-125614637D01*
X127820273Y-125771680D01*
X128081426Y-125879853D01*
X128358665Y-125935000D01*
X128641335Y-125935000D01*
X128918574Y-125879853D01*
X129179727Y-125771680D01*
X129414759Y-125614637D01*
X129614637Y-125414759D01*
X129771680Y-125179727D01*
X129879853Y-124918574D01*
X129893684Y-124849039D01*
X134728096Y-124849039D01*
X134768754Y-124983087D01*
X134888963Y-125237420D01*
X135056481Y-125463414D01*
X135264869Y-125652385D01*
X135506119Y-125797070D01*
X135770960Y-125891909D01*
X135993000Y-125770624D01*
X135993000Y-124627000D01*
X136247000Y-124627000D01*
X136247000Y-125770624D01*
X136469040Y-125891909D01*
X136733881Y-125797070D01*
X136975131Y-125652385D01*
X137183519Y-125463414D01*
X137351037Y-125237420D01*
X137471246Y-124983087D01*
X137511904Y-124849039D01*
X137389915Y-124627000D01*
X136247000Y-124627000D01*
X135993000Y-124627000D01*
X134850085Y-124627000D01*
X134728096Y-124849039D01*
X129893684Y-124849039D01*
X129935000Y-124641335D01*
X129935000Y-124358665D01*
X129893685Y-124150961D01*
X134728096Y-124150961D01*
X134850085Y-124373000D01*
X135993000Y-124373000D01*
X135993000Y-123229376D01*
X136247000Y-123229376D01*
X136247000Y-124373000D01*
X137389915Y-124373000D01*
X137511904Y-124150961D01*
X137471246Y-124016913D01*
X137351037Y-123762580D01*
X137304650Y-123700000D01*
X139061928Y-123700000D01*
X139061928Y-125300000D01*
X139074188Y-125424482D01*
X139110498Y-125544180D01*
X139169463Y-125654494D01*
X139248815Y-125751185D01*
X139345506Y-125830537D01*
X139455820Y-125889502D01*
X139575518Y-125925812D01*
X139700000Y-125938072D01*
X141300000Y-125938072D01*
X141424482Y-125925812D01*
X141544180Y-125889502D01*
X141654494Y-125830537D01*
X141751185Y-125751185D01*
X141830537Y-125654494D01*
X141889502Y-125544180D01*
X141925812Y-125424482D01*
X141938072Y-125300000D01*
X141938072Y-124849039D01*
X146728096Y-124849039D01*
X146768754Y-124983087D01*
X146888963Y-125237420D01*
X147056481Y-125463414D01*
X147264869Y-125652385D01*
X147506119Y-125797070D01*
X147770960Y-125891909D01*
X147993000Y-125770624D01*
X147993000Y-124627000D01*
X148247000Y-124627000D01*
X148247000Y-125770624D01*
X148469040Y-125891909D01*
X148733881Y-125797070D01*
X148975131Y-125652385D01*
X149183519Y-125463414D01*
X149351037Y-125237420D01*
X149471246Y-124983087D01*
X149511904Y-124849039D01*
X149389915Y-124627000D01*
X148247000Y-124627000D01*
X147993000Y-124627000D01*
X146850085Y-124627000D01*
X146728096Y-124849039D01*
X141938072Y-124849039D01*
X141938072Y-124150961D01*
X146728096Y-124150961D01*
X146850085Y-124373000D01*
X147993000Y-124373000D01*
X147993000Y-123229376D01*
X148247000Y-123229376D01*
X148247000Y-124373000D01*
X149389915Y-124373000D01*
X149511904Y-124150961D01*
X149471246Y-124016913D01*
X149351037Y-123762580D01*
X149183519Y-123536586D01*
X148975131Y-123347615D01*
X148733881Y-123202930D01*
X148469040Y-123108091D01*
X148247000Y-123229376D01*
X147993000Y-123229376D01*
X147770960Y-123108091D01*
X147506119Y-123202930D01*
X147264869Y-123347615D01*
X147056481Y-123536586D01*
X146888963Y-123762580D01*
X146768754Y-124016913D01*
X146728096Y-124150961D01*
X141938072Y-124150961D01*
X141938072Y-123700000D01*
X141925812Y-123575518D01*
X141889502Y-123455820D01*
X141830537Y-123345506D01*
X141751185Y-123248815D01*
X141654494Y-123169463D01*
X141544180Y-123110498D01*
X141424482Y-123074188D01*
X141300000Y-123061928D01*
X139700000Y-123061928D01*
X139575518Y-123074188D01*
X139455820Y-123110498D01*
X139345506Y-123169463D01*
X139248815Y-123248815D01*
X139169463Y-123345506D01*
X139110498Y-123455820D01*
X139074188Y-123575518D01*
X139061928Y-123700000D01*
X137304650Y-123700000D01*
X137183519Y-123536586D01*
X136975131Y-123347615D01*
X136733881Y-123202930D01*
X136469040Y-123108091D01*
X136247000Y-123229376D01*
X135993000Y-123229376D01*
X135770960Y-123108091D01*
X135506119Y-123202930D01*
X135264869Y-123347615D01*
X135056481Y-123536586D01*
X134888963Y-123762580D01*
X134768754Y-124016913D01*
X134728096Y-124150961D01*
X129893685Y-124150961D01*
X129879853Y-124081426D01*
X129771680Y-123820273D01*
X129614637Y-123585241D01*
X129414759Y-123385363D01*
X129179727Y-123228320D01*
X128918574Y-123120147D01*
X128641335Y-123065000D01*
X128358665Y-123065000D01*
X128081426Y-123120147D01*
X127820273Y-123228320D01*
X127585241Y-123385363D01*
X127385363Y-123585241D01*
X127228320Y-123820273D01*
X127120147Y-124081426D01*
X127065000Y-124358665D01*
X125555000Y-124358665D01*
X125499853Y-124081426D01*
X125391680Y-123820273D01*
X125234637Y-123585241D01*
X125034759Y-123385363D01*
X124799727Y-123228320D01*
X124538574Y-123120147D01*
X124261335Y-123065000D01*
X123978665Y-123065000D01*
X123701426Y-123120147D01*
X123440273Y-123228320D01*
X123205241Y-123385363D01*
X123005363Y-123585241D01*
X122848320Y-123820273D01*
X122740147Y-124081426D01*
X122685000Y-124358665D01*
X117935000Y-124358665D01*
X117879853Y-124081426D01*
X117771680Y-123820273D01*
X117614637Y-123585241D01*
X117414759Y-123385363D01*
X117179727Y-123228320D01*
X116918574Y-123120147D01*
X116641335Y-123065000D01*
X116358665Y-123065000D01*
X116081426Y-123120147D01*
X115820273Y-123228320D01*
X115585241Y-123385363D01*
X115385363Y-123585241D01*
X115228320Y-123820273D01*
X115120147Y-124081426D01*
X115065000Y-124358665D01*
X87344001Y-124358665D01*
X87391909Y-124270960D01*
X87297070Y-124006119D01*
X87152385Y-123764869D01*
X86963414Y-123556481D01*
X86737420Y-123388963D01*
X86483087Y-123268754D01*
X86349039Y-123228096D01*
X86127000Y-123350085D01*
X85873000Y-123350085D01*
X85650961Y-123228096D01*
X85516913Y-123268754D01*
X85262580Y-123388963D01*
X85036586Y-123556481D01*
X84847615Y-123764869D01*
X84702930Y-124006119D01*
X84608091Y-124270960D01*
X80125363Y-124270960D01*
X80121008Y-124226746D01*
X80070472Y-124060150D01*
X79988405Y-123906614D01*
X79877962Y-123772038D01*
X79743386Y-123661595D01*
X79589850Y-123579528D01*
X79423254Y-123528992D01*
X79250000Y-123511928D01*
X77750000Y-123511928D01*
X77576746Y-123528992D01*
X77410150Y-123579528D01*
X77256614Y-123661595D01*
X77122038Y-123772038D01*
X77011595Y-123906614D01*
X76929528Y-124060150D01*
X76878992Y-124226746D01*
X76861928Y-124400000D01*
X70660000Y-124400000D01*
X70660000Y-121630023D01*
X103665000Y-121630023D01*
X103665000Y-122089977D01*
X103754733Y-122541094D01*
X103930750Y-122966037D01*
X104186287Y-123348476D01*
X104511524Y-123673713D01*
X104893963Y-123929250D01*
X105318906Y-124105267D01*
X105770023Y-124195000D01*
X106229977Y-124195000D01*
X106681094Y-124105267D01*
X107106037Y-123929250D01*
X107488476Y-123673713D01*
X107813713Y-123348476D01*
X108069250Y-122966037D01*
X108245267Y-122541094D01*
X108335000Y-122089977D01*
X108335000Y-121630023D01*
X108245267Y-121178906D01*
X108069250Y-120753963D01*
X107813713Y-120371524D01*
X107488476Y-120046287D01*
X107106037Y-119790750D01*
X106681094Y-119614733D01*
X106229977Y-119525000D01*
X105770023Y-119525000D01*
X105318906Y-119614733D01*
X104893963Y-119790750D01*
X104511524Y-120046287D01*
X104186287Y-120371524D01*
X103930750Y-120753963D01*
X103754733Y-121178906D01*
X103665000Y-121630023D01*
X70660000Y-121630023D01*
X70660000Y-118750000D01*
X115111928Y-118750000D01*
X115111928Y-120250000D01*
X115124188Y-120374482D01*
X115160498Y-120494180D01*
X115219463Y-120604494D01*
X115298815Y-120701185D01*
X115395506Y-120780537D01*
X115505820Y-120839502D01*
X115625518Y-120875812D01*
X115750000Y-120888072D01*
X117250000Y-120888072D01*
X117374482Y-120875812D01*
X117494180Y-120839502D01*
X117604494Y-120780537D01*
X117701185Y-120701185D01*
X117780537Y-120604494D01*
X117839502Y-120494180D01*
X117875812Y-120374482D01*
X117888072Y-120250000D01*
X117888072Y-119841185D01*
X122777682Y-119841185D01*
X122814347Y-119962070D01*
X122929580Y-120207912D01*
X123090560Y-120426549D01*
X123291101Y-120609579D01*
X123523496Y-120749969D01*
X123778814Y-120842323D01*
X123993000Y-120720420D01*
X123993000Y-119627000D01*
X124247000Y-119627000D01*
X124247000Y-120720420D01*
X124461186Y-120842323D01*
X124716504Y-120749969D01*
X124948899Y-120609579D01*
X125149440Y-120426549D01*
X125310420Y-120207912D01*
X125425653Y-119962070D01*
X125462318Y-119841185D01*
X125339656Y-119627000D01*
X124247000Y-119627000D01*
X123993000Y-119627000D01*
X122900344Y-119627000D01*
X122777682Y-119841185D01*
X117888072Y-119841185D01*
X117888072Y-119158815D01*
X122777682Y-119158815D01*
X122900344Y-119373000D01*
X123993000Y-119373000D01*
X123993000Y-118279580D01*
X124247000Y-118279580D01*
X124247000Y-119373000D01*
X125339656Y-119373000D01*
X125462318Y-119158815D01*
X125425653Y-119037930D01*
X125310420Y-118792088D01*
X125149440Y-118573451D01*
X124948899Y-118390421D01*
X124716504Y-118250031D01*
X124461186Y-118157677D01*
X124247000Y-118279580D01*
X123993000Y-118279580D01*
X123778814Y-118157677D01*
X123523496Y-118250031D01*
X123291101Y-118390421D01*
X123090560Y-118573451D01*
X122929580Y-118792088D01*
X122814347Y-119037930D01*
X122777682Y-119158815D01*
X117888072Y-119158815D01*
X117888072Y-118750000D01*
X117875812Y-118625518D01*
X117839502Y-118505820D01*
X117780537Y-118395506D01*
X117701185Y-118298815D01*
X117604494Y-118219463D01*
X117494180Y-118160498D01*
X117374482Y-118124188D01*
X117250000Y-118111928D01*
X115750000Y-118111928D01*
X115625518Y-118124188D01*
X115505820Y-118160498D01*
X115395506Y-118219463D01*
X115298815Y-118298815D01*
X115219463Y-118395506D01*
X115160498Y-118505820D01*
X115124188Y-118625518D01*
X115111928Y-118750000D01*
X70660000Y-118750000D01*
X70660000Y-116856890D01*
X76908524Y-116856890D01*
X76910446Y-116869261D01*
X77010146Y-117143009D01*
X77161336Y-117392046D01*
X77358205Y-117606802D01*
X77593188Y-117779025D01*
X77857255Y-117902096D01*
X78140258Y-117971285D01*
X78373000Y-117827232D01*
X78373000Y-116627000D01*
X78627000Y-116627000D01*
X78627000Y-117827232D01*
X78859742Y-117971285D01*
X79142745Y-117902096D01*
X79406812Y-117779025D01*
X79641795Y-117606802D01*
X79838664Y-117392046D01*
X79989854Y-117143009D01*
X80089554Y-116869261D01*
X80091200Y-116858665D01*
X84565000Y-116858665D01*
X84565000Y-117141335D01*
X84620147Y-117418574D01*
X84728320Y-117679727D01*
X84885363Y-117914759D01*
X85085241Y-118114637D01*
X85320273Y-118271680D01*
X85581426Y-118379853D01*
X85858665Y-118435000D01*
X86141335Y-118435000D01*
X86418574Y-118379853D01*
X86679727Y-118271680D01*
X86914759Y-118114637D01*
X87114637Y-117914759D01*
X87271680Y-117679727D01*
X87379853Y-117418574D01*
X87435000Y-117141335D01*
X87435000Y-116858665D01*
X87379853Y-116581426D01*
X87271680Y-116320273D01*
X87114637Y-116085241D01*
X86914759Y-115885363D01*
X86679727Y-115728320D01*
X86418574Y-115620147D01*
X86141335Y-115565000D01*
X85858665Y-115565000D01*
X85581426Y-115620147D01*
X85320273Y-115728320D01*
X85085241Y-115885363D01*
X84885363Y-116085241D01*
X84728320Y-116320273D01*
X84620147Y-116581426D01*
X84565000Y-116858665D01*
X80091200Y-116858665D01*
X80091476Y-116856890D01*
X79970155Y-116627000D01*
X78627000Y-116627000D01*
X78373000Y-116627000D01*
X77029845Y-116627000D01*
X76908524Y-116856890D01*
X70660000Y-116856890D01*
X70660000Y-113400000D01*
X76861928Y-113400000D01*
X76861928Y-114600000D01*
X76878992Y-114773254D01*
X76929528Y-114939850D01*
X77011595Y-115093386D01*
X77122038Y-115227962D01*
X77256614Y-115338405D01*
X77358593Y-115392914D01*
X77358205Y-115393198D01*
X77161336Y-115607954D01*
X77010146Y-115856991D01*
X76910446Y-116130739D01*
X76908524Y-116143110D01*
X77029845Y-116373000D01*
X78373000Y-116373000D01*
X78373000Y-116353000D01*
X78627000Y-116353000D01*
X78627000Y-116373000D01*
X79970155Y-116373000D01*
X80091476Y-116143110D01*
X80089554Y-116130739D01*
X79989854Y-115856991D01*
X79838664Y-115607954D01*
X79641795Y-115393198D01*
X79641407Y-115392914D01*
X79743386Y-115338405D01*
X79877962Y-115227962D01*
X79988405Y-115093386D01*
X80070472Y-114939850D01*
X80121008Y-114773254D01*
X80138072Y-114600000D01*
X80138072Y-113478665D01*
X84565000Y-113478665D01*
X84565000Y-113761335D01*
X84620147Y-114038574D01*
X84728320Y-114299727D01*
X84885363Y-114534759D01*
X85085241Y-114734637D01*
X85320273Y-114891680D01*
X85581426Y-114999853D01*
X85858665Y-115055000D01*
X86141335Y-115055000D01*
X86418574Y-114999853D01*
X86679727Y-114891680D01*
X86914759Y-114734637D01*
X87114637Y-114534759D01*
X87271680Y-114299727D01*
X87379853Y-114038574D01*
X87385532Y-114010023D01*
X103665000Y-114010023D01*
X103665000Y-114469977D01*
X103754733Y-114921094D01*
X103930750Y-115346037D01*
X104186287Y-115728476D01*
X104511524Y-116053713D01*
X104893963Y-116309250D01*
X105318906Y-116485267D01*
X105770023Y-116575000D01*
X106229977Y-116575000D01*
X106681094Y-116485267D01*
X107106037Y-116309250D01*
X107488476Y-116053713D01*
X107813713Y-115728476D01*
X107899557Y-115600000D01*
X139461928Y-115600000D01*
X139461928Y-117400000D01*
X139474188Y-117524482D01*
X139510498Y-117644180D01*
X139569463Y-117754494D01*
X139648815Y-117851185D01*
X139745506Y-117930537D01*
X139855820Y-117989502D01*
X139874127Y-117995056D01*
X139807688Y-118061495D01*
X139639701Y-118312905D01*
X139523989Y-118592257D01*
X139465000Y-118888816D01*
X139465000Y-119191184D01*
X139523989Y-119487743D01*
X139639701Y-119767095D01*
X139807688Y-120018505D01*
X140021495Y-120232312D01*
X140272905Y-120400299D01*
X140552257Y-120516011D01*
X140848816Y-120575000D01*
X141151184Y-120575000D01*
X141447743Y-120516011D01*
X141727095Y-120400299D01*
X141978505Y-120232312D01*
X142192312Y-120018505D01*
X142360299Y-119767095D01*
X142476011Y-119487743D01*
X142535000Y-119191184D01*
X142535000Y-118888816D01*
X142476011Y-118592257D01*
X142360299Y-118312905D01*
X142192312Y-118061495D01*
X142125873Y-117995056D01*
X142144180Y-117989502D01*
X142254494Y-117930537D01*
X142351185Y-117851185D01*
X142430537Y-117754494D01*
X142489502Y-117644180D01*
X142525812Y-117524482D01*
X142538072Y-117400000D01*
X142538072Y-115600000D01*
X142525812Y-115475518D01*
X142489502Y-115355820D01*
X142430537Y-115245506D01*
X142351185Y-115148815D01*
X142254494Y-115069463D01*
X142144180Y-115010498D01*
X142024482Y-114974188D01*
X141900000Y-114961928D01*
X140100000Y-114961928D01*
X139975518Y-114974188D01*
X139855820Y-115010498D01*
X139745506Y-115069463D01*
X139648815Y-115148815D01*
X139569463Y-115245506D01*
X139510498Y-115355820D01*
X139474188Y-115475518D01*
X139461928Y-115600000D01*
X107899557Y-115600000D01*
X108069250Y-115346037D01*
X108245267Y-114921094D01*
X108335000Y-114469977D01*
X108335000Y-114010023D01*
X108245267Y-113558906D01*
X108069250Y-113133963D01*
X107813713Y-112751524D01*
X107488476Y-112426287D01*
X107106037Y-112170750D01*
X106681094Y-111994733D01*
X106229977Y-111905000D01*
X105770023Y-111905000D01*
X105318906Y-111994733D01*
X104893963Y-112170750D01*
X104511524Y-112426287D01*
X104186287Y-112751524D01*
X103930750Y-113133963D01*
X103754733Y-113558906D01*
X103665000Y-114010023D01*
X87385532Y-114010023D01*
X87435000Y-113761335D01*
X87435000Y-113478665D01*
X87379853Y-113201426D01*
X87271680Y-112940273D01*
X87114637Y-112705241D01*
X86914759Y-112505363D01*
X86679727Y-112348320D01*
X86418574Y-112240147D01*
X86141335Y-112185000D01*
X85858665Y-112185000D01*
X85581426Y-112240147D01*
X85320273Y-112348320D01*
X85085241Y-112505363D01*
X84885363Y-112705241D01*
X84728320Y-112940273D01*
X84620147Y-113201426D01*
X84565000Y-113478665D01*
X80138072Y-113478665D01*
X80138072Y-113400000D01*
X80121008Y-113226746D01*
X80070472Y-113060150D01*
X79988405Y-112906614D01*
X79877962Y-112772038D01*
X79743386Y-112661595D01*
X79589850Y-112579528D01*
X79423254Y-112528992D01*
X79250000Y-112511928D01*
X77750000Y-112511928D01*
X77576746Y-112528992D01*
X77410150Y-112579528D01*
X77256614Y-112661595D01*
X77122038Y-112772038D01*
X77011595Y-112906614D01*
X76929528Y-113060150D01*
X76878992Y-113226746D01*
X76861928Y-113400000D01*
X70660000Y-113400000D01*
X70660000Y-108858665D01*
X141565000Y-108858665D01*
X141565000Y-109141335D01*
X141620147Y-109418574D01*
X141728320Y-109679727D01*
X141885363Y-109914759D01*
X142085241Y-110114637D01*
X142320273Y-110271680D01*
X142581426Y-110379853D01*
X142858665Y-110435000D01*
X143141335Y-110435000D01*
X143418574Y-110379853D01*
X143679727Y-110271680D01*
X143787003Y-110200000D01*
X149061928Y-110200000D01*
X149061928Y-112800000D01*
X149074188Y-112924482D01*
X149110498Y-113044180D01*
X149169463Y-113154494D01*
X149248815Y-113251185D01*
X149345506Y-113330537D01*
X149455820Y-113389502D01*
X149575518Y-113425812D01*
X149700000Y-113438072D01*
X152300000Y-113438072D01*
X152424482Y-113425812D01*
X152544180Y-113389502D01*
X152654494Y-113330537D01*
X152751185Y-113251185D01*
X152830537Y-113154494D01*
X152889502Y-113044180D01*
X152925812Y-112924482D01*
X152938072Y-112800000D01*
X152938072Y-110200000D01*
X152925812Y-110075518D01*
X152889502Y-109955820D01*
X152830537Y-109845506D01*
X152751185Y-109748815D01*
X152654494Y-109669463D01*
X152544180Y-109610498D01*
X152424482Y-109574188D01*
X152300000Y-109561928D01*
X149700000Y-109561928D01*
X149575518Y-109574188D01*
X149455820Y-109610498D01*
X149345506Y-109669463D01*
X149248815Y-109748815D01*
X149169463Y-109845506D01*
X149110498Y-109955820D01*
X149074188Y-110075518D01*
X149061928Y-110200000D01*
X143787003Y-110200000D01*
X143914759Y-110114637D01*
X144114637Y-109914759D01*
X144271680Y-109679727D01*
X144379853Y-109418574D01*
X144435000Y-109141335D01*
X144435000Y-108858665D01*
X144379853Y-108581426D01*
X144271680Y-108320273D01*
X144114637Y-108085241D01*
X143914759Y-107885363D01*
X143679727Y-107728320D01*
X143418574Y-107620147D01*
X143141335Y-107565000D01*
X142858665Y-107565000D01*
X142581426Y-107620147D01*
X142320273Y-107728320D01*
X142085241Y-107885363D01*
X141885363Y-108085241D01*
X141728320Y-108320273D01*
X141620147Y-108581426D01*
X141565000Y-108858665D01*
X70660000Y-108858665D01*
X70660000Y-105856890D01*
X76908524Y-105856890D01*
X76910446Y-105869261D01*
X77010146Y-106143009D01*
X77161336Y-106392046D01*
X77358205Y-106606802D01*
X77593188Y-106779025D01*
X77857255Y-106902096D01*
X78140258Y-106971285D01*
X78373000Y-106827232D01*
X78373000Y-105627000D01*
X78627000Y-105627000D01*
X78627000Y-106827232D01*
X78859742Y-106971285D01*
X79142745Y-106902096D01*
X79406812Y-106779025D01*
X79641795Y-106606802D01*
X79838664Y-106392046D01*
X79989854Y-106143009D01*
X80089554Y-105869261D01*
X80091200Y-105858665D01*
X84565000Y-105858665D01*
X84565000Y-106141335D01*
X84620147Y-106418574D01*
X84728320Y-106679727D01*
X84885363Y-106914759D01*
X85085241Y-107114637D01*
X85320273Y-107271680D01*
X85581426Y-107379853D01*
X85858665Y-107435000D01*
X86141335Y-107435000D01*
X86418574Y-107379853D01*
X86679727Y-107271680D01*
X86914759Y-107114637D01*
X87114637Y-106914759D01*
X87271680Y-106679727D01*
X87379853Y-106418574D01*
X87423330Y-106200000D01*
X91561928Y-106200000D01*
X91561928Y-107800000D01*
X91574188Y-107924482D01*
X91610498Y-108044180D01*
X91669463Y-108154494D01*
X91748815Y-108251185D01*
X91845506Y-108330537D01*
X91955820Y-108389502D01*
X92075518Y-108425812D01*
X92200000Y-108438072D01*
X93800000Y-108438072D01*
X93924482Y-108425812D01*
X94044180Y-108389502D01*
X94154494Y-108330537D01*
X94251185Y-108251185D01*
X94330537Y-108154494D01*
X94389502Y-108044180D01*
X94405117Y-107992702D01*
X94686903Y-107992702D01*
X94758486Y-108236671D01*
X95013996Y-108357571D01*
X95288184Y-108426300D01*
X95570512Y-108440217D01*
X95850130Y-108398787D01*
X96116292Y-108303603D01*
X96241514Y-108236671D01*
X96313097Y-107992702D01*
X95500000Y-107179605D01*
X94686903Y-107992702D01*
X94405117Y-107992702D01*
X94425812Y-107924482D01*
X94438072Y-107800000D01*
X94438072Y-107792785D01*
X94507298Y-107813097D01*
X95320395Y-107000000D01*
X95679605Y-107000000D01*
X96492702Y-107813097D01*
X96736671Y-107741514D01*
X96857571Y-107486004D01*
X96926300Y-107211816D01*
X96940217Y-106929488D01*
X96898787Y-106649870D01*
X96803603Y-106383708D01*
X96736671Y-106258486D01*
X96492702Y-106186903D01*
X95679605Y-107000000D01*
X95320395Y-107000000D01*
X94507298Y-106186903D01*
X94438072Y-106207215D01*
X94438072Y-106200000D01*
X94425812Y-106075518D01*
X94405118Y-106007298D01*
X94686903Y-106007298D01*
X95500000Y-106820395D01*
X96313097Y-106007298D01*
X96241514Y-105763329D01*
X95986004Y-105642429D01*
X95711816Y-105573700D01*
X95429488Y-105559783D01*
X95149870Y-105601213D01*
X94883708Y-105696397D01*
X94758486Y-105763329D01*
X94686903Y-106007298D01*
X94405118Y-106007298D01*
X94389502Y-105955820D01*
X94330537Y-105845506D01*
X94251185Y-105748815D01*
X94154494Y-105669463D01*
X94044180Y-105610498D01*
X93924482Y-105574188D01*
X93800000Y-105561928D01*
X92200000Y-105561928D01*
X92075518Y-105574188D01*
X91955820Y-105610498D01*
X91845506Y-105669463D01*
X91748815Y-105748815D01*
X91669463Y-105845506D01*
X91610498Y-105955820D01*
X91574188Y-106075518D01*
X91561928Y-106200000D01*
X87423330Y-106200000D01*
X87435000Y-106141335D01*
X87435000Y-105858665D01*
X87379853Y-105581426D01*
X87271680Y-105320273D01*
X87114637Y-105085241D01*
X86914759Y-104885363D01*
X86679727Y-104728320D01*
X86418574Y-104620147D01*
X86141335Y-104565000D01*
X85858665Y-104565000D01*
X85581426Y-104620147D01*
X85320273Y-104728320D01*
X85085241Y-104885363D01*
X84885363Y-105085241D01*
X84728320Y-105320273D01*
X84620147Y-105581426D01*
X84565000Y-105858665D01*
X80091200Y-105858665D01*
X80091476Y-105856890D01*
X79970155Y-105627000D01*
X78627000Y-105627000D01*
X78373000Y-105627000D01*
X77029845Y-105627000D01*
X76908524Y-105856890D01*
X70660000Y-105856890D01*
X70660000Y-102400000D01*
X76861928Y-102400000D01*
X76861928Y-103600000D01*
X76878992Y-103773254D01*
X76929528Y-103939850D01*
X77011595Y-104093386D01*
X77122038Y-104227962D01*
X77256614Y-104338405D01*
X77358593Y-104392914D01*
X77358205Y-104393198D01*
X77161336Y-104607954D01*
X77010146Y-104856991D01*
X76910446Y-105130739D01*
X76908524Y-105143110D01*
X77029845Y-105373000D01*
X78373000Y-105373000D01*
X78373000Y-105353000D01*
X78627000Y-105353000D01*
X78627000Y-105373000D01*
X79970155Y-105373000D01*
X80091476Y-105143110D01*
X80089554Y-105130739D01*
X79989854Y-104856991D01*
X79838664Y-104607954D01*
X79641795Y-104393198D01*
X79641407Y-104392914D01*
X79743386Y-104338405D01*
X79877962Y-104227962D01*
X79988405Y-104093386D01*
X80070472Y-103939850D01*
X80121008Y-103773254D01*
X80138072Y-103600000D01*
X80138072Y-102400000D01*
X80121008Y-102226746D01*
X80070472Y-102060150D01*
X79988405Y-101906614D01*
X79877962Y-101772038D01*
X79743386Y-101661595D01*
X79589850Y-101579528D01*
X79423254Y-101528992D01*
X79250000Y-101511928D01*
X77750000Y-101511928D01*
X77576746Y-101528992D01*
X77410150Y-101579528D01*
X77256614Y-101661595D01*
X77122038Y-101772038D01*
X77011595Y-101906614D01*
X76929528Y-102060150D01*
X76878992Y-102226746D01*
X76861928Y-102400000D01*
X70660000Y-102400000D01*
X70660000Y-101238665D01*
X141565000Y-101238665D01*
X141565000Y-101521335D01*
X141620147Y-101798574D01*
X141728320Y-102059727D01*
X141885363Y-102294759D01*
X142085241Y-102494637D01*
X142320273Y-102651680D01*
X142581426Y-102759853D01*
X142858665Y-102815000D01*
X143141335Y-102815000D01*
X143418574Y-102759853D01*
X143679727Y-102651680D01*
X143914759Y-102494637D01*
X144114637Y-102294759D01*
X144271680Y-102059727D01*
X144379853Y-101798574D01*
X144435000Y-101521335D01*
X144435000Y-101238665D01*
X144379853Y-100961426D01*
X144271680Y-100700273D01*
X144114637Y-100465241D01*
X143914759Y-100265363D01*
X143679727Y-100108320D01*
X143418574Y-100000147D01*
X143141335Y-99945000D01*
X142858665Y-99945000D01*
X142581426Y-100000147D01*
X142320273Y-100108320D01*
X142085241Y-100265363D01*
X141885363Y-100465241D01*
X141728320Y-100700273D01*
X141620147Y-100961426D01*
X141565000Y-101238665D01*
X70660000Y-101238665D01*
X70660000Y-99227485D01*
X149112807Y-99227485D01*
X149232467Y-99587444D01*
X149420052Y-99917142D01*
X149668354Y-100203909D01*
X149967830Y-100436725D01*
X150306972Y-100606642D01*
X150572516Y-100687189D01*
X150873000Y-100571704D01*
X150873000Y-98927000D01*
X151127000Y-98927000D01*
X151127000Y-100571704D01*
X151427484Y-100687189D01*
X151693028Y-100606642D01*
X152032170Y-100436725D01*
X152331646Y-100203909D01*
X152579948Y-99917142D01*
X152767533Y-99587444D01*
X152887193Y-99227485D01*
X152772082Y-98927000D01*
X151127000Y-98927000D01*
X150873000Y-98927000D01*
X149227918Y-98927000D01*
X149112807Y-99227485D01*
X70660000Y-99227485D01*
X70660000Y-98372515D01*
X149112807Y-98372515D01*
X149227918Y-98673000D01*
X150873000Y-98673000D01*
X150873000Y-97028296D01*
X151127000Y-97028296D01*
X151127000Y-98673000D01*
X152772082Y-98673000D01*
X152887193Y-98372515D01*
X152767533Y-98012556D01*
X152579948Y-97682858D01*
X152331646Y-97396091D01*
X152032170Y-97163275D01*
X151693028Y-96993358D01*
X151427484Y-96912811D01*
X151127000Y-97028296D01*
X150873000Y-97028296D01*
X150572516Y-96912811D01*
X150306972Y-96993358D01*
X149967830Y-97163275D01*
X149668354Y-97396091D01*
X149420052Y-97682858D01*
X149232467Y-98012556D01*
X149112807Y-98372515D01*
X70660000Y-98372515D01*
X70660000Y-94750000D01*
X77159025Y-94750000D01*
X77182870Y-94992102D01*
X77253489Y-95224901D01*
X77368167Y-95439449D01*
X77522498Y-95627502D01*
X77710551Y-95781833D01*
X77925099Y-95896511D01*
X78157898Y-95967130D01*
X78339335Y-95985000D01*
X79660665Y-95985000D01*
X79842102Y-95967130D01*
X80074901Y-95896511D01*
X80289449Y-95781833D01*
X80477502Y-95627502D01*
X80631833Y-95439449D01*
X80746511Y-95224901D01*
X80817130Y-94992102D01*
X80840975Y-94750000D01*
X80817130Y-94507898D01*
X80746511Y-94275099D01*
X80631833Y-94060551D01*
X80477502Y-93872498D01*
X80289449Y-93718167D01*
X80074901Y-93603489D01*
X79842102Y-93532870D01*
X79660665Y-93515000D01*
X78339335Y-93515000D01*
X78157898Y-93532870D01*
X77925099Y-93603489D01*
X77710551Y-93718167D01*
X77522498Y-93872498D01*
X77368167Y-94060551D01*
X77253489Y-94275099D01*
X77182870Y-94507898D01*
X77159025Y-94750000D01*
X70660000Y-94750000D01*
X70660000Y-93346464D01*
X83433141Y-93346464D01*
X83632200Y-93698682D01*
X84067914Y-93925201D01*
X84539448Y-94062364D01*
X85028681Y-94104900D01*
X85516812Y-94051173D01*
X85985081Y-93903250D01*
X86367800Y-93698682D01*
X86566859Y-93346464D01*
X85000000Y-91779605D01*
X83433141Y-93346464D01*
X70660000Y-93346464D01*
X70660000Y-91628681D01*
X82495100Y-91628681D01*
X82548827Y-92116812D01*
X82696750Y-92585081D01*
X82901318Y-92967800D01*
X83253536Y-93166859D01*
X84820395Y-91600000D01*
X85179605Y-91600000D01*
X86746464Y-93166859D01*
X87098682Y-92967800D01*
X87325201Y-92532086D01*
X87462364Y-92060552D01*
X87494579Y-91690023D01*
X103665000Y-91690023D01*
X103665000Y-92149977D01*
X103754733Y-92601094D01*
X103930750Y-93026037D01*
X104186287Y-93408476D01*
X104511524Y-93733713D01*
X104893963Y-93989250D01*
X105318906Y-94165267D01*
X105770023Y-94255000D01*
X106229977Y-94255000D01*
X106681094Y-94165267D01*
X107106037Y-93989250D01*
X107488476Y-93733713D01*
X107813713Y-93408476D01*
X108069250Y-93026037D01*
X108245267Y-92601094D01*
X108335000Y-92149977D01*
X108335000Y-91690023D01*
X108245267Y-91238906D01*
X108069250Y-90813963D01*
X107813713Y-90431524D01*
X107488476Y-90106287D01*
X107106037Y-89850750D01*
X106681094Y-89674733D01*
X106229977Y-89585000D01*
X105770023Y-89585000D01*
X105318906Y-89674733D01*
X104893963Y-89850750D01*
X104511524Y-90106287D01*
X104186287Y-90431524D01*
X103930750Y-90813963D01*
X103754733Y-91238906D01*
X103665000Y-91690023D01*
X87494579Y-91690023D01*
X87504900Y-91571319D01*
X87451173Y-91083188D01*
X87303250Y-90614919D01*
X87098682Y-90232200D01*
X86746464Y-90033141D01*
X85179605Y-91600000D01*
X84820395Y-91600000D01*
X83253536Y-90033141D01*
X82901318Y-90232200D01*
X82674799Y-90667914D01*
X82537636Y-91139448D01*
X82495100Y-91628681D01*
X70660000Y-91628681D01*
X70660000Y-89853536D01*
X83433141Y-89853536D01*
X85000000Y-91420395D01*
X86566859Y-89853536D01*
X86367800Y-89501318D01*
X85932086Y-89274799D01*
X85460552Y-89137636D01*
X84971319Y-89095100D01*
X84483188Y-89148827D01*
X84014919Y-89296750D01*
X83632200Y-89501318D01*
X83433141Y-89853536D01*
X70660000Y-89853536D01*
X70660000Y-87200000D01*
X150561928Y-87200000D01*
X150561928Y-88800000D01*
X150574188Y-88924482D01*
X150610498Y-89044180D01*
X150669463Y-89154494D01*
X150748815Y-89251185D01*
X150845506Y-89330537D01*
X150955820Y-89389502D01*
X151075518Y-89425812D01*
X151200000Y-89438072D01*
X152800000Y-89438072D01*
X152924482Y-89425812D01*
X153044180Y-89389502D01*
X153154494Y-89330537D01*
X153251185Y-89251185D01*
X153330537Y-89154494D01*
X153389502Y-89044180D01*
X153425812Y-88924482D01*
X153438072Y-88800000D01*
X153438072Y-87200000D01*
X153425812Y-87075518D01*
X153389502Y-86955820D01*
X153330537Y-86845506D01*
X153251185Y-86748815D01*
X153154494Y-86669463D01*
X153044180Y-86610498D01*
X152924482Y-86574188D01*
X152800000Y-86561928D01*
X152792785Y-86561928D01*
X152813097Y-86492702D01*
X152000000Y-85679605D01*
X151186903Y-86492702D01*
X151207215Y-86561928D01*
X151200000Y-86561928D01*
X151075518Y-86574188D01*
X150955820Y-86610498D01*
X150845506Y-86669463D01*
X150748815Y-86748815D01*
X150669463Y-86845506D01*
X150610498Y-86955820D01*
X150574188Y-87075518D01*
X150561928Y-87200000D01*
X70660000Y-87200000D01*
X70660000Y-82542000D01*
X82503928Y-82542000D01*
X82503928Y-86258000D01*
X82516188Y-86382482D01*
X82552498Y-86502180D01*
X82611463Y-86612494D01*
X82690815Y-86709185D01*
X82787506Y-86788537D01*
X82897820Y-86847502D01*
X83017518Y-86883812D01*
X83142000Y-86896072D01*
X86858000Y-86896072D01*
X86982482Y-86883812D01*
X87102180Y-86847502D01*
X87212494Y-86788537D01*
X87309185Y-86709185D01*
X87388537Y-86612494D01*
X87447502Y-86502180D01*
X87483812Y-86382482D01*
X87496072Y-86258000D01*
X87496072Y-84070023D01*
X103665000Y-84070023D01*
X103665000Y-84529977D01*
X103754733Y-84981094D01*
X103930750Y-85406037D01*
X104186287Y-85788476D01*
X104511524Y-86113713D01*
X104893963Y-86369250D01*
X105318906Y-86545267D01*
X105770023Y-86635000D01*
X106229977Y-86635000D01*
X106681094Y-86545267D01*
X107106037Y-86369250D01*
X107488476Y-86113713D01*
X107813713Y-85788476D01*
X107959351Y-85570512D01*
X150559783Y-85570512D01*
X150601213Y-85850130D01*
X150696397Y-86116292D01*
X150763329Y-86241514D01*
X151007298Y-86313097D01*
X151820395Y-85500000D01*
X152179605Y-85500000D01*
X152992702Y-86313097D01*
X153236671Y-86241514D01*
X153357571Y-85986004D01*
X153426300Y-85711816D01*
X153440217Y-85429488D01*
X153398787Y-85149870D01*
X153303603Y-84883708D01*
X153236671Y-84758486D01*
X152992702Y-84686903D01*
X152179605Y-85500000D01*
X151820395Y-85500000D01*
X151007298Y-84686903D01*
X150763329Y-84758486D01*
X150642429Y-85013996D01*
X150573700Y-85288184D01*
X150559783Y-85570512D01*
X107959351Y-85570512D01*
X108069250Y-85406037D01*
X108245267Y-84981094D01*
X108335000Y-84529977D01*
X108335000Y-84507298D01*
X151186903Y-84507298D01*
X152000000Y-85320395D01*
X152813097Y-84507298D01*
X152741514Y-84263329D01*
X152486004Y-84142429D01*
X152211816Y-84073700D01*
X151929488Y-84059783D01*
X151649870Y-84101213D01*
X151383708Y-84196397D01*
X151258486Y-84263329D01*
X151186903Y-84507298D01*
X108335000Y-84507298D01*
X108335000Y-84070023D01*
X108245267Y-83618906D01*
X108069250Y-83193963D01*
X107813713Y-82811524D01*
X107488476Y-82486287D01*
X107106037Y-82230750D01*
X106681094Y-82054733D01*
X106229977Y-81965000D01*
X105770023Y-81965000D01*
X105318906Y-82054733D01*
X104893963Y-82230750D01*
X104511524Y-82486287D01*
X104186287Y-82811524D01*
X103930750Y-83193963D01*
X103754733Y-83618906D01*
X103665000Y-84070023D01*
X87496072Y-84070023D01*
X87496072Y-82542000D01*
X87483812Y-82417518D01*
X87447502Y-82297820D01*
X87388537Y-82187506D01*
X87309185Y-82090815D01*
X87212494Y-82011463D01*
X87102180Y-81952498D01*
X86982482Y-81916188D01*
X86858000Y-81903928D01*
X83142000Y-81903928D01*
X83017518Y-81916188D01*
X82897820Y-81952498D01*
X82787506Y-82011463D01*
X82690815Y-82090815D01*
X82611463Y-82187506D01*
X82552498Y-82297820D01*
X82516188Y-82417518D01*
X82503928Y-82542000D01*
X70660000Y-82542000D01*
X70660000Y-81250000D01*
X77159025Y-81250000D01*
X77182870Y-81492102D01*
X77253489Y-81724901D01*
X77368167Y-81939449D01*
X77522498Y-82127502D01*
X77710551Y-82281833D01*
X77925099Y-82396511D01*
X78157898Y-82467130D01*
X78339335Y-82485000D01*
X79660665Y-82485000D01*
X79842102Y-82467130D01*
X80074901Y-82396511D01*
X80289449Y-82281833D01*
X80477502Y-82127502D01*
X80631833Y-81939449D01*
X80746511Y-81724901D01*
X80817130Y-81492102D01*
X80840975Y-81250000D01*
X80817130Y-81007898D01*
X80746511Y-80775099D01*
X80631833Y-80560551D01*
X80477502Y-80372498D01*
X80289449Y-80218167D01*
X80074901Y-80103489D01*
X79842102Y-80032870D01*
X79660665Y-80015000D01*
X78339335Y-80015000D01*
X78157898Y-80032870D01*
X77925099Y-80103489D01*
X77710551Y-80218167D01*
X77522498Y-80372498D01*
X77368167Y-80560551D01*
X77253489Y-80775099D01*
X77182870Y-81007898D01*
X77159025Y-81250000D01*
X70660000Y-81250000D01*
X70660000Y-75359742D01*
X84028715Y-75359742D01*
X84097904Y-75642745D01*
X84220975Y-75906812D01*
X84393198Y-76141795D01*
X84607954Y-76338664D01*
X84856991Y-76489854D01*
X85130739Y-76589554D01*
X85143110Y-76591476D01*
X85373000Y-76470155D01*
X85373000Y-75127000D01*
X84172768Y-75127000D01*
X84028715Y-75359742D01*
X70660000Y-75359742D01*
X70660000Y-74640258D01*
X84028715Y-74640258D01*
X84172768Y-74873000D01*
X85373000Y-74873000D01*
X85373000Y-73529845D01*
X85627000Y-73529845D01*
X85627000Y-74873000D01*
X85647000Y-74873000D01*
X85647000Y-75127000D01*
X85627000Y-75127000D01*
X85627000Y-76470155D01*
X85856890Y-76591476D01*
X85869261Y-76589554D01*
X86143009Y-76489854D01*
X86392046Y-76338664D01*
X86606802Y-76141795D01*
X86607086Y-76141407D01*
X86661595Y-76243386D01*
X86772038Y-76377962D01*
X86906614Y-76488405D01*
X87060150Y-76570472D01*
X87226746Y-76621008D01*
X87400000Y-76638072D01*
X88600000Y-76638072D01*
X88773254Y-76621008D01*
X88939850Y-76570472D01*
X89093386Y-76488405D01*
X89227962Y-76377962D01*
X89338405Y-76243386D01*
X89420472Y-76089850D01*
X89471008Y-75923254D01*
X89488072Y-75750000D01*
X89488072Y-75359742D01*
X95028715Y-75359742D01*
X95097904Y-75642745D01*
X95220975Y-75906812D01*
X95393198Y-76141795D01*
X95607954Y-76338664D01*
X95856991Y-76489854D01*
X96130739Y-76589554D01*
X96143110Y-76591476D01*
X96373000Y-76470155D01*
X96373000Y-75127000D01*
X95172768Y-75127000D01*
X95028715Y-75359742D01*
X89488072Y-75359742D01*
X89488072Y-74640258D01*
X95028715Y-74640258D01*
X95172768Y-74873000D01*
X96373000Y-74873000D01*
X96373000Y-73529845D01*
X96627000Y-73529845D01*
X96627000Y-74873000D01*
X96647000Y-74873000D01*
X96647000Y-75127000D01*
X96627000Y-75127000D01*
X96627000Y-76470155D01*
X96856890Y-76591476D01*
X96869261Y-76589554D01*
X97143009Y-76489854D01*
X97392046Y-76338664D01*
X97606802Y-76141795D01*
X97607086Y-76141407D01*
X97661595Y-76243386D01*
X97772038Y-76377962D01*
X97906614Y-76488405D01*
X98060150Y-76570472D01*
X98226746Y-76621008D01*
X98400000Y-76638072D01*
X99600000Y-76638072D01*
X99773254Y-76621008D01*
X99939850Y-76570472D01*
X100093386Y-76488405D01*
X100227962Y-76377962D01*
X100338405Y-76243386D01*
X100420472Y-76089850D01*
X100471008Y-75923254D01*
X100488072Y-75750000D01*
X100488072Y-75359742D01*
X106028715Y-75359742D01*
X106097904Y-75642745D01*
X106220975Y-75906812D01*
X106393198Y-76141795D01*
X106607954Y-76338664D01*
X106856991Y-76489854D01*
X107130739Y-76589554D01*
X107143110Y-76591476D01*
X107373000Y-76470155D01*
X107373000Y-75127000D01*
X106172768Y-75127000D01*
X106028715Y-75359742D01*
X100488072Y-75359742D01*
X100488072Y-74640258D01*
X106028715Y-74640258D01*
X106172768Y-74873000D01*
X107373000Y-74873000D01*
X107373000Y-73529845D01*
X107627000Y-73529845D01*
X107627000Y-74873000D01*
X107647000Y-74873000D01*
X107647000Y-75127000D01*
X107627000Y-75127000D01*
X107627000Y-76470155D01*
X107856890Y-76591476D01*
X107869261Y-76589554D01*
X108143009Y-76489854D01*
X108392046Y-76338664D01*
X108606802Y-76141795D01*
X108607086Y-76141407D01*
X108661595Y-76243386D01*
X108772038Y-76377962D01*
X108906614Y-76488405D01*
X109060150Y-76570472D01*
X109226746Y-76621008D01*
X109400000Y-76638072D01*
X110600000Y-76638072D01*
X110773254Y-76621008D01*
X110939850Y-76570472D01*
X111093386Y-76488405D01*
X111227962Y-76377962D01*
X111338405Y-76243386D01*
X111420472Y-76089850D01*
X111471008Y-75923254D01*
X111488072Y-75750000D01*
X111488072Y-75359742D01*
X117028715Y-75359742D01*
X117097904Y-75642745D01*
X117220975Y-75906812D01*
X117393198Y-76141795D01*
X117607954Y-76338664D01*
X117856991Y-76489854D01*
X118130739Y-76589554D01*
X118143110Y-76591476D01*
X118373000Y-76470155D01*
X118373000Y-75127000D01*
X117172768Y-75127000D01*
X117028715Y-75359742D01*
X111488072Y-75359742D01*
X111488072Y-74640258D01*
X117028715Y-74640258D01*
X117172768Y-74873000D01*
X118373000Y-74873000D01*
X118373000Y-73529845D01*
X118627000Y-73529845D01*
X118627000Y-74873000D01*
X118647000Y-74873000D01*
X118647000Y-75127000D01*
X118627000Y-75127000D01*
X118627000Y-76470155D01*
X118856890Y-76591476D01*
X118869261Y-76589554D01*
X119143009Y-76489854D01*
X119392046Y-76338664D01*
X119606802Y-76141795D01*
X119607086Y-76141407D01*
X119661595Y-76243386D01*
X119772038Y-76377962D01*
X119906614Y-76488405D01*
X120060150Y-76570472D01*
X120226746Y-76621008D01*
X120400000Y-76638072D01*
X121600000Y-76638072D01*
X121773254Y-76621008D01*
X121939850Y-76570472D01*
X122093386Y-76488405D01*
X122227962Y-76377962D01*
X122338405Y-76243386D01*
X122420472Y-76089850D01*
X122471008Y-75923254D01*
X122488072Y-75750000D01*
X122488072Y-75359742D01*
X128028715Y-75359742D01*
X128097904Y-75642745D01*
X128220975Y-75906812D01*
X128393198Y-76141795D01*
X128607954Y-76338664D01*
X128856991Y-76489854D01*
X129130739Y-76589554D01*
X129143110Y-76591476D01*
X129373000Y-76470155D01*
X129373000Y-75127000D01*
X128172768Y-75127000D01*
X128028715Y-75359742D01*
X122488072Y-75359742D01*
X122488072Y-74640258D01*
X128028715Y-74640258D01*
X128172768Y-74873000D01*
X129373000Y-74873000D01*
X129373000Y-73529845D01*
X129627000Y-73529845D01*
X129627000Y-74873000D01*
X129647000Y-74873000D01*
X129647000Y-75127000D01*
X129627000Y-75127000D01*
X129627000Y-76470155D01*
X129856890Y-76591476D01*
X129869261Y-76589554D01*
X130143009Y-76489854D01*
X130392046Y-76338664D01*
X130606802Y-76141795D01*
X130607086Y-76141407D01*
X130661595Y-76243386D01*
X130772038Y-76377962D01*
X130906614Y-76488405D01*
X131060150Y-76570472D01*
X131226746Y-76621008D01*
X131400000Y-76638072D01*
X132600000Y-76638072D01*
X132773254Y-76621008D01*
X132939850Y-76570472D01*
X133093386Y-76488405D01*
X133227962Y-76377962D01*
X133338405Y-76243386D01*
X133420472Y-76089850D01*
X133471008Y-75923254D01*
X133488072Y-75750000D01*
X133488072Y-75359742D01*
X139028715Y-75359742D01*
X139097904Y-75642745D01*
X139220975Y-75906812D01*
X139393198Y-76141795D01*
X139607954Y-76338664D01*
X139856991Y-76489854D01*
X140130739Y-76589554D01*
X140143110Y-76591476D01*
X140373000Y-76470155D01*
X140373000Y-75127000D01*
X139172768Y-75127000D01*
X139028715Y-75359742D01*
X133488072Y-75359742D01*
X133488072Y-74640258D01*
X139028715Y-74640258D01*
X139172768Y-74873000D01*
X140373000Y-74873000D01*
X140373000Y-73529845D01*
X140627000Y-73529845D01*
X140627000Y-74873000D01*
X140647000Y-74873000D01*
X140647000Y-75127000D01*
X140627000Y-75127000D01*
X140627000Y-76470155D01*
X140856890Y-76591476D01*
X140869261Y-76589554D01*
X141143009Y-76489854D01*
X141392046Y-76338664D01*
X141606802Y-76141795D01*
X141607086Y-76141407D01*
X141661595Y-76243386D01*
X141772038Y-76377962D01*
X141906614Y-76488405D01*
X142060150Y-76570472D01*
X142226746Y-76621008D01*
X142400000Y-76638072D01*
X143600000Y-76638072D01*
X143773254Y-76621008D01*
X143939850Y-76570472D01*
X144093386Y-76488405D01*
X144227962Y-76377962D01*
X144338405Y-76243386D01*
X144420472Y-76089850D01*
X144471008Y-75923254D01*
X144488072Y-75750000D01*
X144488072Y-75359742D01*
X150028715Y-75359742D01*
X150097904Y-75642745D01*
X150220975Y-75906812D01*
X150393198Y-76141795D01*
X150607954Y-76338664D01*
X150856991Y-76489854D01*
X151130739Y-76589554D01*
X151143110Y-76591476D01*
X151373000Y-76470155D01*
X151373000Y-75127000D01*
X150172768Y-75127000D01*
X150028715Y-75359742D01*
X144488072Y-75359742D01*
X144488072Y-74640258D01*
X150028715Y-74640258D01*
X150172768Y-74873000D01*
X151373000Y-74873000D01*
X151373000Y-73529845D01*
X151627000Y-73529845D01*
X151627000Y-74873000D01*
X151647000Y-74873000D01*
X151647000Y-75127000D01*
X151627000Y-75127000D01*
X151627000Y-76470155D01*
X151856890Y-76591476D01*
X151869261Y-76589554D01*
X152143009Y-76489854D01*
X152392046Y-76338664D01*
X152606802Y-76141795D01*
X152607086Y-76141407D01*
X152661595Y-76243386D01*
X152772038Y-76377962D01*
X152906614Y-76488405D01*
X153060150Y-76570472D01*
X153226746Y-76621008D01*
X153400000Y-76638072D01*
X154600000Y-76638072D01*
X154773254Y-76621008D01*
X154939850Y-76570472D01*
X155093386Y-76488405D01*
X155227962Y-76377962D01*
X155338405Y-76243386D01*
X155420472Y-76089850D01*
X155471008Y-75923254D01*
X155488072Y-75750000D01*
X155488072Y-74250000D01*
X155471008Y-74076746D01*
X155420472Y-73910150D01*
X155338405Y-73756614D01*
X155227962Y-73622038D01*
X155093386Y-73511595D01*
X154939850Y-73429528D01*
X154773254Y-73378992D01*
X154600000Y-73361928D01*
X153400000Y-73361928D01*
X153226746Y-73378992D01*
X153060150Y-73429528D01*
X152906614Y-73511595D01*
X152772038Y-73622038D01*
X152661595Y-73756614D01*
X152607086Y-73858593D01*
X152606802Y-73858205D01*
X152392046Y-73661336D01*
X152143009Y-73510146D01*
X151869261Y-73410446D01*
X151856890Y-73408524D01*
X151627000Y-73529845D01*
X151373000Y-73529845D01*
X151143110Y-73408524D01*
X151130739Y-73410446D01*
X150856991Y-73510146D01*
X150607954Y-73661336D01*
X150393198Y-73858205D01*
X150220975Y-74093188D01*
X150097904Y-74357255D01*
X150028715Y-74640258D01*
X144488072Y-74640258D01*
X144488072Y-74250000D01*
X144471008Y-74076746D01*
X144420472Y-73910150D01*
X144338405Y-73756614D01*
X144227962Y-73622038D01*
X144093386Y-73511595D01*
X143939850Y-73429528D01*
X143773254Y-73378992D01*
X143600000Y-73361928D01*
X142400000Y-73361928D01*
X142226746Y-73378992D01*
X142060150Y-73429528D01*
X141906614Y-73511595D01*
X141772038Y-73622038D01*
X141661595Y-73756614D01*
X141607086Y-73858593D01*
X141606802Y-73858205D01*
X141392046Y-73661336D01*
X141143009Y-73510146D01*
X140869261Y-73410446D01*
X140856890Y-73408524D01*
X140627000Y-73529845D01*
X140373000Y-73529845D01*
X140143110Y-73408524D01*
X140130739Y-73410446D01*
X139856991Y-73510146D01*
X139607954Y-73661336D01*
X139393198Y-73858205D01*
X139220975Y-74093188D01*
X139097904Y-74357255D01*
X139028715Y-74640258D01*
X133488072Y-74640258D01*
X133488072Y-74250000D01*
X133471008Y-74076746D01*
X133420472Y-73910150D01*
X133338405Y-73756614D01*
X133227962Y-73622038D01*
X133093386Y-73511595D01*
X132939850Y-73429528D01*
X132773254Y-73378992D01*
X132600000Y-73361928D01*
X131400000Y-73361928D01*
X131226746Y-73378992D01*
X131060150Y-73429528D01*
X130906614Y-73511595D01*
X130772038Y-73622038D01*
X130661595Y-73756614D01*
X130607086Y-73858593D01*
X130606802Y-73858205D01*
X130392046Y-73661336D01*
X130143009Y-73510146D01*
X129869261Y-73410446D01*
X129856890Y-73408524D01*
X129627000Y-73529845D01*
X129373000Y-73529845D01*
X129143110Y-73408524D01*
X129130739Y-73410446D01*
X128856991Y-73510146D01*
X128607954Y-73661336D01*
X128393198Y-73858205D01*
X128220975Y-74093188D01*
X128097904Y-74357255D01*
X128028715Y-74640258D01*
X122488072Y-74640258D01*
X122488072Y-74250000D01*
X122471008Y-74076746D01*
X122420472Y-73910150D01*
X122338405Y-73756614D01*
X122227962Y-73622038D01*
X122093386Y-73511595D01*
X121939850Y-73429528D01*
X121773254Y-73378992D01*
X121600000Y-73361928D01*
X120400000Y-73361928D01*
X120226746Y-73378992D01*
X120060150Y-73429528D01*
X119906614Y-73511595D01*
X119772038Y-73622038D01*
X119661595Y-73756614D01*
X119607086Y-73858593D01*
X119606802Y-73858205D01*
X119392046Y-73661336D01*
X119143009Y-73510146D01*
X118869261Y-73410446D01*
X118856890Y-73408524D01*
X118627000Y-73529845D01*
X118373000Y-73529845D01*
X118143110Y-73408524D01*
X118130739Y-73410446D01*
X117856991Y-73510146D01*
X117607954Y-73661336D01*
X117393198Y-73858205D01*
X117220975Y-74093188D01*
X117097904Y-74357255D01*
X117028715Y-74640258D01*
X111488072Y-74640258D01*
X111488072Y-74250000D01*
X111471008Y-74076746D01*
X111420472Y-73910150D01*
X111338405Y-73756614D01*
X111227962Y-73622038D01*
X111093386Y-73511595D01*
X110939850Y-73429528D01*
X110773254Y-73378992D01*
X110600000Y-73361928D01*
X109400000Y-73361928D01*
X109226746Y-73378992D01*
X109060150Y-73429528D01*
X108906614Y-73511595D01*
X108772038Y-73622038D01*
X108661595Y-73756614D01*
X108607086Y-73858593D01*
X108606802Y-73858205D01*
X108392046Y-73661336D01*
X108143009Y-73510146D01*
X107869261Y-73410446D01*
X107856890Y-73408524D01*
X107627000Y-73529845D01*
X107373000Y-73529845D01*
X107143110Y-73408524D01*
X107130739Y-73410446D01*
X106856991Y-73510146D01*
X106607954Y-73661336D01*
X106393198Y-73858205D01*
X106220975Y-74093188D01*
X106097904Y-74357255D01*
X106028715Y-74640258D01*
X100488072Y-74640258D01*
X100488072Y-74250000D01*
X100471008Y-74076746D01*
X100420472Y-73910150D01*
X100338405Y-73756614D01*
X100227962Y-73622038D01*
X100093386Y-73511595D01*
X99939850Y-73429528D01*
X99773254Y-73378992D01*
X99600000Y-73361928D01*
X98400000Y-73361928D01*
X98226746Y-73378992D01*
X98060150Y-73429528D01*
X97906614Y-73511595D01*
X97772038Y-73622038D01*
X97661595Y-73756614D01*
X97607086Y-73858593D01*
X97606802Y-73858205D01*
X97392046Y-73661336D01*
X97143009Y-73510146D01*
X96869261Y-73410446D01*
X96856890Y-73408524D01*
X96627000Y-73529845D01*
X96373000Y-73529845D01*
X96143110Y-73408524D01*
X96130739Y-73410446D01*
X95856991Y-73510146D01*
X95607954Y-73661336D01*
X95393198Y-73858205D01*
X95220975Y-74093188D01*
X95097904Y-74357255D01*
X95028715Y-74640258D01*
X89488072Y-74640258D01*
X89488072Y-74250000D01*
X89471008Y-74076746D01*
X89420472Y-73910150D01*
X89338405Y-73756614D01*
X89227962Y-73622038D01*
X89093386Y-73511595D01*
X88939850Y-73429528D01*
X88773254Y-73378992D01*
X88600000Y-73361928D01*
X87400000Y-73361928D01*
X87226746Y-73378992D01*
X87060150Y-73429528D01*
X86906614Y-73511595D01*
X86772038Y-73622038D01*
X86661595Y-73756614D01*
X86607086Y-73858593D01*
X86606802Y-73858205D01*
X86392046Y-73661336D01*
X86143009Y-73510146D01*
X85869261Y-73410446D01*
X85856890Y-73408524D01*
X85627000Y-73529845D01*
X85373000Y-73529845D01*
X85143110Y-73408524D01*
X85130739Y-73410446D01*
X84856991Y-73510146D01*
X84607954Y-73661336D01*
X84393198Y-73858205D01*
X84220975Y-74093188D01*
X84097904Y-74357255D01*
X84028715Y-74640258D01*
X70660000Y-74640258D01*
X70660000Y-70032278D01*
X70684748Y-69779872D01*
X71765000Y-69779872D01*
X71765000Y-70220128D01*
X71850890Y-70651925D01*
X72019369Y-71058669D01*
X72263962Y-71424729D01*
X72575271Y-71736038D01*
X72941331Y-71980631D01*
X73348075Y-72149110D01*
X73779872Y-72235000D01*
X74220128Y-72235000D01*
X74651925Y-72149110D01*
X75058669Y-71980631D01*
X75424729Y-71736038D01*
X75736038Y-71424729D01*
X75980631Y-71058669D01*
X76149110Y-70651925D01*
X76235000Y-70220128D01*
X76235000Y-69779872D01*
X163765000Y-69779872D01*
X163765000Y-70220128D01*
X163850890Y-70651925D01*
X164019369Y-71058669D01*
X164263962Y-71424729D01*
X164575271Y-71736038D01*
X164941331Y-71980631D01*
X165348075Y-72149110D01*
X165779872Y-72235000D01*
X166220128Y-72235000D01*
X166651925Y-72149110D01*
X167058669Y-71980631D01*
X167424729Y-71736038D01*
X167736038Y-71424729D01*
X167980631Y-71058669D01*
X168149110Y-70651925D01*
X168235000Y-70220128D01*
X168235000Y-69779872D01*
X168149110Y-69348075D01*
X167980631Y-68941331D01*
X167736038Y-68575271D01*
X167424729Y-68263962D01*
X167058669Y-68019369D01*
X166651925Y-67850890D01*
X166220128Y-67765000D01*
X165779872Y-67765000D01*
X165348075Y-67850890D01*
X164941331Y-68019369D01*
X164575271Y-68263962D01*
X164263962Y-68575271D01*
X164019369Y-68941331D01*
X163850890Y-69348075D01*
X163765000Y-69779872D01*
X76235000Y-69779872D01*
X76149110Y-69348075D01*
X75980631Y-68941331D01*
X75736038Y-68575271D01*
X75424729Y-68263962D01*
X75058669Y-68019369D01*
X74651925Y-67850890D01*
X74220128Y-67765000D01*
X73779872Y-67765000D01*
X73348075Y-67850890D01*
X72941331Y-68019369D01*
X72575271Y-68263962D01*
X72263962Y-68575271D01*
X72019369Y-68941331D01*
X71850890Y-69348075D01*
X71765000Y-69779872D01*
X70684748Y-69779872D01*
X70726714Y-69351874D01*
X70914943Y-68728428D01*
X71220681Y-68153421D01*
X71632279Y-67648753D01*
X72134067Y-67233638D01*
X72706924Y-66923895D01*
X73329039Y-66731318D01*
X74007584Y-66660000D01*
X165967722Y-66660000D01*
X166648126Y-66726714D01*
G37*
%TD.AperFunction*%
%TD*%
D28*
X166000000Y-70000000D03*
X166000000Y-136000000D03*
X74000000Y-70000000D03*
X74000000Y-136000000D03*
X151000000Y-111500000D03*
X151000000Y-98800000D03*
X116500000Y-119500000D03*
X124120000Y-119500000D03*
X141000000Y-116500000D03*
X141000000Y-119040000D03*
X140500000Y-124500000D03*
X148120000Y-124500000D03*
D29*
X106000000Y-84300000D03*
X106000000Y-91920000D03*
X106000000Y-114240000D03*
X106000000Y-121860000D03*
D28*
X85000000Y-91600000D03*
X85000000Y-84400000D03*
D30*
X79000000Y-94750000D03*
X79000000Y-81250000D03*
D28*
X85500000Y-75000000D03*
X88000000Y-75000000D03*
X78500000Y-103000000D03*
X78500000Y-105500000D03*
X78500000Y-116500000D03*
X78500000Y-114000000D03*
X78500000Y-125000000D03*
X78500000Y-127500000D03*
X88000000Y-132000000D03*
X90500000Y-132000000D03*
X99000000Y-132000000D03*
X101500000Y-132000000D03*
X112500000Y-132000000D03*
X110000000Y-132000000D03*
X99000000Y-75000000D03*
X96500000Y-75000000D03*
X107500000Y-75000000D03*
X110000000Y-75000000D03*
X121000000Y-75000000D03*
X118500000Y-75000000D03*
X129500000Y-75000000D03*
X132000000Y-75000000D03*
X143000000Y-75000000D03*
X140500000Y-75000000D03*
X151500000Y-75000000D03*
X154000000Y-75000000D03*
X156500000Y-132000000D03*
X154000000Y-132000000D03*
X143000000Y-132000000D03*
X145500000Y-132000000D03*
X134500000Y-132000000D03*
X132000000Y-132000000D03*
X121000000Y-132000000D03*
X123500000Y-132000000D03*
X86000000Y-113620000D03*
X86000000Y-106000000D03*
X86000000Y-117000000D03*
X86000000Y-124620000D03*
X143000000Y-109000000D03*
X143000000Y-101380000D03*
X124120000Y-124500000D03*
X116500000Y-124500000D03*
X128500000Y-124500000D03*
X136120000Y-124500000D03*
X152000000Y-88000000D03*
X152000000Y-85500000D03*
X95500000Y-107000000D03*
X93000000Y-107000000D03*
M02*
