%TF.GenerationSoftware,KiCad,Pcbnew,(5.1.12)-1*%
%TF.CreationDate,2022-03-31T16:19:31+09:00*%
%TF.ProjectId,NHK2022_Power_Supply,4e484b32-3032-4325-9f50-6f7765725f53,rev?*%
%TF.SameCoordinates,PX42c1d80PY8583b00*%
%TF.FileFunction,Copper,L2,Bot*%
%TF.FilePolarity,Positive*%
%FSLAX46Y46*%
G04 Gerber Fmt 4.6, Leading zero omitted, Abs format (unit mm)*
G04 Created by KiCad (PCBNEW (5.1.12)-1) date 2022-03-31 16:19:31*
%MOMM*%
%LPD*%
G01*
G04 APERTURE LIST*
%TA.AperFunction,Profile*%
%ADD10C,0.050000*%
%TD*%
%TA.AperFunction,ComponentPad*%
%ADD11R,2.600000X2.600000*%
%TD*%
%TA.AperFunction,ComponentPad*%
%ADD12O,2.600000X2.600000*%
%TD*%
%TA.AperFunction,ComponentPad*%
%ADD13R,1.500000X1.500000*%
%TD*%
%TA.AperFunction,ComponentPad*%
%ADD14O,1.500000X1.500000*%
%TD*%
%TA.AperFunction,ComponentPad*%
%ADD15R,1.800000X1.800000*%
%TD*%
%TA.AperFunction,ComponentPad*%
%ADD16C,1.800000*%
%TD*%
%TA.AperFunction,ComponentPad*%
%ADD17R,1.600000X1.600000*%
%TD*%
%TA.AperFunction,ComponentPad*%
%ADD18O,1.600000X1.600000*%
%TD*%
%TA.AperFunction,ComponentPad*%
%ADD19C,3.400000*%
%TD*%
%TA.AperFunction,ComponentPad*%
%ADD20C,3.716000*%
%TD*%
%TA.AperFunction,ComponentPad*%
%ADD21R,3.716000X3.716000*%
%TD*%
%TA.AperFunction,ComponentPad*%
%ADD22O,2.400000X1.200000*%
%TD*%
%TA.AperFunction,ComponentPad*%
%ADD23O,1.700000X2.000000*%
%TD*%
%TA.AperFunction,ComponentPad*%
%ADD24O,2.000000X1.700000*%
%TD*%
%TA.AperFunction,ComponentPad*%
%ADD25C,1.600000*%
%TD*%
%TA.AperFunction,Conductor*%
%ADD26C,0.254000*%
%TD*%
%TA.AperFunction,Conductor*%
%ADD27C,0.100000*%
%TD*%
%ADD28C,0.350000*%
%ADD29O,1.700000X1.000000*%
%ADD30O,1.700000X0.600000*%
G04 APERTURE END LIST*
D10*
X0Y70000000D02*
X0Y6000000D01*
X100000000Y70000000D02*
X100000000Y4000000D01*
X4000000Y74000000D02*
X96000000Y74000000D01*
X4000000Y0D02*
X96000000Y0D01*
X0Y6000000D02*
X0Y4000000D01*
X96000000Y74000000D02*
G75*
G02*
X100000000Y70000000I0J-4000000D01*
G01*
X0Y70000000D02*
G75*
G02*
X4000000Y74000000I4000000J0D01*
G01*
X100000000Y4000000D02*
G75*
G02*
X96000000Y0I-4000000J0D01*
G01*
X4000000Y0D02*
G75*
G02*
X0Y4000000I0J4000000D01*
G01*
D11*
%TO.P,D1,1*%
%TO.N,VCC*%
X81000000Y28500000D03*
D12*
%TO.P,D1,2*%
%TO.N,GND*%
X81000000Y41200000D03*
%TD*%
D13*
%TO.P,D2,1*%
%TO.N,Net-(D2-Pad1)*%
X46500000Y20500000D03*
D14*
%TO.P,D2,2*%
%TO.N,GND*%
X54120000Y20500000D03*
%TD*%
D15*
%TO.P,D3,1*%
%TO.N,Net-(D3-Pad1)*%
X71000000Y23500000D03*
D16*
%TO.P,D3,2*%
%TO.N,Net-(D3-Pad2)*%
X71000000Y20960000D03*
%TD*%
D17*
%TO.P,D4,1*%
%TO.N,Net-(D3-Pad2)*%
X70500000Y15500000D03*
D18*
%TO.P,D4,2*%
%TO.N,GND*%
X78120000Y15500000D03*
%TD*%
D19*
%TO.P,F1,1*%
%TO.N,+BATT*%
X36000000Y55700000D03*
X36000000Y48080000D03*
%TO.P,F1,2*%
%TO.N,VCC*%
X36000000Y25760000D03*
X36000000Y18140000D03*
%TD*%
D20*
%TO.P,Power_Supply,2*%
%TO.N,GND*%
X15000000Y48400000D03*
D21*
%TO.P,Power_Supply,1*%
%TO.N,+BATT*%
X15000000Y55600000D03*
D22*
%TO.P,Power_Supply,S2*%
%TO.N,N/C*%
X9000000Y45250000D03*
%TO.P,Power_Supply,S1*%
X9000000Y58750000D03*
%TD*%
D23*
%TO.P,LED,2*%
%TO.N,GND*%
X15500000Y65000000D03*
%TO.P,LED,1*%
%TO.N,Net-(J2-Pad1)*%
%TA.AperFunction,ComponentPad*%
G36*
G01*
X18850000Y65750000D02*
X18850000Y64250000D01*
G75*
G02*
X18600000Y64000000I-250000J0D01*
G01*
X17400000Y64000000D01*
G75*
G02*
X17150000Y64250000I0J250000D01*
G01*
X17150000Y65750000D01*
G75*
G02*
X17400000Y66000000I250000J0D01*
G01*
X18600000Y66000000D01*
G75*
G02*
X18850000Y65750000I0J-250000D01*
G01*
G37*
%TD.AperFunction*%
%TD*%
%TO.P,MiCon1,1*%
%TO.N,Net-(C2-Pad1)*%
%TA.AperFunction,ComponentPad*%
G36*
G01*
X7750000Y37850000D02*
X9250000Y37850000D01*
G75*
G02*
X9500000Y37600000I0J-250000D01*
G01*
X9500000Y36400000D01*
G75*
G02*
X9250000Y36150000I-250000J0D01*
G01*
X7750000Y36150000D01*
G75*
G02*
X7500000Y36400000I0J250000D01*
G01*
X7500000Y37600000D01*
G75*
G02*
X7750000Y37850000I250000J0D01*
G01*
G37*
%TD.AperFunction*%
D24*
%TO.P,MiCon1,2*%
%TO.N,GND*%
X8500000Y34500000D03*
%TD*%
%TO.P,MiCon2,2*%
%TO.N,GND*%
X8500000Y23500000D03*
%TO.P,MiCon2,1*%
%TO.N,Net-(C2-Pad1)*%
%TA.AperFunction,ComponentPad*%
G36*
G01*
X7750000Y26850000D02*
X9250000Y26850000D01*
G75*
G02*
X9500000Y26600000I0J-250000D01*
G01*
X9500000Y25400000D01*
G75*
G02*
X9250000Y25150000I-250000J0D01*
G01*
X7750000Y25150000D01*
G75*
G02*
X7500000Y25400000I0J250000D01*
G01*
X7500000Y26600000D01*
G75*
G02*
X7750000Y26850000I250000J0D01*
G01*
G37*
%TD.AperFunction*%
%TD*%
%TO.P,MiCon3,1*%
%TO.N,Net-(C2-Pad1)*%
%TA.AperFunction,ComponentPad*%
G36*
G01*
X7750000Y15850000D02*
X9250000Y15850000D01*
G75*
G02*
X9500000Y15600000I0J-250000D01*
G01*
X9500000Y14400000D01*
G75*
G02*
X9250000Y14150000I-250000J0D01*
G01*
X7750000Y14150000D01*
G75*
G02*
X7500000Y14400000I0J250000D01*
G01*
X7500000Y15600000D01*
G75*
G02*
X7750000Y15850000I250000J0D01*
G01*
G37*
%TD.AperFunction*%
%TO.P,MiCon3,2*%
%TO.N,GND*%
X8500000Y12500000D03*
%TD*%
%TO.P,Conn,1*%
%TO.N,Net-(D2-Pad1)*%
%TA.AperFunction,ComponentPad*%
G36*
G01*
X17150000Y7250000D02*
X17150000Y8750000D01*
G75*
G02*
X17400000Y9000000I250000J0D01*
G01*
X18600000Y9000000D01*
G75*
G02*
X18850000Y8750000I0J-250000D01*
G01*
X18850000Y7250000D01*
G75*
G02*
X18600000Y7000000I-250000J0D01*
G01*
X17400000Y7000000D01*
G75*
G02*
X17150000Y7250000I0J250000D01*
G01*
G37*
%TD.AperFunction*%
D23*
%TO.P,Conn,2*%
%TO.N,GND*%
X20500000Y8000000D03*
%TD*%
%TO.P,Switch,1*%
%TO.N,VCC*%
%TA.AperFunction,ComponentPad*%
G36*
G01*
X28150000Y7250000D02*
X28150000Y8750000D01*
G75*
G02*
X28400000Y9000000I250000J0D01*
G01*
X29600000Y9000000D01*
G75*
G02*
X29850000Y8750000I0J-250000D01*
G01*
X29850000Y7250000D01*
G75*
G02*
X29600000Y7000000I-250000J0D01*
G01*
X28400000Y7000000D01*
G75*
G02*
X28150000Y7250000I0J250000D01*
G01*
G37*
%TD.AperFunction*%
%TO.P,Switch,2*%
%TO.N,Net-(D3-Pad2)*%
X31500000Y8000000D03*
%TD*%
%TO.P,Coil,2*%
%TO.N,GND*%
X42500000Y8000000D03*
%TO.P,Coil,1*%
%TO.N,Net-(D3-Pad2)*%
%TA.AperFunction,ComponentPad*%
G36*
G01*
X39150000Y7250000D02*
X39150000Y8750000D01*
G75*
G02*
X39400000Y9000000I250000J0D01*
G01*
X40600000Y9000000D01*
G75*
G02*
X40850000Y8750000I0J-250000D01*
G01*
X40850000Y7250000D01*
G75*
G02*
X40600000Y7000000I-250000J0D01*
G01*
X39400000Y7000000D01*
G75*
G02*
X39150000Y7250000I0J250000D01*
G01*
G37*
%TD.AperFunction*%
%TD*%
%TO.P,12v_1,1*%
%TO.N,VCC*%
%TA.AperFunction,ComponentPad*%
G36*
G01*
X29850000Y65750000D02*
X29850000Y64250000D01*
G75*
G02*
X29600000Y64000000I-250000J0D01*
G01*
X28400000Y64000000D01*
G75*
G02*
X28150000Y64250000I0J250000D01*
G01*
X28150000Y65750000D01*
G75*
G02*
X28400000Y66000000I250000J0D01*
G01*
X29600000Y66000000D01*
G75*
G02*
X29850000Y65750000I0J-250000D01*
G01*
G37*
%TD.AperFunction*%
%TO.P,12v_1,2*%
%TO.N,GND*%
X26500000Y65000000D03*
%TD*%
%TO.P,12v_2,2*%
%TO.N,GND*%
X37500000Y65000000D03*
%TO.P,12v_2,1*%
%TO.N,VCC*%
%TA.AperFunction,ComponentPad*%
G36*
G01*
X40850000Y65750000D02*
X40850000Y64250000D01*
G75*
G02*
X40600000Y64000000I-250000J0D01*
G01*
X39400000Y64000000D01*
G75*
G02*
X39150000Y64250000I0J250000D01*
G01*
X39150000Y65750000D01*
G75*
G02*
X39400000Y66000000I250000J0D01*
G01*
X40600000Y66000000D01*
G75*
G02*
X40850000Y65750000I0J-250000D01*
G01*
G37*
%TD.AperFunction*%
%TD*%
%TO.P,12v_3,1*%
%TO.N,VCC*%
%TA.AperFunction,ComponentPad*%
G36*
G01*
X51850000Y65750000D02*
X51850000Y64250000D01*
G75*
G02*
X51600000Y64000000I-250000J0D01*
G01*
X50400000Y64000000D01*
G75*
G02*
X50150000Y64250000I0J250000D01*
G01*
X50150000Y65750000D01*
G75*
G02*
X50400000Y66000000I250000J0D01*
G01*
X51600000Y66000000D01*
G75*
G02*
X51850000Y65750000I0J-250000D01*
G01*
G37*
%TD.AperFunction*%
%TO.P,12v_3,2*%
%TO.N,GND*%
X48500000Y65000000D03*
%TD*%
%TO.P,12v_4,2*%
%TO.N,GND*%
X59500000Y65000000D03*
%TO.P,12v_4,1*%
%TO.N,VCC*%
%TA.AperFunction,ComponentPad*%
G36*
G01*
X62850000Y65750000D02*
X62850000Y64250000D01*
G75*
G02*
X62600000Y64000000I-250000J0D01*
G01*
X61400000Y64000000D01*
G75*
G02*
X61150000Y64250000I0J250000D01*
G01*
X61150000Y65750000D01*
G75*
G02*
X61400000Y66000000I250000J0D01*
G01*
X62600000Y66000000D01*
G75*
G02*
X62850000Y65750000I0J-250000D01*
G01*
G37*
%TD.AperFunction*%
%TD*%
%TO.P,12v_5,1*%
%TO.N,VCC*%
%TA.AperFunction,ComponentPad*%
G36*
G01*
X73850000Y65750000D02*
X73850000Y64250000D01*
G75*
G02*
X73600000Y64000000I-250000J0D01*
G01*
X72400000Y64000000D01*
G75*
G02*
X72150000Y64250000I0J250000D01*
G01*
X72150000Y65750000D01*
G75*
G02*
X72400000Y66000000I250000J0D01*
G01*
X73600000Y66000000D01*
G75*
G02*
X73850000Y65750000I0J-250000D01*
G01*
G37*
%TD.AperFunction*%
%TO.P,12v_5,2*%
%TO.N,GND*%
X70500000Y65000000D03*
%TD*%
%TO.P,12v_6,2*%
%TO.N,GND*%
X81500000Y65000000D03*
%TO.P,12v_6,1*%
%TO.N,VCC*%
%TA.AperFunction,ComponentPad*%
G36*
G01*
X84850000Y65750000D02*
X84850000Y64250000D01*
G75*
G02*
X84600000Y64000000I-250000J0D01*
G01*
X83400000Y64000000D01*
G75*
G02*
X83150000Y64250000I0J250000D01*
G01*
X83150000Y65750000D01*
G75*
G02*
X83400000Y66000000I250000J0D01*
G01*
X84600000Y66000000D01*
G75*
G02*
X84850000Y65750000I0J-250000D01*
G01*
G37*
%TD.AperFunction*%
%TD*%
%TO.P,12v_7,2*%
%TO.N,GND*%
X86500000Y8000000D03*
%TO.P,12v_7,1*%
%TO.N,VCC*%
%TA.AperFunction,ComponentPad*%
G36*
G01*
X83150000Y7250000D02*
X83150000Y8750000D01*
G75*
G02*
X83400000Y9000000I250000J0D01*
G01*
X84600000Y9000000D01*
G75*
G02*
X84850000Y8750000I0J-250000D01*
G01*
X84850000Y7250000D01*
G75*
G02*
X84600000Y7000000I-250000J0D01*
G01*
X83400000Y7000000D01*
G75*
G02*
X83150000Y7250000I0J250000D01*
G01*
G37*
%TD.AperFunction*%
%TD*%
%TO.P,12v_8,1*%
%TO.N,VCC*%
%TA.AperFunction,ComponentPad*%
G36*
G01*
X72150000Y7250000D02*
X72150000Y8750000D01*
G75*
G02*
X72400000Y9000000I250000J0D01*
G01*
X73600000Y9000000D01*
G75*
G02*
X73850000Y8750000I0J-250000D01*
G01*
X73850000Y7250000D01*
G75*
G02*
X73600000Y7000000I-250000J0D01*
G01*
X72400000Y7000000D01*
G75*
G02*
X72150000Y7250000I0J250000D01*
G01*
G37*
%TD.AperFunction*%
%TO.P,12v_8,2*%
%TO.N,GND*%
X75500000Y8000000D03*
%TD*%
%TO.P,12v_9,2*%
%TO.N,GND*%
X64500000Y8000000D03*
%TO.P,12v_9,1*%
%TO.N,VCC*%
%TA.AperFunction,ComponentPad*%
G36*
G01*
X61150000Y7250000D02*
X61150000Y8750000D01*
G75*
G02*
X61400000Y9000000I250000J0D01*
G01*
X62600000Y9000000D01*
G75*
G02*
X62850000Y8750000I0J-250000D01*
G01*
X62850000Y7250000D01*
G75*
G02*
X62600000Y7000000I-250000J0D01*
G01*
X61400000Y7000000D01*
G75*
G02*
X61150000Y7250000I0J250000D01*
G01*
G37*
%TD.AperFunction*%
%TD*%
%TO.P,12v_10,1*%
%TO.N,VCC*%
%TA.AperFunction,ComponentPad*%
G36*
G01*
X50150000Y7250000D02*
X50150000Y8750000D01*
G75*
G02*
X50400000Y9000000I250000J0D01*
G01*
X51600000Y9000000D01*
G75*
G02*
X51850000Y8750000I0J-250000D01*
G01*
X51850000Y7250000D01*
G75*
G02*
X51600000Y7000000I-250000J0D01*
G01*
X50400000Y7000000D01*
G75*
G02*
X50150000Y7250000I0J250000D01*
G01*
G37*
%TD.AperFunction*%
%TO.P,12v_10,2*%
%TO.N,GND*%
X53500000Y8000000D03*
%TD*%
D18*
%TO.P,R1,2*%
%TO.N,Net-(R1-Pad2)*%
X16000000Y26380000D03*
D25*
%TO.P,R1,1*%
%TO.N,Net-(C2-Pad1)*%
X16000000Y34000000D03*
%TD*%
%TO.P,R2,1*%
%TO.N,Net-(R1-Pad2)*%
X16000000Y23000000D03*
D18*
%TO.P,R2,2*%
%TO.N,GND*%
X16000000Y15380000D03*
%TD*%
D25*
%TO.P,R3,1*%
%TO.N,Net-(J2-Pad1)*%
X73000000Y31000000D03*
D18*
%TO.P,R3,2*%
%TO.N,VCC*%
X73000000Y38620000D03*
%TD*%
%TO.P,R4,2*%
%TO.N,Net-(D2-Pad1)*%
X54120000Y15500000D03*
D25*
%TO.P,R4,1*%
%TO.N,Net-(D3-Pad2)*%
X46500000Y15500000D03*
%TD*%
%TO.P,R5,1*%
%TO.N,Net-(D3-Pad1)*%
X58500000Y15500000D03*
D18*
%TO.P,R5,2*%
%TO.N,GND*%
X66120000Y15500000D03*
%TD*%
D17*
%TO.P,C1,1*%
%TO.N,VCC*%
X82000000Y52000000D03*
D25*
%TO.P,C1,2*%
%TO.N,GND*%
X82000000Y54500000D03*
%TD*%
%TO.P,C2,2*%
%TO.N,GND*%
X25500000Y33000000D03*
D17*
%TO.P,C2,1*%
%TO.N,Net-(C2-Pad1)*%
X23000000Y33000000D03*
%TD*%
D26*
%TO.N,GND*%
X96648126Y73273286D02*
X97271572Y73085057D01*
X97846579Y72779319D01*
X98351247Y72367721D01*
X98766362Y71865933D01*
X99076105Y71293076D01*
X99268682Y70670961D01*
X99340000Y69992416D01*
X99340001Y4032289D01*
X99273286Y3351874D01*
X99085057Y2728430D01*
X98779323Y2153427D01*
X98367721Y1648752D01*
X97865933Y1233638D01*
X97293077Y923896D01*
X96670961Y731318D01*
X95992417Y660000D01*
X4032279Y660000D01*
X3351874Y726714D01*
X2728430Y914943D01*
X2153427Y1220677D01*
X1648752Y1632279D01*
X1233638Y2134067D01*
X923896Y2706923D01*
X731318Y3329039D01*
X660000Y4007583D01*
X660000Y4220128D01*
X1765000Y4220128D01*
X1765000Y3779872D01*
X1850890Y3348075D01*
X2019369Y2941331D01*
X2263962Y2575271D01*
X2575271Y2263962D01*
X2941331Y2019369D01*
X3348075Y1850890D01*
X3779872Y1765000D01*
X4220128Y1765000D01*
X4651925Y1850890D01*
X5058669Y2019369D01*
X5424729Y2263962D01*
X5736038Y2575271D01*
X5980631Y2941331D01*
X6149110Y3348075D01*
X6235000Y3779872D01*
X6235000Y4220128D01*
X93765000Y4220128D01*
X93765000Y3779872D01*
X93850890Y3348075D01*
X94019369Y2941331D01*
X94263962Y2575271D01*
X94575271Y2263962D01*
X94941331Y2019369D01*
X95348075Y1850890D01*
X95779872Y1765000D01*
X96220128Y1765000D01*
X96651925Y1850890D01*
X97058669Y2019369D01*
X97424729Y2263962D01*
X97736038Y2575271D01*
X97980631Y2941331D01*
X98149110Y3348075D01*
X98235000Y3779872D01*
X98235000Y4220128D01*
X98149110Y4651925D01*
X97980631Y5058669D01*
X97736038Y5424729D01*
X97424729Y5736038D01*
X97058669Y5980631D01*
X96651925Y6149110D01*
X96220128Y6235000D01*
X95779872Y6235000D01*
X95348075Y6149110D01*
X94941331Y5980631D01*
X94575271Y5736038D01*
X94263962Y5424729D01*
X94019369Y5058669D01*
X93850890Y4651925D01*
X93765000Y4220128D01*
X6235000Y4220128D01*
X6149110Y4651925D01*
X5980631Y5058669D01*
X5736038Y5424729D01*
X5424729Y5736038D01*
X5058669Y5980631D01*
X4651925Y6149110D01*
X4220128Y6235000D01*
X3779872Y6235000D01*
X3348075Y6149110D01*
X2941331Y5980631D01*
X2575271Y5736038D01*
X2263962Y5424729D01*
X2019369Y5058669D01*
X1850890Y4651925D01*
X1765000Y4220128D01*
X660000Y4220128D01*
X660000Y8750000D01*
X16511928Y8750000D01*
X16511928Y7250000D01*
X16528992Y7076746D01*
X16579528Y6910150D01*
X16661595Y6756614D01*
X16772038Y6622038D01*
X16906614Y6511595D01*
X17060150Y6429528D01*
X17226746Y6378992D01*
X17400000Y6361928D01*
X18600000Y6361928D01*
X18773254Y6378992D01*
X18939850Y6429528D01*
X19093386Y6511595D01*
X19227962Y6622038D01*
X19338405Y6756614D01*
X19392914Y6858593D01*
X19393198Y6858205D01*
X19607954Y6661336D01*
X19856991Y6510146D01*
X20130739Y6410446D01*
X20143110Y6408524D01*
X20373000Y6529845D01*
X20373000Y7873000D01*
X20627000Y7873000D01*
X20627000Y6529845D01*
X20856890Y6408524D01*
X20869261Y6410446D01*
X21143009Y6510146D01*
X21392046Y6661336D01*
X21606802Y6858205D01*
X21779025Y7093188D01*
X21902096Y7357255D01*
X21971285Y7640258D01*
X21827232Y7873000D01*
X20627000Y7873000D01*
X20373000Y7873000D01*
X20353000Y7873000D01*
X20353000Y8127000D01*
X20373000Y8127000D01*
X20373000Y9470155D01*
X20627000Y9470155D01*
X20627000Y8127000D01*
X21827232Y8127000D01*
X21971285Y8359742D01*
X21902096Y8642745D01*
X21852109Y8750000D01*
X27511928Y8750000D01*
X27511928Y7250000D01*
X27528992Y7076746D01*
X27579528Y6910150D01*
X27661595Y6756614D01*
X27772038Y6622038D01*
X27906614Y6511595D01*
X28060150Y6429528D01*
X28226746Y6378992D01*
X28400000Y6361928D01*
X29600000Y6361928D01*
X29773254Y6378992D01*
X29939850Y6429528D01*
X30093386Y6511595D01*
X30227962Y6622038D01*
X30338405Y6756614D01*
X30392777Y6858337D01*
X30444866Y6794866D01*
X30670987Y6609294D01*
X30928967Y6471401D01*
X31208890Y6386487D01*
X31500000Y6357815D01*
X31791111Y6386487D01*
X32071034Y6471401D01*
X32329014Y6609294D01*
X32555134Y6794866D01*
X32740706Y7020986D01*
X32878599Y7278967D01*
X32963513Y7558890D01*
X32985000Y7777051D01*
X32985000Y8222950D01*
X32963513Y8441111D01*
X32878599Y8721034D01*
X32863117Y8750000D01*
X38511928Y8750000D01*
X38511928Y7250000D01*
X38528992Y7076746D01*
X38579528Y6910150D01*
X38661595Y6756614D01*
X38772038Y6622038D01*
X38906614Y6511595D01*
X39060150Y6429528D01*
X39226746Y6378992D01*
X39400000Y6361928D01*
X40600000Y6361928D01*
X40773254Y6378992D01*
X40939850Y6429528D01*
X41093386Y6511595D01*
X41227962Y6622038D01*
X41338405Y6756614D01*
X41392914Y6858593D01*
X41393198Y6858205D01*
X41607954Y6661336D01*
X41856991Y6510146D01*
X42130739Y6410446D01*
X42143110Y6408524D01*
X42373000Y6529845D01*
X42373000Y7873000D01*
X42627000Y7873000D01*
X42627000Y6529845D01*
X42856890Y6408524D01*
X42869261Y6410446D01*
X43143009Y6510146D01*
X43392046Y6661336D01*
X43606802Y6858205D01*
X43779025Y7093188D01*
X43902096Y7357255D01*
X43971285Y7640258D01*
X43827232Y7873000D01*
X42627000Y7873000D01*
X42373000Y7873000D01*
X42353000Y7873000D01*
X42353000Y8127000D01*
X42373000Y8127000D01*
X42373000Y9470155D01*
X42627000Y9470155D01*
X42627000Y8127000D01*
X43827232Y8127000D01*
X43971285Y8359742D01*
X43902096Y8642745D01*
X43852109Y8750000D01*
X49511928Y8750000D01*
X49511928Y7250000D01*
X49528992Y7076746D01*
X49579528Y6910150D01*
X49661595Y6756614D01*
X49772038Y6622038D01*
X49906614Y6511595D01*
X50060150Y6429528D01*
X50226746Y6378992D01*
X50400000Y6361928D01*
X51600000Y6361928D01*
X51773254Y6378992D01*
X51939850Y6429528D01*
X52093386Y6511595D01*
X52227962Y6622038D01*
X52338405Y6756614D01*
X52392914Y6858593D01*
X52393198Y6858205D01*
X52607954Y6661336D01*
X52856991Y6510146D01*
X53130739Y6410446D01*
X53143110Y6408524D01*
X53373000Y6529845D01*
X53373000Y7873000D01*
X53627000Y7873000D01*
X53627000Y6529845D01*
X53856890Y6408524D01*
X53869261Y6410446D01*
X54143009Y6510146D01*
X54392046Y6661336D01*
X54606802Y6858205D01*
X54779025Y7093188D01*
X54902096Y7357255D01*
X54971285Y7640258D01*
X54827232Y7873000D01*
X53627000Y7873000D01*
X53373000Y7873000D01*
X53353000Y7873000D01*
X53353000Y8127000D01*
X53373000Y8127000D01*
X53373000Y9470155D01*
X53627000Y9470155D01*
X53627000Y8127000D01*
X54827232Y8127000D01*
X54971285Y8359742D01*
X54902096Y8642745D01*
X54852109Y8750000D01*
X60511928Y8750000D01*
X60511928Y7250000D01*
X60528992Y7076746D01*
X60579528Y6910150D01*
X60661595Y6756614D01*
X60772038Y6622038D01*
X60906614Y6511595D01*
X61060150Y6429528D01*
X61226746Y6378992D01*
X61400000Y6361928D01*
X62600000Y6361928D01*
X62773254Y6378992D01*
X62939850Y6429528D01*
X63093386Y6511595D01*
X63227962Y6622038D01*
X63338405Y6756614D01*
X63392914Y6858593D01*
X63393198Y6858205D01*
X63607954Y6661336D01*
X63856991Y6510146D01*
X64130739Y6410446D01*
X64143110Y6408524D01*
X64373000Y6529845D01*
X64373000Y7873000D01*
X64627000Y7873000D01*
X64627000Y6529845D01*
X64856890Y6408524D01*
X64869261Y6410446D01*
X65143009Y6510146D01*
X65392046Y6661336D01*
X65606802Y6858205D01*
X65779025Y7093188D01*
X65902096Y7357255D01*
X65971285Y7640258D01*
X65827232Y7873000D01*
X64627000Y7873000D01*
X64373000Y7873000D01*
X64353000Y7873000D01*
X64353000Y8127000D01*
X64373000Y8127000D01*
X64373000Y9470155D01*
X64627000Y9470155D01*
X64627000Y8127000D01*
X65827232Y8127000D01*
X65971285Y8359742D01*
X65902096Y8642745D01*
X65852109Y8750000D01*
X71511928Y8750000D01*
X71511928Y7250000D01*
X71528992Y7076746D01*
X71579528Y6910150D01*
X71661595Y6756614D01*
X71772038Y6622038D01*
X71906614Y6511595D01*
X72060150Y6429528D01*
X72226746Y6378992D01*
X72400000Y6361928D01*
X73600000Y6361928D01*
X73773254Y6378992D01*
X73939850Y6429528D01*
X74093386Y6511595D01*
X74227962Y6622038D01*
X74338405Y6756614D01*
X74392914Y6858593D01*
X74393198Y6858205D01*
X74607954Y6661336D01*
X74856991Y6510146D01*
X75130739Y6410446D01*
X75143110Y6408524D01*
X75373000Y6529845D01*
X75373000Y7873000D01*
X75627000Y7873000D01*
X75627000Y6529845D01*
X75856890Y6408524D01*
X75869261Y6410446D01*
X76143009Y6510146D01*
X76392046Y6661336D01*
X76606802Y6858205D01*
X76779025Y7093188D01*
X76902096Y7357255D01*
X76971285Y7640258D01*
X76827232Y7873000D01*
X75627000Y7873000D01*
X75373000Y7873000D01*
X75353000Y7873000D01*
X75353000Y8127000D01*
X75373000Y8127000D01*
X75373000Y9470155D01*
X75627000Y9470155D01*
X75627000Y8127000D01*
X76827232Y8127000D01*
X76971285Y8359742D01*
X76902096Y8642745D01*
X76852109Y8750000D01*
X82511928Y8750000D01*
X82511928Y7250000D01*
X82528992Y7076746D01*
X82579528Y6910150D01*
X82661595Y6756614D01*
X82772038Y6622038D01*
X82906614Y6511595D01*
X83060150Y6429528D01*
X83226746Y6378992D01*
X83400000Y6361928D01*
X84600000Y6361928D01*
X84773254Y6378992D01*
X84939850Y6429528D01*
X85093386Y6511595D01*
X85227962Y6622038D01*
X85338405Y6756614D01*
X85392914Y6858593D01*
X85393198Y6858205D01*
X85607954Y6661336D01*
X85856991Y6510146D01*
X86130739Y6410446D01*
X86143110Y6408524D01*
X86373000Y6529845D01*
X86373000Y7873000D01*
X86627000Y7873000D01*
X86627000Y6529845D01*
X86856890Y6408524D01*
X86869261Y6410446D01*
X87143009Y6510146D01*
X87392046Y6661336D01*
X87606802Y6858205D01*
X87779025Y7093188D01*
X87902096Y7357255D01*
X87971285Y7640258D01*
X87827232Y7873000D01*
X86627000Y7873000D01*
X86373000Y7873000D01*
X86353000Y7873000D01*
X86353000Y8127000D01*
X86373000Y8127000D01*
X86373000Y9470155D01*
X86627000Y9470155D01*
X86627000Y8127000D01*
X87827232Y8127000D01*
X87971285Y8359742D01*
X87902096Y8642745D01*
X87779025Y8906812D01*
X87606802Y9141795D01*
X87392046Y9338664D01*
X87143009Y9489854D01*
X86869261Y9589554D01*
X86856890Y9591476D01*
X86627000Y9470155D01*
X86373000Y9470155D01*
X86143110Y9591476D01*
X86130739Y9589554D01*
X85856991Y9489854D01*
X85607954Y9338664D01*
X85393198Y9141795D01*
X85392914Y9141407D01*
X85338405Y9243386D01*
X85227962Y9377962D01*
X85093386Y9488405D01*
X84939850Y9570472D01*
X84773254Y9621008D01*
X84600000Y9638072D01*
X83400000Y9638072D01*
X83226746Y9621008D01*
X83060150Y9570472D01*
X82906614Y9488405D01*
X82772038Y9377962D01*
X82661595Y9243386D01*
X82579528Y9089850D01*
X82528992Y8923254D01*
X82511928Y8750000D01*
X76852109Y8750000D01*
X76779025Y8906812D01*
X76606802Y9141795D01*
X76392046Y9338664D01*
X76143009Y9489854D01*
X75869261Y9589554D01*
X75856890Y9591476D01*
X75627000Y9470155D01*
X75373000Y9470155D01*
X75143110Y9591476D01*
X75130739Y9589554D01*
X74856991Y9489854D01*
X74607954Y9338664D01*
X74393198Y9141795D01*
X74392914Y9141407D01*
X74338405Y9243386D01*
X74227962Y9377962D01*
X74093386Y9488405D01*
X73939850Y9570472D01*
X73773254Y9621008D01*
X73600000Y9638072D01*
X72400000Y9638072D01*
X72226746Y9621008D01*
X72060150Y9570472D01*
X71906614Y9488405D01*
X71772038Y9377962D01*
X71661595Y9243386D01*
X71579528Y9089850D01*
X71528992Y8923254D01*
X71511928Y8750000D01*
X65852109Y8750000D01*
X65779025Y8906812D01*
X65606802Y9141795D01*
X65392046Y9338664D01*
X65143009Y9489854D01*
X64869261Y9589554D01*
X64856890Y9591476D01*
X64627000Y9470155D01*
X64373000Y9470155D01*
X64143110Y9591476D01*
X64130739Y9589554D01*
X63856991Y9489854D01*
X63607954Y9338664D01*
X63393198Y9141795D01*
X63392914Y9141407D01*
X63338405Y9243386D01*
X63227962Y9377962D01*
X63093386Y9488405D01*
X62939850Y9570472D01*
X62773254Y9621008D01*
X62600000Y9638072D01*
X61400000Y9638072D01*
X61226746Y9621008D01*
X61060150Y9570472D01*
X60906614Y9488405D01*
X60772038Y9377962D01*
X60661595Y9243386D01*
X60579528Y9089850D01*
X60528992Y8923254D01*
X60511928Y8750000D01*
X54852109Y8750000D01*
X54779025Y8906812D01*
X54606802Y9141795D01*
X54392046Y9338664D01*
X54143009Y9489854D01*
X53869261Y9589554D01*
X53856890Y9591476D01*
X53627000Y9470155D01*
X53373000Y9470155D01*
X53143110Y9591476D01*
X53130739Y9589554D01*
X52856991Y9489854D01*
X52607954Y9338664D01*
X52393198Y9141795D01*
X52392914Y9141407D01*
X52338405Y9243386D01*
X52227962Y9377962D01*
X52093386Y9488405D01*
X51939850Y9570472D01*
X51773254Y9621008D01*
X51600000Y9638072D01*
X50400000Y9638072D01*
X50226746Y9621008D01*
X50060150Y9570472D01*
X49906614Y9488405D01*
X49772038Y9377962D01*
X49661595Y9243386D01*
X49579528Y9089850D01*
X49528992Y8923254D01*
X49511928Y8750000D01*
X43852109Y8750000D01*
X43779025Y8906812D01*
X43606802Y9141795D01*
X43392046Y9338664D01*
X43143009Y9489854D01*
X42869261Y9589554D01*
X42856890Y9591476D01*
X42627000Y9470155D01*
X42373000Y9470155D01*
X42143110Y9591476D01*
X42130739Y9589554D01*
X41856991Y9489854D01*
X41607954Y9338664D01*
X41393198Y9141795D01*
X41392914Y9141407D01*
X41338405Y9243386D01*
X41227962Y9377962D01*
X41093386Y9488405D01*
X40939850Y9570472D01*
X40773254Y9621008D01*
X40600000Y9638072D01*
X39400000Y9638072D01*
X39226746Y9621008D01*
X39060150Y9570472D01*
X38906614Y9488405D01*
X38772038Y9377962D01*
X38661595Y9243386D01*
X38579528Y9089850D01*
X38528992Y8923254D01*
X38511928Y8750000D01*
X32863117Y8750000D01*
X32740706Y8979014D01*
X32555134Y9205134D01*
X32329013Y9390706D01*
X32071033Y9528599D01*
X31791110Y9613513D01*
X31500000Y9642185D01*
X31208889Y9613513D01*
X30928966Y9528599D01*
X30670986Y9390706D01*
X30444866Y9205134D01*
X30392777Y9141663D01*
X30338405Y9243386D01*
X30227962Y9377962D01*
X30093386Y9488405D01*
X29939850Y9570472D01*
X29773254Y9621008D01*
X29600000Y9638072D01*
X28400000Y9638072D01*
X28226746Y9621008D01*
X28060150Y9570472D01*
X27906614Y9488405D01*
X27772038Y9377962D01*
X27661595Y9243386D01*
X27579528Y9089850D01*
X27528992Y8923254D01*
X27511928Y8750000D01*
X21852109Y8750000D01*
X21779025Y8906812D01*
X21606802Y9141795D01*
X21392046Y9338664D01*
X21143009Y9489854D01*
X20869261Y9589554D01*
X20856890Y9591476D01*
X20627000Y9470155D01*
X20373000Y9470155D01*
X20143110Y9591476D01*
X20130739Y9589554D01*
X19856991Y9489854D01*
X19607954Y9338664D01*
X19393198Y9141795D01*
X19392914Y9141407D01*
X19338405Y9243386D01*
X19227962Y9377962D01*
X19093386Y9488405D01*
X18939850Y9570472D01*
X18773254Y9621008D01*
X18600000Y9638072D01*
X17400000Y9638072D01*
X17226746Y9621008D01*
X17060150Y9570472D01*
X16906614Y9488405D01*
X16772038Y9377962D01*
X16661595Y9243386D01*
X16579528Y9089850D01*
X16528992Y8923254D01*
X16511928Y8750000D01*
X660000Y8750000D01*
X660000Y12143110D01*
X6908524Y12143110D01*
X6910446Y12130739D01*
X7010146Y11856991D01*
X7161336Y11607954D01*
X7358205Y11393198D01*
X7593188Y11220975D01*
X7857255Y11097904D01*
X8140258Y11028715D01*
X8373000Y11172768D01*
X8373000Y12373000D01*
X8627000Y12373000D01*
X8627000Y11172768D01*
X8859742Y11028715D01*
X9142745Y11097904D01*
X9406812Y11220975D01*
X9641795Y11393198D01*
X9838664Y11607954D01*
X9989854Y11856991D01*
X10089554Y12130739D01*
X10091476Y12143110D01*
X9970155Y12373000D01*
X8627000Y12373000D01*
X8373000Y12373000D01*
X7029845Y12373000D01*
X6908524Y12143110D01*
X660000Y12143110D01*
X660000Y15600000D01*
X6861928Y15600000D01*
X6861928Y14400000D01*
X6878992Y14226746D01*
X6929528Y14060150D01*
X7011595Y13906614D01*
X7122038Y13772038D01*
X7256614Y13661595D01*
X7358593Y13607086D01*
X7358205Y13606802D01*
X7161336Y13392046D01*
X7010146Y13143009D01*
X6910446Y12869261D01*
X6908524Y12856890D01*
X7029845Y12627000D01*
X8373000Y12627000D01*
X8373000Y12647000D01*
X8627000Y12647000D01*
X8627000Y12627000D01*
X9970155Y12627000D01*
X10091476Y12856890D01*
X10089554Y12869261D01*
X9989854Y13143009D01*
X9838664Y13392046D01*
X9641795Y13606802D01*
X9641407Y13607086D01*
X9743386Y13661595D01*
X9877962Y13772038D01*
X9988405Y13906614D01*
X10070472Y14060150D01*
X10121008Y14226746D01*
X10138072Y14400000D01*
X10138072Y15030960D01*
X14608091Y15030960D01*
X14702930Y14766119D01*
X14847615Y14524869D01*
X15036586Y14316481D01*
X15262580Y14148963D01*
X15516913Y14028754D01*
X15650961Y13988096D01*
X15873000Y14110085D01*
X15873000Y15253000D01*
X16127000Y15253000D01*
X16127000Y14110085D01*
X16349039Y13988096D01*
X16483087Y14028754D01*
X16737420Y14148963D01*
X16963414Y14316481D01*
X17152385Y14524869D01*
X17297070Y14766119D01*
X17391909Y15030960D01*
X17270624Y15253000D01*
X16127000Y15253000D01*
X15873000Y15253000D01*
X14729376Y15253000D01*
X14608091Y15030960D01*
X10138072Y15030960D01*
X10138072Y15600000D01*
X10125363Y15729040D01*
X14608091Y15729040D01*
X14729376Y15507000D01*
X15873000Y15507000D01*
X15873000Y16649915D01*
X16127000Y16649915D01*
X16127000Y15507000D01*
X17270624Y15507000D01*
X17344001Y15641335D01*
X45065000Y15641335D01*
X45065000Y15358665D01*
X45120147Y15081426D01*
X45228320Y14820273D01*
X45385363Y14585241D01*
X45585241Y14385363D01*
X45820273Y14228320D01*
X46081426Y14120147D01*
X46358665Y14065000D01*
X46641335Y14065000D01*
X46918574Y14120147D01*
X47179727Y14228320D01*
X47414759Y14385363D01*
X47614637Y14585241D01*
X47771680Y14820273D01*
X47879853Y15081426D01*
X47935000Y15358665D01*
X47935000Y15641335D01*
X52685000Y15641335D01*
X52685000Y15358665D01*
X52740147Y15081426D01*
X52848320Y14820273D01*
X53005363Y14585241D01*
X53205241Y14385363D01*
X53440273Y14228320D01*
X53701426Y14120147D01*
X53978665Y14065000D01*
X54261335Y14065000D01*
X54538574Y14120147D01*
X54799727Y14228320D01*
X55034759Y14385363D01*
X55234637Y14585241D01*
X55391680Y14820273D01*
X55499853Y15081426D01*
X55555000Y15358665D01*
X55555000Y15641335D01*
X57065000Y15641335D01*
X57065000Y15358665D01*
X57120147Y15081426D01*
X57228320Y14820273D01*
X57385363Y14585241D01*
X57585241Y14385363D01*
X57820273Y14228320D01*
X58081426Y14120147D01*
X58358665Y14065000D01*
X58641335Y14065000D01*
X58918574Y14120147D01*
X59179727Y14228320D01*
X59414759Y14385363D01*
X59614637Y14585241D01*
X59771680Y14820273D01*
X59879853Y15081426D01*
X59893684Y15150961D01*
X64728096Y15150961D01*
X64768754Y15016913D01*
X64888963Y14762580D01*
X65056481Y14536586D01*
X65264869Y14347615D01*
X65506119Y14202930D01*
X65770960Y14108091D01*
X65993000Y14229376D01*
X65993000Y15373000D01*
X66247000Y15373000D01*
X66247000Y14229376D01*
X66469040Y14108091D01*
X66733881Y14202930D01*
X66975131Y14347615D01*
X67183519Y14536586D01*
X67351037Y14762580D01*
X67471246Y15016913D01*
X67511904Y15150961D01*
X67389915Y15373000D01*
X66247000Y15373000D01*
X65993000Y15373000D01*
X64850085Y15373000D01*
X64728096Y15150961D01*
X59893684Y15150961D01*
X59935000Y15358665D01*
X59935000Y15641335D01*
X59893685Y15849039D01*
X64728096Y15849039D01*
X64850085Y15627000D01*
X65993000Y15627000D01*
X65993000Y16770624D01*
X66247000Y16770624D01*
X66247000Y15627000D01*
X67389915Y15627000D01*
X67511904Y15849039D01*
X67471246Y15983087D01*
X67351037Y16237420D01*
X67304650Y16300000D01*
X69061928Y16300000D01*
X69061928Y14700000D01*
X69074188Y14575518D01*
X69110498Y14455820D01*
X69169463Y14345506D01*
X69248815Y14248815D01*
X69345506Y14169463D01*
X69455820Y14110498D01*
X69575518Y14074188D01*
X69700000Y14061928D01*
X71300000Y14061928D01*
X71424482Y14074188D01*
X71544180Y14110498D01*
X71654494Y14169463D01*
X71751185Y14248815D01*
X71830537Y14345506D01*
X71889502Y14455820D01*
X71925812Y14575518D01*
X71938072Y14700000D01*
X71938072Y15150961D01*
X76728096Y15150961D01*
X76768754Y15016913D01*
X76888963Y14762580D01*
X77056481Y14536586D01*
X77264869Y14347615D01*
X77506119Y14202930D01*
X77770960Y14108091D01*
X77993000Y14229376D01*
X77993000Y15373000D01*
X78247000Y15373000D01*
X78247000Y14229376D01*
X78469040Y14108091D01*
X78733881Y14202930D01*
X78975131Y14347615D01*
X79183519Y14536586D01*
X79351037Y14762580D01*
X79471246Y15016913D01*
X79511904Y15150961D01*
X79389915Y15373000D01*
X78247000Y15373000D01*
X77993000Y15373000D01*
X76850085Y15373000D01*
X76728096Y15150961D01*
X71938072Y15150961D01*
X71938072Y15849039D01*
X76728096Y15849039D01*
X76850085Y15627000D01*
X77993000Y15627000D01*
X77993000Y16770624D01*
X78247000Y16770624D01*
X78247000Y15627000D01*
X79389915Y15627000D01*
X79511904Y15849039D01*
X79471246Y15983087D01*
X79351037Y16237420D01*
X79183519Y16463414D01*
X78975131Y16652385D01*
X78733881Y16797070D01*
X78469040Y16891909D01*
X78247000Y16770624D01*
X77993000Y16770624D01*
X77770960Y16891909D01*
X77506119Y16797070D01*
X77264869Y16652385D01*
X77056481Y16463414D01*
X76888963Y16237420D01*
X76768754Y15983087D01*
X76728096Y15849039D01*
X71938072Y15849039D01*
X71938072Y16300000D01*
X71925812Y16424482D01*
X71889502Y16544180D01*
X71830537Y16654494D01*
X71751185Y16751185D01*
X71654494Y16830537D01*
X71544180Y16889502D01*
X71424482Y16925812D01*
X71300000Y16938072D01*
X69700000Y16938072D01*
X69575518Y16925812D01*
X69455820Y16889502D01*
X69345506Y16830537D01*
X69248815Y16751185D01*
X69169463Y16654494D01*
X69110498Y16544180D01*
X69074188Y16424482D01*
X69061928Y16300000D01*
X67304650Y16300000D01*
X67183519Y16463414D01*
X66975131Y16652385D01*
X66733881Y16797070D01*
X66469040Y16891909D01*
X66247000Y16770624D01*
X65993000Y16770624D01*
X65770960Y16891909D01*
X65506119Y16797070D01*
X65264869Y16652385D01*
X65056481Y16463414D01*
X64888963Y16237420D01*
X64768754Y15983087D01*
X64728096Y15849039D01*
X59893685Y15849039D01*
X59879853Y15918574D01*
X59771680Y16179727D01*
X59614637Y16414759D01*
X59414759Y16614637D01*
X59179727Y16771680D01*
X58918574Y16879853D01*
X58641335Y16935000D01*
X58358665Y16935000D01*
X58081426Y16879853D01*
X57820273Y16771680D01*
X57585241Y16614637D01*
X57385363Y16414759D01*
X57228320Y16179727D01*
X57120147Y15918574D01*
X57065000Y15641335D01*
X55555000Y15641335D01*
X55499853Y15918574D01*
X55391680Y16179727D01*
X55234637Y16414759D01*
X55034759Y16614637D01*
X54799727Y16771680D01*
X54538574Y16879853D01*
X54261335Y16935000D01*
X53978665Y16935000D01*
X53701426Y16879853D01*
X53440273Y16771680D01*
X53205241Y16614637D01*
X53005363Y16414759D01*
X52848320Y16179727D01*
X52740147Y15918574D01*
X52685000Y15641335D01*
X47935000Y15641335D01*
X47879853Y15918574D01*
X47771680Y16179727D01*
X47614637Y16414759D01*
X47414759Y16614637D01*
X47179727Y16771680D01*
X46918574Y16879853D01*
X46641335Y16935000D01*
X46358665Y16935000D01*
X46081426Y16879853D01*
X45820273Y16771680D01*
X45585241Y16614637D01*
X45385363Y16414759D01*
X45228320Y16179727D01*
X45120147Y15918574D01*
X45065000Y15641335D01*
X17344001Y15641335D01*
X17391909Y15729040D01*
X17297070Y15993881D01*
X17152385Y16235131D01*
X16963414Y16443519D01*
X16737420Y16611037D01*
X16483087Y16731246D01*
X16349039Y16771904D01*
X16127000Y16649915D01*
X15873000Y16649915D01*
X15650961Y16771904D01*
X15516913Y16731246D01*
X15262580Y16611037D01*
X15036586Y16443519D01*
X14847615Y16235131D01*
X14702930Y15993881D01*
X14608091Y15729040D01*
X10125363Y15729040D01*
X10121008Y15773254D01*
X10070472Y15939850D01*
X9988405Y16093386D01*
X9877962Y16227962D01*
X9743386Y16338405D01*
X9589850Y16420472D01*
X9423254Y16471008D01*
X9250000Y16488072D01*
X7750000Y16488072D01*
X7576746Y16471008D01*
X7410150Y16420472D01*
X7256614Y16338405D01*
X7122038Y16227962D01*
X7011595Y16093386D01*
X6929528Y15939850D01*
X6878992Y15773254D01*
X6861928Y15600000D01*
X660000Y15600000D01*
X660000Y18369977D01*
X33665000Y18369977D01*
X33665000Y17910023D01*
X33754733Y17458906D01*
X33930750Y17033963D01*
X34186287Y16651524D01*
X34511524Y16326287D01*
X34893963Y16070750D01*
X35318906Y15894733D01*
X35770023Y15805000D01*
X36229977Y15805000D01*
X36681094Y15894733D01*
X37106037Y16070750D01*
X37488476Y16326287D01*
X37813713Y16651524D01*
X38069250Y17033963D01*
X38245267Y17458906D01*
X38335000Y17910023D01*
X38335000Y18369977D01*
X38245267Y18821094D01*
X38069250Y19246037D01*
X37813713Y19628476D01*
X37488476Y19953713D01*
X37106037Y20209250D01*
X36681094Y20385267D01*
X36229977Y20475000D01*
X35770023Y20475000D01*
X35318906Y20385267D01*
X34893963Y20209250D01*
X34511524Y19953713D01*
X34186287Y19628476D01*
X33930750Y19246037D01*
X33754733Y18821094D01*
X33665000Y18369977D01*
X660000Y18369977D01*
X660000Y21250000D01*
X45111928Y21250000D01*
X45111928Y19750000D01*
X45124188Y19625518D01*
X45160498Y19505820D01*
X45219463Y19395506D01*
X45298815Y19298815D01*
X45395506Y19219463D01*
X45505820Y19160498D01*
X45625518Y19124188D01*
X45750000Y19111928D01*
X47250000Y19111928D01*
X47374482Y19124188D01*
X47494180Y19160498D01*
X47604494Y19219463D01*
X47701185Y19298815D01*
X47780537Y19395506D01*
X47839502Y19505820D01*
X47875812Y19625518D01*
X47888072Y19750000D01*
X47888072Y20158815D01*
X52777682Y20158815D01*
X52814347Y20037930D01*
X52929580Y19792088D01*
X53090560Y19573451D01*
X53291101Y19390421D01*
X53523496Y19250031D01*
X53778814Y19157677D01*
X53993000Y19279580D01*
X53993000Y20373000D01*
X54247000Y20373000D01*
X54247000Y19279580D01*
X54461186Y19157677D01*
X54716504Y19250031D01*
X54948899Y19390421D01*
X55149440Y19573451D01*
X55310420Y19792088D01*
X55425653Y20037930D01*
X55462318Y20158815D01*
X55339656Y20373000D01*
X54247000Y20373000D01*
X53993000Y20373000D01*
X52900344Y20373000D01*
X52777682Y20158815D01*
X47888072Y20158815D01*
X47888072Y20841185D01*
X52777682Y20841185D01*
X52900344Y20627000D01*
X53993000Y20627000D01*
X53993000Y21720420D01*
X54247000Y21720420D01*
X54247000Y20627000D01*
X55339656Y20627000D01*
X55462318Y20841185D01*
X55425653Y20962070D01*
X55310420Y21207912D01*
X55149440Y21426549D01*
X54948899Y21609579D01*
X54716504Y21749969D01*
X54461186Y21842323D01*
X54247000Y21720420D01*
X53993000Y21720420D01*
X53778814Y21842323D01*
X53523496Y21749969D01*
X53291101Y21609579D01*
X53090560Y21426549D01*
X52929580Y21207912D01*
X52814347Y20962070D01*
X52777682Y20841185D01*
X47888072Y20841185D01*
X47888072Y21250000D01*
X47875812Y21374482D01*
X47839502Y21494180D01*
X47780537Y21604494D01*
X47701185Y21701185D01*
X47604494Y21780537D01*
X47494180Y21839502D01*
X47374482Y21875812D01*
X47250000Y21888072D01*
X45750000Y21888072D01*
X45625518Y21875812D01*
X45505820Y21839502D01*
X45395506Y21780537D01*
X45298815Y21701185D01*
X45219463Y21604494D01*
X45160498Y21494180D01*
X45124188Y21374482D01*
X45111928Y21250000D01*
X660000Y21250000D01*
X660000Y23143110D01*
X6908524Y23143110D01*
X6910446Y23130739D01*
X7010146Y22856991D01*
X7161336Y22607954D01*
X7358205Y22393198D01*
X7593188Y22220975D01*
X7857255Y22097904D01*
X8140258Y22028715D01*
X8373000Y22172768D01*
X8373000Y23373000D01*
X8627000Y23373000D01*
X8627000Y22172768D01*
X8859742Y22028715D01*
X9142745Y22097904D01*
X9406812Y22220975D01*
X9641795Y22393198D01*
X9838664Y22607954D01*
X9989854Y22856991D01*
X10089554Y23130739D01*
X10091200Y23141335D01*
X14565000Y23141335D01*
X14565000Y22858665D01*
X14620147Y22581426D01*
X14728320Y22320273D01*
X14885363Y22085241D01*
X15085241Y21885363D01*
X15320273Y21728320D01*
X15581426Y21620147D01*
X15858665Y21565000D01*
X16141335Y21565000D01*
X16418574Y21620147D01*
X16679727Y21728320D01*
X16914759Y21885363D01*
X17114637Y22085241D01*
X17271680Y22320273D01*
X17379853Y22581426D01*
X17435000Y22858665D01*
X17435000Y23141335D01*
X17379853Y23418574D01*
X17271680Y23679727D01*
X17114637Y23914759D01*
X16914759Y24114637D01*
X16679727Y24271680D01*
X16418574Y24379853D01*
X16141335Y24435000D01*
X15858665Y24435000D01*
X15581426Y24379853D01*
X15320273Y24271680D01*
X15085241Y24114637D01*
X14885363Y23914759D01*
X14728320Y23679727D01*
X14620147Y23418574D01*
X14565000Y23141335D01*
X10091200Y23141335D01*
X10091476Y23143110D01*
X9970155Y23373000D01*
X8627000Y23373000D01*
X8373000Y23373000D01*
X7029845Y23373000D01*
X6908524Y23143110D01*
X660000Y23143110D01*
X660000Y26600000D01*
X6861928Y26600000D01*
X6861928Y25400000D01*
X6878992Y25226746D01*
X6929528Y25060150D01*
X7011595Y24906614D01*
X7122038Y24772038D01*
X7256614Y24661595D01*
X7358593Y24607086D01*
X7358205Y24606802D01*
X7161336Y24392046D01*
X7010146Y24143009D01*
X6910446Y23869261D01*
X6908524Y23856890D01*
X7029845Y23627000D01*
X8373000Y23627000D01*
X8373000Y23647000D01*
X8627000Y23647000D01*
X8627000Y23627000D01*
X9970155Y23627000D01*
X10091476Y23856890D01*
X10089554Y23869261D01*
X9989854Y24143009D01*
X9838664Y24392046D01*
X9641795Y24606802D01*
X9641407Y24607086D01*
X9743386Y24661595D01*
X9877962Y24772038D01*
X9988405Y24906614D01*
X10070472Y25060150D01*
X10121008Y25226746D01*
X10138072Y25400000D01*
X10138072Y26521335D01*
X14565000Y26521335D01*
X14565000Y26238665D01*
X14620147Y25961426D01*
X14728320Y25700273D01*
X14885363Y25465241D01*
X15085241Y25265363D01*
X15320273Y25108320D01*
X15581426Y25000147D01*
X15858665Y24945000D01*
X16141335Y24945000D01*
X16418574Y25000147D01*
X16679727Y25108320D01*
X16914759Y25265363D01*
X17114637Y25465241D01*
X17271680Y25700273D01*
X17379853Y25961426D01*
X17385532Y25989977D01*
X33665000Y25989977D01*
X33665000Y25530023D01*
X33754733Y25078906D01*
X33930750Y24653963D01*
X34186287Y24271524D01*
X34511524Y23946287D01*
X34893963Y23690750D01*
X35318906Y23514733D01*
X35770023Y23425000D01*
X36229977Y23425000D01*
X36681094Y23514733D01*
X37106037Y23690750D01*
X37488476Y23946287D01*
X37813713Y24271524D01*
X37899557Y24400000D01*
X69461928Y24400000D01*
X69461928Y22600000D01*
X69474188Y22475518D01*
X69510498Y22355820D01*
X69569463Y22245506D01*
X69648815Y22148815D01*
X69745506Y22069463D01*
X69855820Y22010498D01*
X69874127Y22004944D01*
X69807688Y21938505D01*
X69639701Y21687095D01*
X69523989Y21407743D01*
X69465000Y21111184D01*
X69465000Y20808816D01*
X69523989Y20512257D01*
X69639701Y20232905D01*
X69807688Y19981495D01*
X70021495Y19767688D01*
X70272905Y19599701D01*
X70552257Y19483989D01*
X70848816Y19425000D01*
X71151184Y19425000D01*
X71447743Y19483989D01*
X71727095Y19599701D01*
X71978505Y19767688D01*
X72192312Y19981495D01*
X72360299Y20232905D01*
X72476011Y20512257D01*
X72535000Y20808816D01*
X72535000Y21111184D01*
X72476011Y21407743D01*
X72360299Y21687095D01*
X72192312Y21938505D01*
X72125873Y22004944D01*
X72144180Y22010498D01*
X72254494Y22069463D01*
X72351185Y22148815D01*
X72430537Y22245506D01*
X72489502Y22355820D01*
X72525812Y22475518D01*
X72538072Y22600000D01*
X72538072Y24400000D01*
X72525812Y24524482D01*
X72489502Y24644180D01*
X72430537Y24754494D01*
X72351185Y24851185D01*
X72254494Y24930537D01*
X72144180Y24989502D01*
X72024482Y25025812D01*
X71900000Y25038072D01*
X70100000Y25038072D01*
X69975518Y25025812D01*
X69855820Y24989502D01*
X69745506Y24930537D01*
X69648815Y24851185D01*
X69569463Y24754494D01*
X69510498Y24644180D01*
X69474188Y24524482D01*
X69461928Y24400000D01*
X37899557Y24400000D01*
X38069250Y24653963D01*
X38245267Y25078906D01*
X38335000Y25530023D01*
X38335000Y25989977D01*
X38245267Y26441094D01*
X38069250Y26866037D01*
X37813713Y27248476D01*
X37488476Y27573713D01*
X37106037Y27829250D01*
X36681094Y28005267D01*
X36229977Y28095000D01*
X35770023Y28095000D01*
X35318906Y28005267D01*
X34893963Y27829250D01*
X34511524Y27573713D01*
X34186287Y27248476D01*
X33930750Y26866037D01*
X33754733Y26441094D01*
X33665000Y25989977D01*
X17385532Y25989977D01*
X17435000Y26238665D01*
X17435000Y26521335D01*
X17379853Y26798574D01*
X17271680Y27059727D01*
X17114637Y27294759D01*
X16914759Y27494637D01*
X16679727Y27651680D01*
X16418574Y27759853D01*
X16141335Y27815000D01*
X15858665Y27815000D01*
X15581426Y27759853D01*
X15320273Y27651680D01*
X15085241Y27494637D01*
X14885363Y27294759D01*
X14728320Y27059727D01*
X14620147Y26798574D01*
X14565000Y26521335D01*
X10138072Y26521335D01*
X10138072Y26600000D01*
X10121008Y26773254D01*
X10070472Y26939850D01*
X9988405Y27093386D01*
X9877962Y27227962D01*
X9743386Y27338405D01*
X9589850Y27420472D01*
X9423254Y27471008D01*
X9250000Y27488072D01*
X7750000Y27488072D01*
X7576746Y27471008D01*
X7410150Y27420472D01*
X7256614Y27338405D01*
X7122038Y27227962D01*
X7011595Y27093386D01*
X6929528Y26939850D01*
X6878992Y26773254D01*
X6861928Y26600000D01*
X660000Y26600000D01*
X660000Y31141335D01*
X71565000Y31141335D01*
X71565000Y30858665D01*
X71620147Y30581426D01*
X71728320Y30320273D01*
X71885363Y30085241D01*
X72085241Y29885363D01*
X72320273Y29728320D01*
X72581426Y29620147D01*
X72858665Y29565000D01*
X73141335Y29565000D01*
X73418574Y29620147D01*
X73679727Y29728320D01*
X73787003Y29800000D01*
X79061928Y29800000D01*
X79061928Y27200000D01*
X79074188Y27075518D01*
X79110498Y26955820D01*
X79169463Y26845506D01*
X79248815Y26748815D01*
X79345506Y26669463D01*
X79455820Y26610498D01*
X79575518Y26574188D01*
X79700000Y26561928D01*
X82300000Y26561928D01*
X82424482Y26574188D01*
X82544180Y26610498D01*
X82654494Y26669463D01*
X82751185Y26748815D01*
X82830537Y26845506D01*
X82889502Y26955820D01*
X82925812Y27075518D01*
X82938072Y27200000D01*
X82938072Y29800000D01*
X82925812Y29924482D01*
X82889502Y30044180D01*
X82830537Y30154494D01*
X82751185Y30251185D01*
X82654494Y30330537D01*
X82544180Y30389502D01*
X82424482Y30425812D01*
X82300000Y30438072D01*
X79700000Y30438072D01*
X79575518Y30425812D01*
X79455820Y30389502D01*
X79345506Y30330537D01*
X79248815Y30251185D01*
X79169463Y30154494D01*
X79110498Y30044180D01*
X79074188Y29924482D01*
X79061928Y29800000D01*
X73787003Y29800000D01*
X73914759Y29885363D01*
X74114637Y30085241D01*
X74271680Y30320273D01*
X74379853Y30581426D01*
X74435000Y30858665D01*
X74435000Y31141335D01*
X74379853Y31418574D01*
X74271680Y31679727D01*
X74114637Y31914759D01*
X73914759Y32114637D01*
X73679727Y32271680D01*
X73418574Y32379853D01*
X73141335Y32435000D01*
X72858665Y32435000D01*
X72581426Y32379853D01*
X72320273Y32271680D01*
X72085241Y32114637D01*
X71885363Y31914759D01*
X71728320Y31679727D01*
X71620147Y31418574D01*
X71565000Y31141335D01*
X660000Y31141335D01*
X660000Y34143110D01*
X6908524Y34143110D01*
X6910446Y34130739D01*
X7010146Y33856991D01*
X7161336Y33607954D01*
X7358205Y33393198D01*
X7593188Y33220975D01*
X7857255Y33097904D01*
X8140258Y33028715D01*
X8373000Y33172768D01*
X8373000Y34373000D01*
X8627000Y34373000D01*
X8627000Y33172768D01*
X8859742Y33028715D01*
X9142745Y33097904D01*
X9406812Y33220975D01*
X9641795Y33393198D01*
X9838664Y33607954D01*
X9989854Y33856991D01*
X10089554Y34130739D01*
X10091200Y34141335D01*
X14565000Y34141335D01*
X14565000Y33858665D01*
X14620147Y33581426D01*
X14728320Y33320273D01*
X14885363Y33085241D01*
X15085241Y32885363D01*
X15320273Y32728320D01*
X15581426Y32620147D01*
X15858665Y32565000D01*
X16141335Y32565000D01*
X16418574Y32620147D01*
X16679727Y32728320D01*
X16914759Y32885363D01*
X17114637Y33085241D01*
X17271680Y33320273D01*
X17379853Y33581426D01*
X17423330Y33800000D01*
X21561928Y33800000D01*
X21561928Y32200000D01*
X21574188Y32075518D01*
X21610498Y31955820D01*
X21669463Y31845506D01*
X21748815Y31748815D01*
X21845506Y31669463D01*
X21955820Y31610498D01*
X22075518Y31574188D01*
X22200000Y31561928D01*
X23800000Y31561928D01*
X23924482Y31574188D01*
X24044180Y31610498D01*
X24154494Y31669463D01*
X24251185Y31748815D01*
X24330537Y31845506D01*
X24389502Y31955820D01*
X24405117Y32007298D01*
X24686903Y32007298D01*
X24758486Y31763329D01*
X25013996Y31642429D01*
X25288184Y31573700D01*
X25570512Y31559783D01*
X25850130Y31601213D01*
X26116292Y31696397D01*
X26241514Y31763329D01*
X26313097Y32007298D01*
X25500000Y32820395D01*
X24686903Y32007298D01*
X24405117Y32007298D01*
X24425812Y32075518D01*
X24438072Y32200000D01*
X24438072Y32207215D01*
X24507298Y32186903D01*
X25320395Y33000000D01*
X25679605Y33000000D01*
X26492702Y32186903D01*
X26736671Y32258486D01*
X26857571Y32513996D01*
X26926300Y32788184D01*
X26940217Y33070512D01*
X26898787Y33350130D01*
X26803603Y33616292D01*
X26736671Y33741514D01*
X26492702Y33813097D01*
X25679605Y33000000D01*
X25320395Y33000000D01*
X24507298Y33813097D01*
X24438072Y33792785D01*
X24438072Y33800000D01*
X24425812Y33924482D01*
X24405118Y33992702D01*
X24686903Y33992702D01*
X25500000Y33179605D01*
X26313097Y33992702D01*
X26241514Y34236671D01*
X25986004Y34357571D01*
X25711816Y34426300D01*
X25429488Y34440217D01*
X25149870Y34398787D01*
X24883708Y34303603D01*
X24758486Y34236671D01*
X24686903Y33992702D01*
X24405118Y33992702D01*
X24389502Y34044180D01*
X24330537Y34154494D01*
X24251185Y34251185D01*
X24154494Y34330537D01*
X24044180Y34389502D01*
X23924482Y34425812D01*
X23800000Y34438072D01*
X22200000Y34438072D01*
X22075518Y34425812D01*
X21955820Y34389502D01*
X21845506Y34330537D01*
X21748815Y34251185D01*
X21669463Y34154494D01*
X21610498Y34044180D01*
X21574188Y33924482D01*
X21561928Y33800000D01*
X17423330Y33800000D01*
X17435000Y33858665D01*
X17435000Y34141335D01*
X17379853Y34418574D01*
X17271680Y34679727D01*
X17114637Y34914759D01*
X16914759Y35114637D01*
X16679727Y35271680D01*
X16418574Y35379853D01*
X16141335Y35435000D01*
X15858665Y35435000D01*
X15581426Y35379853D01*
X15320273Y35271680D01*
X15085241Y35114637D01*
X14885363Y34914759D01*
X14728320Y34679727D01*
X14620147Y34418574D01*
X14565000Y34141335D01*
X10091200Y34141335D01*
X10091476Y34143110D01*
X9970155Y34373000D01*
X8627000Y34373000D01*
X8373000Y34373000D01*
X7029845Y34373000D01*
X6908524Y34143110D01*
X660000Y34143110D01*
X660000Y37600000D01*
X6861928Y37600000D01*
X6861928Y36400000D01*
X6878992Y36226746D01*
X6929528Y36060150D01*
X7011595Y35906614D01*
X7122038Y35772038D01*
X7256614Y35661595D01*
X7358593Y35607086D01*
X7358205Y35606802D01*
X7161336Y35392046D01*
X7010146Y35143009D01*
X6910446Y34869261D01*
X6908524Y34856890D01*
X7029845Y34627000D01*
X8373000Y34627000D01*
X8373000Y34647000D01*
X8627000Y34647000D01*
X8627000Y34627000D01*
X9970155Y34627000D01*
X10091476Y34856890D01*
X10089554Y34869261D01*
X9989854Y35143009D01*
X9838664Y35392046D01*
X9641795Y35606802D01*
X9641407Y35607086D01*
X9743386Y35661595D01*
X9877962Y35772038D01*
X9988405Y35906614D01*
X10070472Y36060150D01*
X10121008Y36226746D01*
X10138072Y36400000D01*
X10138072Y37600000D01*
X10121008Y37773254D01*
X10070472Y37939850D01*
X9988405Y38093386D01*
X9877962Y38227962D01*
X9743386Y38338405D01*
X9589850Y38420472D01*
X9423254Y38471008D01*
X9250000Y38488072D01*
X7750000Y38488072D01*
X7576746Y38471008D01*
X7410150Y38420472D01*
X7256614Y38338405D01*
X7122038Y38227962D01*
X7011595Y38093386D01*
X6929528Y37939850D01*
X6878992Y37773254D01*
X6861928Y37600000D01*
X660000Y37600000D01*
X660000Y38761335D01*
X71565000Y38761335D01*
X71565000Y38478665D01*
X71620147Y38201426D01*
X71728320Y37940273D01*
X71885363Y37705241D01*
X72085241Y37505363D01*
X72320273Y37348320D01*
X72581426Y37240147D01*
X72858665Y37185000D01*
X73141335Y37185000D01*
X73418574Y37240147D01*
X73679727Y37348320D01*
X73914759Y37505363D01*
X74114637Y37705241D01*
X74271680Y37940273D01*
X74379853Y38201426D01*
X74435000Y38478665D01*
X74435000Y38761335D01*
X74379853Y39038574D01*
X74271680Y39299727D01*
X74114637Y39534759D01*
X73914759Y39734637D01*
X73679727Y39891680D01*
X73418574Y39999853D01*
X73141335Y40055000D01*
X72858665Y40055000D01*
X72581426Y39999853D01*
X72320273Y39891680D01*
X72085241Y39734637D01*
X71885363Y39534759D01*
X71728320Y39299727D01*
X71620147Y39038574D01*
X71565000Y38761335D01*
X660000Y38761335D01*
X660000Y40772515D01*
X79112807Y40772515D01*
X79232467Y40412556D01*
X79420052Y40082858D01*
X79668354Y39796091D01*
X79967830Y39563275D01*
X80306972Y39393358D01*
X80572516Y39312811D01*
X80873000Y39428296D01*
X80873000Y41073000D01*
X81127000Y41073000D01*
X81127000Y39428296D01*
X81427484Y39312811D01*
X81693028Y39393358D01*
X82032170Y39563275D01*
X82331646Y39796091D01*
X82579948Y40082858D01*
X82767533Y40412556D01*
X82887193Y40772515D01*
X82772082Y41073000D01*
X81127000Y41073000D01*
X80873000Y41073000D01*
X79227918Y41073000D01*
X79112807Y40772515D01*
X660000Y40772515D01*
X660000Y41627485D01*
X79112807Y41627485D01*
X79227918Y41327000D01*
X80873000Y41327000D01*
X80873000Y42971704D01*
X81127000Y42971704D01*
X81127000Y41327000D01*
X82772082Y41327000D01*
X82887193Y41627485D01*
X82767533Y41987444D01*
X82579948Y42317142D01*
X82331646Y42603909D01*
X82032170Y42836725D01*
X81693028Y43006642D01*
X81427484Y43087189D01*
X81127000Y42971704D01*
X80873000Y42971704D01*
X80572516Y43087189D01*
X80306972Y43006642D01*
X79967830Y42836725D01*
X79668354Y42603909D01*
X79420052Y42317142D01*
X79232467Y41987444D01*
X79112807Y41627485D01*
X660000Y41627485D01*
X660000Y45250000D01*
X7159025Y45250000D01*
X7182870Y45007898D01*
X7253489Y44775099D01*
X7368167Y44560551D01*
X7522498Y44372498D01*
X7710551Y44218167D01*
X7925099Y44103489D01*
X8157898Y44032870D01*
X8339335Y44015000D01*
X9660665Y44015000D01*
X9842102Y44032870D01*
X10074901Y44103489D01*
X10289449Y44218167D01*
X10477502Y44372498D01*
X10631833Y44560551D01*
X10746511Y44775099D01*
X10817130Y45007898D01*
X10840975Y45250000D01*
X10817130Y45492102D01*
X10746511Y45724901D01*
X10631833Y45939449D01*
X10477502Y46127502D01*
X10289449Y46281833D01*
X10074901Y46396511D01*
X9842102Y46467130D01*
X9660665Y46485000D01*
X8339335Y46485000D01*
X8157898Y46467130D01*
X7925099Y46396511D01*
X7710551Y46281833D01*
X7522498Y46127502D01*
X7368167Y45939449D01*
X7253489Y45724901D01*
X7182870Y45492102D01*
X7159025Y45250000D01*
X660000Y45250000D01*
X660000Y46653536D01*
X13433141Y46653536D01*
X13632200Y46301318D01*
X14067914Y46074799D01*
X14539448Y45937636D01*
X15028681Y45895100D01*
X15516812Y45948827D01*
X15985081Y46096750D01*
X16367800Y46301318D01*
X16566859Y46653536D01*
X15000000Y48220395D01*
X13433141Y46653536D01*
X660000Y46653536D01*
X660000Y48371319D01*
X12495100Y48371319D01*
X12548827Y47883188D01*
X12696750Y47414919D01*
X12901318Y47032200D01*
X13253536Y46833141D01*
X14820395Y48400000D01*
X15179605Y48400000D01*
X16746464Y46833141D01*
X17098682Y47032200D01*
X17325201Y47467914D01*
X17462364Y47939448D01*
X17494579Y48309977D01*
X33665000Y48309977D01*
X33665000Y47850023D01*
X33754733Y47398906D01*
X33930750Y46973963D01*
X34186287Y46591524D01*
X34511524Y46266287D01*
X34893963Y46010750D01*
X35318906Y45834733D01*
X35770023Y45745000D01*
X36229977Y45745000D01*
X36681094Y45834733D01*
X37106037Y46010750D01*
X37488476Y46266287D01*
X37813713Y46591524D01*
X38069250Y46973963D01*
X38245267Y47398906D01*
X38335000Y47850023D01*
X38335000Y48309977D01*
X38245267Y48761094D01*
X38069250Y49186037D01*
X37813713Y49568476D01*
X37488476Y49893713D01*
X37106037Y50149250D01*
X36681094Y50325267D01*
X36229977Y50415000D01*
X35770023Y50415000D01*
X35318906Y50325267D01*
X34893963Y50149250D01*
X34511524Y49893713D01*
X34186287Y49568476D01*
X33930750Y49186037D01*
X33754733Y48761094D01*
X33665000Y48309977D01*
X17494579Y48309977D01*
X17504900Y48428681D01*
X17451173Y48916812D01*
X17303250Y49385081D01*
X17098682Y49767800D01*
X16746464Y49966859D01*
X15179605Y48400000D01*
X14820395Y48400000D01*
X13253536Y49966859D01*
X12901318Y49767800D01*
X12674799Y49332086D01*
X12537636Y48860552D01*
X12495100Y48371319D01*
X660000Y48371319D01*
X660000Y50146464D01*
X13433141Y50146464D01*
X15000000Y48579605D01*
X16566859Y50146464D01*
X16367800Y50498682D01*
X15932086Y50725201D01*
X15460552Y50862364D01*
X14971319Y50904900D01*
X14483188Y50851173D01*
X14014919Y50703250D01*
X13632200Y50498682D01*
X13433141Y50146464D01*
X660000Y50146464D01*
X660000Y52800000D01*
X80561928Y52800000D01*
X80561928Y51200000D01*
X80574188Y51075518D01*
X80610498Y50955820D01*
X80669463Y50845506D01*
X80748815Y50748815D01*
X80845506Y50669463D01*
X80955820Y50610498D01*
X81075518Y50574188D01*
X81200000Y50561928D01*
X82800000Y50561928D01*
X82924482Y50574188D01*
X83044180Y50610498D01*
X83154494Y50669463D01*
X83251185Y50748815D01*
X83330537Y50845506D01*
X83389502Y50955820D01*
X83425812Y51075518D01*
X83438072Y51200000D01*
X83438072Y52800000D01*
X83425812Y52924482D01*
X83389502Y53044180D01*
X83330537Y53154494D01*
X83251185Y53251185D01*
X83154494Y53330537D01*
X83044180Y53389502D01*
X82924482Y53425812D01*
X82800000Y53438072D01*
X82792785Y53438072D01*
X82813097Y53507298D01*
X82000000Y54320395D01*
X81186903Y53507298D01*
X81207215Y53438072D01*
X81200000Y53438072D01*
X81075518Y53425812D01*
X80955820Y53389502D01*
X80845506Y53330537D01*
X80748815Y53251185D01*
X80669463Y53154494D01*
X80610498Y53044180D01*
X80574188Y52924482D01*
X80561928Y52800000D01*
X660000Y52800000D01*
X660000Y57458000D01*
X12503928Y57458000D01*
X12503928Y53742000D01*
X12516188Y53617518D01*
X12552498Y53497820D01*
X12611463Y53387506D01*
X12690815Y53290815D01*
X12787506Y53211463D01*
X12897820Y53152498D01*
X13017518Y53116188D01*
X13142000Y53103928D01*
X16858000Y53103928D01*
X16982482Y53116188D01*
X17102180Y53152498D01*
X17212494Y53211463D01*
X17309185Y53290815D01*
X17388537Y53387506D01*
X17447502Y53497820D01*
X17483812Y53617518D01*
X17496072Y53742000D01*
X17496072Y55929977D01*
X33665000Y55929977D01*
X33665000Y55470023D01*
X33754733Y55018906D01*
X33930750Y54593963D01*
X34186287Y54211524D01*
X34511524Y53886287D01*
X34893963Y53630750D01*
X35318906Y53454733D01*
X35770023Y53365000D01*
X36229977Y53365000D01*
X36681094Y53454733D01*
X37106037Y53630750D01*
X37488476Y53886287D01*
X37813713Y54211524D01*
X37959351Y54429488D01*
X80559783Y54429488D01*
X80601213Y54149870D01*
X80696397Y53883708D01*
X80763329Y53758486D01*
X81007298Y53686903D01*
X81820395Y54500000D01*
X82179605Y54500000D01*
X82992702Y53686903D01*
X83236671Y53758486D01*
X83357571Y54013996D01*
X83426300Y54288184D01*
X83440217Y54570512D01*
X83398787Y54850130D01*
X83303603Y55116292D01*
X83236671Y55241514D01*
X82992702Y55313097D01*
X82179605Y54500000D01*
X81820395Y54500000D01*
X81007298Y55313097D01*
X80763329Y55241514D01*
X80642429Y54986004D01*
X80573700Y54711816D01*
X80559783Y54429488D01*
X37959351Y54429488D01*
X38069250Y54593963D01*
X38245267Y55018906D01*
X38335000Y55470023D01*
X38335000Y55492702D01*
X81186903Y55492702D01*
X82000000Y54679605D01*
X82813097Y55492702D01*
X82741514Y55736671D01*
X82486004Y55857571D01*
X82211816Y55926300D01*
X81929488Y55940217D01*
X81649870Y55898787D01*
X81383708Y55803603D01*
X81258486Y55736671D01*
X81186903Y55492702D01*
X38335000Y55492702D01*
X38335000Y55929977D01*
X38245267Y56381094D01*
X38069250Y56806037D01*
X37813713Y57188476D01*
X37488476Y57513713D01*
X37106037Y57769250D01*
X36681094Y57945267D01*
X36229977Y58035000D01*
X35770023Y58035000D01*
X35318906Y57945267D01*
X34893963Y57769250D01*
X34511524Y57513713D01*
X34186287Y57188476D01*
X33930750Y56806037D01*
X33754733Y56381094D01*
X33665000Y55929977D01*
X17496072Y55929977D01*
X17496072Y57458000D01*
X17483812Y57582482D01*
X17447502Y57702180D01*
X17388537Y57812494D01*
X17309185Y57909185D01*
X17212494Y57988537D01*
X17102180Y58047502D01*
X16982482Y58083812D01*
X16858000Y58096072D01*
X13142000Y58096072D01*
X13017518Y58083812D01*
X12897820Y58047502D01*
X12787506Y57988537D01*
X12690815Y57909185D01*
X12611463Y57812494D01*
X12552498Y57702180D01*
X12516188Y57582482D01*
X12503928Y57458000D01*
X660000Y57458000D01*
X660000Y58750000D01*
X7159025Y58750000D01*
X7182870Y58507898D01*
X7253489Y58275099D01*
X7368167Y58060551D01*
X7522498Y57872498D01*
X7710551Y57718167D01*
X7925099Y57603489D01*
X8157898Y57532870D01*
X8339335Y57515000D01*
X9660665Y57515000D01*
X9842102Y57532870D01*
X10074901Y57603489D01*
X10289449Y57718167D01*
X10477502Y57872498D01*
X10631833Y58060551D01*
X10746511Y58275099D01*
X10817130Y58507898D01*
X10840975Y58750000D01*
X10817130Y58992102D01*
X10746511Y59224901D01*
X10631833Y59439449D01*
X10477502Y59627502D01*
X10289449Y59781833D01*
X10074901Y59896511D01*
X9842102Y59967130D01*
X9660665Y59985000D01*
X8339335Y59985000D01*
X8157898Y59967130D01*
X7925099Y59896511D01*
X7710551Y59781833D01*
X7522498Y59627502D01*
X7368167Y59439449D01*
X7253489Y59224901D01*
X7182870Y58992102D01*
X7159025Y58750000D01*
X660000Y58750000D01*
X660000Y64640258D01*
X14028715Y64640258D01*
X14097904Y64357255D01*
X14220975Y64093188D01*
X14393198Y63858205D01*
X14607954Y63661336D01*
X14856991Y63510146D01*
X15130739Y63410446D01*
X15143110Y63408524D01*
X15373000Y63529845D01*
X15373000Y64873000D01*
X14172768Y64873000D01*
X14028715Y64640258D01*
X660000Y64640258D01*
X660000Y65359742D01*
X14028715Y65359742D01*
X14172768Y65127000D01*
X15373000Y65127000D01*
X15373000Y66470155D01*
X15627000Y66470155D01*
X15627000Y65127000D01*
X15647000Y65127000D01*
X15647000Y64873000D01*
X15627000Y64873000D01*
X15627000Y63529845D01*
X15856890Y63408524D01*
X15869261Y63410446D01*
X16143009Y63510146D01*
X16392046Y63661336D01*
X16606802Y63858205D01*
X16607086Y63858593D01*
X16661595Y63756614D01*
X16772038Y63622038D01*
X16906614Y63511595D01*
X17060150Y63429528D01*
X17226746Y63378992D01*
X17400000Y63361928D01*
X18600000Y63361928D01*
X18773254Y63378992D01*
X18939850Y63429528D01*
X19093386Y63511595D01*
X19227962Y63622038D01*
X19338405Y63756614D01*
X19420472Y63910150D01*
X19471008Y64076746D01*
X19488072Y64250000D01*
X19488072Y64640258D01*
X25028715Y64640258D01*
X25097904Y64357255D01*
X25220975Y64093188D01*
X25393198Y63858205D01*
X25607954Y63661336D01*
X25856991Y63510146D01*
X26130739Y63410446D01*
X26143110Y63408524D01*
X26373000Y63529845D01*
X26373000Y64873000D01*
X25172768Y64873000D01*
X25028715Y64640258D01*
X19488072Y64640258D01*
X19488072Y65359742D01*
X25028715Y65359742D01*
X25172768Y65127000D01*
X26373000Y65127000D01*
X26373000Y66470155D01*
X26627000Y66470155D01*
X26627000Y65127000D01*
X26647000Y65127000D01*
X26647000Y64873000D01*
X26627000Y64873000D01*
X26627000Y63529845D01*
X26856890Y63408524D01*
X26869261Y63410446D01*
X27143009Y63510146D01*
X27392046Y63661336D01*
X27606802Y63858205D01*
X27607086Y63858593D01*
X27661595Y63756614D01*
X27772038Y63622038D01*
X27906614Y63511595D01*
X28060150Y63429528D01*
X28226746Y63378992D01*
X28400000Y63361928D01*
X29600000Y63361928D01*
X29773254Y63378992D01*
X29939850Y63429528D01*
X30093386Y63511595D01*
X30227962Y63622038D01*
X30338405Y63756614D01*
X30420472Y63910150D01*
X30471008Y64076746D01*
X30488072Y64250000D01*
X30488072Y64640258D01*
X36028715Y64640258D01*
X36097904Y64357255D01*
X36220975Y64093188D01*
X36393198Y63858205D01*
X36607954Y63661336D01*
X36856991Y63510146D01*
X37130739Y63410446D01*
X37143110Y63408524D01*
X37373000Y63529845D01*
X37373000Y64873000D01*
X36172768Y64873000D01*
X36028715Y64640258D01*
X30488072Y64640258D01*
X30488072Y65359742D01*
X36028715Y65359742D01*
X36172768Y65127000D01*
X37373000Y65127000D01*
X37373000Y66470155D01*
X37627000Y66470155D01*
X37627000Y65127000D01*
X37647000Y65127000D01*
X37647000Y64873000D01*
X37627000Y64873000D01*
X37627000Y63529845D01*
X37856890Y63408524D01*
X37869261Y63410446D01*
X38143009Y63510146D01*
X38392046Y63661336D01*
X38606802Y63858205D01*
X38607086Y63858593D01*
X38661595Y63756614D01*
X38772038Y63622038D01*
X38906614Y63511595D01*
X39060150Y63429528D01*
X39226746Y63378992D01*
X39400000Y63361928D01*
X40600000Y63361928D01*
X40773254Y63378992D01*
X40939850Y63429528D01*
X41093386Y63511595D01*
X41227962Y63622038D01*
X41338405Y63756614D01*
X41420472Y63910150D01*
X41471008Y64076746D01*
X41488072Y64250000D01*
X41488072Y64640258D01*
X47028715Y64640258D01*
X47097904Y64357255D01*
X47220975Y64093188D01*
X47393198Y63858205D01*
X47607954Y63661336D01*
X47856991Y63510146D01*
X48130739Y63410446D01*
X48143110Y63408524D01*
X48373000Y63529845D01*
X48373000Y64873000D01*
X47172768Y64873000D01*
X47028715Y64640258D01*
X41488072Y64640258D01*
X41488072Y65359742D01*
X47028715Y65359742D01*
X47172768Y65127000D01*
X48373000Y65127000D01*
X48373000Y66470155D01*
X48627000Y66470155D01*
X48627000Y65127000D01*
X48647000Y65127000D01*
X48647000Y64873000D01*
X48627000Y64873000D01*
X48627000Y63529845D01*
X48856890Y63408524D01*
X48869261Y63410446D01*
X49143009Y63510146D01*
X49392046Y63661336D01*
X49606802Y63858205D01*
X49607086Y63858593D01*
X49661595Y63756614D01*
X49772038Y63622038D01*
X49906614Y63511595D01*
X50060150Y63429528D01*
X50226746Y63378992D01*
X50400000Y63361928D01*
X51600000Y63361928D01*
X51773254Y63378992D01*
X51939850Y63429528D01*
X52093386Y63511595D01*
X52227962Y63622038D01*
X52338405Y63756614D01*
X52420472Y63910150D01*
X52471008Y64076746D01*
X52488072Y64250000D01*
X52488072Y64640258D01*
X58028715Y64640258D01*
X58097904Y64357255D01*
X58220975Y64093188D01*
X58393198Y63858205D01*
X58607954Y63661336D01*
X58856991Y63510146D01*
X59130739Y63410446D01*
X59143110Y63408524D01*
X59373000Y63529845D01*
X59373000Y64873000D01*
X58172768Y64873000D01*
X58028715Y64640258D01*
X52488072Y64640258D01*
X52488072Y65359742D01*
X58028715Y65359742D01*
X58172768Y65127000D01*
X59373000Y65127000D01*
X59373000Y66470155D01*
X59627000Y66470155D01*
X59627000Y65127000D01*
X59647000Y65127000D01*
X59647000Y64873000D01*
X59627000Y64873000D01*
X59627000Y63529845D01*
X59856890Y63408524D01*
X59869261Y63410446D01*
X60143009Y63510146D01*
X60392046Y63661336D01*
X60606802Y63858205D01*
X60607086Y63858593D01*
X60661595Y63756614D01*
X60772038Y63622038D01*
X60906614Y63511595D01*
X61060150Y63429528D01*
X61226746Y63378992D01*
X61400000Y63361928D01*
X62600000Y63361928D01*
X62773254Y63378992D01*
X62939850Y63429528D01*
X63093386Y63511595D01*
X63227962Y63622038D01*
X63338405Y63756614D01*
X63420472Y63910150D01*
X63471008Y64076746D01*
X63488072Y64250000D01*
X63488072Y64640258D01*
X69028715Y64640258D01*
X69097904Y64357255D01*
X69220975Y64093188D01*
X69393198Y63858205D01*
X69607954Y63661336D01*
X69856991Y63510146D01*
X70130739Y63410446D01*
X70143110Y63408524D01*
X70373000Y63529845D01*
X70373000Y64873000D01*
X69172768Y64873000D01*
X69028715Y64640258D01*
X63488072Y64640258D01*
X63488072Y65359742D01*
X69028715Y65359742D01*
X69172768Y65127000D01*
X70373000Y65127000D01*
X70373000Y66470155D01*
X70627000Y66470155D01*
X70627000Y65127000D01*
X70647000Y65127000D01*
X70647000Y64873000D01*
X70627000Y64873000D01*
X70627000Y63529845D01*
X70856890Y63408524D01*
X70869261Y63410446D01*
X71143009Y63510146D01*
X71392046Y63661336D01*
X71606802Y63858205D01*
X71607086Y63858593D01*
X71661595Y63756614D01*
X71772038Y63622038D01*
X71906614Y63511595D01*
X72060150Y63429528D01*
X72226746Y63378992D01*
X72400000Y63361928D01*
X73600000Y63361928D01*
X73773254Y63378992D01*
X73939850Y63429528D01*
X74093386Y63511595D01*
X74227962Y63622038D01*
X74338405Y63756614D01*
X74420472Y63910150D01*
X74471008Y64076746D01*
X74488072Y64250000D01*
X74488072Y64640258D01*
X80028715Y64640258D01*
X80097904Y64357255D01*
X80220975Y64093188D01*
X80393198Y63858205D01*
X80607954Y63661336D01*
X80856991Y63510146D01*
X81130739Y63410446D01*
X81143110Y63408524D01*
X81373000Y63529845D01*
X81373000Y64873000D01*
X80172768Y64873000D01*
X80028715Y64640258D01*
X74488072Y64640258D01*
X74488072Y65359742D01*
X80028715Y65359742D01*
X80172768Y65127000D01*
X81373000Y65127000D01*
X81373000Y66470155D01*
X81627000Y66470155D01*
X81627000Y65127000D01*
X81647000Y65127000D01*
X81647000Y64873000D01*
X81627000Y64873000D01*
X81627000Y63529845D01*
X81856890Y63408524D01*
X81869261Y63410446D01*
X82143009Y63510146D01*
X82392046Y63661336D01*
X82606802Y63858205D01*
X82607086Y63858593D01*
X82661595Y63756614D01*
X82772038Y63622038D01*
X82906614Y63511595D01*
X83060150Y63429528D01*
X83226746Y63378992D01*
X83400000Y63361928D01*
X84600000Y63361928D01*
X84773254Y63378992D01*
X84939850Y63429528D01*
X85093386Y63511595D01*
X85227962Y63622038D01*
X85338405Y63756614D01*
X85420472Y63910150D01*
X85471008Y64076746D01*
X85488072Y64250000D01*
X85488072Y65750000D01*
X85471008Y65923254D01*
X85420472Y66089850D01*
X85338405Y66243386D01*
X85227962Y66377962D01*
X85093386Y66488405D01*
X84939850Y66570472D01*
X84773254Y66621008D01*
X84600000Y66638072D01*
X83400000Y66638072D01*
X83226746Y66621008D01*
X83060150Y66570472D01*
X82906614Y66488405D01*
X82772038Y66377962D01*
X82661595Y66243386D01*
X82607086Y66141407D01*
X82606802Y66141795D01*
X82392046Y66338664D01*
X82143009Y66489854D01*
X81869261Y66589554D01*
X81856890Y66591476D01*
X81627000Y66470155D01*
X81373000Y66470155D01*
X81143110Y66591476D01*
X81130739Y66589554D01*
X80856991Y66489854D01*
X80607954Y66338664D01*
X80393198Y66141795D01*
X80220975Y65906812D01*
X80097904Y65642745D01*
X80028715Y65359742D01*
X74488072Y65359742D01*
X74488072Y65750000D01*
X74471008Y65923254D01*
X74420472Y66089850D01*
X74338405Y66243386D01*
X74227962Y66377962D01*
X74093386Y66488405D01*
X73939850Y66570472D01*
X73773254Y66621008D01*
X73600000Y66638072D01*
X72400000Y66638072D01*
X72226746Y66621008D01*
X72060150Y66570472D01*
X71906614Y66488405D01*
X71772038Y66377962D01*
X71661595Y66243386D01*
X71607086Y66141407D01*
X71606802Y66141795D01*
X71392046Y66338664D01*
X71143009Y66489854D01*
X70869261Y66589554D01*
X70856890Y66591476D01*
X70627000Y66470155D01*
X70373000Y66470155D01*
X70143110Y66591476D01*
X70130739Y66589554D01*
X69856991Y66489854D01*
X69607954Y66338664D01*
X69393198Y66141795D01*
X69220975Y65906812D01*
X69097904Y65642745D01*
X69028715Y65359742D01*
X63488072Y65359742D01*
X63488072Y65750000D01*
X63471008Y65923254D01*
X63420472Y66089850D01*
X63338405Y66243386D01*
X63227962Y66377962D01*
X63093386Y66488405D01*
X62939850Y66570472D01*
X62773254Y66621008D01*
X62600000Y66638072D01*
X61400000Y66638072D01*
X61226746Y66621008D01*
X61060150Y66570472D01*
X60906614Y66488405D01*
X60772038Y66377962D01*
X60661595Y66243386D01*
X60607086Y66141407D01*
X60606802Y66141795D01*
X60392046Y66338664D01*
X60143009Y66489854D01*
X59869261Y66589554D01*
X59856890Y66591476D01*
X59627000Y66470155D01*
X59373000Y66470155D01*
X59143110Y66591476D01*
X59130739Y66589554D01*
X58856991Y66489854D01*
X58607954Y66338664D01*
X58393198Y66141795D01*
X58220975Y65906812D01*
X58097904Y65642745D01*
X58028715Y65359742D01*
X52488072Y65359742D01*
X52488072Y65750000D01*
X52471008Y65923254D01*
X52420472Y66089850D01*
X52338405Y66243386D01*
X52227962Y66377962D01*
X52093386Y66488405D01*
X51939850Y66570472D01*
X51773254Y66621008D01*
X51600000Y66638072D01*
X50400000Y66638072D01*
X50226746Y66621008D01*
X50060150Y66570472D01*
X49906614Y66488405D01*
X49772038Y66377962D01*
X49661595Y66243386D01*
X49607086Y66141407D01*
X49606802Y66141795D01*
X49392046Y66338664D01*
X49143009Y66489854D01*
X48869261Y66589554D01*
X48856890Y66591476D01*
X48627000Y66470155D01*
X48373000Y66470155D01*
X48143110Y66591476D01*
X48130739Y66589554D01*
X47856991Y66489854D01*
X47607954Y66338664D01*
X47393198Y66141795D01*
X47220975Y65906812D01*
X47097904Y65642745D01*
X47028715Y65359742D01*
X41488072Y65359742D01*
X41488072Y65750000D01*
X41471008Y65923254D01*
X41420472Y66089850D01*
X41338405Y66243386D01*
X41227962Y66377962D01*
X41093386Y66488405D01*
X40939850Y66570472D01*
X40773254Y66621008D01*
X40600000Y66638072D01*
X39400000Y66638072D01*
X39226746Y66621008D01*
X39060150Y66570472D01*
X38906614Y66488405D01*
X38772038Y66377962D01*
X38661595Y66243386D01*
X38607086Y66141407D01*
X38606802Y66141795D01*
X38392046Y66338664D01*
X38143009Y66489854D01*
X37869261Y66589554D01*
X37856890Y66591476D01*
X37627000Y66470155D01*
X37373000Y66470155D01*
X37143110Y66591476D01*
X37130739Y66589554D01*
X36856991Y66489854D01*
X36607954Y66338664D01*
X36393198Y66141795D01*
X36220975Y65906812D01*
X36097904Y65642745D01*
X36028715Y65359742D01*
X30488072Y65359742D01*
X30488072Y65750000D01*
X30471008Y65923254D01*
X30420472Y66089850D01*
X30338405Y66243386D01*
X30227962Y66377962D01*
X30093386Y66488405D01*
X29939850Y66570472D01*
X29773254Y66621008D01*
X29600000Y66638072D01*
X28400000Y66638072D01*
X28226746Y66621008D01*
X28060150Y66570472D01*
X27906614Y66488405D01*
X27772038Y66377962D01*
X27661595Y66243386D01*
X27607086Y66141407D01*
X27606802Y66141795D01*
X27392046Y66338664D01*
X27143009Y66489854D01*
X26869261Y66589554D01*
X26856890Y66591476D01*
X26627000Y66470155D01*
X26373000Y66470155D01*
X26143110Y66591476D01*
X26130739Y66589554D01*
X25856991Y66489854D01*
X25607954Y66338664D01*
X25393198Y66141795D01*
X25220975Y65906812D01*
X25097904Y65642745D01*
X25028715Y65359742D01*
X19488072Y65359742D01*
X19488072Y65750000D01*
X19471008Y65923254D01*
X19420472Y66089850D01*
X19338405Y66243386D01*
X19227962Y66377962D01*
X19093386Y66488405D01*
X18939850Y66570472D01*
X18773254Y66621008D01*
X18600000Y66638072D01*
X17400000Y66638072D01*
X17226746Y66621008D01*
X17060150Y66570472D01*
X16906614Y66488405D01*
X16772038Y66377962D01*
X16661595Y66243386D01*
X16607086Y66141407D01*
X16606802Y66141795D01*
X16392046Y66338664D01*
X16143009Y66489854D01*
X15869261Y66589554D01*
X15856890Y66591476D01*
X15627000Y66470155D01*
X15373000Y66470155D01*
X15143110Y66591476D01*
X15130739Y66589554D01*
X14856991Y66489854D01*
X14607954Y66338664D01*
X14393198Y66141795D01*
X14220975Y65906812D01*
X14097904Y65642745D01*
X14028715Y65359742D01*
X660000Y65359742D01*
X660000Y69967722D01*
X684748Y70220128D01*
X1765000Y70220128D01*
X1765000Y69779872D01*
X1850890Y69348075D01*
X2019369Y68941331D01*
X2263962Y68575271D01*
X2575271Y68263962D01*
X2941331Y68019369D01*
X3348075Y67850890D01*
X3779872Y67765000D01*
X4220128Y67765000D01*
X4651925Y67850890D01*
X5058669Y68019369D01*
X5424729Y68263962D01*
X5736038Y68575271D01*
X5980631Y68941331D01*
X6149110Y69348075D01*
X6235000Y69779872D01*
X6235000Y70220128D01*
X93765000Y70220128D01*
X93765000Y69779872D01*
X93850890Y69348075D01*
X94019369Y68941331D01*
X94263962Y68575271D01*
X94575271Y68263962D01*
X94941331Y68019369D01*
X95348075Y67850890D01*
X95779872Y67765000D01*
X96220128Y67765000D01*
X96651925Y67850890D01*
X97058669Y68019369D01*
X97424729Y68263962D01*
X97736038Y68575271D01*
X97980631Y68941331D01*
X98149110Y69348075D01*
X98235000Y69779872D01*
X98235000Y70220128D01*
X98149110Y70651925D01*
X97980631Y71058669D01*
X97736038Y71424729D01*
X97424729Y71736038D01*
X97058669Y71980631D01*
X96651925Y72149110D01*
X96220128Y72235000D01*
X95779872Y72235000D01*
X95348075Y72149110D01*
X94941331Y71980631D01*
X94575271Y71736038D01*
X94263962Y71424729D01*
X94019369Y71058669D01*
X93850890Y70651925D01*
X93765000Y70220128D01*
X6235000Y70220128D01*
X6149110Y70651925D01*
X5980631Y71058669D01*
X5736038Y71424729D01*
X5424729Y71736038D01*
X5058669Y71980631D01*
X4651925Y72149110D01*
X4220128Y72235000D01*
X3779872Y72235000D01*
X3348075Y72149110D01*
X2941331Y71980631D01*
X2575271Y71736038D01*
X2263962Y71424729D01*
X2019369Y71058669D01*
X1850890Y70651925D01*
X1765000Y70220128D01*
X684748Y70220128D01*
X726714Y70648126D01*
X914943Y71271572D01*
X1220681Y71846579D01*
X1632279Y72351247D01*
X2134067Y72766362D01*
X2706924Y73076105D01*
X3329039Y73268682D01*
X4007584Y73340000D01*
X95967722Y73340000D01*
X96648126Y73273286D01*
%TA.AperFunction,Conductor*%
D27*
G36*
X96648126Y73273286D02*
G01*
X97271572Y73085057D01*
X97846579Y72779319D01*
X98351247Y72367721D01*
X98766362Y71865933D01*
X99076105Y71293076D01*
X99268682Y70670961D01*
X99340000Y69992416D01*
X99340001Y4032289D01*
X99273286Y3351874D01*
X99085057Y2728430D01*
X98779323Y2153427D01*
X98367721Y1648752D01*
X97865933Y1233638D01*
X97293077Y923896D01*
X96670961Y731318D01*
X95992417Y660000D01*
X4032279Y660000D01*
X3351874Y726714D01*
X2728430Y914943D01*
X2153427Y1220677D01*
X1648752Y1632279D01*
X1233638Y2134067D01*
X923896Y2706923D01*
X731318Y3329039D01*
X660000Y4007583D01*
X660000Y4220128D01*
X1765000Y4220128D01*
X1765000Y3779872D01*
X1850890Y3348075D01*
X2019369Y2941331D01*
X2263962Y2575271D01*
X2575271Y2263962D01*
X2941331Y2019369D01*
X3348075Y1850890D01*
X3779872Y1765000D01*
X4220128Y1765000D01*
X4651925Y1850890D01*
X5058669Y2019369D01*
X5424729Y2263962D01*
X5736038Y2575271D01*
X5980631Y2941331D01*
X6149110Y3348075D01*
X6235000Y3779872D01*
X6235000Y4220128D01*
X93765000Y4220128D01*
X93765000Y3779872D01*
X93850890Y3348075D01*
X94019369Y2941331D01*
X94263962Y2575271D01*
X94575271Y2263962D01*
X94941331Y2019369D01*
X95348075Y1850890D01*
X95779872Y1765000D01*
X96220128Y1765000D01*
X96651925Y1850890D01*
X97058669Y2019369D01*
X97424729Y2263962D01*
X97736038Y2575271D01*
X97980631Y2941331D01*
X98149110Y3348075D01*
X98235000Y3779872D01*
X98235000Y4220128D01*
X98149110Y4651925D01*
X97980631Y5058669D01*
X97736038Y5424729D01*
X97424729Y5736038D01*
X97058669Y5980631D01*
X96651925Y6149110D01*
X96220128Y6235000D01*
X95779872Y6235000D01*
X95348075Y6149110D01*
X94941331Y5980631D01*
X94575271Y5736038D01*
X94263962Y5424729D01*
X94019369Y5058669D01*
X93850890Y4651925D01*
X93765000Y4220128D01*
X6235000Y4220128D01*
X6149110Y4651925D01*
X5980631Y5058669D01*
X5736038Y5424729D01*
X5424729Y5736038D01*
X5058669Y5980631D01*
X4651925Y6149110D01*
X4220128Y6235000D01*
X3779872Y6235000D01*
X3348075Y6149110D01*
X2941331Y5980631D01*
X2575271Y5736038D01*
X2263962Y5424729D01*
X2019369Y5058669D01*
X1850890Y4651925D01*
X1765000Y4220128D01*
X660000Y4220128D01*
X660000Y8750000D01*
X16511928Y8750000D01*
X16511928Y7250000D01*
X16528992Y7076746D01*
X16579528Y6910150D01*
X16661595Y6756614D01*
X16772038Y6622038D01*
X16906614Y6511595D01*
X17060150Y6429528D01*
X17226746Y6378992D01*
X17400000Y6361928D01*
X18600000Y6361928D01*
X18773254Y6378992D01*
X18939850Y6429528D01*
X19093386Y6511595D01*
X19227962Y6622038D01*
X19338405Y6756614D01*
X19392914Y6858593D01*
X19393198Y6858205D01*
X19607954Y6661336D01*
X19856991Y6510146D01*
X20130739Y6410446D01*
X20143110Y6408524D01*
X20373000Y6529845D01*
X20373000Y7873000D01*
X20627000Y7873000D01*
X20627000Y6529845D01*
X20856890Y6408524D01*
X20869261Y6410446D01*
X21143009Y6510146D01*
X21392046Y6661336D01*
X21606802Y6858205D01*
X21779025Y7093188D01*
X21902096Y7357255D01*
X21971285Y7640258D01*
X21827232Y7873000D01*
X20627000Y7873000D01*
X20373000Y7873000D01*
X20353000Y7873000D01*
X20353000Y8127000D01*
X20373000Y8127000D01*
X20373000Y9470155D01*
X20627000Y9470155D01*
X20627000Y8127000D01*
X21827232Y8127000D01*
X21971285Y8359742D01*
X21902096Y8642745D01*
X21852109Y8750000D01*
X27511928Y8750000D01*
X27511928Y7250000D01*
X27528992Y7076746D01*
X27579528Y6910150D01*
X27661595Y6756614D01*
X27772038Y6622038D01*
X27906614Y6511595D01*
X28060150Y6429528D01*
X28226746Y6378992D01*
X28400000Y6361928D01*
X29600000Y6361928D01*
X29773254Y6378992D01*
X29939850Y6429528D01*
X30093386Y6511595D01*
X30227962Y6622038D01*
X30338405Y6756614D01*
X30392777Y6858337D01*
X30444866Y6794866D01*
X30670987Y6609294D01*
X30928967Y6471401D01*
X31208890Y6386487D01*
X31500000Y6357815D01*
X31791111Y6386487D01*
X32071034Y6471401D01*
X32329014Y6609294D01*
X32555134Y6794866D01*
X32740706Y7020986D01*
X32878599Y7278967D01*
X32963513Y7558890D01*
X32985000Y7777051D01*
X32985000Y8222950D01*
X32963513Y8441111D01*
X32878599Y8721034D01*
X32863117Y8750000D01*
X38511928Y8750000D01*
X38511928Y7250000D01*
X38528992Y7076746D01*
X38579528Y6910150D01*
X38661595Y6756614D01*
X38772038Y6622038D01*
X38906614Y6511595D01*
X39060150Y6429528D01*
X39226746Y6378992D01*
X39400000Y6361928D01*
X40600000Y6361928D01*
X40773254Y6378992D01*
X40939850Y6429528D01*
X41093386Y6511595D01*
X41227962Y6622038D01*
X41338405Y6756614D01*
X41392914Y6858593D01*
X41393198Y6858205D01*
X41607954Y6661336D01*
X41856991Y6510146D01*
X42130739Y6410446D01*
X42143110Y6408524D01*
X42373000Y6529845D01*
X42373000Y7873000D01*
X42627000Y7873000D01*
X42627000Y6529845D01*
X42856890Y6408524D01*
X42869261Y6410446D01*
X43143009Y6510146D01*
X43392046Y6661336D01*
X43606802Y6858205D01*
X43779025Y7093188D01*
X43902096Y7357255D01*
X43971285Y7640258D01*
X43827232Y7873000D01*
X42627000Y7873000D01*
X42373000Y7873000D01*
X42353000Y7873000D01*
X42353000Y8127000D01*
X42373000Y8127000D01*
X42373000Y9470155D01*
X42627000Y9470155D01*
X42627000Y8127000D01*
X43827232Y8127000D01*
X43971285Y8359742D01*
X43902096Y8642745D01*
X43852109Y8750000D01*
X49511928Y8750000D01*
X49511928Y7250000D01*
X49528992Y7076746D01*
X49579528Y6910150D01*
X49661595Y6756614D01*
X49772038Y6622038D01*
X49906614Y6511595D01*
X50060150Y6429528D01*
X50226746Y6378992D01*
X50400000Y6361928D01*
X51600000Y6361928D01*
X51773254Y6378992D01*
X51939850Y6429528D01*
X52093386Y6511595D01*
X52227962Y6622038D01*
X52338405Y6756614D01*
X52392914Y6858593D01*
X52393198Y6858205D01*
X52607954Y6661336D01*
X52856991Y6510146D01*
X53130739Y6410446D01*
X53143110Y6408524D01*
X53373000Y6529845D01*
X53373000Y7873000D01*
X53627000Y7873000D01*
X53627000Y6529845D01*
X53856890Y6408524D01*
X53869261Y6410446D01*
X54143009Y6510146D01*
X54392046Y6661336D01*
X54606802Y6858205D01*
X54779025Y7093188D01*
X54902096Y7357255D01*
X54971285Y7640258D01*
X54827232Y7873000D01*
X53627000Y7873000D01*
X53373000Y7873000D01*
X53353000Y7873000D01*
X53353000Y8127000D01*
X53373000Y8127000D01*
X53373000Y9470155D01*
X53627000Y9470155D01*
X53627000Y8127000D01*
X54827232Y8127000D01*
X54971285Y8359742D01*
X54902096Y8642745D01*
X54852109Y8750000D01*
X60511928Y8750000D01*
X60511928Y7250000D01*
X60528992Y7076746D01*
X60579528Y6910150D01*
X60661595Y6756614D01*
X60772038Y6622038D01*
X60906614Y6511595D01*
X61060150Y6429528D01*
X61226746Y6378992D01*
X61400000Y6361928D01*
X62600000Y6361928D01*
X62773254Y6378992D01*
X62939850Y6429528D01*
X63093386Y6511595D01*
X63227962Y6622038D01*
X63338405Y6756614D01*
X63392914Y6858593D01*
X63393198Y6858205D01*
X63607954Y6661336D01*
X63856991Y6510146D01*
X64130739Y6410446D01*
X64143110Y6408524D01*
X64373000Y6529845D01*
X64373000Y7873000D01*
X64627000Y7873000D01*
X64627000Y6529845D01*
X64856890Y6408524D01*
X64869261Y6410446D01*
X65143009Y6510146D01*
X65392046Y6661336D01*
X65606802Y6858205D01*
X65779025Y7093188D01*
X65902096Y7357255D01*
X65971285Y7640258D01*
X65827232Y7873000D01*
X64627000Y7873000D01*
X64373000Y7873000D01*
X64353000Y7873000D01*
X64353000Y8127000D01*
X64373000Y8127000D01*
X64373000Y9470155D01*
X64627000Y9470155D01*
X64627000Y8127000D01*
X65827232Y8127000D01*
X65971285Y8359742D01*
X65902096Y8642745D01*
X65852109Y8750000D01*
X71511928Y8750000D01*
X71511928Y7250000D01*
X71528992Y7076746D01*
X71579528Y6910150D01*
X71661595Y6756614D01*
X71772038Y6622038D01*
X71906614Y6511595D01*
X72060150Y6429528D01*
X72226746Y6378992D01*
X72400000Y6361928D01*
X73600000Y6361928D01*
X73773254Y6378992D01*
X73939850Y6429528D01*
X74093386Y6511595D01*
X74227962Y6622038D01*
X74338405Y6756614D01*
X74392914Y6858593D01*
X74393198Y6858205D01*
X74607954Y6661336D01*
X74856991Y6510146D01*
X75130739Y6410446D01*
X75143110Y6408524D01*
X75373000Y6529845D01*
X75373000Y7873000D01*
X75627000Y7873000D01*
X75627000Y6529845D01*
X75856890Y6408524D01*
X75869261Y6410446D01*
X76143009Y6510146D01*
X76392046Y6661336D01*
X76606802Y6858205D01*
X76779025Y7093188D01*
X76902096Y7357255D01*
X76971285Y7640258D01*
X76827232Y7873000D01*
X75627000Y7873000D01*
X75373000Y7873000D01*
X75353000Y7873000D01*
X75353000Y8127000D01*
X75373000Y8127000D01*
X75373000Y9470155D01*
X75627000Y9470155D01*
X75627000Y8127000D01*
X76827232Y8127000D01*
X76971285Y8359742D01*
X76902096Y8642745D01*
X76852109Y8750000D01*
X82511928Y8750000D01*
X82511928Y7250000D01*
X82528992Y7076746D01*
X82579528Y6910150D01*
X82661595Y6756614D01*
X82772038Y6622038D01*
X82906614Y6511595D01*
X83060150Y6429528D01*
X83226746Y6378992D01*
X83400000Y6361928D01*
X84600000Y6361928D01*
X84773254Y6378992D01*
X84939850Y6429528D01*
X85093386Y6511595D01*
X85227962Y6622038D01*
X85338405Y6756614D01*
X85392914Y6858593D01*
X85393198Y6858205D01*
X85607954Y6661336D01*
X85856991Y6510146D01*
X86130739Y6410446D01*
X86143110Y6408524D01*
X86373000Y6529845D01*
X86373000Y7873000D01*
X86627000Y7873000D01*
X86627000Y6529845D01*
X86856890Y6408524D01*
X86869261Y6410446D01*
X87143009Y6510146D01*
X87392046Y6661336D01*
X87606802Y6858205D01*
X87779025Y7093188D01*
X87902096Y7357255D01*
X87971285Y7640258D01*
X87827232Y7873000D01*
X86627000Y7873000D01*
X86373000Y7873000D01*
X86353000Y7873000D01*
X86353000Y8127000D01*
X86373000Y8127000D01*
X86373000Y9470155D01*
X86627000Y9470155D01*
X86627000Y8127000D01*
X87827232Y8127000D01*
X87971285Y8359742D01*
X87902096Y8642745D01*
X87779025Y8906812D01*
X87606802Y9141795D01*
X87392046Y9338664D01*
X87143009Y9489854D01*
X86869261Y9589554D01*
X86856890Y9591476D01*
X86627000Y9470155D01*
X86373000Y9470155D01*
X86143110Y9591476D01*
X86130739Y9589554D01*
X85856991Y9489854D01*
X85607954Y9338664D01*
X85393198Y9141795D01*
X85392914Y9141407D01*
X85338405Y9243386D01*
X85227962Y9377962D01*
X85093386Y9488405D01*
X84939850Y9570472D01*
X84773254Y9621008D01*
X84600000Y9638072D01*
X83400000Y9638072D01*
X83226746Y9621008D01*
X83060150Y9570472D01*
X82906614Y9488405D01*
X82772038Y9377962D01*
X82661595Y9243386D01*
X82579528Y9089850D01*
X82528992Y8923254D01*
X82511928Y8750000D01*
X76852109Y8750000D01*
X76779025Y8906812D01*
X76606802Y9141795D01*
X76392046Y9338664D01*
X76143009Y9489854D01*
X75869261Y9589554D01*
X75856890Y9591476D01*
X75627000Y9470155D01*
X75373000Y9470155D01*
X75143110Y9591476D01*
X75130739Y9589554D01*
X74856991Y9489854D01*
X74607954Y9338664D01*
X74393198Y9141795D01*
X74392914Y9141407D01*
X74338405Y9243386D01*
X74227962Y9377962D01*
X74093386Y9488405D01*
X73939850Y9570472D01*
X73773254Y9621008D01*
X73600000Y9638072D01*
X72400000Y9638072D01*
X72226746Y9621008D01*
X72060150Y9570472D01*
X71906614Y9488405D01*
X71772038Y9377962D01*
X71661595Y9243386D01*
X71579528Y9089850D01*
X71528992Y8923254D01*
X71511928Y8750000D01*
X65852109Y8750000D01*
X65779025Y8906812D01*
X65606802Y9141795D01*
X65392046Y9338664D01*
X65143009Y9489854D01*
X64869261Y9589554D01*
X64856890Y9591476D01*
X64627000Y9470155D01*
X64373000Y9470155D01*
X64143110Y9591476D01*
X64130739Y9589554D01*
X63856991Y9489854D01*
X63607954Y9338664D01*
X63393198Y9141795D01*
X63392914Y9141407D01*
X63338405Y9243386D01*
X63227962Y9377962D01*
X63093386Y9488405D01*
X62939850Y9570472D01*
X62773254Y9621008D01*
X62600000Y9638072D01*
X61400000Y9638072D01*
X61226746Y9621008D01*
X61060150Y9570472D01*
X60906614Y9488405D01*
X60772038Y9377962D01*
X60661595Y9243386D01*
X60579528Y9089850D01*
X60528992Y8923254D01*
X60511928Y8750000D01*
X54852109Y8750000D01*
X54779025Y8906812D01*
X54606802Y9141795D01*
X54392046Y9338664D01*
X54143009Y9489854D01*
X53869261Y9589554D01*
X53856890Y9591476D01*
X53627000Y9470155D01*
X53373000Y9470155D01*
X53143110Y9591476D01*
X53130739Y9589554D01*
X52856991Y9489854D01*
X52607954Y9338664D01*
X52393198Y9141795D01*
X52392914Y9141407D01*
X52338405Y9243386D01*
X52227962Y9377962D01*
X52093386Y9488405D01*
X51939850Y9570472D01*
X51773254Y9621008D01*
X51600000Y9638072D01*
X50400000Y9638072D01*
X50226746Y9621008D01*
X50060150Y9570472D01*
X49906614Y9488405D01*
X49772038Y9377962D01*
X49661595Y9243386D01*
X49579528Y9089850D01*
X49528992Y8923254D01*
X49511928Y8750000D01*
X43852109Y8750000D01*
X43779025Y8906812D01*
X43606802Y9141795D01*
X43392046Y9338664D01*
X43143009Y9489854D01*
X42869261Y9589554D01*
X42856890Y9591476D01*
X42627000Y9470155D01*
X42373000Y9470155D01*
X42143110Y9591476D01*
X42130739Y9589554D01*
X41856991Y9489854D01*
X41607954Y9338664D01*
X41393198Y9141795D01*
X41392914Y9141407D01*
X41338405Y9243386D01*
X41227962Y9377962D01*
X41093386Y9488405D01*
X40939850Y9570472D01*
X40773254Y9621008D01*
X40600000Y9638072D01*
X39400000Y9638072D01*
X39226746Y9621008D01*
X39060150Y9570472D01*
X38906614Y9488405D01*
X38772038Y9377962D01*
X38661595Y9243386D01*
X38579528Y9089850D01*
X38528992Y8923254D01*
X38511928Y8750000D01*
X32863117Y8750000D01*
X32740706Y8979014D01*
X32555134Y9205134D01*
X32329013Y9390706D01*
X32071033Y9528599D01*
X31791110Y9613513D01*
X31500000Y9642185D01*
X31208889Y9613513D01*
X30928966Y9528599D01*
X30670986Y9390706D01*
X30444866Y9205134D01*
X30392777Y9141663D01*
X30338405Y9243386D01*
X30227962Y9377962D01*
X30093386Y9488405D01*
X29939850Y9570472D01*
X29773254Y9621008D01*
X29600000Y9638072D01*
X28400000Y9638072D01*
X28226746Y9621008D01*
X28060150Y9570472D01*
X27906614Y9488405D01*
X27772038Y9377962D01*
X27661595Y9243386D01*
X27579528Y9089850D01*
X27528992Y8923254D01*
X27511928Y8750000D01*
X21852109Y8750000D01*
X21779025Y8906812D01*
X21606802Y9141795D01*
X21392046Y9338664D01*
X21143009Y9489854D01*
X20869261Y9589554D01*
X20856890Y9591476D01*
X20627000Y9470155D01*
X20373000Y9470155D01*
X20143110Y9591476D01*
X20130739Y9589554D01*
X19856991Y9489854D01*
X19607954Y9338664D01*
X19393198Y9141795D01*
X19392914Y9141407D01*
X19338405Y9243386D01*
X19227962Y9377962D01*
X19093386Y9488405D01*
X18939850Y9570472D01*
X18773254Y9621008D01*
X18600000Y9638072D01*
X17400000Y9638072D01*
X17226746Y9621008D01*
X17060150Y9570472D01*
X16906614Y9488405D01*
X16772038Y9377962D01*
X16661595Y9243386D01*
X16579528Y9089850D01*
X16528992Y8923254D01*
X16511928Y8750000D01*
X660000Y8750000D01*
X660000Y12143110D01*
X6908524Y12143110D01*
X6910446Y12130739D01*
X7010146Y11856991D01*
X7161336Y11607954D01*
X7358205Y11393198D01*
X7593188Y11220975D01*
X7857255Y11097904D01*
X8140258Y11028715D01*
X8373000Y11172768D01*
X8373000Y12373000D01*
X8627000Y12373000D01*
X8627000Y11172768D01*
X8859742Y11028715D01*
X9142745Y11097904D01*
X9406812Y11220975D01*
X9641795Y11393198D01*
X9838664Y11607954D01*
X9989854Y11856991D01*
X10089554Y12130739D01*
X10091476Y12143110D01*
X9970155Y12373000D01*
X8627000Y12373000D01*
X8373000Y12373000D01*
X7029845Y12373000D01*
X6908524Y12143110D01*
X660000Y12143110D01*
X660000Y15600000D01*
X6861928Y15600000D01*
X6861928Y14400000D01*
X6878992Y14226746D01*
X6929528Y14060150D01*
X7011595Y13906614D01*
X7122038Y13772038D01*
X7256614Y13661595D01*
X7358593Y13607086D01*
X7358205Y13606802D01*
X7161336Y13392046D01*
X7010146Y13143009D01*
X6910446Y12869261D01*
X6908524Y12856890D01*
X7029845Y12627000D01*
X8373000Y12627000D01*
X8373000Y12647000D01*
X8627000Y12647000D01*
X8627000Y12627000D01*
X9970155Y12627000D01*
X10091476Y12856890D01*
X10089554Y12869261D01*
X9989854Y13143009D01*
X9838664Y13392046D01*
X9641795Y13606802D01*
X9641407Y13607086D01*
X9743386Y13661595D01*
X9877962Y13772038D01*
X9988405Y13906614D01*
X10070472Y14060150D01*
X10121008Y14226746D01*
X10138072Y14400000D01*
X10138072Y15030960D01*
X14608091Y15030960D01*
X14702930Y14766119D01*
X14847615Y14524869D01*
X15036586Y14316481D01*
X15262580Y14148963D01*
X15516913Y14028754D01*
X15650961Y13988096D01*
X15873000Y14110085D01*
X15873000Y15253000D01*
X16127000Y15253000D01*
X16127000Y14110085D01*
X16349039Y13988096D01*
X16483087Y14028754D01*
X16737420Y14148963D01*
X16963414Y14316481D01*
X17152385Y14524869D01*
X17297070Y14766119D01*
X17391909Y15030960D01*
X17270624Y15253000D01*
X16127000Y15253000D01*
X15873000Y15253000D01*
X14729376Y15253000D01*
X14608091Y15030960D01*
X10138072Y15030960D01*
X10138072Y15600000D01*
X10125363Y15729040D01*
X14608091Y15729040D01*
X14729376Y15507000D01*
X15873000Y15507000D01*
X15873000Y16649915D01*
X16127000Y16649915D01*
X16127000Y15507000D01*
X17270624Y15507000D01*
X17344001Y15641335D01*
X45065000Y15641335D01*
X45065000Y15358665D01*
X45120147Y15081426D01*
X45228320Y14820273D01*
X45385363Y14585241D01*
X45585241Y14385363D01*
X45820273Y14228320D01*
X46081426Y14120147D01*
X46358665Y14065000D01*
X46641335Y14065000D01*
X46918574Y14120147D01*
X47179727Y14228320D01*
X47414759Y14385363D01*
X47614637Y14585241D01*
X47771680Y14820273D01*
X47879853Y15081426D01*
X47935000Y15358665D01*
X47935000Y15641335D01*
X52685000Y15641335D01*
X52685000Y15358665D01*
X52740147Y15081426D01*
X52848320Y14820273D01*
X53005363Y14585241D01*
X53205241Y14385363D01*
X53440273Y14228320D01*
X53701426Y14120147D01*
X53978665Y14065000D01*
X54261335Y14065000D01*
X54538574Y14120147D01*
X54799727Y14228320D01*
X55034759Y14385363D01*
X55234637Y14585241D01*
X55391680Y14820273D01*
X55499853Y15081426D01*
X55555000Y15358665D01*
X55555000Y15641335D01*
X57065000Y15641335D01*
X57065000Y15358665D01*
X57120147Y15081426D01*
X57228320Y14820273D01*
X57385363Y14585241D01*
X57585241Y14385363D01*
X57820273Y14228320D01*
X58081426Y14120147D01*
X58358665Y14065000D01*
X58641335Y14065000D01*
X58918574Y14120147D01*
X59179727Y14228320D01*
X59414759Y14385363D01*
X59614637Y14585241D01*
X59771680Y14820273D01*
X59879853Y15081426D01*
X59893684Y15150961D01*
X64728096Y15150961D01*
X64768754Y15016913D01*
X64888963Y14762580D01*
X65056481Y14536586D01*
X65264869Y14347615D01*
X65506119Y14202930D01*
X65770960Y14108091D01*
X65993000Y14229376D01*
X65993000Y15373000D01*
X66247000Y15373000D01*
X66247000Y14229376D01*
X66469040Y14108091D01*
X66733881Y14202930D01*
X66975131Y14347615D01*
X67183519Y14536586D01*
X67351037Y14762580D01*
X67471246Y15016913D01*
X67511904Y15150961D01*
X67389915Y15373000D01*
X66247000Y15373000D01*
X65993000Y15373000D01*
X64850085Y15373000D01*
X64728096Y15150961D01*
X59893684Y15150961D01*
X59935000Y15358665D01*
X59935000Y15641335D01*
X59893685Y15849039D01*
X64728096Y15849039D01*
X64850085Y15627000D01*
X65993000Y15627000D01*
X65993000Y16770624D01*
X66247000Y16770624D01*
X66247000Y15627000D01*
X67389915Y15627000D01*
X67511904Y15849039D01*
X67471246Y15983087D01*
X67351037Y16237420D01*
X67304650Y16300000D01*
X69061928Y16300000D01*
X69061928Y14700000D01*
X69074188Y14575518D01*
X69110498Y14455820D01*
X69169463Y14345506D01*
X69248815Y14248815D01*
X69345506Y14169463D01*
X69455820Y14110498D01*
X69575518Y14074188D01*
X69700000Y14061928D01*
X71300000Y14061928D01*
X71424482Y14074188D01*
X71544180Y14110498D01*
X71654494Y14169463D01*
X71751185Y14248815D01*
X71830537Y14345506D01*
X71889502Y14455820D01*
X71925812Y14575518D01*
X71938072Y14700000D01*
X71938072Y15150961D01*
X76728096Y15150961D01*
X76768754Y15016913D01*
X76888963Y14762580D01*
X77056481Y14536586D01*
X77264869Y14347615D01*
X77506119Y14202930D01*
X77770960Y14108091D01*
X77993000Y14229376D01*
X77993000Y15373000D01*
X78247000Y15373000D01*
X78247000Y14229376D01*
X78469040Y14108091D01*
X78733881Y14202930D01*
X78975131Y14347615D01*
X79183519Y14536586D01*
X79351037Y14762580D01*
X79471246Y15016913D01*
X79511904Y15150961D01*
X79389915Y15373000D01*
X78247000Y15373000D01*
X77993000Y15373000D01*
X76850085Y15373000D01*
X76728096Y15150961D01*
X71938072Y15150961D01*
X71938072Y15849039D01*
X76728096Y15849039D01*
X76850085Y15627000D01*
X77993000Y15627000D01*
X77993000Y16770624D01*
X78247000Y16770624D01*
X78247000Y15627000D01*
X79389915Y15627000D01*
X79511904Y15849039D01*
X79471246Y15983087D01*
X79351037Y16237420D01*
X79183519Y16463414D01*
X78975131Y16652385D01*
X78733881Y16797070D01*
X78469040Y16891909D01*
X78247000Y16770624D01*
X77993000Y16770624D01*
X77770960Y16891909D01*
X77506119Y16797070D01*
X77264869Y16652385D01*
X77056481Y16463414D01*
X76888963Y16237420D01*
X76768754Y15983087D01*
X76728096Y15849039D01*
X71938072Y15849039D01*
X71938072Y16300000D01*
X71925812Y16424482D01*
X71889502Y16544180D01*
X71830537Y16654494D01*
X71751185Y16751185D01*
X71654494Y16830537D01*
X71544180Y16889502D01*
X71424482Y16925812D01*
X71300000Y16938072D01*
X69700000Y16938072D01*
X69575518Y16925812D01*
X69455820Y16889502D01*
X69345506Y16830537D01*
X69248815Y16751185D01*
X69169463Y16654494D01*
X69110498Y16544180D01*
X69074188Y16424482D01*
X69061928Y16300000D01*
X67304650Y16300000D01*
X67183519Y16463414D01*
X66975131Y16652385D01*
X66733881Y16797070D01*
X66469040Y16891909D01*
X66247000Y16770624D01*
X65993000Y16770624D01*
X65770960Y16891909D01*
X65506119Y16797070D01*
X65264869Y16652385D01*
X65056481Y16463414D01*
X64888963Y16237420D01*
X64768754Y15983087D01*
X64728096Y15849039D01*
X59893685Y15849039D01*
X59879853Y15918574D01*
X59771680Y16179727D01*
X59614637Y16414759D01*
X59414759Y16614637D01*
X59179727Y16771680D01*
X58918574Y16879853D01*
X58641335Y16935000D01*
X58358665Y16935000D01*
X58081426Y16879853D01*
X57820273Y16771680D01*
X57585241Y16614637D01*
X57385363Y16414759D01*
X57228320Y16179727D01*
X57120147Y15918574D01*
X57065000Y15641335D01*
X55555000Y15641335D01*
X55499853Y15918574D01*
X55391680Y16179727D01*
X55234637Y16414759D01*
X55034759Y16614637D01*
X54799727Y16771680D01*
X54538574Y16879853D01*
X54261335Y16935000D01*
X53978665Y16935000D01*
X53701426Y16879853D01*
X53440273Y16771680D01*
X53205241Y16614637D01*
X53005363Y16414759D01*
X52848320Y16179727D01*
X52740147Y15918574D01*
X52685000Y15641335D01*
X47935000Y15641335D01*
X47879853Y15918574D01*
X47771680Y16179727D01*
X47614637Y16414759D01*
X47414759Y16614637D01*
X47179727Y16771680D01*
X46918574Y16879853D01*
X46641335Y16935000D01*
X46358665Y16935000D01*
X46081426Y16879853D01*
X45820273Y16771680D01*
X45585241Y16614637D01*
X45385363Y16414759D01*
X45228320Y16179727D01*
X45120147Y15918574D01*
X45065000Y15641335D01*
X17344001Y15641335D01*
X17391909Y15729040D01*
X17297070Y15993881D01*
X17152385Y16235131D01*
X16963414Y16443519D01*
X16737420Y16611037D01*
X16483087Y16731246D01*
X16349039Y16771904D01*
X16127000Y16649915D01*
X15873000Y16649915D01*
X15650961Y16771904D01*
X15516913Y16731246D01*
X15262580Y16611037D01*
X15036586Y16443519D01*
X14847615Y16235131D01*
X14702930Y15993881D01*
X14608091Y15729040D01*
X10125363Y15729040D01*
X10121008Y15773254D01*
X10070472Y15939850D01*
X9988405Y16093386D01*
X9877962Y16227962D01*
X9743386Y16338405D01*
X9589850Y16420472D01*
X9423254Y16471008D01*
X9250000Y16488072D01*
X7750000Y16488072D01*
X7576746Y16471008D01*
X7410150Y16420472D01*
X7256614Y16338405D01*
X7122038Y16227962D01*
X7011595Y16093386D01*
X6929528Y15939850D01*
X6878992Y15773254D01*
X6861928Y15600000D01*
X660000Y15600000D01*
X660000Y18369977D01*
X33665000Y18369977D01*
X33665000Y17910023D01*
X33754733Y17458906D01*
X33930750Y17033963D01*
X34186287Y16651524D01*
X34511524Y16326287D01*
X34893963Y16070750D01*
X35318906Y15894733D01*
X35770023Y15805000D01*
X36229977Y15805000D01*
X36681094Y15894733D01*
X37106037Y16070750D01*
X37488476Y16326287D01*
X37813713Y16651524D01*
X38069250Y17033963D01*
X38245267Y17458906D01*
X38335000Y17910023D01*
X38335000Y18369977D01*
X38245267Y18821094D01*
X38069250Y19246037D01*
X37813713Y19628476D01*
X37488476Y19953713D01*
X37106037Y20209250D01*
X36681094Y20385267D01*
X36229977Y20475000D01*
X35770023Y20475000D01*
X35318906Y20385267D01*
X34893963Y20209250D01*
X34511524Y19953713D01*
X34186287Y19628476D01*
X33930750Y19246037D01*
X33754733Y18821094D01*
X33665000Y18369977D01*
X660000Y18369977D01*
X660000Y21250000D01*
X45111928Y21250000D01*
X45111928Y19750000D01*
X45124188Y19625518D01*
X45160498Y19505820D01*
X45219463Y19395506D01*
X45298815Y19298815D01*
X45395506Y19219463D01*
X45505820Y19160498D01*
X45625518Y19124188D01*
X45750000Y19111928D01*
X47250000Y19111928D01*
X47374482Y19124188D01*
X47494180Y19160498D01*
X47604494Y19219463D01*
X47701185Y19298815D01*
X47780537Y19395506D01*
X47839502Y19505820D01*
X47875812Y19625518D01*
X47888072Y19750000D01*
X47888072Y20158815D01*
X52777682Y20158815D01*
X52814347Y20037930D01*
X52929580Y19792088D01*
X53090560Y19573451D01*
X53291101Y19390421D01*
X53523496Y19250031D01*
X53778814Y19157677D01*
X53993000Y19279580D01*
X53993000Y20373000D01*
X54247000Y20373000D01*
X54247000Y19279580D01*
X54461186Y19157677D01*
X54716504Y19250031D01*
X54948899Y19390421D01*
X55149440Y19573451D01*
X55310420Y19792088D01*
X55425653Y20037930D01*
X55462318Y20158815D01*
X55339656Y20373000D01*
X54247000Y20373000D01*
X53993000Y20373000D01*
X52900344Y20373000D01*
X52777682Y20158815D01*
X47888072Y20158815D01*
X47888072Y20841185D01*
X52777682Y20841185D01*
X52900344Y20627000D01*
X53993000Y20627000D01*
X53993000Y21720420D01*
X54247000Y21720420D01*
X54247000Y20627000D01*
X55339656Y20627000D01*
X55462318Y20841185D01*
X55425653Y20962070D01*
X55310420Y21207912D01*
X55149440Y21426549D01*
X54948899Y21609579D01*
X54716504Y21749969D01*
X54461186Y21842323D01*
X54247000Y21720420D01*
X53993000Y21720420D01*
X53778814Y21842323D01*
X53523496Y21749969D01*
X53291101Y21609579D01*
X53090560Y21426549D01*
X52929580Y21207912D01*
X52814347Y20962070D01*
X52777682Y20841185D01*
X47888072Y20841185D01*
X47888072Y21250000D01*
X47875812Y21374482D01*
X47839502Y21494180D01*
X47780537Y21604494D01*
X47701185Y21701185D01*
X47604494Y21780537D01*
X47494180Y21839502D01*
X47374482Y21875812D01*
X47250000Y21888072D01*
X45750000Y21888072D01*
X45625518Y21875812D01*
X45505820Y21839502D01*
X45395506Y21780537D01*
X45298815Y21701185D01*
X45219463Y21604494D01*
X45160498Y21494180D01*
X45124188Y21374482D01*
X45111928Y21250000D01*
X660000Y21250000D01*
X660000Y23143110D01*
X6908524Y23143110D01*
X6910446Y23130739D01*
X7010146Y22856991D01*
X7161336Y22607954D01*
X7358205Y22393198D01*
X7593188Y22220975D01*
X7857255Y22097904D01*
X8140258Y22028715D01*
X8373000Y22172768D01*
X8373000Y23373000D01*
X8627000Y23373000D01*
X8627000Y22172768D01*
X8859742Y22028715D01*
X9142745Y22097904D01*
X9406812Y22220975D01*
X9641795Y22393198D01*
X9838664Y22607954D01*
X9989854Y22856991D01*
X10089554Y23130739D01*
X10091200Y23141335D01*
X14565000Y23141335D01*
X14565000Y22858665D01*
X14620147Y22581426D01*
X14728320Y22320273D01*
X14885363Y22085241D01*
X15085241Y21885363D01*
X15320273Y21728320D01*
X15581426Y21620147D01*
X15858665Y21565000D01*
X16141335Y21565000D01*
X16418574Y21620147D01*
X16679727Y21728320D01*
X16914759Y21885363D01*
X17114637Y22085241D01*
X17271680Y22320273D01*
X17379853Y22581426D01*
X17435000Y22858665D01*
X17435000Y23141335D01*
X17379853Y23418574D01*
X17271680Y23679727D01*
X17114637Y23914759D01*
X16914759Y24114637D01*
X16679727Y24271680D01*
X16418574Y24379853D01*
X16141335Y24435000D01*
X15858665Y24435000D01*
X15581426Y24379853D01*
X15320273Y24271680D01*
X15085241Y24114637D01*
X14885363Y23914759D01*
X14728320Y23679727D01*
X14620147Y23418574D01*
X14565000Y23141335D01*
X10091200Y23141335D01*
X10091476Y23143110D01*
X9970155Y23373000D01*
X8627000Y23373000D01*
X8373000Y23373000D01*
X7029845Y23373000D01*
X6908524Y23143110D01*
X660000Y23143110D01*
X660000Y26600000D01*
X6861928Y26600000D01*
X6861928Y25400000D01*
X6878992Y25226746D01*
X6929528Y25060150D01*
X7011595Y24906614D01*
X7122038Y24772038D01*
X7256614Y24661595D01*
X7358593Y24607086D01*
X7358205Y24606802D01*
X7161336Y24392046D01*
X7010146Y24143009D01*
X6910446Y23869261D01*
X6908524Y23856890D01*
X7029845Y23627000D01*
X8373000Y23627000D01*
X8373000Y23647000D01*
X8627000Y23647000D01*
X8627000Y23627000D01*
X9970155Y23627000D01*
X10091476Y23856890D01*
X10089554Y23869261D01*
X9989854Y24143009D01*
X9838664Y24392046D01*
X9641795Y24606802D01*
X9641407Y24607086D01*
X9743386Y24661595D01*
X9877962Y24772038D01*
X9988405Y24906614D01*
X10070472Y25060150D01*
X10121008Y25226746D01*
X10138072Y25400000D01*
X10138072Y26521335D01*
X14565000Y26521335D01*
X14565000Y26238665D01*
X14620147Y25961426D01*
X14728320Y25700273D01*
X14885363Y25465241D01*
X15085241Y25265363D01*
X15320273Y25108320D01*
X15581426Y25000147D01*
X15858665Y24945000D01*
X16141335Y24945000D01*
X16418574Y25000147D01*
X16679727Y25108320D01*
X16914759Y25265363D01*
X17114637Y25465241D01*
X17271680Y25700273D01*
X17379853Y25961426D01*
X17385532Y25989977D01*
X33665000Y25989977D01*
X33665000Y25530023D01*
X33754733Y25078906D01*
X33930750Y24653963D01*
X34186287Y24271524D01*
X34511524Y23946287D01*
X34893963Y23690750D01*
X35318906Y23514733D01*
X35770023Y23425000D01*
X36229977Y23425000D01*
X36681094Y23514733D01*
X37106037Y23690750D01*
X37488476Y23946287D01*
X37813713Y24271524D01*
X37899557Y24400000D01*
X69461928Y24400000D01*
X69461928Y22600000D01*
X69474188Y22475518D01*
X69510498Y22355820D01*
X69569463Y22245506D01*
X69648815Y22148815D01*
X69745506Y22069463D01*
X69855820Y22010498D01*
X69874127Y22004944D01*
X69807688Y21938505D01*
X69639701Y21687095D01*
X69523989Y21407743D01*
X69465000Y21111184D01*
X69465000Y20808816D01*
X69523989Y20512257D01*
X69639701Y20232905D01*
X69807688Y19981495D01*
X70021495Y19767688D01*
X70272905Y19599701D01*
X70552257Y19483989D01*
X70848816Y19425000D01*
X71151184Y19425000D01*
X71447743Y19483989D01*
X71727095Y19599701D01*
X71978505Y19767688D01*
X72192312Y19981495D01*
X72360299Y20232905D01*
X72476011Y20512257D01*
X72535000Y20808816D01*
X72535000Y21111184D01*
X72476011Y21407743D01*
X72360299Y21687095D01*
X72192312Y21938505D01*
X72125873Y22004944D01*
X72144180Y22010498D01*
X72254494Y22069463D01*
X72351185Y22148815D01*
X72430537Y22245506D01*
X72489502Y22355820D01*
X72525812Y22475518D01*
X72538072Y22600000D01*
X72538072Y24400000D01*
X72525812Y24524482D01*
X72489502Y24644180D01*
X72430537Y24754494D01*
X72351185Y24851185D01*
X72254494Y24930537D01*
X72144180Y24989502D01*
X72024482Y25025812D01*
X71900000Y25038072D01*
X70100000Y25038072D01*
X69975518Y25025812D01*
X69855820Y24989502D01*
X69745506Y24930537D01*
X69648815Y24851185D01*
X69569463Y24754494D01*
X69510498Y24644180D01*
X69474188Y24524482D01*
X69461928Y24400000D01*
X37899557Y24400000D01*
X38069250Y24653963D01*
X38245267Y25078906D01*
X38335000Y25530023D01*
X38335000Y25989977D01*
X38245267Y26441094D01*
X38069250Y26866037D01*
X37813713Y27248476D01*
X37488476Y27573713D01*
X37106037Y27829250D01*
X36681094Y28005267D01*
X36229977Y28095000D01*
X35770023Y28095000D01*
X35318906Y28005267D01*
X34893963Y27829250D01*
X34511524Y27573713D01*
X34186287Y27248476D01*
X33930750Y26866037D01*
X33754733Y26441094D01*
X33665000Y25989977D01*
X17385532Y25989977D01*
X17435000Y26238665D01*
X17435000Y26521335D01*
X17379853Y26798574D01*
X17271680Y27059727D01*
X17114637Y27294759D01*
X16914759Y27494637D01*
X16679727Y27651680D01*
X16418574Y27759853D01*
X16141335Y27815000D01*
X15858665Y27815000D01*
X15581426Y27759853D01*
X15320273Y27651680D01*
X15085241Y27494637D01*
X14885363Y27294759D01*
X14728320Y27059727D01*
X14620147Y26798574D01*
X14565000Y26521335D01*
X10138072Y26521335D01*
X10138072Y26600000D01*
X10121008Y26773254D01*
X10070472Y26939850D01*
X9988405Y27093386D01*
X9877962Y27227962D01*
X9743386Y27338405D01*
X9589850Y27420472D01*
X9423254Y27471008D01*
X9250000Y27488072D01*
X7750000Y27488072D01*
X7576746Y27471008D01*
X7410150Y27420472D01*
X7256614Y27338405D01*
X7122038Y27227962D01*
X7011595Y27093386D01*
X6929528Y26939850D01*
X6878992Y26773254D01*
X6861928Y26600000D01*
X660000Y26600000D01*
X660000Y31141335D01*
X71565000Y31141335D01*
X71565000Y30858665D01*
X71620147Y30581426D01*
X71728320Y30320273D01*
X71885363Y30085241D01*
X72085241Y29885363D01*
X72320273Y29728320D01*
X72581426Y29620147D01*
X72858665Y29565000D01*
X73141335Y29565000D01*
X73418574Y29620147D01*
X73679727Y29728320D01*
X73787003Y29800000D01*
X79061928Y29800000D01*
X79061928Y27200000D01*
X79074188Y27075518D01*
X79110498Y26955820D01*
X79169463Y26845506D01*
X79248815Y26748815D01*
X79345506Y26669463D01*
X79455820Y26610498D01*
X79575518Y26574188D01*
X79700000Y26561928D01*
X82300000Y26561928D01*
X82424482Y26574188D01*
X82544180Y26610498D01*
X82654494Y26669463D01*
X82751185Y26748815D01*
X82830537Y26845506D01*
X82889502Y26955820D01*
X82925812Y27075518D01*
X82938072Y27200000D01*
X82938072Y29800000D01*
X82925812Y29924482D01*
X82889502Y30044180D01*
X82830537Y30154494D01*
X82751185Y30251185D01*
X82654494Y30330537D01*
X82544180Y30389502D01*
X82424482Y30425812D01*
X82300000Y30438072D01*
X79700000Y30438072D01*
X79575518Y30425812D01*
X79455820Y30389502D01*
X79345506Y30330537D01*
X79248815Y30251185D01*
X79169463Y30154494D01*
X79110498Y30044180D01*
X79074188Y29924482D01*
X79061928Y29800000D01*
X73787003Y29800000D01*
X73914759Y29885363D01*
X74114637Y30085241D01*
X74271680Y30320273D01*
X74379853Y30581426D01*
X74435000Y30858665D01*
X74435000Y31141335D01*
X74379853Y31418574D01*
X74271680Y31679727D01*
X74114637Y31914759D01*
X73914759Y32114637D01*
X73679727Y32271680D01*
X73418574Y32379853D01*
X73141335Y32435000D01*
X72858665Y32435000D01*
X72581426Y32379853D01*
X72320273Y32271680D01*
X72085241Y32114637D01*
X71885363Y31914759D01*
X71728320Y31679727D01*
X71620147Y31418574D01*
X71565000Y31141335D01*
X660000Y31141335D01*
X660000Y34143110D01*
X6908524Y34143110D01*
X6910446Y34130739D01*
X7010146Y33856991D01*
X7161336Y33607954D01*
X7358205Y33393198D01*
X7593188Y33220975D01*
X7857255Y33097904D01*
X8140258Y33028715D01*
X8373000Y33172768D01*
X8373000Y34373000D01*
X8627000Y34373000D01*
X8627000Y33172768D01*
X8859742Y33028715D01*
X9142745Y33097904D01*
X9406812Y33220975D01*
X9641795Y33393198D01*
X9838664Y33607954D01*
X9989854Y33856991D01*
X10089554Y34130739D01*
X10091200Y34141335D01*
X14565000Y34141335D01*
X14565000Y33858665D01*
X14620147Y33581426D01*
X14728320Y33320273D01*
X14885363Y33085241D01*
X15085241Y32885363D01*
X15320273Y32728320D01*
X15581426Y32620147D01*
X15858665Y32565000D01*
X16141335Y32565000D01*
X16418574Y32620147D01*
X16679727Y32728320D01*
X16914759Y32885363D01*
X17114637Y33085241D01*
X17271680Y33320273D01*
X17379853Y33581426D01*
X17423330Y33800000D01*
X21561928Y33800000D01*
X21561928Y32200000D01*
X21574188Y32075518D01*
X21610498Y31955820D01*
X21669463Y31845506D01*
X21748815Y31748815D01*
X21845506Y31669463D01*
X21955820Y31610498D01*
X22075518Y31574188D01*
X22200000Y31561928D01*
X23800000Y31561928D01*
X23924482Y31574188D01*
X24044180Y31610498D01*
X24154494Y31669463D01*
X24251185Y31748815D01*
X24330537Y31845506D01*
X24389502Y31955820D01*
X24405117Y32007298D01*
X24686903Y32007298D01*
X24758486Y31763329D01*
X25013996Y31642429D01*
X25288184Y31573700D01*
X25570512Y31559783D01*
X25850130Y31601213D01*
X26116292Y31696397D01*
X26241514Y31763329D01*
X26313097Y32007298D01*
X25500000Y32820395D01*
X24686903Y32007298D01*
X24405117Y32007298D01*
X24425812Y32075518D01*
X24438072Y32200000D01*
X24438072Y32207215D01*
X24507298Y32186903D01*
X25320395Y33000000D01*
X25679605Y33000000D01*
X26492702Y32186903D01*
X26736671Y32258486D01*
X26857571Y32513996D01*
X26926300Y32788184D01*
X26940217Y33070512D01*
X26898787Y33350130D01*
X26803603Y33616292D01*
X26736671Y33741514D01*
X26492702Y33813097D01*
X25679605Y33000000D01*
X25320395Y33000000D01*
X24507298Y33813097D01*
X24438072Y33792785D01*
X24438072Y33800000D01*
X24425812Y33924482D01*
X24405118Y33992702D01*
X24686903Y33992702D01*
X25500000Y33179605D01*
X26313097Y33992702D01*
X26241514Y34236671D01*
X25986004Y34357571D01*
X25711816Y34426300D01*
X25429488Y34440217D01*
X25149870Y34398787D01*
X24883708Y34303603D01*
X24758486Y34236671D01*
X24686903Y33992702D01*
X24405118Y33992702D01*
X24389502Y34044180D01*
X24330537Y34154494D01*
X24251185Y34251185D01*
X24154494Y34330537D01*
X24044180Y34389502D01*
X23924482Y34425812D01*
X23800000Y34438072D01*
X22200000Y34438072D01*
X22075518Y34425812D01*
X21955820Y34389502D01*
X21845506Y34330537D01*
X21748815Y34251185D01*
X21669463Y34154494D01*
X21610498Y34044180D01*
X21574188Y33924482D01*
X21561928Y33800000D01*
X17423330Y33800000D01*
X17435000Y33858665D01*
X17435000Y34141335D01*
X17379853Y34418574D01*
X17271680Y34679727D01*
X17114637Y34914759D01*
X16914759Y35114637D01*
X16679727Y35271680D01*
X16418574Y35379853D01*
X16141335Y35435000D01*
X15858665Y35435000D01*
X15581426Y35379853D01*
X15320273Y35271680D01*
X15085241Y35114637D01*
X14885363Y34914759D01*
X14728320Y34679727D01*
X14620147Y34418574D01*
X14565000Y34141335D01*
X10091200Y34141335D01*
X10091476Y34143110D01*
X9970155Y34373000D01*
X8627000Y34373000D01*
X8373000Y34373000D01*
X7029845Y34373000D01*
X6908524Y34143110D01*
X660000Y34143110D01*
X660000Y37600000D01*
X6861928Y37600000D01*
X6861928Y36400000D01*
X6878992Y36226746D01*
X6929528Y36060150D01*
X7011595Y35906614D01*
X7122038Y35772038D01*
X7256614Y35661595D01*
X7358593Y35607086D01*
X7358205Y35606802D01*
X7161336Y35392046D01*
X7010146Y35143009D01*
X6910446Y34869261D01*
X6908524Y34856890D01*
X7029845Y34627000D01*
X8373000Y34627000D01*
X8373000Y34647000D01*
X8627000Y34647000D01*
X8627000Y34627000D01*
X9970155Y34627000D01*
X10091476Y34856890D01*
X10089554Y34869261D01*
X9989854Y35143009D01*
X9838664Y35392046D01*
X9641795Y35606802D01*
X9641407Y35607086D01*
X9743386Y35661595D01*
X9877962Y35772038D01*
X9988405Y35906614D01*
X10070472Y36060150D01*
X10121008Y36226746D01*
X10138072Y36400000D01*
X10138072Y37600000D01*
X10121008Y37773254D01*
X10070472Y37939850D01*
X9988405Y38093386D01*
X9877962Y38227962D01*
X9743386Y38338405D01*
X9589850Y38420472D01*
X9423254Y38471008D01*
X9250000Y38488072D01*
X7750000Y38488072D01*
X7576746Y38471008D01*
X7410150Y38420472D01*
X7256614Y38338405D01*
X7122038Y38227962D01*
X7011595Y38093386D01*
X6929528Y37939850D01*
X6878992Y37773254D01*
X6861928Y37600000D01*
X660000Y37600000D01*
X660000Y38761335D01*
X71565000Y38761335D01*
X71565000Y38478665D01*
X71620147Y38201426D01*
X71728320Y37940273D01*
X71885363Y37705241D01*
X72085241Y37505363D01*
X72320273Y37348320D01*
X72581426Y37240147D01*
X72858665Y37185000D01*
X73141335Y37185000D01*
X73418574Y37240147D01*
X73679727Y37348320D01*
X73914759Y37505363D01*
X74114637Y37705241D01*
X74271680Y37940273D01*
X74379853Y38201426D01*
X74435000Y38478665D01*
X74435000Y38761335D01*
X74379853Y39038574D01*
X74271680Y39299727D01*
X74114637Y39534759D01*
X73914759Y39734637D01*
X73679727Y39891680D01*
X73418574Y39999853D01*
X73141335Y40055000D01*
X72858665Y40055000D01*
X72581426Y39999853D01*
X72320273Y39891680D01*
X72085241Y39734637D01*
X71885363Y39534759D01*
X71728320Y39299727D01*
X71620147Y39038574D01*
X71565000Y38761335D01*
X660000Y38761335D01*
X660000Y40772515D01*
X79112807Y40772515D01*
X79232467Y40412556D01*
X79420052Y40082858D01*
X79668354Y39796091D01*
X79967830Y39563275D01*
X80306972Y39393358D01*
X80572516Y39312811D01*
X80873000Y39428296D01*
X80873000Y41073000D01*
X81127000Y41073000D01*
X81127000Y39428296D01*
X81427484Y39312811D01*
X81693028Y39393358D01*
X82032170Y39563275D01*
X82331646Y39796091D01*
X82579948Y40082858D01*
X82767533Y40412556D01*
X82887193Y40772515D01*
X82772082Y41073000D01*
X81127000Y41073000D01*
X80873000Y41073000D01*
X79227918Y41073000D01*
X79112807Y40772515D01*
X660000Y40772515D01*
X660000Y41627485D01*
X79112807Y41627485D01*
X79227918Y41327000D01*
X80873000Y41327000D01*
X80873000Y42971704D01*
X81127000Y42971704D01*
X81127000Y41327000D01*
X82772082Y41327000D01*
X82887193Y41627485D01*
X82767533Y41987444D01*
X82579948Y42317142D01*
X82331646Y42603909D01*
X82032170Y42836725D01*
X81693028Y43006642D01*
X81427484Y43087189D01*
X81127000Y42971704D01*
X80873000Y42971704D01*
X80572516Y43087189D01*
X80306972Y43006642D01*
X79967830Y42836725D01*
X79668354Y42603909D01*
X79420052Y42317142D01*
X79232467Y41987444D01*
X79112807Y41627485D01*
X660000Y41627485D01*
X660000Y45250000D01*
X7159025Y45250000D01*
X7182870Y45007898D01*
X7253489Y44775099D01*
X7368167Y44560551D01*
X7522498Y44372498D01*
X7710551Y44218167D01*
X7925099Y44103489D01*
X8157898Y44032870D01*
X8339335Y44015000D01*
X9660665Y44015000D01*
X9842102Y44032870D01*
X10074901Y44103489D01*
X10289449Y44218167D01*
X10477502Y44372498D01*
X10631833Y44560551D01*
X10746511Y44775099D01*
X10817130Y45007898D01*
X10840975Y45250000D01*
X10817130Y45492102D01*
X10746511Y45724901D01*
X10631833Y45939449D01*
X10477502Y46127502D01*
X10289449Y46281833D01*
X10074901Y46396511D01*
X9842102Y46467130D01*
X9660665Y46485000D01*
X8339335Y46485000D01*
X8157898Y46467130D01*
X7925099Y46396511D01*
X7710551Y46281833D01*
X7522498Y46127502D01*
X7368167Y45939449D01*
X7253489Y45724901D01*
X7182870Y45492102D01*
X7159025Y45250000D01*
X660000Y45250000D01*
X660000Y46653536D01*
X13433141Y46653536D01*
X13632200Y46301318D01*
X14067914Y46074799D01*
X14539448Y45937636D01*
X15028681Y45895100D01*
X15516812Y45948827D01*
X15985081Y46096750D01*
X16367800Y46301318D01*
X16566859Y46653536D01*
X15000000Y48220395D01*
X13433141Y46653536D01*
X660000Y46653536D01*
X660000Y48371319D01*
X12495100Y48371319D01*
X12548827Y47883188D01*
X12696750Y47414919D01*
X12901318Y47032200D01*
X13253536Y46833141D01*
X14820395Y48400000D01*
X15179605Y48400000D01*
X16746464Y46833141D01*
X17098682Y47032200D01*
X17325201Y47467914D01*
X17462364Y47939448D01*
X17494579Y48309977D01*
X33665000Y48309977D01*
X33665000Y47850023D01*
X33754733Y47398906D01*
X33930750Y46973963D01*
X34186287Y46591524D01*
X34511524Y46266287D01*
X34893963Y46010750D01*
X35318906Y45834733D01*
X35770023Y45745000D01*
X36229977Y45745000D01*
X36681094Y45834733D01*
X37106037Y46010750D01*
X37488476Y46266287D01*
X37813713Y46591524D01*
X38069250Y46973963D01*
X38245267Y47398906D01*
X38335000Y47850023D01*
X38335000Y48309977D01*
X38245267Y48761094D01*
X38069250Y49186037D01*
X37813713Y49568476D01*
X37488476Y49893713D01*
X37106037Y50149250D01*
X36681094Y50325267D01*
X36229977Y50415000D01*
X35770023Y50415000D01*
X35318906Y50325267D01*
X34893963Y50149250D01*
X34511524Y49893713D01*
X34186287Y49568476D01*
X33930750Y49186037D01*
X33754733Y48761094D01*
X33665000Y48309977D01*
X17494579Y48309977D01*
X17504900Y48428681D01*
X17451173Y48916812D01*
X17303250Y49385081D01*
X17098682Y49767800D01*
X16746464Y49966859D01*
X15179605Y48400000D01*
X14820395Y48400000D01*
X13253536Y49966859D01*
X12901318Y49767800D01*
X12674799Y49332086D01*
X12537636Y48860552D01*
X12495100Y48371319D01*
X660000Y48371319D01*
X660000Y50146464D01*
X13433141Y50146464D01*
X15000000Y48579605D01*
X16566859Y50146464D01*
X16367800Y50498682D01*
X15932086Y50725201D01*
X15460552Y50862364D01*
X14971319Y50904900D01*
X14483188Y50851173D01*
X14014919Y50703250D01*
X13632200Y50498682D01*
X13433141Y50146464D01*
X660000Y50146464D01*
X660000Y52800000D01*
X80561928Y52800000D01*
X80561928Y51200000D01*
X80574188Y51075518D01*
X80610498Y50955820D01*
X80669463Y50845506D01*
X80748815Y50748815D01*
X80845506Y50669463D01*
X80955820Y50610498D01*
X81075518Y50574188D01*
X81200000Y50561928D01*
X82800000Y50561928D01*
X82924482Y50574188D01*
X83044180Y50610498D01*
X83154494Y50669463D01*
X83251185Y50748815D01*
X83330537Y50845506D01*
X83389502Y50955820D01*
X83425812Y51075518D01*
X83438072Y51200000D01*
X83438072Y52800000D01*
X83425812Y52924482D01*
X83389502Y53044180D01*
X83330537Y53154494D01*
X83251185Y53251185D01*
X83154494Y53330537D01*
X83044180Y53389502D01*
X82924482Y53425812D01*
X82800000Y53438072D01*
X82792785Y53438072D01*
X82813097Y53507298D01*
X82000000Y54320395D01*
X81186903Y53507298D01*
X81207215Y53438072D01*
X81200000Y53438072D01*
X81075518Y53425812D01*
X80955820Y53389502D01*
X80845506Y53330537D01*
X80748815Y53251185D01*
X80669463Y53154494D01*
X80610498Y53044180D01*
X80574188Y52924482D01*
X80561928Y52800000D01*
X660000Y52800000D01*
X660000Y57458000D01*
X12503928Y57458000D01*
X12503928Y53742000D01*
X12516188Y53617518D01*
X12552498Y53497820D01*
X12611463Y53387506D01*
X12690815Y53290815D01*
X12787506Y53211463D01*
X12897820Y53152498D01*
X13017518Y53116188D01*
X13142000Y53103928D01*
X16858000Y53103928D01*
X16982482Y53116188D01*
X17102180Y53152498D01*
X17212494Y53211463D01*
X17309185Y53290815D01*
X17388537Y53387506D01*
X17447502Y53497820D01*
X17483812Y53617518D01*
X17496072Y53742000D01*
X17496072Y55929977D01*
X33665000Y55929977D01*
X33665000Y55470023D01*
X33754733Y55018906D01*
X33930750Y54593963D01*
X34186287Y54211524D01*
X34511524Y53886287D01*
X34893963Y53630750D01*
X35318906Y53454733D01*
X35770023Y53365000D01*
X36229977Y53365000D01*
X36681094Y53454733D01*
X37106037Y53630750D01*
X37488476Y53886287D01*
X37813713Y54211524D01*
X37959351Y54429488D01*
X80559783Y54429488D01*
X80601213Y54149870D01*
X80696397Y53883708D01*
X80763329Y53758486D01*
X81007298Y53686903D01*
X81820395Y54500000D01*
X82179605Y54500000D01*
X82992702Y53686903D01*
X83236671Y53758486D01*
X83357571Y54013996D01*
X83426300Y54288184D01*
X83440217Y54570512D01*
X83398787Y54850130D01*
X83303603Y55116292D01*
X83236671Y55241514D01*
X82992702Y55313097D01*
X82179605Y54500000D01*
X81820395Y54500000D01*
X81007298Y55313097D01*
X80763329Y55241514D01*
X80642429Y54986004D01*
X80573700Y54711816D01*
X80559783Y54429488D01*
X37959351Y54429488D01*
X38069250Y54593963D01*
X38245267Y55018906D01*
X38335000Y55470023D01*
X38335000Y55492702D01*
X81186903Y55492702D01*
X82000000Y54679605D01*
X82813097Y55492702D01*
X82741514Y55736671D01*
X82486004Y55857571D01*
X82211816Y55926300D01*
X81929488Y55940217D01*
X81649870Y55898787D01*
X81383708Y55803603D01*
X81258486Y55736671D01*
X81186903Y55492702D01*
X38335000Y55492702D01*
X38335000Y55929977D01*
X38245267Y56381094D01*
X38069250Y56806037D01*
X37813713Y57188476D01*
X37488476Y57513713D01*
X37106037Y57769250D01*
X36681094Y57945267D01*
X36229977Y58035000D01*
X35770023Y58035000D01*
X35318906Y57945267D01*
X34893963Y57769250D01*
X34511524Y57513713D01*
X34186287Y57188476D01*
X33930750Y56806037D01*
X33754733Y56381094D01*
X33665000Y55929977D01*
X17496072Y55929977D01*
X17496072Y57458000D01*
X17483812Y57582482D01*
X17447502Y57702180D01*
X17388537Y57812494D01*
X17309185Y57909185D01*
X17212494Y57988537D01*
X17102180Y58047502D01*
X16982482Y58083812D01*
X16858000Y58096072D01*
X13142000Y58096072D01*
X13017518Y58083812D01*
X12897820Y58047502D01*
X12787506Y57988537D01*
X12690815Y57909185D01*
X12611463Y57812494D01*
X12552498Y57702180D01*
X12516188Y57582482D01*
X12503928Y57458000D01*
X660000Y57458000D01*
X660000Y58750000D01*
X7159025Y58750000D01*
X7182870Y58507898D01*
X7253489Y58275099D01*
X7368167Y58060551D01*
X7522498Y57872498D01*
X7710551Y57718167D01*
X7925099Y57603489D01*
X8157898Y57532870D01*
X8339335Y57515000D01*
X9660665Y57515000D01*
X9842102Y57532870D01*
X10074901Y57603489D01*
X10289449Y57718167D01*
X10477502Y57872498D01*
X10631833Y58060551D01*
X10746511Y58275099D01*
X10817130Y58507898D01*
X10840975Y58750000D01*
X10817130Y58992102D01*
X10746511Y59224901D01*
X10631833Y59439449D01*
X10477502Y59627502D01*
X10289449Y59781833D01*
X10074901Y59896511D01*
X9842102Y59967130D01*
X9660665Y59985000D01*
X8339335Y59985000D01*
X8157898Y59967130D01*
X7925099Y59896511D01*
X7710551Y59781833D01*
X7522498Y59627502D01*
X7368167Y59439449D01*
X7253489Y59224901D01*
X7182870Y58992102D01*
X7159025Y58750000D01*
X660000Y58750000D01*
X660000Y64640258D01*
X14028715Y64640258D01*
X14097904Y64357255D01*
X14220975Y64093188D01*
X14393198Y63858205D01*
X14607954Y63661336D01*
X14856991Y63510146D01*
X15130739Y63410446D01*
X15143110Y63408524D01*
X15373000Y63529845D01*
X15373000Y64873000D01*
X14172768Y64873000D01*
X14028715Y64640258D01*
X660000Y64640258D01*
X660000Y65359742D01*
X14028715Y65359742D01*
X14172768Y65127000D01*
X15373000Y65127000D01*
X15373000Y66470155D01*
X15627000Y66470155D01*
X15627000Y65127000D01*
X15647000Y65127000D01*
X15647000Y64873000D01*
X15627000Y64873000D01*
X15627000Y63529845D01*
X15856890Y63408524D01*
X15869261Y63410446D01*
X16143009Y63510146D01*
X16392046Y63661336D01*
X16606802Y63858205D01*
X16607086Y63858593D01*
X16661595Y63756614D01*
X16772038Y63622038D01*
X16906614Y63511595D01*
X17060150Y63429528D01*
X17226746Y63378992D01*
X17400000Y63361928D01*
X18600000Y63361928D01*
X18773254Y63378992D01*
X18939850Y63429528D01*
X19093386Y63511595D01*
X19227962Y63622038D01*
X19338405Y63756614D01*
X19420472Y63910150D01*
X19471008Y64076746D01*
X19488072Y64250000D01*
X19488072Y64640258D01*
X25028715Y64640258D01*
X25097904Y64357255D01*
X25220975Y64093188D01*
X25393198Y63858205D01*
X25607954Y63661336D01*
X25856991Y63510146D01*
X26130739Y63410446D01*
X26143110Y63408524D01*
X26373000Y63529845D01*
X26373000Y64873000D01*
X25172768Y64873000D01*
X25028715Y64640258D01*
X19488072Y64640258D01*
X19488072Y65359742D01*
X25028715Y65359742D01*
X25172768Y65127000D01*
X26373000Y65127000D01*
X26373000Y66470155D01*
X26627000Y66470155D01*
X26627000Y65127000D01*
X26647000Y65127000D01*
X26647000Y64873000D01*
X26627000Y64873000D01*
X26627000Y63529845D01*
X26856890Y63408524D01*
X26869261Y63410446D01*
X27143009Y63510146D01*
X27392046Y63661336D01*
X27606802Y63858205D01*
X27607086Y63858593D01*
X27661595Y63756614D01*
X27772038Y63622038D01*
X27906614Y63511595D01*
X28060150Y63429528D01*
X28226746Y63378992D01*
X28400000Y63361928D01*
X29600000Y63361928D01*
X29773254Y63378992D01*
X29939850Y63429528D01*
X30093386Y63511595D01*
X30227962Y63622038D01*
X30338405Y63756614D01*
X30420472Y63910150D01*
X30471008Y64076746D01*
X30488072Y64250000D01*
X30488072Y64640258D01*
X36028715Y64640258D01*
X36097904Y64357255D01*
X36220975Y64093188D01*
X36393198Y63858205D01*
X36607954Y63661336D01*
X36856991Y63510146D01*
X37130739Y63410446D01*
X37143110Y63408524D01*
X37373000Y63529845D01*
X37373000Y64873000D01*
X36172768Y64873000D01*
X36028715Y64640258D01*
X30488072Y64640258D01*
X30488072Y65359742D01*
X36028715Y65359742D01*
X36172768Y65127000D01*
X37373000Y65127000D01*
X37373000Y66470155D01*
X37627000Y66470155D01*
X37627000Y65127000D01*
X37647000Y65127000D01*
X37647000Y64873000D01*
X37627000Y64873000D01*
X37627000Y63529845D01*
X37856890Y63408524D01*
X37869261Y63410446D01*
X38143009Y63510146D01*
X38392046Y63661336D01*
X38606802Y63858205D01*
X38607086Y63858593D01*
X38661595Y63756614D01*
X38772038Y63622038D01*
X38906614Y63511595D01*
X39060150Y63429528D01*
X39226746Y63378992D01*
X39400000Y63361928D01*
X40600000Y63361928D01*
X40773254Y63378992D01*
X40939850Y63429528D01*
X41093386Y63511595D01*
X41227962Y63622038D01*
X41338405Y63756614D01*
X41420472Y63910150D01*
X41471008Y64076746D01*
X41488072Y64250000D01*
X41488072Y64640258D01*
X47028715Y64640258D01*
X47097904Y64357255D01*
X47220975Y64093188D01*
X47393198Y63858205D01*
X47607954Y63661336D01*
X47856991Y63510146D01*
X48130739Y63410446D01*
X48143110Y63408524D01*
X48373000Y63529845D01*
X48373000Y64873000D01*
X47172768Y64873000D01*
X47028715Y64640258D01*
X41488072Y64640258D01*
X41488072Y65359742D01*
X47028715Y65359742D01*
X47172768Y65127000D01*
X48373000Y65127000D01*
X48373000Y66470155D01*
X48627000Y66470155D01*
X48627000Y65127000D01*
X48647000Y65127000D01*
X48647000Y64873000D01*
X48627000Y64873000D01*
X48627000Y63529845D01*
X48856890Y63408524D01*
X48869261Y63410446D01*
X49143009Y63510146D01*
X49392046Y63661336D01*
X49606802Y63858205D01*
X49607086Y63858593D01*
X49661595Y63756614D01*
X49772038Y63622038D01*
X49906614Y63511595D01*
X50060150Y63429528D01*
X50226746Y63378992D01*
X50400000Y63361928D01*
X51600000Y63361928D01*
X51773254Y63378992D01*
X51939850Y63429528D01*
X52093386Y63511595D01*
X52227962Y63622038D01*
X52338405Y63756614D01*
X52420472Y63910150D01*
X52471008Y64076746D01*
X52488072Y64250000D01*
X52488072Y64640258D01*
X58028715Y64640258D01*
X58097904Y64357255D01*
X58220975Y64093188D01*
X58393198Y63858205D01*
X58607954Y63661336D01*
X58856991Y63510146D01*
X59130739Y63410446D01*
X59143110Y63408524D01*
X59373000Y63529845D01*
X59373000Y64873000D01*
X58172768Y64873000D01*
X58028715Y64640258D01*
X52488072Y64640258D01*
X52488072Y65359742D01*
X58028715Y65359742D01*
X58172768Y65127000D01*
X59373000Y65127000D01*
X59373000Y66470155D01*
X59627000Y66470155D01*
X59627000Y65127000D01*
X59647000Y65127000D01*
X59647000Y64873000D01*
X59627000Y64873000D01*
X59627000Y63529845D01*
X59856890Y63408524D01*
X59869261Y63410446D01*
X60143009Y63510146D01*
X60392046Y63661336D01*
X60606802Y63858205D01*
X60607086Y63858593D01*
X60661595Y63756614D01*
X60772038Y63622038D01*
X60906614Y63511595D01*
X61060150Y63429528D01*
X61226746Y63378992D01*
X61400000Y63361928D01*
X62600000Y63361928D01*
X62773254Y63378992D01*
X62939850Y63429528D01*
X63093386Y63511595D01*
X63227962Y63622038D01*
X63338405Y63756614D01*
X63420472Y63910150D01*
X63471008Y64076746D01*
X63488072Y64250000D01*
X63488072Y64640258D01*
X69028715Y64640258D01*
X69097904Y64357255D01*
X69220975Y64093188D01*
X69393198Y63858205D01*
X69607954Y63661336D01*
X69856991Y63510146D01*
X70130739Y63410446D01*
X70143110Y63408524D01*
X70373000Y63529845D01*
X70373000Y64873000D01*
X69172768Y64873000D01*
X69028715Y64640258D01*
X63488072Y64640258D01*
X63488072Y65359742D01*
X69028715Y65359742D01*
X69172768Y65127000D01*
X70373000Y65127000D01*
X70373000Y66470155D01*
X70627000Y66470155D01*
X70627000Y65127000D01*
X70647000Y65127000D01*
X70647000Y64873000D01*
X70627000Y64873000D01*
X70627000Y63529845D01*
X70856890Y63408524D01*
X70869261Y63410446D01*
X71143009Y63510146D01*
X71392046Y63661336D01*
X71606802Y63858205D01*
X71607086Y63858593D01*
X71661595Y63756614D01*
X71772038Y63622038D01*
X71906614Y63511595D01*
X72060150Y63429528D01*
X72226746Y63378992D01*
X72400000Y63361928D01*
X73600000Y63361928D01*
X73773254Y63378992D01*
X73939850Y63429528D01*
X74093386Y63511595D01*
X74227962Y63622038D01*
X74338405Y63756614D01*
X74420472Y63910150D01*
X74471008Y64076746D01*
X74488072Y64250000D01*
X74488072Y64640258D01*
X80028715Y64640258D01*
X80097904Y64357255D01*
X80220975Y64093188D01*
X80393198Y63858205D01*
X80607954Y63661336D01*
X80856991Y63510146D01*
X81130739Y63410446D01*
X81143110Y63408524D01*
X81373000Y63529845D01*
X81373000Y64873000D01*
X80172768Y64873000D01*
X80028715Y64640258D01*
X74488072Y64640258D01*
X74488072Y65359742D01*
X80028715Y65359742D01*
X80172768Y65127000D01*
X81373000Y65127000D01*
X81373000Y66470155D01*
X81627000Y66470155D01*
X81627000Y65127000D01*
X81647000Y65127000D01*
X81647000Y64873000D01*
X81627000Y64873000D01*
X81627000Y63529845D01*
X81856890Y63408524D01*
X81869261Y63410446D01*
X82143009Y63510146D01*
X82392046Y63661336D01*
X82606802Y63858205D01*
X82607086Y63858593D01*
X82661595Y63756614D01*
X82772038Y63622038D01*
X82906614Y63511595D01*
X83060150Y63429528D01*
X83226746Y63378992D01*
X83400000Y63361928D01*
X84600000Y63361928D01*
X84773254Y63378992D01*
X84939850Y63429528D01*
X85093386Y63511595D01*
X85227962Y63622038D01*
X85338405Y63756614D01*
X85420472Y63910150D01*
X85471008Y64076746D01*
X85488072Y64250000D01*
X85488072Y65750000D01*
X85471008Y65923254D01*
X85420472Y66089850D01*
X85338405Y66243386D01*
X85227962Y66377962D01*
X85093386Y66488405D01*
X84939850Y66570472D01*
X84773254Y66621008D01*
X84600000Y66638072D01*
X83400000Y66638072D01*
X83226746Y66621008D01*
X83060150Y66570472D01*
X82906614Y66488405D01*
X82772038Y66377962D01*
X82661595Y66243386D01*
X82607086Y66141407D01*
X82606802Y66141795D01*
X82392046Y66338664D01*
X82143009Y66489854D01*
X81869261Y66589554D01*
X81856890Y66591476D01*
X81627000Y66470155D01*
X81373000Y66470155D01*
X81143110Y66591476D01*
X81130739Y66589554D01*
X80856991Y66489854D01*
X80607954Y66338664D01*
X80393198Y66141795D01*
X80220975Y65906812D01*
X80097904Y65642745D01*
X80028715Y65359742D01*
X74488072Y65359742D01*
X74488072Y65750000D01*
X74471008Y65923254D01*
X74420472Y66089850D01*
X74338405Y66243386D01*
X74227962Y66377962D01*
X74093386Y66488405D01*
X73939850Y66570472D01*
X73773254Y66621008D01*
X73600000Y66638072D01*
X72400000Y66638072D01*
X72226746Y66621008D01*
X72060150Y66570472D01*
X71906614Y66488405D01*
X71772038Y66377962D01*
X71661595Y66243386D01*
X71607086Y66141407D01*
X71606802Y66141795D01*
X71392046Y66338664D01*
X71143009Y66489854D01*
X70869261Y66589554D01*
X70856890Y66591476D01*
X70627000Y66470155D01*
X70373000Y66470155D01*
X70143110Y66591476D01*
X70130739Y66589554D01*
X69856991Y66489854D01*
X69607954Y66338664D01*
X69393198Y66141795D01*
X69220975Y65906812D01*
X69097904Y65642745D01*
X69028715Y65359742D01*
X63488072Y65359742D01*
X63488072Y65750000D01*
X63471008Y65923254D01*
X63420472Y66089850D01*
X63338405Y66243386D01*
X63227962Y66377962D01*
X63093386Y66488405D01*
X62939850Y66570472D01*
X62773254Y66621008D01*
X62600000Y66638072D01*
X61400000Y66638072D01*
X61226746Y66621008D01*
X61060150Y66570472D01*
X60906614Y66488405D01*
X60772038Y66377962D01*
X60661595Y66243386D01*
X60607086Y66141407D01*
X60606802Y66141795D01*
X60392046Y66338664D01*
X60143009Y66489854D01*
X59869261Y66589554D01*
X59856890Y66591476D01*
X59627000Y66470155D01*
X59373000Y66470155D01*
X59143110Y66591476D01*
X59130739Y66589554D01*
X58856991Y66489854D01*
X58607954Y66338664D01*
X58393198Y66141795D01*
X58220975Y65906812D01*
X58097904Y65642745D01*
X58028715Y65359742D01*
X52488072Y65359742D01*
X52488072Y65750000D01*
X52471008Y65923254D01*
X52420472Y66089850D01*
X52338405Y66243386D01*
X52227962Y66377962D01*
X52093386Y66488405D01*
X51939850Y66570472D01*
X51773254Y66621008D01*
X51600000Y66638072D01*
X50400000Y66638072D01*
X50226746Y66621008D01*
X50060150Y66570472D01*
X49906614Y66488405D01*
X49772038Y66377962D01*
X49661595Y66243386D01*
X49607086Y66141407D01*
X49606802Y66141795D01*
X49392046Y66338664D01*
X49143009Y66489854D01*
X48869261Y66589554D01*
X48856890Y66591476D01*
X48627000Y66470155D01*
X48373000Y66470155D01*
X48143110Y66591476D01*
X48130739Y66589554D01*
X47856991Y66489854D01*
X47607954Y66338664D01*
X47393198Y66141795D01*
X47220975Y65906812D01*
X47097904Y65642745D01*
X47028715Y65359742D01*
X41488072Y65359742D01*
X41488072Y65750000D01*
X41471008Y65923254D01*
X41420472Y66089850D01*
X41338405Y66243386D01*
X41227962Y66377962D01*
X41093386Y66488405D01*
X40939850Y66570472D01*
X40773254Y66621008D01*
X40600000Y66638072D01*
X39400000Y66638072D01*
X39226746Y66621008D01*
X39060150Y66570472D01*
X38906614Y66488405D01*
X38772038Y66377962D01*
X38661595Y66243386D01*
X38607086Y66141407D01*
X38606802Y66141795D01*
X38392046Y66338664D01*
X38143009Y66489854D01*
X37869261Y66589554D01*
X37856890Y66591476D01*
X37627000Y66470155D01*
X37373000Y66470155D01*
X37143110Y66591476D01*
X37130739Y66589554D01*
X36856991Y66489854D01*
X36607954Y66338664D01*
X36393198Y66141795D01*
X36220975Y65906812D01*
X36097904Y65642745D01*
X36028715Y65359742D01*
X30488072Y65359742D01*
X30488072Y65750000D01*
X30471008Y65923254D01*
X30420472Y66089850D01*
X30338405Y66243386D01*
X30227962Y66377962D01*
X30093386Y66488405D01*
X29939850Y66570472D01*
X29773254Y66621008D01*
X29600000Y66638072D01*
X28400000Y66638072D01*
X28226746Y66621008D01*
X28060150Y66570472D01*
X27906614Y66488405D01*
X27772038Y66377962D01*
X27661595Y66243386D01*
X27607086Y66141407D01*
X27606802Y66141795D01*
X27392046Y66338664D01*
X27143009Y66489854D01*
X26869261Y66589554D01*
X26856890Y66591476D01*
X26627000Y66470155D01*
X26373000Y66470155D01*
X26143110Y66591476D01*
X26130739Y66589554D01*
X25856991Y66489854D01*
X25607954Y66338664D01*
X25393198Y66141795D01*
X25220975Y65906812D01*
X25097904Y65642745D01*
X25028715Y65359742D01*
X19488072Y65359742D01*
X19488072Y65750000D01*
X19471008Y65923254D01*
X19420472Y66089850D01*
X19338405Y66243386D01*
X19227962Y66377962D01*
X19093386Y66488405D01*
X18939850Y66570472D01*
X18773254Y66621008D01*
X18600000Y66638072D01*
X17400000Y66638072D01*
X17226746Y66621008D01*
X17060150Y66570472D01*
X16906614Y66488405D01*
X16772038Y66377962D01*
X16661595Y66243386D01*
X16607086Y66141407D01*
X16606802Y66141795D01*
X16392046Y66338664D01*
X16143009Y66489854D01*
X15869261Y66589554D01*
X15856890Y66591476D01*
X15627000Y66470155D01*
X15373000Y66470155D01*
X15143110Y66591476D01*
X15130739Y66589554D01*
X14856991Y66489854D01*
X14607954Y66338664D01*
X14393198Y66141795D01*
X14220975Y65906812D01*
X14097904Y65642745D01*
X14028715Y65359742D01*
X660000Y65359742D01*
X660000Y69967722D01*
X684748Y70220128D01*
X1765000Y70220128D01*
X1765000Y69779872D01*
X1850890Y69348075D01*
X2019369Y68941331D01*
X2263962Y68575271D01*
X2575271Y68263962D01*
X2941331Y68019369D01*
X3348075Y67850890D01*
X3779872Y67765000D01*
X4220128Y67765000D01*
X4651925Y67850890D01*
X5058669Y68019369D01*
X5424729Y68263962D01*
X5736038Y68575271D01*
X5980631Y68941331D01*
X6149110Y69348075D01*
X6235000Y69779872D01*
X6235000Y70220128D01*
X93765000Y70220128D01*
X93765000Y69779872D01*
X93850890Y69348075D01*
X94019369Y68941331D01*
X94263962Y68575271D01*
X94575271Y68263962D01*
X94941331Y68019369D01*
X95348075Y67850890D01*
X95779872Y67765000D01*
X96220128Y67765000D01*
X96651925Y67850890D01*
X97058669Y68019369D01*
X97424729Y68263962D01*
X97736038Y68575271D01*
X97980631Y68941331D01*
X98149110Y69348075D01*
X98235000Y69779872D01*
X98235000Y70220128D01*
X98149110Y70651925D01*
X97980631Y71058669D01*
X97736038Y71424729D01*
X97424729Y71736038D01*
X97058669Y71980631D01*
X96651925Y72149110D01*
X96220128Y72235000D01*
X95779872Y72235000D01*
X95348075Y72149110D01*
X94941331Y71980631D01*
X94575271Y71736038D01*
X94263962Y71424729D01*
X94019369Y71058669D01*
X93850890Y70651925D01*
X93765000Y70220128D01*
X6235000Y70220128D01*
X6149110Y70651925D01*
X5980631Y71058669D01*
X5736038Y71424729D01*
X5424729Y71736038D01*
X5058669Y71980631D01*
X4651925Y72149110D01*
X4220128Y72235000D01*
X3779872Y72235000D01*
X3348075Y72149110D01*
X2941331Y71980631D01*
X2575271Y71736038D01*
X2263962Y71424729D01*
X2019369Y71058669D01*
X1850890Y70651925D01*
X1765000Y70220128D01*
X684748Y70220128D01*
X726714Y70648126D01*
X914943Y71271572D01*
X1220681Y71846579D01*
X1632279Y72351247D01*
X2134067Y72766362D01*
X2706924Y73076105D01*
X3329039Y73268682D01*
X4007584Y73340000D01*
X95967722Y73340000D01*
X96648126Y73273286D01*
G37*
%TD.AperFunction*%
%TD*%
D28*
X96000000Y70000000D03*
X96000000Y4000000D03*
X4000000Y70000000D03*
X4000000Y4000000D03*
X81000000Y28500000D03*
X81000000Y41200000D03*
X46500000Y20500000D03*
X54120000Y20500000D03*
X71000000Y23500000D03*
X71000000Y20960000D03*
X70500000Y15500000D03*
X78120000Y15500000D03*
D29*
X36000000Y55700000D03*
X36000000Y48080000D03*
X36000000Y25760000D03*
X36000000Y18140000D03*
D28*
X15000000Y48400000D03*
X15000000Y55600000D03*
D30*
X9000000Y45250000D03*
X9000000Y58750000D03*
D28*
X15500000Y65000000D03*
X18000000Y65000000D03*
X8500000Y37000000D03*
X8500000Y34500000D03*
X8500000Y23500000D03*
X8500000Y26000000D03*
X8500000Y15000000D03*
X8500000Y12500000D03*
X18000000Y8000000D03*
X20500000Y8000000D03*
X29000000Y8000000D03*
X31500000Y8000000D03*
X42500000Y8000000D03*
X40000000Y8000000D03*
X29000000Y65000000D03*
X26500000Y65000000D03*
X37500000Y65000000D03*
X40000000Y65000000D03*
X51000000Y65000000D03*
X48500000Y65000000D03*
X59500000Y65000000D03*
X62000000Y65000000D03*
X73000000Y65000000D03*
X70500000Y65000000D03*
X81500000Y65000000D03*
X84000000Y65000000D03*
X86500000Y8000000D03*
X84000000Y8000000D03*
X73000000Y8000000D03*
X75500000Y8000000D03*
X64500000Y8000000D03*
X62000000Y8000000D03*
X51000000Y8000000D03*
X53500000Y8000000D03*
X16000000Y26380000D03*
X16000000Y34000000D03*
X16000000Y23000000D03*
X16000000Y15380000D03*
X73000000Y31000000D03*
X73000000Y38620000D03*
X54120000Y15500000D03*
X46500000Y15500000D03*
X58500000Y15500000D03*
X66120000Y15500000D03*
X82000000Y52000000D03*
X82000000Y54500000D03*
X25500000Y33000000D03*
X23000000Y33000000D03*
M02*
