M48
METRIC,TZ
T1C0.600
T2C0.750
T3C0.800
T4C0.900
T5C1.000
T6C1.300
T7C2.700
%
G90
G05
T2
X46500Y20500
X54120Y20500
T3
X16000Y34000
X16000Y26380
X16000Y23000
X16000Y15380
X23000Y33000
X25500Y33000
X46500Y15500
X54120Y15500
X58500Y15500
X66120Y15500
X70500Y15500
X73000Y38620
X73000Y31000
X78120Y15500
X82000Y54500
X82000Y52000
T4
X71000Y23500
X71000Y20960
T5
X8500Y37000
X8500Y34500
X8500Y26000
X8500Y23500
X8500Y15000
X8500Y12500
X15500Y65000
X18000Y65000
X18000Y8000
X20500Y8000
X26500Y65000
X29000Y65000
X29000Y8000
X31500Y8000
X37500Y65000
X40000Y65000
X40000Y8000
X42500Y8000
X48500Y65000
X51000Y65000
X51000Y8000
X53500Y8000
X59500Y65000
X62000Y65000
X62000Y8000
X64500Y8000
X70500Y65000
X73000Y65000
X73000Y8000
X75500Y8000
X81500Y65000
X84000Y65000
X84000Y8000
X86500Y8000
T6
X81000Y41200
X81000Y28500
T7
X15000Y55600
X15000Y48400
T1
G00X8450Y58750
M15
G01X9550Y58750
M16
G05
G00X8450Y45250
M15
G01X9550Y45250
M16
G05
T5
G00X36350Y55700
M15
G01X35650Y55700
M16
G05
G00X36350Y48080
M15
G01X35650Y48080
M16
G05
G00X36350Y25760
M15
G01X35650Y25760
M16
G05
G00X36350Y18140
M15
G01X35650Y18140
M16
G05
T0
M30
