M48
; DRILL file {KiCad (5.1.12)-1} date 03/31/22 16:19:31
; FORMAT={-:-/ absolute / metric / decimal}
; #@! TF.CreationDate,2022-03-31T16:19:31+09:00
; #@! TF.GenerationSoftware,Kicad,Pcbnew,(5.1.12)-1
; #@! TF.FileFunction,Plated,1,2,PTH
FMAT,2
METRIC
T1C0.600
T2C0.750
T3C0.800
T4C0.900
T5C1.000
T6C1.300
T7C2.700
%
G90
G05
T2
X46.5Y20.5
X54.12Y20.5
T3
X16.0Y34.0
X16.0Y26.38
X16.0Y23.0
X16.0Y15.38
X23.0Y33.0
X25.5Y33.0
X46.5Y15.5
X54.12Y15.5
X58.5Y15.5
X66.12Y15.5
X70.5Y15.5
X73.0Y38.62
X73.0Y31.0
X78.12Y15.5
X82.0Y54.5
X82.0Y52.0
T4
X71.0Y23.5
X71.0Y20.96
T5
X8.5Y37.0
X8.5Y34.5
X8.5Y26.0
X8.5Y23.5
X8.5Y15.0
X8.5Y12.5
X15.5Y65.0
X18.0Y65.0
X18.0Y8.0
X20.5Y8.0
X26.5Y65.0
X29.0Y65.0
X29.0Y8.0
X31.5Y8.0
X37.5Y65.0
X40.0Y65.0
X40.0Y8.0
X42.5Y8.0
X48.5Y65.0
X51.0Y65.0
X51.0Y8.0
X53.5Y8.0
X59.5Y65.0
X62.0Y65.0
X62.0Y8.0
X64.5Y8.0
X70.5Y65.0
X73.0Y65.0
X73.0Y8.0
X75.5Y8.0
X81.5Y65.0
X84.0Y65.0
X84.0Y8.0
X86.5Y8.0
T6
X81.0Y41.2
X81.0Y28.5
T7
X15.0Y55.6
X15.0Y48.4
T1
G00X8.45Y58.75
M15
G01X9.55Y58.75
M16
G05
G00X8.45Y45.25
M15
G01X9.55Y45.25
M16
G05
T5
G00X36.35Y55.7
M15
G01X35.65Y55.7
M16
G05
G00X36.35Y48.08
M15
G01X35.65Y48.08
M16
G05
G00X36.35Y25.76
M15
G01X35.65Y25.76
M16
G05
G00X36.35Y18.14
M15
G01X35.65Y18.14
M16
G05
T0
M30
